M48
; DRILL file {KiCad 9.0.7} date 2026-03-13T15:39:30-0400
; FORMAT={-:-/ absolute / metric / decimal}
; #@! TF.CreationDate,2026-03-13T15:39:30-04:00
; #@! TF.GenerationSoftware,Kicad,Pcbnew,9.0.7
; #@! TF.FileFunction,Plated,1,4,PTH
FMAT,2
METRIC
; #@! TA.AperFunction,Plated,PTH,ComponentDrill
T1C0.250
; #@! TA.AperFunction,Plated,PTH,ViaDrill
T2C0.711
; #@! TA.AperFunction,Plated,PTH,ComponentDrill
T3C1.000
; #@! TA.AperFunction,Plated,PTH,ComponentDrill
T4C3.200
%
G90
G05
T1
X118.572Y-72.942
X118.572Y-73.942
T2
X99.695Y-49.5
X114.935Y-77.47
X115.75Y-47.25
X117.475Y-77.47
X117.63Y-71.65
X124.975Y-74.55
X127.0Y-76.5
X131.5Y-46.5
X162.225Y-41.9
X169.189Y-72.622
X173.99Y-46.99
X185.239Y-59.947
X198.755Y-88.265
X198.755Y-90.17
X198.755Y-92.075
X198.755Y-93.98
T3
X108.0Y-59.5
X108.0Y-66.0
X119.364Y-66.047
X119.5Y-59.5
X122.5Y-31.96
X122.5Y-34.5
X122.5Y-37.04
X122.5Y-39.58
X140.11Y-22.87
X140.11Y-25.41
X140.11Y-27.95
X140.11Y-30.49
X140.11Y-33.03
X140.11Y-35.57
X140.11Y-38.11
X140.11Y-40.65
X140.11Y-43.19
X140.11Y-45.73
X140.11Y-48.27
X140.11Y-50.81
X140.11Y-53.35
X140.11Y-55.89
X140.11Y-58.43
X140.11Y-60.97
X140.11Y-63.51
X140.11Y-66.05
X140.11Y-68.59
X140.11Y-71.13
X157.89Y-22.87
X157.89Y-25.41
X157.89Y-27.95
X157.89Y-30.49
X157.89Y-33.03
X157.89Y-35.57
X157.89Y-38.11
X157.89Y-40.65
X157.89Y-43.19
X157.89Y-45.73
X157.89Y-48.27
X157.89Y-50.81
X157.89Y-53.35
X157.89Y-55.89
X157.89Y-58.43
X157.89Y-60.97
X157.89Y-63.51
X157.89Y-66.05
X157.89Y-68.59
X157.89Y-71.13
T4
X107.5Y-27.5
X107.5Y-102.5
X197.0Y-102.5
X197.5Y-27.5
M30
