%TF.GenerationSoftware,KiCad,Pcbnew,9.0.7*%
%TF.CreationDate,2026-03-13T15:17:04-04:00*%
%TF.ProjectId,capstone_pcb_mkIII,63617073-746f-46e6-955f-7063625f6d6b,rev?*%
%TF.SameCoordinates,Original*%
%TF.FileFunction,Copper,L4,Bot*%
%TF.FilePolarity,Positive*%
%FSLAX46Y46*%
G04 Gerber Fmt 4.6, Leading zero omitted, Abs format (unit mm)*
G04 Created by KiCad (PCBNEW 9.0.7) date 2026-03-13 15:17:04*
%MOMM*%
%LPD*%
G01*
G04 APERTURE LIST*
G04 Aperture macros list*
%AMRoundRect*
0 Rectangle with rounded corners*
0 $1 Rounding radius*
0 $2 $3 $4 $5 $6 $7 $8 $9 X,Y pos of 4 corners*
0 Add a 4 corners polygon primitive as box body*
4,1,4,$2,$3,$4,$5,$6,$7,$8,$9,$2,$3,0*
0 Add four circle primitives for the rounded corners*
1,1,$1+$1,$2,$3*
1,1,$1+$1,$4,$5*
1,1,$1+$1,$6,$7*
1,1,$1+$1,$8,$9*
0 Add four rect primitives between the rounded corners*
20,1,$1+$1,$2,$3,$4,$5,0*
20,1,$1+$1,$4,$5,$6,$7,0*
20,1,$1+$1,$6,$7,$8,$9,0*
20,1,$1+$1,$8,$9,$2,$3,0*%
%AMFreePoly0*
4,1,37,0.603843,0.796157,0.639018,0.796157,0.711114,0.766294,0.766294,0.711114,0.796157,0.639018,0.796157,0.603843,0.800000,0.600000,0.800000,-0.600000,0.796157,-0.603843,0.796157,-0.639018,0.766294,-0.711114,0.711114,-0.766294,0.639018,-0.796157,0.603843,-0.796157,0.600000,-0.800000,0.000000,-0.800000,0.000000,-0.796148,-0.078414,-0.796148,-0.232228,-0.765552,-0.377117,-0.705537,
-0.507515,-0.618408,-0.618408,-0.507515,-0.705537,-0.377117,-0.765552,-0.232228,-0.796148,-0.078414,-0.796148,0.078414,-0.765552,0.232228,-0.705537,0.377117,-0.618408,0.507515,-0.507515,0.618408,-0.377117,0.705537,-0.232228,0.765552,-0.078414,0.796148,0.000000,0.796148,0.000000,0.800000,0.600000,0.800000,0.603843,0.796157,0.603843,0.796157,$1*%
%AMFreePoly1*
4,1,37,0.000000,0.796148,0.078414,0.796148,0.232228,0.765552,0.377117,0.705537,0.507515,0.618408,0.618408,0.507515,0.705537,0.377117,0.765552,0.232228,0.796148,0.078414,0.796148,-0.078414,0.765552,-0.232228,0.705537,-0.377117,0.618408,-0.507515,0.507515,-0.618408,0.377117,-0.705537,0.232228,-0.765552,0.078414,-0.796148,0.000000,-0.796148,0.000000,-0.800000,-0.600000,-0.800000,
-0.603843,-0.796157,-0.639018,-0.796157,-0.711114,-0.766294,-0.766294,-0.711114,-0.796157,-0.639018,-0.796157,-0.603843,-0.800000,-0.600000,-0.800000,0.600000,-0.796157,0.603843,-0.796157,0.639018,-0.766294,0.711114,-0.711114,0.766294,-0.639018,0.796157,-0.603843,0.796157,-0.600000,0.800000,0.000000,0.800000,0.000000,0.796148,0.000000,0.796148,$1*%
G04 Aperture macros list end*
%TA.AperFunction,ComponentPad*%
%ADD10RoundRect,0.200000X-0.600000X-0.600000X0.600000X-0.600000X0.600000X0.600000X-0.600000X0.600000X0*%
%TD*%
%TA.AperFunction,ComponentPad*%
%ADD11C,1.600000*%
%TD*%
%TA.AperFunction,ComponentPad*%
%ADD12FreePoly0,0.000000*%
%TD*%
%TA.AperFunction,ComponentPad*%
%ADD13FreePoly1,0.000000*%
%TD*%
%TA.AperFunction,ComponentPad*%
%ADD14C,6.400000*%
%TD*%
%TA.AperFunction,ComponentPad*%
%ADD15R,1.700000X1.700000*%
%TD*%
%TA.AperFunction,HeatsinkPad*%
%ADD16C,0.600000*%
%TD*%
%TA.AperFunction,SMDPad,CuDef*%
%ADD17R,0.900000X1.600000*%
%TD*%
%TA.AperFunction,ComponentPad*%
%ADD18C,1.700000*%
%TD*%
%TA.AperFunction,ViaPad*%
%ADD19C,1.270000*%
%TD*%
G04 APERTURE END LIST*
D10*
%TO.P,A1,1,GPIO0*%
%TO.N,Net-(A1-GPIO0)*%
X140110000Y-22870000D03*
D11*
%TO.P,A1,2,GPIO1*%
%TO.N,Net-(A1-GPIO1)*%
X140110000Y-25410000D03*
D12*
%TO.P,A1,3,GND*%
%TO.N,GND*%
X140110000Y-27950000D03*
D11*
%TO.P,A1,4,GPIO2*%
%TO.N,unconnected-(A1-GPIO2-Pad4)*%
X140110000Y-30490000D03*
%TO.P,A1,5,GPIO3*%
%TO.N,unconnected-(A1-GPIO3-Pad5)_1*%
X140110000Y-33030000D03*
%TO.P,A1,6,GPIO4*%
%TO.N,unconnected-(A1-GPIO4-Pad6)_1*%
X140110000Y-35570000D03*
%TO.P,A1,7,GPIO5*%
%TO.N,unconnected-(A1-GPIO5-Pad7)_1*%
X140110000Y-38110000D03*
D12*
%TO.P,A1,8,GND*%
%TO.N,GND*%
X140110000Y-40650000D03*
D11*
%TO.P,A1,9,GPIO6*%
%TO.N,unconnected-(A1-GPIO6-Pad9)*%
X140110000Y-43190000D03*
%TO.P,A1,10,GPIO7*%
%TO.N,unconnected-(A1-GPIO7-Pad10)_1*%
X140110000Y-45730000D03*
%TO.P,A1,11,GPIO8*%
%TO.N,Net-(A1-GPIO8)*%
X140110000Y-48270000D03*
%TO.P,A1,12,GPIO9*%
%TO.N,Net-(A1-GPIO9)*%
X140110000Y-50810000D03*
D12*
%TO.P,A1,13,GND*%
%TO.N,GND*%
X140110000Y-53350000D03*
D11*
%TO.P,A1,14,GPIO10*%
%TO.N,unconnected-(A1-GPIO10-Pad14)_1*%
X140110000Y-55890000D03*
%TO.P,A1,15,GPIO11*%
%TO.N,unconnected-(A1-GPIO11-Pad15)*%
X140110000Y-58430000D03*
%TO.P,A1,16,GPIO12*%
%TO.N,Net-(A1-GPIO12)*%
X140110000Y-60970000D03*
%TO.P,A1,17,GPIO13*%
%TO.N,Net-(A1-GPIO13)*%
X140110000Y-63510000D03*
D12*
%TO.P,A1,18,GND*%
%TO.N,GND*%
X140110000Y-66050000D03*
D11*
%TO.P,A1,19,GPIO14*%
%TO.N,unconnected-(A1-GPIO14-Pad19)_1*%
X140110000Y-68590000D03*
%TO.P,A1,20,GPIO15*%
%TO.N,unconnected-(A1-GPIO15-Pad20)*%
X140110000Y-71130000D03*
%TO.P,A1,21,GPIO16*%
%TO.N,unconnected-(A1-GPIO16-Pad21)*%
X157890000Y-71130000D03*
%TO.P,A1,22,GPIO17*%
%TO.N,unconnected-(A1-GPIO17-Pad22)*%
X157890000Y-68590000D03*
D13*
%TO.P,A1,23,GND*%
%TO.N,GND*%
X157890000Y-66050000D03*
D11*
%TO.P,A1,24,GPIO18*%
%TO.N,Net-(A1-GPIO18)*%
X157890000Y-63510000D03*
%TO.P,A1,25,GPIO19*%
%TO.N,Net-(A1-GPIO19)*%
X157890000Y-60970000D03*
%TO.P,A1,26,GPIO20*%
%TO.N,unconnected-(A1-GPIO20-Pad26)*%
X157890000Y-58430000D03*
%TO.P,A1,27,GPIO21*%
%TO.N,unconnected-(A1-GPIO21-Pad27)_1*%
X157890000Y-55890000D03*
D13*
%TO.P,A1,28,GND*%
%TO.N,GND*%
X157890000Y-53350000D03*
D11*
%TO.P,A1,29,GPIO22*%
%TO.N,unconnected-(A1-GPIO22-Pad29)_1*%
X157890000Y-50810000D03*
%TO.P,A1,30,RUN*%
%TO.N,Net-(A1-RUN)*%
X157890000Y-48270000D03*
%TO.P,A1,31,GPIO26_ADC0*%
%TO.N,unconnected-(A1-GPIO26_ADC0-Pad31)*%
X157890000Y-45730000D03*
%TO.P,A1,32,GPIO27_ADC1*%
%TO.N,unconnected-(A1-GPIO27_ADC1-Pad32)*%
X157890000Y-43190000D03*
D13*
%TO.P,A1,33,AGND*%
%TO.N,unconnected-(A1-AGND-Pad33)*%
X157890000Y-40650000D03*
D11*
%TO.P,A1,34,GPIO28_ADC2*%
%TO.N,unconnected-(A1-GPIO28_ADC2-Pad34)_1*%
X157890000Y-38110000D03*
%TO.P,A1,35,ADC_VREF*%
%TO.N,unconnected-(A1-ADC_VREF-Pad35)*%
X157890000Y-35570000D03*
%TO.P,A1,36,3V3*%
%TO.N,V_BC*%
X157890000Y-33030000D03*
%TO.P,A1,37,3V3_EN*%
%TO.N,Net-(A1-3V3_EN)*%
X157890000Y-30490000D03*
D13*
%TO.P,A1,38,GND*%
%TO.N,GND*%
X157890000Y-27950000D03*
D11*
%TO.P,A1,39,VSYS*%
%TO.N,unconnected-(A1-VSYS-Pad39)*%
X157890000Y-25410000D03*
%TO.P,A1,40,VBUS*%
%TO.N,unconnected-(A1-VBUS-Pad40)_1*%
X157890000Y-22870000D03*
%TD*%
D14*
%TO.P,H3,1,1*%
%TO.N,GND*%
X107500000Y-102500000D03*
%TD*%
D15*
%TO.P,J4,1,Pin_1*%
%TO.N,GND*%
X108000000Y-66000000D03*
%TD*%
%TO.P,J5,1,Pin_1*%
%TO.N,V_BC*%
X108000000Y-59500000D03*
%TD*%
%TO.P,J2,1,Pin_1*%
%TO.N,Net-(A1-GPIO12)*%
X119500000Y-59500000D03*
%TD*%
D16*
%TO.P,U1,9,PAD*%
%TO.N,GND*%
X118572500Y-72942500D03*
D17*
X118572500Y-73442500D03*
D16*
X118572500Y-73942500D03*
%TD*%
D14*
%TO.P,H1,1,1*%
%TO.N,GND*%
X197500000Y-27500000D03*
%TD*%
%TO.P,H2,1,1*%
%TO.N,GND*%
X197000000Y-102500000D03*
%TD*%
D15*
%TO.P,J3,1,Pin_1*%
%TO.N,Net-(A1-GPIO13)*%
X119363612Y-66046776D03*
%TD*%
%TO.P,J1,1,Pin_1*%
%TO.N,V_BC*%
X122500000Y-31960000D03*
D18*
%TO.P,J1,2,Pin_2*%
%TO.N,GND*%
X122500000Y-34500000D03*
%TO.P,J1,3,Pin_3*%
%TO.N,Net-(J1-Pin_3)*%
X122500000Y-37040000D03*
%TO.P,J1,4,Pin_4*%
%TO.N,Net-(J1-Pin_4)*%
X122500000Y-39580000D03*
%TD*%
D14*
%TO.P,H4,1,1*%
%TO.N,GND*%
X107500000Y-27500000D03*
%TD*%
D19*
%TO.N,V_BC*%
X173990000Y-46990000D03*
%TO.N,GND*%
X117475000Y-77470000D03*
X198755000Y-90170000D03*
X198755000Y-88265000D03*
X115750000Y-47250000D03*
X198755000Y-92075000D03*
X185238612Y-59946776D03*
X127000000Y-76500000D03*
X198755000Y-93980000D03*
X114935000Y-77470000D03*
X162225000Y-41900000D03*
X117630000Y-71650000D03*
%TO.N,V_BC*%
X131500000Y-46500000D03*
X124975000Y-74550000D03*
X169188612Y-72621776D03*
X99695000Y-49500000D03*
%TD*%
%TA.AperFunction,Conductor*%
%TO.N,GND*%
G36*
X139006519Y-21570185D02*
G01*
X139052274Y-21622989D01*
X139062218Y-21692147D01*
X139033193Y-21755703D01*
X139027161Y-21762181D01*
X138954531Y-21834810D01*
X138954530Y-21834811D01*
X138866522Y-21980393D01*
X138815913Y-22142807D01*
X138809500Y-22213386D01*
X138809500Y-23526613D01*
X138815913Y-23597192D01*
X138866522Y-23759606D01*
X138954530Y-23905188D01*
X139074811Y-24025469D01*
X139074813Y-24025470D01*
X139074815Y-24025472D01*
X139220394Y-24113478D01*
X139307566Y-24140641D01*
X139365712Y-24179378D01*
X139393686Y-24243403D01*
X139382605Y-24312388D01*
X139343560Y-24359344D01*
X139262782Y-24418032D01*
X139118028Y-24562786D01*
X138997715Y-24728386D01*
X138904781Y-24910776D01*
X138841522Y-25105465D01*
X138809500Y-25307648D01*
X138809500Y-25512351D01*
X138841522Y-25714534D01*
X138904781Y-25909223D01*
X138997715Y-26091613D01*
X139118028Y-26257213D01*
X139262786Y-26401971D01*
X139428388Y-26522286D01*
X139428390Y-26522287D01*
X139514294Y-26566057D01*
X139565090Y-26614031D01*
X139581886Y-26681852D01*
X139559349Y-26747987D01*
X139516455Y-26785899D01*
X139450497Y-26821155D01*
X139381086Y-26867534D01*
X139381085Y-26867534D01*
X139980589Y-27467037D01*
X139917007Y-27484075D01*
X139802993Y-27549901D01*
X139709901Y-27642993D01*
X139644075Y-27757007D01*
X139627037Y-27820588D01*
X139027534Y-27221085D01*
X139027534Y-27221086D01*
X138981158Y-27290493D01*
X138934490Y-27377801D01*
X138874185Y-27523387D01*
X138845444Y-27618135D01*
X138814701Y-27772697D01*
X138814701Y-27772700D01*
X138805000Y-27871210D01*
X138805000Y-28028789D01*
X138814701Y-28127299D01*
X138814701Y-28127302D01*
X138845444Y-28281864D01*
X138874185Y-28376612D01*
X138934490Y-28522198D01*
X138981155Y-28609501D01*
X138981161Y-28609511D01*
X139027534Y-28678912D01*
X139627037Y-28079410D01*
X139644075Y-28142993D01*
X139709901Y-28257007D01*
X139802993Y-28350099D01*
X139917007Y-28415925D01*
X139980589Y-28432962D01*
X139381085Y-29032465D01*
X139450488Y-29078838D01*
X139450498Y-29078844D01*
X139516454Y-29114099D01*
X139566298Y-29163062D01*
X139581758Y-29231200D01*
X139557926Y-29296879D01*
X139514295Y-29333942D01*
X139428386Y-29377715D01*
X139262786Y-29498028D01*
X139118028Y-29642786D01*
X138997715Y-29808386D01*
X138904781Y-29990776D01*
X138841522Y-30185465D01*
X138809500Y-30387648D01*
X138809500Y-30592351D01*
X138841522Y-30794534D01*
X138904781Y-30989223D01*
X138997715Y-31171613D01*
X139118028Y-31337213D01*
X139262786Y-31481971D01*
X139417749Y-31594556D01*
X139428390Y-31602287D01*
X139519840Y-31648883D01*
X139521080Y-31649515D01*
X139571876Y-31697490D01*
X139588671Y-31765311D01*
X139566134Y-31831446D01*
X139521080Y-31870485D01*
X139428386Y-31917715D01*
X139262786Y-32038028D01*
X139118028Y-32182786D01*
X138997715Y-32348386D01*
X138904781Y-32530776D01*
X138841522Y-32725465D01*
X138809500Y-32927648D01*
X138809500Y-33132351D01*
X138841522Y-33334534D01*
X138904781Y-33529223D01*
X138997715Y-33711613D01*
X139118028Y-33877213D01*
X139262786Y-34021971D01*
X139370050Y-34099901D01*
X139428390Y-34142287D01*
X139509999Y-34183869D01*
X139521080Y-34189515D01*
X139571876Y-34237490D01*
X139588671Y-34305311D01*
X139566134Y-34371446D01*
X139521080Y-34410485D01*
X139428386Y-34457715D01*
X139262786Y-34578028D01*
X139118028Y-34722786D01*
X138997715Y-34888386D01*
X138904781Y-35070776D01*
X138841522Y-35265465D01*
X138809500Y-35467648D01*
X138809500Y-35672351D01*
X138841522Y-35874534D01*
X138904781Y-36069223D01*
X138997715Y-36251613D01*
X139118028Y-36417213D01*
X139262786Y-36561971D01*
X139417749Y-36674556D01*
X139428390Y-36682287D01*
X139509785Y-36723760D01*
X139521080Y-36729515D01*
X139571876Y-36777490D01*
X139588671Y-36845311D01*
X139566134Y-36911446D01*
X139521080Y-36950485D01*
X139428386Y-36997715D01*
X139262786Y-37118028D01*
X139118028Y-37262786D01*
X138997715Y-37428386D01*
X138904781Y-37610776D01*
X138841522Y-37805465D01*
X138809500Y-38007648D01*
X138809500Y-38212351D01*
X138841522Y-38414534D01*
X138904781Y-38609223D01*
X138997715Y-38791613D01*
X139118028Y-38957213D01*
X139262786Y-39101971D01*
X139428388Y-39222286D01*
X139428390Y-39222287D01*
X139514294Y-39266057D01*
X139565090Y-39314031D01*
X139581886Y-39381852D01*
X139559349Y-39447987D01*
X139516455Y-39485899D01*
X139450497Y-39521155D01*
X139381086Y-39567534D01*
X139381085Y-39567534D01*
X139980589Y-40167037D01*
X139917007Y-40184075D01*
X139802993Y-40249901D01*
X139709901Y-40342993D01*
X139644075Y-40457007D01*
X139627037Y-40520588D01*
X139027534Y-39921085D01*
X139027534Y-39921086D01*
X138981158Y-39990493D01*
X138934490Y-40077801D01*
X138874185Y-40223387D01*
X138845444Y-40318135D01*
X138814701Y-40472697D01*
X138814701Y-40472700D01*
X138805000Y-40571210D01*
X138805000Y-40728789D01*
X138814701Y-40827299D01*
X138814701Y-40827302D01*
X138845444Y-40981864D01*
X138874185Y-41076612D01*
X138934490Y-41222198D01*
X138981155Y-41309501D01*
X138981161Y-41309511D01*
X139027534Y-41378912D01*
X139627037Y-40779410D01*
X139644075Y-40842993D01*
X139709901Y-40957007D01*
X139802993Y-41050099D01*
X139917007Y-41115925D01*
X139980589Y-41132962D01*
X139381085Y-41732465D01*
X139450488Y-41778838D01*
X139450498Y-41778844D01*
X139516454Y-41814099D01*
X139566298Y-41863062D01*
X139581758Y-41931200D01*
X139557926Y-41996879D01*
X139514295Y-42033942D01*
X139428386Y-42077715D01*
X139262786Y-42198028D01*
X139118028Y-42342786D01*
X138997715Y-42508386D01*
X138904781Y-42690776D01*
X138841522Y-42885465D01*
X138809500Y-43087648D01*
X138809500Y-43292351D01*
X138841522Y-43494534D01*
X138904781Y-43689223D01*
X138997715Y-43871613D01*
X139118028Y-44037213D01*
X139262786Y-44181971D01*
X139417749Y-44294556D01*
X139428390Y-44302287D01*
X139519840Y-44348883D01*
X139521080Y-44349515D01*
X139571876Y-44397490D01*
X139588671Y-44465311D01*
X139566134Y-44531446D01*
X139521080Y-44570485D01*
X139428386Y-44617715D01*
X139262786Y-44738028D01*
X139118028Y-44882786D01*
X138997715Y-45048386D01*
X138904781Y-45230776D01*
X138841522Y-45425465D01*
X138809500Y-45627648D01*
X138809500Y-45832351D01*
X138841522Y-46034534D01*
X138904781Y-46229223D01*
X138997715Y-46411613D01*
X139118028Y-46577213D01*
X139262786Y-46721971D01*
X139417749Y-46834556D01*
X139428390Y-46842287D01*
X139519840Y-46888883D01*
X139521080Y-46889515D01*
X139571876Y-46937490D01*
X139588671Y-47005311D01*
X139566134Y-47071446D01*
X139521080Y-47110485D01*
X139428386Y-47157715D01*
X139262786Y-47278028D01*
X139118028Y-47422786D01*
X138997715Y-47588386D01*
X138904781Y-47770776D01*
X138841522Y-47965465D01*
X138809500Y-48167648D01*
X138809500Y-48372351D01*
X138841522Y-48574534D01*
X138904781Y-48769223D01*
X138997715Y-48951613D01*
X139118028Y-49117213D01*
X139262786Y-49261971D01*
X139417749Y-49374556D01*
X139428390Y-49382287D01*
X139519840Y-49428883D01*
X139521080Y-49429515D01*
X139571876Y-49477490D01*
X139588671Y-49545311D01*
X139566134Y-49611446D01*
X139521080Y-49650485D01*
X139428386Y-49697715D01*
X139262786Y-49818028D01*
X139118028Y-49962786D01*
X138997715Y-50128386D01*
X138904781Y-50310776D01*
X138841522Y-50505465D01*
X138809500Y-50707648D01*
X138809500Y-50912351D01*
X138841522Y-51114534D01*
X138904781Y-51309223D01*
X138997715Y-51491613D01*
X139118028Y-51657213D01*
X139262786Y-51801971D01*
X139428388Y-51922286D01*
X139428390Y-51922287D01*
X139514294Y-51966057D01*
X139565090Y-52014031D01*
X139581886Y-52081852D01*
X139559349Y-52147987D01*
X139516455Y-52185899D01*
X139450497Y-52221155D01*
X139381086Y-52267534D01*
X139381085Y-52267534D01*
X139980589Y-52867037D01*
X139917007Y-52884075D01*
X139802993Y-52949901D01*
X139709901Y-53042993D01*
X139644075Y-53157007D01*
X139627037Y-53220588D01*
X139027534Y-52621085D01*
X139027534Y-52621086D01*
X138981158Y-52690493D01*
X138934490Y-52777801D01*
X138874185Y-52923387D01*
X138845444Y-53018135D01*
X138814701Y-53172697D01*
X138814701Y-53172700D01*
X138805000Y-53271210D01*
X138805000Y-53428789D01*
X138814701Y-53527299D01*
X138814701Y-53527302D01*
X138845444Y-53681864D01*
X138874185Y-53776612D01*
X138934490Y-53922198D01*
X138981155Y-54009501D01*
X138981161Y-54009511D01*
X139027534Y-54078912D01*
X139627037Y-53479410D01*
X139644075Y-53542993D01*
X139709901Y-53657007D01*
X139802993Y-53750099D01*
X139917007Y-53815925D01*
X139980589Y-53832962D01*
X139381085Y-54432465D01*
X139450488Y-54478838D01*
X139450498Y-54478844D01*
X139516454Y-54514099D01*
X139566298Y-54563062D01*
X139581758Y-54631200D01*
X139557926Y-54696879D01*
X139514295Y-54733942D01*
X139428386Y-54777715D01*
X139262786Y-54898028D01*
X139118028Y-55042786D01*
X138997715Y-55208386D01*
X138904781Y-55390776D01*
X138841522Y-55585465D01*
X138809500Y-55787648D01*
X138809500Y-55992351D01*
X138841522Y-56194534D01*
X138904781Y-56389223D01*
X138997715Y-56571613D01*
X139118028Y-56737213D01*
X139262786Y-56881971D01*
X139417749Y-56994556D01*
X139428390Y-57002287D01*
X139519840Y-57048883D01*
X139521080Y-57049515D01*
X139571876Y-57097490D01*
X139588671Y-57165311D01*
X139566134Y-57231446D01*
X139521080Y-57270485D01*
X139428386Y-57317715D01*
X139262786Y-57438028D01*
X139118028Y-57582786D01*
X138997715Y-57748386D01*
X138904781Y-57930776D01*
X138841522Y-58125465D01*
X138809500Y-58327648D01*
X138809500Y-58532351D01*
X138841522Y-58734534D01*
X138904781Y-58929223D01*
X138997715Y-59111613D01*
X139118028Y-59277213D01*
X139262786Y-59421971D01*
X139417749Y-59534556D01*
X139428390Y-59542287D01*
X139519840Y-59588883D01*
X139521080Y-59589515D01*
X139571876Y-59637490D01*
X139588671Y-59705311D01*
X139566134Y-59771446D01*
X139521080Y-59810485D01*
X139428386Y-59857715D01*
X139262786Y-59978028D01*
X139118028Y-60122786D01*
X138997715Y-60288386D01*
X138904781Y-60470776D01*
X138841522Y-60665465D01*
X138809500Y-60867648D01*
X138809500Y-61072351D01*
X138841522Y-61274534D01*
X138904781Y-61469223D01*
X138997715Y-61651613D01*
X139118028Y-61817213D01*
X139262786Y-61961971D01*
X139417749Y-62074556D01*
X139428390Y-62082287D01*
X139519840Y-62128883D01*
X139521080Y-62129515D01*
X139571876Y-62177490D01*
X139588671Y-62245311D01*
X139566134Y-62311446D01*
X139521080Y-62350485D01*
X139428386Y-62397715D01*
X139262786Y-62518028D01*
X139118028Y-62662786D01*
X138997715Y-62828386D01*
X138904781Y-63010776D01*
X138841522Y-63205465D01*
X138809500Y-63407648D01*
X138809500Y-63612351D01*
X138841522Y-63814534D01*
X138904781Y-64009223D01*
X138997715Y-64191613D01*
X139118028Y-64357213D01*
X139262786Y-64501971D01*
X139428388Y-64622286D01*
X139428390Y-64622287D01*
X139514294Y-64666057D01*
X139565090Y-64714031D01*
X139581886Y-64781852D01*
X139559349Y-64847987D01*
X139516455Y-64885899D01*
X139450497Y-64921155D01*
X139381086Y-64967534D01*
X139381085Y-64967534D01*
X139980589Y-65567037D01*
X139917007Y-65584075D01*
X139802993Y-65649901D01*
X139709901Y-65742993D01*
X139644075Y-65857007D01*
X139627037Y-65920588D01*
X139027534Y-65321085D01*
X139027534Y-65321086D01*
X138981158Y-65390493D01*
X138934490Y-65477801D01*
X138874185Y-65623387D01*
X138845444Y-65718135D01*
X138814701Y-65872697D01*
X138814701Y-65872700D01*
X138805000Y-65971210D01*
X138805000Y-66128789D01*
X138814701Y-66227299D01*
X138814701Y-66227302D01*
X138845444Y-66381864D01*
X138874185Y-66476612D01*
X138934490Y-66622198D01*
X138981155Y-66709501D01*
X138981161Y-66709511D01*
X139027534Y-66778912D01*
X139627037Y-66179410D01*
X139644075Y-66242993D01*
X139709901Y-66357007D01*
X139802993Y-66450099D01*
X139917007Y-66515925D01*
X139980589Y-66532962D01*
X139381085Y-67132465D01*
X139450488Y-67178838D01*
X139450498Y-67178844D01*
X139516454Y-67214099D01*
X139566298Y-67263062D01*
X139581758Y-67331200D01*
X139557926Y-67396879D01*
X139514295Y-67433942D01*
X139428386Y-67477715D01*
X139262786Y-67598028D01*
X139118028Y-67742786D01*
X138997715Y-67908386D01*
X138904781Y-68090776D01*
X138841522Y-68285465D01*
X138809500Y-68487648D01*
X138809500Y-68692351D01*
X138841522Y-68894534D01*
X138904781Y-69089223D01*
X138997715Y-69271613D01*
X139118028Y-69437213D01*
X139262786Y-69581971D01*
X139417749Y-69694556D01*
X139428390Y-69702287D01*
X139519840Y-69748883D01*
X139521080Y-69749515D01*
X139571876Y-69797490D01*
X139588671Y-69865311D01*
X139566134Y-69931446D01*
X139521080Y-69970485D01*
X139428386Y-70017715D01*
X139262786Y-70138028D01*
X139118028Y-70282786D01*
X138997715Y-70448386D01*
X138904781Y-70630776D01*
X138841522Y-70825465D01*
X138809500Y-71027648D01*
X138809500Y-71232351D01*
X138841522Y-71434534D01*
X138904781Y-71629223D01*
X138997715Y-71811613D01*
X139118028Y-71977213D01*
X139262786Y-72121971D01*
X139369015Y-72199149D01*
X139428390Y-72242287D01*
X139544607Y-72301503D01*
X139610776Y-72335218D01*
X139610778Y-72335218D01*
X139610781Y-72335220D01*
X139674357Y-72355877D01*
X139805465Y-72398477D01*
X139847060Y-72405065D01*
X140007648Y-72430500D01*
X140007649Y-72430500D01*
X140212351Y-72430500D01*
X140212352Y-72430500D01*
X140414534Y-72398477D01*
X140609219Y-72335220D01*
X140791610Y-72242287D01*
X140884590Y-72174732D01*
X140957213Y-72121971D01*
X140957215Y-72121968D01*
X140957219Y-72121966D01*
X141101966Y-71977219D01*
X141101968Y-71977215D01*
X141101971Y-71977213D01*
X141171111Y-71882048D01*
X141222287Y-71811610D01*
X141315220Y-71629219D01*
X141378477Y-71434534D01*
X141410500Y-71232352D01*
X141410500Y-71027648D01*
X141378477Y-70825466D01*
X141315220Y-70630781D01*
X141315218Y-70630778D01*
X141315218Y-70630776D01*
X141281503Y-70564607D01*
X141222287Y-70448390D01*
X141214556Y-70437749D01*
X141101971Y-70282786D01*
X140957213Y-70138028D01*
X140791614Y-70017715D01*
X140785006Y-70014348D01*
X140698917Y-69970483D01*
X140648123Y-69922511D01*
X140631328Y-69854690D01*
X140653865Y-69788555D01*
X140698917Y-69749516D01*
X140791610Y-69702287D01*
X140812770Y-69686913D01*
X140957213Y-69581971D01*
X140957215Y-69581968D01*
X140957219Y-69581966D01*
X141101966Y-69437219D01*
X141101968Y-69437215D01*
X141101971Y-69437213D01*
X141154732Y-69364590D01*
X141222287Y-69271610D01*
X141315220Y-69089219D01*
X141378477Y-68894534D01*
X141410500Y-68692352D01*
X141410500Y-68487648D01*
X141387098Y-68339895D01*
X141900000Y-68339895D01*
X146552057Y-71952663D01*
X146592931Y-72009327D01*
X146600000Y-72050597D01*
X146600000Y-73000000D01*
X151400000Y-73000000D01*
X151400000Y-72532410D01*
X168053112Y-72532410D01*
X168053112Y-72711141D01*
X168081072Y-72887674D01*
X168081072Y-72887677D01*
X168136301Y-73057654D01*
X168136303Y-73057657D01*
X168217445Y-73216908D01*
X168322501Y-73361504D01*
X168448884Y-73487887D01*
X168593480Y-73592943D01*
X168752731Y-73674085D01*
X168752733Y-73674086D01*
X168911282Y-73725601D01*
X168922715Y-73729316D01*
X169099246Y-73757276D01*
X169099247Y-73757276D01*
X169277977Y-73757276D01*
X169277978Y-73757276D01*
X169454509Y-73729316D01*
X169454512Y-73729315D01*
X169454513Y-73729315D01*
X169624490Y-73674086D01*
X169624490Y-73674085D01*
X169624493Y-73674085D01*
X169783744Y-73592943D01*
X169928340Y-73487887D01*
X170054723Y-73361504D01*
X170159779Y-73216908D01*
X170240921Y-73057657D01*
X170270259Y-72967364D01*
X170296151Y-72887677D01*
X170296151Y-72887676D01*
X170296152Y-72887673D01*
X170324112Y-72711142D01*
X170324112Y-72532410D01*
X170296152Y-72355879D01*
X170296151Y-72355875D01*
X170296151Y-72355874D01*
X170240922Y-72185897D01*
X170240920Y-72185894D01*
X170222073Y-72148903D01*
X170159779Y-72026644D01*
X170054723Y-71882048D01*
X169928340Y-71755665D01*
X169783744Y-71650609D01*
X169624493Y-71569467D01*
X169624490Y-71569465D01*
X169454511Y-71514236D01*
X169336821Y-71495596D01*
X169277978Y-71486276D01*
X169099246Y-71486276D01*
X169040402Y-71495596D01*
X168922713Y-71514236D01*
X168922710Y-71514236D01*
X168752733Y-71569465D01*
X168752730Y-71569467D01*
X168593479Y-71650609D01*
X168448882Y-71755666D01*
X168322502Y-71882046D01*
X168217445Y-72026643D01*
X168136303Y-72185894D01*
X168136301Y-72185897D01*
X168081072Y-72355874D01*
X168081072Y-72355877D01*
X168053112Y-72532410D01*
X151400000Y-72532410D01*
X151400000Y-72050597D01*
X151419685Y-71983558D01*
X151447941Y-71952664D01*
X156100000Y-68339895D01*
X156100000Y-64000000D01*
X141900000Y-64000000D01*
X141900000Y-68339895D01*
X141387098Y-68339895D01*
X141378477Y-68285466D01*
X141315220Y-68090781D01*
X141315218Y-68090778D01*
X141315218Y-68090776D01*
X141281503Y-68024607D01*
X141222287Y-67908390D01*
X141214556Y-67897749D01*
X141101971Y-67742786D01*
X140957217Y-67598032D01*
X140880415Y-67542232D01*
X140837750Y-67486902D01*
X140831771Y-67417288D01*
X140864377Y-67355494D01*
X140922640Y-67321765D01*
X140943039Y-67316559D01*
X140999584Y-67293136D01*
X140999584Y-67293135D01*
X140239410Y-66532962D01*
X140302993Y-66515925D01*
X140417007Y-66450099D01*
X140510099Y-66357007D01*
X140575925Y-66242993D01*
X140592962Y-66179411D01*
X141353135Y-66939584D01*
X141353136Y-66939584D01*
X141376552Y-66883053D01*
X141394544Y-66832053D01*
X141414999Y-66689780D01*
X141415000Y-66689779D01*
X141415000Y-65410214D01*
X141412106Y-65356237D01*
X141412106Y-65356235D01*
X141376561Y-65216969D01*
X141376559Y-65216962D01*
X141353135Y-65160414D01*
X140592962Y-65920588D01*
X140575925Y-65857007D01*
X140510099Y-65742993D01*
X140417007Y-65649901D01*
X140302993Y-65584075D01*
X140239410Y-65567037D01*
X140999584Y-64806862D01*
X140943059Y-64783449D01*
X140943048Y-64783445D01*
X140914374Y-64773329D01*
X140857703Y-64732462D01*
X140832122Y-64667443D01*
X140845754Y-64598916D01*
X140882745Y-64556074D01*
X140957215Y-64501969D01*
X140957215Y-64501968D01*
X140957219Y-64501966D01*
X141101966Y-64357219D01*
X141101968Y-64357215D01*
X141101971Y-64357213D01*
X141154732Y-64284590D01*
X141222287Y-64191610D01*
X141315220Y-64009219D01*
X141378477Y-63814534D01*
X141410500Y-63612352D01*
X141410500Y-63407648D01*
X141378477Y-63205466D01*
X141315220Y-63010781D01*
X141315218Y-63010778D01*
X141315218Y-63010776D01*
X141281503Y-62944607D01*
X141222287Y-62828390D01*
X141214556Y-62817749D01*
X141101971Y-62662786D01*
X140957213Y-62518028D01*
X140791614Y-62397715D01*
X140785006Y-62394348D01*
X140698917Y-62350483D01*
X140648123Y-62302511D01*
X140631328Y-62234690D01*
X140653865Y-62168555D01*
X140698917Y-62129516D01*
X140791610Y-62082287D01*
X140812770Y-62066913D01*
X140957213Y-61961971D01*
X140957215Y-61961968D01*
X140957219Y-61961966D01*
X141101966Y-61817219D01*
X141101968Y-61817215D01*
X141101971Y-61817213D01*
X141154732Y-61744590D01*
X141222287Y-61651610D01*
X141315220Y-61469219D01*
X141378477Y-61274534D01*
X141410500Y-61072352D01*
X141410500Y-60867648D01*
X141378477Y-60665466D01*
X141315220Y-60470781D01*
X141315218Y-60470778D01*
X141315218Y-60470776D01*
X141278067Y-60397864D01*
X141222287Y-60288390D01*
X141214556Y-60277749D01*
X141101971Y-60122786D01*
X140957213Y-59978028D01*
X140791614Y-59857715D01*
X140785006Y-59854348D01*
X140698917Y-59810483D01*
X140648123Y-59762511D01*
X140631328Y-59694690D01*
X140653865Y-59628555D01*
X140698917Y-59589516D01*
X140791610Y-59542287D01*
X140812770Y-59526913D01*
X140957213Y-59421971D01*
X140957215Y-59421968D01*
X140957219Y-59421966D01*
X141101966Y-59277219D01*
X141101968Y-59277215D01*
X141101971Y-59277213D01*
X141154732Y-59204590D01*
X141222287Y-59111610D01*
X141315220Y-58929219D01*
X141378477Y-58734534D01*
X141410500Y-58532352D01*
X141410500Y-58327648D01*
X141378477Y-58125466D01*
X141315220Y-57930781D01*
X141315218Y-57930778D01*
X141315218Y-57930776D01*
X141281503Y-57864607D01*
X141222287Y-57748390D01*
X141214556Y-57737749D01*
X141101971Y-57582786D01*
X140957213Y-57438028D01*
X140791614Y-57317715D01*
X140785006Y-57314348D01*
X140698917Y-57270483D01*
X140648123Y-57222511D01*
X140631328Y-57154690D01*
X140653865Y-57088555D01*
X140698917Y-57049516D01*
X140791610Y-57002287D01*
X140812770Y-56986913D01*
X140957213Y-56881971D01*
X140957215Y-56881968D01*
X140957219Y-56881966D01*
X141101966Y-56737219D01*
X141101968Y-56737215D01*
X141101971Y-56737213D01*
X141154732Y-56664590D01*
X141222287Y-56571610D01*
X141315220Y-56389219D01*
X141378477Y-56194534D01*
X141410500Y-55992352D01*
X141410500Y-55787648D01*
X141378477Y-55585466D01*
X141315220Y-55390781D01*
X141315218Y-55390778D01*
X141315218Y-55390776D01*
X141281503Y-55324607D01*
X141222287Y-55208390D01*
X141214556Y-55197749D01*
X141101971Y-55042786D01*
X140957217Y-54898032D01*
X140880415Y-54842232D01*
X140837750Y-54786902D01*
X140831771Y-54717288D01*
X140864377Y-54655494D01*
X140922640Y-54621765D01*
X140943039Y-54616559D01*
X140999584Y-54593136D01*
X140999584Y-54593135D01*
X140239410Y-53832962D01*
X140302993Y-53815925D01*
X140417007Y-53750099D01*
X140510099Y-53657007D01*
X140575925Y-53542993D01*
X140592962Y-53479411D01*
X141353135Y-54239584D01*
X141353136Y-54239584D01*
X141376552Y-54183053D01*
X141394544Y-54132053D01*
X141414999Y-53989780D01*
X141415000Y-53989779D01*
X141415000Y-52710224D01*
X141414999Y-52710204D01*
X141412106Y-52656237D01*
X141412106Y-52656235D01*
X141376561Y-52516969D01*
X141376559Y-52516962D01*
X141353135Y-52460414D01*
X140592962Y-53220588D01*
X140575925Y-53157007D01*
X140510099Y-53042993D01*
X140417007Y-52949901D01*
X140302993Y-52884075D01*
X140239410Y-52867037D01*
X140999584Y-52106862D01*
X140943059Y-52083449D01*
X140943048Y-52083445D01*
X140914374Y-52073329D01*
X140857703Y-52032462D01*
X140832122Y-51967443D01*
X140845754Y-51898916D01*
X140882745Y-51856074D01*
X140957215Y-51801969D01*
X140957215Y-51801968D01*
X140957219Y-51801966D01*
X141101966Y-51657219D01*
X141101968Y-51657215D01*
X141101971Y-51657213D01*
X141154732Y-51584590D01*
X141222287Y-51491610D01*
X141315220Y-51309219D01*
X141378477Y-51114534D01*
X141410500Y-50912352D01*
X141410500Y-50707648D01*
X141394644Y-50607539D01*
X141378477Y-50505465D01*
X141315218Y-50310776D01*
X141279017Y-50239728D01*
X141222287Y-50128390D01*
X141198124Y-50095132D01*
X141101971Y-49962786D01*
X140957213Y-49818028D01*
X140791614Y-49697715D01*
X140785006Y-49694348D01*
X140698917Y-49650483D01*
X140648123Y-49602511D01*
X140631328Y-49534690D01*
X140653865Y-49468555D01*
X140698917Y-49429516D01*
X140791610Y-49382287D01*
X140812770Y-49366913D01*
X140957213Y-49261971D01*
X140957215Y-49261968D01*
X140957219Y-49261966D01*
X141101966Y-49117219D01*
X141101968Y-49117215D01*
X141101971Y-49117213D01*
X141172224Y-49020516D01*
X141222287Y-48951610D01*
X141315220Y-48769219D01*
X141378477Y-48574534D01*
X141410500Y-48372352D01*
X141410500Y-48167648D01*
X141378477Y-47965466D01*
X141315220Y-47770781D01*
X141315218Y-47770778D01*
X141315218Y-47770776D01*
X141281503Y-47704607D01*
X141222287Y-47588390D01*
X141196072Y-47552308D01*
X141101971Y-47422786D01*
X140957213Y-47278028D01*
X140791614Y-47157715D01*
X140785006Y-47154348D01*
X140698917Y-47110483D01*
X140648123Y-47062511D01*
X140631328Y-46994690D01*
X140653865Y-46928555D01*
X140698917Y-46889516D01*
X140791610Y-46842287D01*
X140812770Y-46826913D01*
X140957213Y-46721971D01*
X140957215Y-46721968D01*
X140957219Y-46721966D01*
X141101966Y-46577219D01*
X141101968Y-46577215D01*
X141101971Y-46577213D01*
X141154732Y-46504590D01*
X141222287Y-46411610D01*
X141315220Y-46229219D01*
X141378477Y-46034534D01*
X141410500Y-45832352D01*
X141410500Y-45627648D01*
X141378477Y-45425466D01*
X141315220Y-45230781D01*
X141315218Y-45230778D01*
X141315218Y-45230776D01*
X141281503Y-45164607D01*
X141222287Y-45048390D01*
X141214556Y-45037749D01*
X141101971Y-44882786D01*
X140957213Y-44738028D01*
X140791614Y-44617715D01*
X140785006Y-44614348D01*
X140698917Y-44570483D01*
X140648123Y-44522511D01*
X140631328Y-44454690D01*
X140653865Y-44388555D01*
X140698917Y-44349516D01*
X140791610Y-44302287D01*
X140812770Y-44286913D01*
X140957213Y-44181971D01*
X140957215Y-44181968D01*
X140957219Y-44181966D01*
X141101966Y-44037219D01*
X141101968Y-44037215D01*
X141101971Y-44037213D01*
X141154732Y-43964590D01*
X141222287Y-43871610D01*
X141315220Y-43689219D01*
X141378477Y-43494534D01*
X141410500Y-43292352D01*
X141410500Y-43087648D01*
X141378477Y-42885466D01*
X141315220Y-42690781D01*
X141315218Y-42690778D01*
X141315218Y-42690776D01*
X141281503Y-42624607D01*
X141222287Y-42508390D01*
X141214556Y-42497749D01*
X141101971Y-42342786D01*
X140957217Y-42198032D01*
X140880415Y-42142232D01*
X140837750Y-42086902D01*
X140831771Y-42017288D01*
X140864377Y-41955494D01*
X140922640Y-41921765D01*
X140943039Y-41916559D01*
X140999584Y-41893136D01*
X140999584Y-41893135D01*
X140239410Y-41132962D01*
X140302993Y-41115925D01*
X140417007Y-41050099D01*
X140510099Y-40957007D01*
X140575925Y-40842993D01*
X140592962Y-40779411D01*
X141353135Y-41539584D01*
X141353136Y-41539584D01*
X141376552Y-41483053D01*
X141394544Y-41432053D01*
X141414999Y-41289780D01*
X141415000Y-41289779D01*
X141415000Y-40010224D01*
X141414999Y-40010204D01*
X141412106Y-39956237D01*
X141412106Y-39956235D01*
X141376561Y-39816969D01*
X141376559Y-39816962D01*
X141353135Y-39760414D01*
X140592962Y-40520588D01*
X140575925Y-40457007D01*
X140510099Y-40342993D01*
X140417007Y-40249901D01*
X140302993Y-40184075D01*
X140239410Y-40167037D01*
X140999584Y-39406862D01*
X140943059Y-39383449D01*
X140943048Y-39383445D01*
X140914374Y-39373329D01*
X140857703Y-39332462D01*
X140832122Y-39267443D01*
X140845754Y-39198916D01*
X140882745Y-39156074D01*
X140957215Y-39101969D01*
X140957215Y-39101968D01*
X140957219Y-39101966D01*
X141101966Y-38957219D01*
X141101968Y-38957215D01*
X141101971Y-38957213D01*
X141163751Y-38872179D01*
X141222287Y-38791610D01*
X141315220Y-38609219D01*
X141378477Y-38414534D01*
X141410500Y-38212352D01*
X141410500Y-38007648D01*
X141378477Y-37805466D01*
X141315220Y-37610781D01*
X141315218Y-37610778D01*
X141315218Y-37610776D01*
X141281503Y-37544607D01*
X141222287Y-37428390D01*
X141169867Y-37356239D01*
X141101971Y-37262786D01*
X140957213Y-37118028D01*
X140791614Y-36997715D01*
X140785006Y-36994348D01*
X140698917Y-36950483D01*
X140648123Y-36902511D01*
X140631328Y-36834690D01*
X140653865Y-36768555D01*
X140698917Y-36729516D01*
X140791610Y-36682287D01*
X140812770Y-36666913D01*
X140957213Y-36561971D01*
X140957215Y-36561968D01*
X140957219Y-36561966D01*
X141101966Y-36417219D01*
X141101968Y-36417215D01*
X141101971Y-36417213D01*
X141163751Y-36332179D01*
X141222287Y-36251610D01*
X141315220Y-36069219D01*
X141378477Y-35874534D01*
X141410500Y-35672352D01*
X141410500Y-35467648D01*
X141378477Y-35265466D01*
X141315220Y-35070781D01*
X141315218Y-35070778D01*
X141315218Y-35070776D01*
X141261793Y-34965925D01*
X141222287Y-34888390D01*
X141214556Y-34877749D01*
X141101971Y-34722786D01*
X140957213Y-34578028D01*
X140791614Y-34457715D01*
X140745412Y-34434174D01*
X140698917Y-34410483D01*
X140648123Y-34362511D01*
X140631328Y-34294690D01*
X140653865Y-34228555D01*
X140698917Y-34189516D01*
X140791610Y-34142287D01*
X140849950Y-34099901D01*
X140957213Y-34021971D01*
X140957215Y-34021968D01*
X140957219Y-34021966D01*
X141101966Y-33877219D01*
X141101968Y-33877215D01*
X141101971Y-33877213D01*
X141154732Y-33804590D01*
X141222287Y-33711610D01*
X141315220Y-33529219D01*
X141378477Y-33334534D01*
X141410500Y-33132352D01*
X141410500Y-32927648D01*
X141378477Y-32725466D01*
X141315220Y-32530781D01*
X141315218Y-32530778D01*
X141315218Y-32530776D01*
X141281503Y-32464607D01*
X141222287Y-32348390D01*
X141214556Y-32337749D01*
X141101971Y-32182786D01*
X140957213Y-32038028D01*
X140791614Y-31917715D01*
X140785006Y-31914348D01*
X140698917Y-31870483D01*
X140648123Y-31822511D01*
X140631328Y-31754690D01*
X140653865Y-31688555D01*
X140698917Y-31649516D01*
X140791610Y-31602287D01*
X140812770Y-31586913D01*
X140957213Y-31481971D01*
X140957215Y-31481968D01*
X140957219Y-31481966D01*
X141101966Y-31337219D01*
X141101968Y-31337215D01*
X141101971Y-31337213D01*
X141154732Y-31264590D01*
X141222287Y-31171610D01*
X141315220Y-30989219D01*
X141378477Y-30794534D01*
X141410500Y-30592352D01*
X141410500Y-30387648D01*
X141378477Y-30185466D01*
X141315220Y-29990781D01*
X141315218Y-29990778D01*
X141315218Y-29990776D01*
X141281503Y-29924607D01*
X141222287Y-29808390D01*
X141214556Y-29797749D01*
X141101971Y-29642786D01*
X140957217Y-29498032D01*
X140880415Y-29442232D01*
X140837750Y-29386902D01*
X140831771Y-29317288D01*
X140864377Y-29255494D01*
X140922640Y-29221765D01*
X140943039Y-29216559D01*
X140999584Y-29193136D01*
X140999584Y-29193135D01*
X140239410Y-28432962D01*
X140302993Y-28415925D01*
X140417007Y-28350099D01*
X140510099Y-28257007D01*
X140575925Y-28142993D01*
X140592962Y-28079410D01*
X141353135Y-28839584D01*
X141353136Y-28839584D01*
X141376552Y-28783053D01*
X141394544Y-28732053D01*
X141414999Y-28589780D01*
X141415000Y-28589779D01*
X141415000Y-27310214D01*
X141412106Y-27256237D01*
X141412106Y-27256235D01*
X141376561Y-27116969D01*
X141376559Y-27116962D01*
X141353135Y-27060414D01*
X140592962Y-27820588D01*
X140575925Y-27757007D01*
X140510099Y-27642993D01*
X140417007Y-27549901D01*
X140302993Y-27484075D01*
X140239410Y-27467037D01*
X140999584Y-26706862D01*
X140943059Y-26683449D01*
X140943048Y-26683445D01*
X140914374Y-26673329D01*
X140857703Y-26632462D01*
X140832122Y-26567443D01*
X140845754Y-26498916D01*
X140882745Y-26456074D01*
X140957215Y-26401969D01*
X140957215Y-26401968D01*
X140957219Y-26401966D01*
X141101966Y-26257219D01*
X141101968Y-26257215D01*
X141101971Y-26257213D01*
X141199834Y-26122514D01*
X141222287Y-26091610D01*
X141300817Y-25937486D01*
X145399500Y-25937486D01*
X145399500Y-26122513D01*
X145428445Y-26305265D01*
X145485619Y-26481232D01*
X145485620Y-26481235D01*
X145528840Y-26566057D01*
X145569622Y-26646096D01*
X145678379Y-26795787D01*
X145809213Y-26926621D01*
X145958904Y-27035378D01*
X146008040Y-27060414D01*
X146123764Y-27119379D01*
X146123767Y-27119380D01*
X146211750Y-27147967D01*
X146299736Y-27176555D01*
X146482486Y-27205500D01*
X146482487Y-27205500D01*
X146667513Y-27205500D01*
X146667514Y-27205500D01*
X146850264Y-27176555D01*
X147026235Y-27119379D01*
X147191096Y-27035378D01*
X147340787Y-26926621D01*
X147471621Y-26795787D01*
X147580378Y-26646096D01*
X147664379Y-26481235D01*
X147721555Y-26305264D01*
X147750500Y-26122514D01*
X147750500Y-25937486D01*
X150249500Y-25937486D01*
X150249500Y-26122513D01*
X150278445Y-26305265D01*
X150335619Y-26481232D01*
X150335620Y-26481235D01*
X150378840Y-26566057D01*
X150419622Y-26646096D01*
X150528379Y-26795787D01*
X150659213Y-26926621D01*
X150808904Y-27035378D01*
X150858040Y-27060414D01*
X150973764Y-27119379D01*
X150973767Y-27119380D01*
X151061750Y-27147967D01*
X151149736Y-27176555D01*
X151332486Y-27205500D01*
X151332487Y-27205500D01*
X151517513Y-27205500D01*
X151517514Y-27205500D01*
X151590660Y-27193914D01*
X151657578Y-27183316D01*
X151663847Y-27182322D01*
X151700264Y-27176555D01*
X151876235Y-27119379D01*
X152041096Y-27035378D01*
X152190787Y-26926621D01*
X152321621Y-26795787D01*
X152430378Y-26646096D01*
X152514379Y-26481235D01*
X152571555Y-26305264D01*
X152600500Y-26122514D01*
X152600500Y-25937486D01*
X152571555Y-25754736D01*
X152514379Y-25578765D01*
X152514379Y-25578764D01*
X152430377Y-25413903D01*
X152321621Y-25264213D01*
X152190787Y-25133379D01*
X152041096Y-25024622D01*
X151876235Y-24940620D01*
X151876232Y-24940619D01*
X151700265Y-24883445D01*
X151608889Y-24868972D01*
X151517514Y-24854500D01*
X151332486Y-24854500D01*
X151271569Y-24864148D01*
X151149734Y-24883445D01*
X150973767Y-24940619D01*
X150973764Y-24940620D01*
X150808903Y-25024622D01*
X150723499Y-25086672D01*
X150659213Y-25133379D01*
X150659211Y-25133381D01*
X150659210Y-25133381D01*
X150528381Y-25264210D01*
X150528381Y-25264211D01*
X150528379Y-25264213D01*
X150496822Y-25307648D01*
X150419622Y-25413903D01*
X150335620Y-25578764D01*
X150335619Y-25578767D01*
X150278445Y-25754734D01*
X150249500Y-25937486D01*
X147750500Y-25937486D01*
X147721555Y-25754736D01*
X147664379Y-25578765D01*
X147664379Y-25578764D01*
X147580377Y-25413903D01*
X147471621Y-25264213D01*
X147340787Y-25133379D01*
X147191096Y-25024622D01*
X147026235Y-24940620D01*
X147026232Y-24940619D01*
X146850265Y-24883445D01*
X146758889Y-24868972D01*
X146667514Y-24854500D01*
X146482486Y-24854500D01*
X146421569Y-24864148D01*
X146299734Y-24883445D01*
X146123767Y-24940619D01*
X146123764Y-24940620D01*
X145958903Y-25024622D01*
X145873499Y-25086672D01*
X145809213Y-25133379D01*
X145809211Y-25133381D01*
X145809210Y-25133381D01*
X145678381Y-25264210D01*
X145678381Y-25264211D01*
X145678379Y-25264213D01*
X145646822Y-25307648D01*
X145569622Y-25413903D01*
X145485620Y-25578764D01*
X145485619Y-25578767D01*
X145428445Y-25754734D01*
X145399500Y-25937486D01*
X141300817Y-25937486D01*
X141315220Y-25909219D01*
X141365415Y-25754736D01*
X141378476Y-25714538D01*
X141378476Y-25714537D01*
X141378477Y-25714534D01*
X141410500Y-25512352D01*
X141410500Y-25307648D01*
X141403620Y-25264210D01*
X141378477Y-25105465D01*
X141349127Y-25015137D01*
X141315220Y-24910781D01*
X141315218Y-24910778D01*
X141315218Y-24910776D01*
X141281503Y-24844607D01*
X141222287Y-24728390D01*
X141214556Y-24717749D01*
X141101971Y-24562786D01*
X140957217Y-24418032D01*
X140957212Y-24418028D01*
X140876440Y-24359344D01*
X140833774Y-24304015D01*
X140827795Y-24234401D01*
X140860400Y-24172606D01*
X140912433Y-24140641D01*
X140999606Y-24113478D01*
X141145185Y-24025472D01*
X141265472Y-23905185D01*
X141353478Y-23759606D01*
X141404086Y-23597196D01*
X141410500Y-23526616D01*
X141410500Y-22213384D01*
X141404086Y-22142804D01*
X141353478Y-21980394D01*
X141265472Y-21834815D01*
X141265470Y-21834813D01*
X141265469Y-21834811D01*
X141192839Y-21762181D01*
X141159354Y-21700858D01*
X141164338Y-21631166D01*
X141206210Y-21575233D01*
X141271674Y-21550816D01*
X141280520Y-21550500D01*
X145628575Y-21550500D01*
X145695614Y-21570185D01*
X145741369Y-21622989D01*
X145751313Y-21692147D01*
X145722288Y-21755703D01*
X145684870Y-21784985D01*
X145567180Y-21844951D01*
X145395213Y-21969890D01*
X145244890Y-22120213D01*
X145119951Y-22292179D01*
X145023444Y-22481585D01*
X144957753Y-22683760D01*
X144944467Y-22767648D01*
X144924500Y-22893713D01*
X144924500Y-23106287D01*
X144957754Y-23316243D01*
X144974968Y-23369223D01*
X145023444Y-23518414D01*
X145119951Y-23707820D01*
X145244890Y-23879786D01*
X145395213Y-24030109D01*
X145567179Y-24155048D01*
X145567181Y-24155049D01*
X145567184Y-24155051D01*
X145756588Y-24251557D01*
X145958757Y-24317246D01*
X146168713Y-24350500D01*
X146168714Y-24350500D01*
X146381286Y-24350500D01*
X146381287Y-24350500D01*
X146591243Y-24317246D01*
X146793412Y-24251557D01*
X146982816Y-24155051D01*
X147040038Y-24113477D01*
X147154786Y-24030109D01*
X147154788Y-24030106D01*
X147154792Y-24030104D01*
X147305104Y-23879792D01*
X147305106Y-23879788D01*
X147305109Y-23879786D01*
X147430048Y-23707820D01*
X147430047Y-23707820D01*
X147430051Y-23707816D01*
X147526557Y-23518412D01*
X147592246Y-23316243D01*
X147625500Y-23106287D01*
X147625500Y-22893713D01*
X147592246Y-22683757D01*
X147526557Y-22481588D01*
X147430051Y-22292184D01*
X147430049Y-22292181D01*
X147430048Y-22292179D01*
X147305109Y-22120213D01*
X147154786Y-21969890D01*
X146982819Y-21844951D01*
X146982818Y-21844950D01*
X146982816Y-21844949D01*
X146865130Y-21784985D01*
X146814334Y-21737010D01*
X146797539Y-21669189D01*
X146820076Y-21603054D01*
X146874792Y-21559603D01*
X146921425Y-21550500D01*
X151078575Y-21550500D01*
X151145614Y-21570185D01*
X151191369Y-21622989D01*
X151201313Y-21692147D01*
X151172288Y-21755703D01*
X151134870Y-21784985D01*
X151017180Y-21844951D01*
X150845213Y-21969890D01*
X150694890Y-22120213D01*
X150569951Y-22292179D01*
X150473444Y-22481585D01*
X150407753Y-22683760D01*
X150394467Y-22767648D01*
X150374500Y-22893713D01*
X150374500Y-23106287D01*
X150407754Y-23316243D01*
X150424968Y-23369223D01*
X150473444Y-23518414D01*
X150569951Y-23707820D01*
X150694890Y-23879786D01*
X150845213Y-24030109D01*
X151017179Y-24155048D01*
X151017181Y-24155049D01*
X151017184Y-24155051D01*
X151206588Y-24251557D01*
X151408757Y-24317246D01*
X151618713Y-24350500D01*
X151618714Y-24350500D01*
X151831286Y-24350500D01*
X151831287Y-24350500D01*
X152041243Y-24317246D01*
X152243412Y-24251557D01*
X152432816Y-24155051D01*
X152490038Y-24113477D01*
X152604786Y-24030109D01*
X152604788Y-24030106D01*
X152604792Y-24030104D01*
X152755104Y-23879792D01*
X152755106Y-23879788D01*
X152755109Y-23879786D01*
X152880048Y-23707820D01*
X152880047Y-23707820D01*
X152880051Y-23707816D01*
X152976557Y-23518412D01*
X153042246Y-23316243D01*
X153075500Y-23106287D01*
X153075500Y-22893713D01*
X153042246Y-22683757D01*
X152976557Y-22481588D01*
X152880051Y-22292184D01*
X152880049Y-22292181D01*
X152880048Y-22292179D01*
X152755109Y-22120213D01*
X152604786Y-21969890D01*
X152432819Y-21844951D01*
X152432818Y-21844950D01*
X152432816Y-21844949D01*
X152315130Y-21784985D01*
X152264334Y-21737010D01*
X152247539Y-21669189D01*
X152270076Y-21603054D01*
X152324792Y-21559603D01*
X152371425Y-21550500D01*
X157111961Y-21550500D01*
X157179000Y-21570185D01*
X157224755Y-21622989D01*
X157234699Y-21692147D01*
X157205674Y-21755703D01*
X157184848Y-21774816D01*
X157170853Y-21784985D01*
X157042780Y-21878034D01*
X156898028Y-22022786D01*
X156777715Y-22188386D01*
X156684781Y-22370776D01*
X156621522Y-22565465D01*
X156589500Y-22767648D01*
X156589500Y-22972351D01*
X156621522Y-23174534D01*
X156684781Y-23369223D01*
X156748691Y-23494653D01*
X156764976Y-23526613D01*
X156777715Y-23551613D01*
X156898028Y-23717213D01*
X157042786Y-23861971D01*
X157197749Y-23974556D01*
X157208390Y-23982287D01*
X157293139Y-24025469D01*
X157301080Y-24029515D01*
X157351876Y-24077490D01*
X157368671Y-24145311D01*
X157346134Y-24211446D01*
X157301080Y-24250485D01*
X157208386Y-24297715D01*
X157042786Y-24418028D01*
X156898028Y-24562786D01*
X156777715Y-24728386D01*
X156684781Y-24910776D01*
X156621522Y-25105465D01*
X156589500Y-25307648D01*
X156589500Y-25512351D01*
X156621522Y-25714534D01*
X156684781Y-25909223D01*
X156777715Y-26091613D01*
X156898028Y-26257213D01*
X157042782Y-26401967D01*
X157042787Y-26401971D01*
X157119583Y-26457767D01*
X157162249Y-26513097D01*
X157168228Y-26582710D01*
X157135622Y-26644505D01*
X157077365Y-26678233D01*
X157056973Y-26683437D01*
X157056962Y-26683441D01*
X157000415Y-26706863D01*
X157760589Y-27467037D01*
X157697007Y-27484075D01*
X157582993Y-27549901D01*
X157489901Y-27642993D01*
X157424075Y-27757007D01*
X157407037Y-27820589D01*
X156646863Y-27060415D01*
X156646862Y-27060415D01*
X156623446Y-27116947D01*
X156623431Y-27116987D01*
X156605457Y-27167939D01*
X156605455Y-27167946D01*
X156585000Y-27310219D01*
X156585000Y-28589785D01*
X156587893Y-28643762D01*
X156587893Y-28643764D01*
X156623438Y-28783030D01*
X156623442Y-28783043D01*
X156646862Y-28839584D01*
X157407037Y-28079410D01*
X157424075Y-28142993D01*
X157489901Y-28257007D01*
X157582993Y-28350099D01*
X157697007Y-28415925D01*
X157760589Y-28432962D01*
X157000414Y-29193135D01*
X157056960Y-29216557D01*
X157056986Y-29216567D01*
X157085621Y-29226669D01*
X157142294Y-29267534D01*
X157167876Y-29332552D01*
X157154246Y-29401080D01*
X157117256Y-29443924D01*
X157042782Y-29498032D01*
X156898028Y-29642786D01*
X156777715Y-29808386D01*
X156684781Y-29990776D01*
X156621522Y-30185465D01*
X156589500Y-30387648D01*
X156589500Y-30592351D01*
X156621522Y-30794534D01*
X156684781Y-30989223D01*
X156777715Y-31171613D01*
X156898028Y-31337213D01*
X157042786Y-31481971D01*
X157197749Y-31594556D01*
X157208390Y-31602287D01*
X157299840Y-31648883D01*
X157301080Y-31649515D01*
X157351876Y-31697490D01*
X157368671Y-31765311D01*
X157346134Y-31831446D01*
X157301080Y-31870485D01*
X157208386Y-31917715D01*
X157042786Y-32038028D01*
X156898028Y-32182786D01*
X156777715Y-32348386D01*
X156684781Y-32530776D01*
X156621522Y-32725465D01*
X156589500Y-32927648D01*
X156589500Y-33132351D01*
X156621522Y-33334534D01*
X156684781Y-33529223D01*
X156777715Y-33711613D01*
X156898028Y-33877213D01*
X157042786Y-34021971D01*
X157150050Y-34099901D01*
X157208390Y-34142287D01*
X157289999Y-34183869D01*
X157301080Y-34189515D01*
X157351876Y-34237490D01*
X157368671Y-34305311D01*
X157346134Y-34371446D01*
X157301080Y-34410485D01*
X157208386Y-34457715D01*
X157042786Y-34578028D01*
X156898028Y-34722786D01*
X156777715Y-34888386D01*
X156684781Y-35070776D01*
X156621522Y-35265465D01*
X156589500Y-35467648D01*
X156589500Y-35672351D01*
X156621522Y-35874534D01*
X156684781Y-36069223D01*
X156777715Y-36251613D01*
X156898028Y-36417213D01*
X157042786Y-36561971D01*
X157197749Y-36674556D01*
X157208390Y-36682287D01*
X157289785Y-36723760D01*
X157301080Y-36729515D01*
X157351876Y-36777490D01*
X157368671Y-36845311D01*
X157346134Y-36911446D01*
X157301080Y-36950485D01*
X157208386Y-36997715D01*
X157042786Y-37118028D01*
X156898028Y-37262786D01*
X156777715Y-37428386D01*
X156684781Y-37610776D01*
X156621522Y-37805465D01*
X156589500Y-38007648D01*
X156589500Y-38212351D01*
X156621522Y-38414534D01*
X156684781Y-38609223D01*
X156777715Y-38791613D01*
X156898028Y-38957213D01*
X157042782Y-39101967D01*
X157042787Y-39101971D01*
X157119063Y-39157389D01*
X157161729Y-39212719D01*
X157167708Y-39282332D01*
X157135102Y-39344127D01*
X157076845Y-39377855D01*
X157056776Y-39382977D01*
X157056766Y-39382980D01*
X156983280Y-39413419D01*
X156983252Y-39413431D01*
X156934451Y-39436779D01*
X156934446Y-39436782D01*
X156819268Y-39523005D01*
X156819256Y-39523015D01*
X156763019Y-39579252D01*
X156726843Y-39619524D01*
X156726837Y-39619532D01*
X156653426Y-39743263D01*
X156622978Y-39816774D01*
X156622970Y-39816795D01*
X156604976Y-39867800D01*
X156584500Y-40010219D01*
X156584500Y-41289784D01*
X156587395Y-41343814D01*
X156587396Y-41343818D01*
X156622976Y-41483221D01*
X156622980Y-41483233D01*
X156653419Y-41556719D01*
X156653431Y-41556747D01*
X156676779Y-41605548D01*
X156676781Y-41605551D01*
X156763006Y-41720733D01*
X156763010Y-41720737D01*
X156763015Y-41720743D01*
X156819252Y-41776980D01*
X156819261Y-41776988D01*
X156819267Y-41776994D01*
X156859524Y-41813156D01*
X156859532Y-41813162D01*
X156983263Y-41886573D01*
X156983262Y-41886573D01*
X156990329Y-41889500D01*
X157056774Y-41917022D01*
X157072645Y-41922621D01*
X157085133Y-41927027D01*
X157141805Y-41967894D01*
X157167386Y-42032912D01*
X157153754Y-42101439D01*
X157116765Y-42144281D01*
X157042782Y-42198032D01*
X156898028Y-42342786D01*
X156777715Y-42508386D01*
X156684781Y-42690776D01*
X156621522Y-42885465D01*
X156589500Y-43087648D01*
X156589500Y-43292351D01*
X156621522Y-43494534D01*
X156684781Y-43689223D01*
X156777715Y-43871613D01*
X156898028Y-44037213D01*
X157042786Y-44181971D01*
X157197749Y-44294556D01*
X157208390Y-44302287D01*
X157299840Y-44348883D01*
X157301080Y-44349515D01*
X157351876Y-44397490D01*
X157368671Y-44465311D01*
X157346134Y-44531446D01*
X157301080Y-44570485D01*
X157208386Y-44617715D01*
X157042786Y-44738028D01*
X156898028Y-44882786D01*
X156777715Y-45048386D01*
X156684781Y-45230776D01*
X156621522Y-45425465D01*
X156589500Y-45627648D01*
X156589500Y-45832351D01*
X156621522Y-46034534D01*
X156684781Y-46229223D01*
X156777715Y-46411613D01*
X156898028Y-46577213D01*
X157042786Y-46721971D01*
X157197749Y-46834556D01*
X157208390Y-46842287D01*
X157299840Y-46888883D01*
X157301080Y-46889515D01*
X157351876Y-46937490D01*
X157368671Y-47005311D01*
X157346134Y-47071446D01*
X157301080Y-47110485D01*
X157208386Y-47157715D01*
X157042786Y-47278028D01*
X156898028Y-47422786D01*
X156777715Y-47588386D01*
X156684781Y-47770776D01*
X156621522Y-47965465D01*
X156589500Y-48167648D01*
X156589500Y-48372351D01*
X156621522Y-48574534D01*
X156684781Y-48769223D01*
X156777715Y-48951613D01*
X156898028Y-49117213D01*
X157042786Y-49261971D01*
X157197749Y-49374556D01*
X157208390Y-49382287D01*
X157299840Y-49428883D01*
X157301080Y-49429515D01*
X157351876Y-49477490D01*
X157368671Y-49545311D01*
X157346134Y-49611446D01*
X157301080Y-49650485D01*
X157208386Y-49697715D01*
X157042786Y-49818028D01*
X156898028Y-49962786D01*
X156777715Y-50128386D01*
X156684781Y-50310776D01*
X156621522Y-50505465D01*
X156589500Y-50707648D01*
X156589500Y-50912351D01*
X156621522Y-51114534D01*
X156684781Y-51309223D01*
X156777715Y-51491613D01*
X156898028Y-51657213D01*
X157042782Y-51801967D01*
X157042787Y-51801971D01*
X157119583Y-51857767D01*
X157162249Y-51913097D01*
X157168228Y-51982710D01*
X157135622Y-52044505D01*
X157077365Y-52078233D01*
X157056973Y-52083437D01*
X157056962Y-52083441D01*
X157000415Y-52106863D01*
X157760589Y-52867037D01*
X157697007Y-52884075D01*
X157582993Y-52949901D01*
X157489901Y-53042993D01*
X157424075Y-53157007D01*
X157407037Y-53220589D01*
X156646863Y-52460415D01*
X156646862Y-52460415D01*
X156623446Y-52516947D01*
X156623431Y-52516987D01*
X156605457Y-52567939D01*
X156605455Y-52567946D01*
X156585000Y-52710219D01*
X156585000Y-53989785D01*
X156587893Y-54043762D01*
X156587893Y-54043764D01*
X156623438Y-54183030D01*
X156623442Y-54183043D01*
X156646862Y-54239584D01*
X157407037Y-53479410D01*
X157424075Y-53542993D01*
X157489901Y-53657007D01*
X157582993Y-53750099D01*
X157697007Y-53815925D01*
X157760589Y-53832962D01*
X157000414Y-54593135D01*
X157056960Y-54616557D01*
X157056986Y-54616567D01*
X157085621Y-54626669D01*
X157142294Y-54667534D01*
X157167876Y-54732552D01*
X157154246Y-54801080D01*
X157117256Y-54843924D01*
X157042782Y-54898032D01*
X156898028Y-55042786D01*
X156777715Y-55208386D01*
X156684781Y-55390776D01*
X156621522Y-55585465D01*
X156589500Y-55787648D01*
X156589500Y-55992351D01*
X156621522Y-56194534D01*
X156684781Y-56389223D01*
X156777715Y-56571613D01*
X156898028Y-56737213D01*
X157042786Y-56881971D01*
X157197749Y-56994556D01*
X157208390Y-57002287D01*
X157299840Y-57048883D01*
X157301080Y-57049515D01*
X157351876Y-57097490D01*
X157368671Y-57165311D01*
X157346134Y-57231446D01*
X157301080Y-57270485D01*
X157208386Y-57317715D01*
X157042786Y-57438028D01*
X156898028Y-57582786D01*
X156777715Y-57748386D01*
X156684781Y-57930776D01*
X156621522Y-58125465D01*
X156589500Y-58327648D01*
X156589500Y-58532351D01*
X156621522Y-58734534D01*
X156684781Y-58929223D01*
X156777715Y-59111613D01*
X156898028Y-59277213D01*
X157042786Y-59421971D01*
X157197749Y-59534556D01*
X157208390Y-59542287D01*
X157299840Y-59588883D01*
X157301080Y-59589515D01*
X157351876Y-59637490D01*
X157368671Y-59705311D01*
X157346134Y-59771446D01*
X157301080Y-59810485D01*
X157208386Y-59857715D01*
X157042786Y-59978028D01*
X156898028Y-60122786D01*
X156777715Y-60288386D01*
X156684781Y-60470776D01*
X156621522Y-60665465D01*
X156589500Y-60867648D01*
X156589500Y-61072351D01*
X156621522Y-61274534D01*
X156684781Y-61469223D01*
X156777715Y-61651613D01*
X156898028Y-61817213D01*
X157042786Y-61961971D01*
X157197749Y-62074556D01*
X157208390Y-62082287D01*
X157299840Y-62128883D01*
X157301080Y-62129515D01*
X157351876Y-62177490D01*
X157368671Y-62245311D01*
X157346134Y-62311446D01*
X157301080Y-62350485D01*
X157208386Y-62397715D01*
X157042786Y-62518028D01*
X156898028Y-62662786D01*
X156777715Y-62828386D01*
X156684781Y-63010776D01*
X156621522Y-63205465D01*
X156589500Y-63407648D01*
X156589500Y-63612351D01*
X156621522Y-63814534D01*
X156684781Y-64009223D01*
X156777715Y-64191613D01*
X156898028Y-64357213D01*
X157042782Y-64501967D01*
X157042787Y-64501971D01*
X157119583Y-64557767D01*
X157162249Y-64613097D01*
X157168228Y-64682710D01*
X157135622Y-64744505D01*
X157077365Y-64778233D01*
X157056973Y-64783437D01*
X157056962Y-64783441D01*
X157000415Y-64806863D01*
X157760589Y-65567037D01*
X157697007Y-65584075D01*
X157582993Y-65649901D01*
X157489901Y-65742993D01*
X157424075Y-65857007D01*
X157407037Y-65920589D01*
X156646863Y-65160415D01*
X156646862Y-65160415D01*
X156623446Y-65216947D01*
X156623431Y-65216987D01*
X156605457Y-65267939D01*
X156605455Y-65267946D01*
X156585000Y-65410219D01*
X156585000Y-66689785D01*
X156587893Y-66743762D01*
X156587893Y-66743764D01*
X156623438Y-66883030D01*
X156623442Y-66883043D01*
X156646862Y-66939584D01*
X157407037Y-66179410D01*
X157424075Y-66242993D01*
X157489901Y-66357007D01*
X157582993Y-66450099D01*
X157697007Y-66515925D01*
X157760589Y-66532962D01*
X157000414Y-67293135D01*
X157056960Y-67316557D01*
X157056986Y-67316567D01*
X157085621Y-67326669D01*
X157142294Y-67367534D01*
X157167876Y-67432552D01*
X157154246Y-67501080D01*
X157117256Y-67543924D01*
X157042782Y-67598032D01*
X156898028Y-67742786D01*
X156777715Y-67908386D01*
X156684781Y-68090776D01*
X156621522Y-68285465D01*
X156589500Y-68487648D01*
X156589500Y-68692351D01*
X156621522Y-68894534D01*
X156684781Y-69089223D01*
X156777715Y-69271613D01*
X156898028Y-69437213D01*
X157042786Y-69581971D01*
X157197749Y-69694556D01*
X157208390Y-69702287D01*
X157299840Y-69748883D01*
X157301080Y-69749515D01*
X157351876Y-69797490D01*
X157368671Y-69865311D01*
X157346134Y-69931446D01*
X157301080Y-69970485D01*
X157208386Y-70017715D01*
X157042786Y-70138028D01*
X156898028Y-70282786D01*
X156777715Y-70448386D01*
X156684781Y-70630776D01*
X156621522Y-70825465D01*
X156589500Y-71027648D01*
X156589500Y-71232351D01*
X156621522Y-71434534D01*
X156684781Y-71629223D01*
X156777715Y-71811613D01*
X156898028Y-71977213D01*
X157042786Y-72121971D01*
X157149015Y-72199149D01*
X157208390Y-72242287D01*
X157324607Y-72301503D01*
X157390776Y-72335218D01*
X157390778Y-72335218D01*
X157390781Y-72335220D01*
X157454357Y-72355877D01*
X157585465Y-72398477D01*
X157627060Y-72405065D01*
X157787648Y-72430500D01*
X157787649Y-72430500D01*
X157992351Y-72430500D01*
X157992352Y-72430500D01*
X158194534Y-72398477D01*
X158389219Y-72335220D01*
X158571610Y-72242287D01*
X158664590Y-72174732D01*
X158737213Y-72121971D01*
X158737215Y-72121968D01*
X158737219Y-72121966D01*
X158881966Y-71977219D01*
X158881968Y-71977215D01*
X158881971Y-71977213D01*
X158951111Y-71882048D01*
X159002287Y-71811610D01*
X159095220Y-71629219D01*
X159158477Y-71434534D01*
X159190500Y-71232352D01*
X159190500Y-71027648D01*
X159158477Y-70825466D01*
X159095220Y-70630781D01*
X159095218Y-70630778D01*
X159095218Y-70630776D01*
X159061503Y-70564607D01*
X159002287Y-70448390D01*
X158994556Y-70437749D01*
X158881971Y-70282786D01*
X158737213Y-70138028D01*
X158571614Y-70017715D01*
X158565006Y-70014348D01*
X158478917Y-69970483D01*
X158428123Y-69922511D01*
X158411328Y-69854690D01*
X158433865Y-69788555D01*
X158478917Y-69749516D01*
X158571610Y-69702287D01*
X158592770Y-69686913D01*
X158737213Y-69581971D01*
X158737215Y-69581968D01*
X158737219Y-69581966D01*
X158881966Y-69437219D01*
X158881968Y-69437215D01*
X158881971Y-69437213D01*
X158934732Y-69364590D01*
X159002287Y-69271610D01*
X159095220Y-69089219D01*
X159158477Y-68894534D01*
X159190500Y-68692352D01*
X159190500Y-68487648D01*
X159158477Y-68285466D01*
X159095220Y-68090781D01*
X159095218Y-68090778D01*
X159095218Y-68090776D01*
X159061503Y-68024607D01*
X159002287Y-67908390D01*
X158994556Y-67897749D01*
X158881971Y-67742786D01*
X158737213Y-67598028D01*
X158571614Y-67477715D01*
X158563410Y-67473535D01*
X158485703Y-67433941D01*
X158434908Y-67385968D01*
X158418113Y-67318147D01*
X158440650Y-67252012D01*
X158483546Y-67214099D01*
X158549503Y-67178843D01*
X158549515Y-67178837D01*
X158618913Y-67132465D01*
X158019410Y-66532962D01*
X158082993Y-66515925D01*
X158197007Y-66450099D01*
X158290099Y-66357007D01*
X158355925Y-66242993D01*
X158372962Y-66179410D01*
X158972465Y-66778913D01*
X159018837Y-66709515D01*
X159018838Y-66709511D01*
X159065509Y-66622198D01*
X159125814Y-66476612D01*
X159154555Y-66381864D01*
X159185298Y-66227302D01*
X159185298Y-66227299D01*
X159195000Y-66128789D01*
X159195000Y-65971210D01*
X159185298Y-65872700D01*
X159185298Y-65872697D01*
X159154555Y-65718135D01*
X159125814Y-65623387D01*
X159065509Y-65477801D01*
X159018844Y-65390498D01*
X159018838Y-65390488D01*
X158972465Y-65321085D01*
X158372962Y-65920588D01*
X158355925Y-65857007D01*
X158290099Y-65742993D01*
X158197007Y-65649901D01*
X158082993Y-65584075D01*
X158019410Y-65567037D01*
X158618912Y-64967534D01*
X158549511Y-64921161D01*
X158549500Y-64921155D01*
X158483545Y-64885900D01*
X158433701Y-64836937D01*
X158418241Y-64768799D01*
X158442073Y-64703119D01*
X158485702Y-64666059D01*
X158571610Y-64622287D01*
X158662745Y-64556074D01*
X158737213Y-64501971D01*
X158737215Y-64501968D01*
X158737219Y-64501966D01*
X158881966Y-64357219D01*
X158881968Y-64357215D01*
X158881971Y-64357213D01*
X158934732Y-64284590D01*
X159002287Y-64191610D01*
X159095220Y-64009219D01*
X159158477Y-63814534D01*
X159190500Y-63612352D01*
X159190500Y-63407648D01*
X159158477Y-63205466D01*
X159095220Y-63010781D01*
X159095218Y-63010778D01*
X159095218Y-63010776D01*
X159061503Y-62944607D01*
X159002287Y-62828390D01*
X158994556Y-62817749D01*
X158881971Y-62662786D01*
X158737213Y-62518028D01*
X158571614Y-62397715D01*
X158565006Y-62394348D01*
X158478917Y-62350483D01*
X158428123Y-62302511D01*
X158411328Y-62234690D01*
X158433865Y-62168555D01*
X158478917Y-62129516D01*
X158571610Y-62082287D01*
X158592770Y-62066913D01*
X158737213Y-61961971D01*
X158737215Y-61961968D01*
X158737219Y-61961966D01*
X158881966Y-61817219D01*
X158881968Y-61817215D01*
X158881971Y-61817213D01*
X158934732Y-61744590D01*
X159002287Y-61651610D01*
X159095220Y-61469219D01*
X159158477Y-61274534D01*
X159190500Y-61072352D01*
X159190500Y-60867648D01*
X159158477Y-60665466D01*
X159095220Y-60470781D01*
X159095218Y-60470778D01*
X159095218Y-60470776D01*
X159058067Y-60397864D01*
X159002287Y-60288390D01*
X158994556Y-60277749D01*
X158881971Y-60122786D01*
X158737213Y-59978028D01*
X158571614Y-59857715D01*
X158565006Y-59854348D01*
X158478917Y-59810483D01*
X158428123Y-59762511D01*
X158411328Y-59694690D01*
X158433865Y-59628555D01*
X158478917Y-59589516D01*
X158571610Y-59542287D01*
X158592770Y-59526913D01*
X158737213Y-59421971D01*
X158737215Y-59421968D01*
X158737219Y-59421966D01*
X158881966Y-59277219D01*
X158881968Y-59277215D01*
X158881971Y-59277213D01*
X158934732Y-59204590D01*
X159002287Y-59111610D01*
X159095220Y-58929219D01*
X159158477Y-58734534D01*
X159190500Y-58532352D01*
X159190500Y-58327648D01*
X159158477Y-58125466D01*
X159095220Y-57930781D01*
X159095218Y-57930778D01*
X159095218Y-57930776D01*
X159061503Y-57864607D01*
X159002287Y-57748390D01*
X158994556Y-57737749D01*
X158881971Y-57582786D01*
X158737213Y-57438028D01*
X158571614Y-57317715D01*
X158565006Y-57314348D01*
X158478917Y-57270483D01*
X158428123Y-57222511D01*
X158411328Y-57154690D01*
X158433865Y-57088555D01*
X158478917Y-57049516D01*
X158571610Y-57002287D01*
X158592770Y-56986913D01*
X158737213Y-56881971D01*
X158737215Y-56881968D01*
X158737219Y-56881966D01*
X158881966Y-56737219D01*
X158881968Y-56737215D01*
X158881971Y-56737213D01*
X158934732Y-56664590D01*
X159002287Y-56571610D01*
X159095220Y-56389219D01*
X159158477Y-56194534D01*
X159190500Y-55992352D01*
X159190500Y-55787648D01*
X159158477Y-55585466D01*
X159095220Y-55390781D01*
X159095218Y-55390778D01*
X159095218Y-55390776D01*
X159061503Y-55324607D01*
X159002287Y-55208390D01*
X158994556Y-55197749D01*
X158881971Y-55042786D01*
X158737213Y-54898028D01*
X158571614Y-54777715D01*
X158563410Y-54773535D01*
X158485703Y-54733941D01*
X158434908Y-54685968D01*
X158418113Y-54618147D01*
X158440650Y-54552012D01*
X158483546Y-54514099D01*
X158549503Y-54478843D01*
X158549515Y-54478837D01*
X158618913Y-54432465D01*
X158019410Y-53832962D01*
X158082993Y-53815925D01*
X158197007Y-53750099D01*
X158290099Y-53657007D01*
X158355925Y-53542993D01*
X158372962Y-53479410D01*
X158972465Y-54078913D01*
X159018837Y-54009515D01*
X159018838Y-54009511D01*
X159065509Y-53922198D01*
X159125814Y-53776612D01*
X159154555Y-53681864D01*
X159185298Y-53527302D01*
X159185298Y-53527299D01*
X159195000Y-53428789D01*
X159195000Y-53271210D01*
X159185298Y-53172700D01*
X159185298Y-53172697D01*
X159154555Y-53018135D01*
X159125814Y-52923387D01*
X159065509Y-52777801D01*
X159018844Y-52690498D01*
X159018838Y-52690488D01*
X158972465Y-52621085D01*
X158372962Y-53220588D01*
X158355925Y-53157007D01*
X158290099Y-53042993D01*
X158197007Y-52949901D01*
X158082993Y-52884075D01*
X158019410Y-52867037D01*
X158618912Y-52267534D01*
X158549511Y-52221161D01*
X158549500Y-52221155D01*
X158483545Y-52185900D01*
X158433701Y-52136937D01*
X158418241Y-52068799D01*
X158442073Y-52003119D01*
X158485702Y-51966059D01*
X158571610Y-51922287D01*
X158662745Y-51856074D01*
X158737213Y-51801971D01*
X158737215Y-51801968D01*
X158737219Y-51801966D01*
X158881966Y-51657219D01*
X158881968Y-51657215D01*
X158881971Y-51657213D01*
X158934732Y-51584590D01*
X159002287Y-51491610D01*
X159095220Y-51309219D01*
X159158477Y-51114534D01*
X159190500Y-50912352D01*
X159190500Y-50707648D01*
X159174644Y-50607539D01*
X159158477Y-50505465D01*
X159095218Y-50310776D01*
X159059017Y-50239728D01*
X159002287Y-50128390D01*
X158978124Y-50095132D01*
X158881971Y-49962786D01*
X158737213Y-49818028D01*
X158571614Y-49697715D01*
X158565006Y-49694348D01*
X158478917Y-49650483D01*
X158428123Y-49602511D01*
X158411328Y-49534690D01*
X158433865Y-49468555D01*
X158478917Y-49429516D01*
X158571610Y-49382287D01*
X158592770Y-49366913D01*
X158737213Y-49261971D01*
X158737215Y-49261968D01*
X158737219Y-49261966D01*
X158881966Y-49117219D01*
X158881968Y-49117215D01*
X158881971Y-49117213D01*
X158952224Y-49020516D01*
X159002287Y-48951610D01*
X159095220Y-48769219D01*
X159158477Y-48574534D01*
X159190500Y-48372352D01*
X159190500Y-48167648D01*
X159158477Y-47965466D01*
X159095220Y-47770781D01*
X159095218Y-47770778D01*
X159095218Y-47770776D01*
X159061503Y-47704607D01*
X159002287Y-47588390D01*
X158976072Y-47552308D01*
X158881971Y-47422786D01*
X158737213Y-47278028D01*
X158571614Y-47157715D01*
X158565006Y-47154348D01*
X158478917Y-47110483D01*
X158472880Y-47104782D01*
X158464989Y-47102198D01*
X158447858Y-47081150D01*
X158428123Y-47062511D01*
X158426126Y-47054447D01*
X158420885Y-47048008D01*
X158417852Y-47021038D01*
X158411328Y-46994690D01*
X158414006Y-46986828D01*
X158413079Y-46978576D01*
X158425109Y-46954247D01*
X158433865Y-46928555D01*
X158441170Y-46921769D01*
X158444050Y-46915946D01*
X158462474Y-46901980D01*
X158463923Y-46900634D01*
X172854500Y-46900634D01*
X172854500Y-47079365D01*
X172882460Y-47255898D01*
X172882460Y-47255901D01*
X172937689Y-47425878D01*
X172937691Y-47425881D01*
X173018833Y-47585132D01*
X173123889Y-47729728D01*
X173250272Y-47856111D01*
X173394868Y-47961167D01*
X173554119Y-48042309D01*
X173554121Y-48042310D01*
X173712670Y-48093825D01*
X173724103Y-48097540D01*
X173900634Y-48125500D01*
X173900635Y-48125500D01*
X174079365Y-48125500D01*
X174079366Y-48125500D01*
X174255897Y-48097540D01*
X174255900Y-48097539D01*
X174255901Y-48097539D01*
X174425878Y-48042310D01*
X174425878Y-48042309D01*
X174425881Y-48042309D01*
X174585132Y-47961167D01*
X174729728Y-47856111D01*
X174856111Y-47729728D01*
X174961167Y-47585132D01*
X175042309Y-47425881D01*
X175043316Y-47422781D01*
X175097539Y-47255901D01*
X175097539Y-47255900D01*
X175097540Y-47255897D01*
X175125500Y-47079366D01*
X175125500Y-46900634D01*
X175097540Y-46724103D01*
X175097539Y-46724099D01*
X175097539Y-46724098D01*
X175042310Y-46554121D01*
X175042308Y-46554118D01*
X174969699Y-46411613D01*
X174961167Y-46394868D01*
X174856111Y-46250272D01*
X174729728Y-46123889D01*
X174585132Y-46018833D01*
X174425881Y-45937691D01*
X174425878Y-45937689D01*
X174255899Y-45882460D01*
X174138209Y-45863820D01*
X174079366Y-45854500D01*
X173900634Y-45854500D01*
X173841790Y-45863820D01*
X173724101Y-45882460D01*
X173724098Y-45882460D01*
X173554121Y-45937689D01*
X173554118Y-45937691D01*
X173394867Y-46018833D01*
X173250270Y-46123890D01*
X173123890Y-46250270D01*
X173018833Y-46394867D01*
X172937691Y-46554118D01*
X172937689Y-46554121D01*
X172882460Y-46724098D01*
X172882460Y-46724101D01*
X172854500Y-46900634D01*
X158463923Y-46900634D01*
X158471424Y-46893667D01*
X158475103Y-46891459D01*
X158571610Y-46842287D01*
X158640495Y-46792238D01*
X158640499Y-46792237D01*
X158734280Y-46724101D01*
X158737219Y-46721966D01*
X158881966Y-46577219D01*
X158881968Y-46577215D01*
X158881971Y-46577213D01*
X158934732Y-46504590D01*
X159002287Y-46411610D01*
X159095220Y-46229219D01*
X159158477Y-46034534D01*
X159190500Y-45832352D01*
X159190500Y-45627648D01*
X159158477Y-45425466D01*
X159095220Y-45230781D01*
X159095218Y-45230778D01*
X159095218Y-45230776D01*
X159061503Y-45164607D01*
X159002287Y-45048390D01*
X158994556Y-45037749D01*
X158881971Y-44882786D01*
X158737213Y-44738028D01*
X158571614Y-44617715D01*
X158565006Y-44614348D01*
X158478917Y-44570483D01*
X158428123Y-44522511D01*
X158411328Y-44454690D01*
X158433865Y-44388555D01*
X158478917Y-44349516D01*
X158571610Y-44302287D01*
X158592770Y-44286913D01*
X158737213Y-44181971D01*
X158737215Y-44181968D01*
X158737219Y-44181966D01*
X158881966Y-44037219D01*
X158881968Y-44037215D01*
X158881971Y-44037213D01*
X158934732Y-43964590D01*
X159002287Y-43871610D01*
X159095220Y-43689219D01*
X159158477Y-43494534D01*
X159190500Y-43292352D01*
X159190500Y-43087648D01*
X159158477Y-42885466D01*
X159095220Y-42690781D01*
X159095218Y-42690778D01*
X159095218Y-42690776D01*
X159061503Y-42624607D01*
X159002287Y-42508390D01*
X158994556Y-42497749D01*
X158881971Y-42342786D01*
X158737213Y-42198028D01*
X158571613Y-42077715D01*
X158571612Y-42077714D01*
X158571610Y-42077713D01*
X158518947Y-42050880D01*
X158486245Y-42034217D01*
X158435449Y-41986242D01*
X158418654Y-41918421D01*
X158441192Y-41852286D01*
X158484083Y-41814376D01*
X158549783Y-41779259D01*
X158680811Y-41691709D01*
X158757412Y-41628843D01*
X158868843Y-41517412D01*
X158931709Y-41440811D01*
X159019259Y-41309783D01*
X159065972Y-41222389D01*
X159126278Y-41076798D01*
X159155044Y-40981968D01*
X159185787Y-40827410D01*
X159195500Y-40728793D01*
X159195500Y-40571207D01*
X159185787Y-40472590D01*
X159155044Y-40318032D01*
X159126278Y-40223202D01*
X159065972Y-40077611D01*
X159019259Y-39990217D01*
X159019248Y-39990200D01*
X158931721Y-39859206D01*
X158931712Y-39859194D01*
X158931709Y-39859189D01*
X158868843Y-39782588D01*
X158757412Y-39671157D01*
X158680811Y-39608291D01*
X158680804Y-39608286D01*
X158680793Y-39608278D01*
X158549799Y-39520751D01*
X158549788Y-39520744D01*
X158549783Y-39520741D01*
X158527645Y-39508908D01*
X158484086Y-39485625D01*
X158434242Y-39436662D01*
X158418782Y-39368524D01*
X158442614Y-39302845D01*
X158486246Y-39265782D01*
X158571610Y-39222287D01*
X158662745Y-39156074D01*
X158737213Y-39101971D01*
X158737215Y-39101968D01*
X158737219Y-39101966D01*
X158881966Y-38957219D01*
X158881968Y-38957215D01*
X158881971Y-38957213D01*
X158943751Y-38872179D01*
X159002287Y-38791610D01*
X159095220Y-38609219D01*
X159158477Y-38414534D01*
X159190500Y-38212352D01*
X159190500Y-38007648D01*
X159158477Y-37805466D01*
X159095220Y-37610781D01*
X159095218Y-37610778D01*
X159095218Y-37610776D01*
X159061503Y-37544607D01*
X159002287Y-37428390D01*
X158949867Y-37356239D01*
X158881971Y-37262786D01*
X158737213Y-37118028D01*
X158571614Y-36997715D01*
X158565006Y-36994348D01*
X158478917Y-36950483D01*
X158428123Y-36902511D01*
X158411328Y-36834690D01*
X158433865Y-36768555D01*
X158478917Y-36729516D01*
X158571610Y-36682287D01*
X158592770Y-36666913D01*
X158737213Y-36561971D01*
X158737215Y-36561968D01*
X158737219Y-36561966D01*
X158881966Y-36417219D01*
X158881968Y-36417215D01*
X158881971Y-36417213D01*
X158943751Y-36332179D01*
X159002287Y-36251610D01*
X159095220Y-36069219D01*
X159158477Y-35874534D01*
X159190500Y-35672352D01*
X159190500Y-35467648D01*
X159158477Y-35265466D01*
X159095220Y-35070781D01*
X159095218Y-35070778D01*
X159095218Y-35070776D01*
X159041793Y-34965925D01*
X159002287Y-34888390D01*
X158994556Y-34877749D01*
X158881971Y-34722786D01*
X158737213Y-34578028D01*
X158571614Y-34457715D01*
X158525412Y-34434174D01*
X158478917Y-34410483D01*
X158428123Y-34362511D01*
X158411328Y-34294690D01*
X158433865Y-34228555D01*
X158478917Y-34189516D01*
X158571610Y-34142287D01*
X158629950Y-34099901D01*
X158737213Y-34021971D01*
X158737215Y-34021968D01*
X158737219Y-34021966D01*
X158881966Y-33877219D01*
X158881968Y-33877215D01*
X158881971Y-33877213D01*
X158934732Y-33804590D01*
X159002287Y-33711610D01*
X159095220Y-33529219D01*
X159158477Y-33334534D01*
X159190500Y-33132352D01*
X159190500Y-32927648D01*
X159158477Y-32725466D01*
X159095220Y-32530781D01*
X159095218Y-32530778D01*
X159095218Y-32530776D01*
X159061503Y-32464607D01*
X159002287Y-32348390D01*
X158994556Y-32337749D01*
X158881971Y-32182786D01*
X158737213Y-32038028D01*
X158571614Y-31917715D01*
X158565006Y-31914348D01*
X158478917Y-31870483D01*
X158428123Y-31822511D01*
X158411328Y-31754690D01*
X158433865Y-31688555D01*
X158478917Y-31649516D01*
X158571610Y-31602287D01*
X158592770Y-31586913D01*
X158737213Y-31481971D01*
X158737215Y-31481968D01*
X158737219Y-31481966D01*
X158881966Y-31337219D01*
X158881968Y-31337215D01*
X158881971Y-31337213D01*
X158934732Y-31264590D01*
X159002287Y-31171610D01*
X159095220Y-30989219D01*
X159158477Y-30794534D01*
X159190500Y-30592352D01*
X159190500Y-30387648D01*
X159158477Y-30185466D01*
X159095220Y-29990781D01*
X159095218Y-29990778D01*
X159095218Y-29990776D01*
X159061503Y-29924607D01*
X159002287Y-29808390D01*
X158994556Y-29797749D01*
X158881971Y-29642786D01*
X158737213Y-29498028D01*
X158571614Y-29377715D01*
X158563410Y-29373535D01*
X158485703Y-29333941D01*
X158434908Y-29285968D01*
X158418113Y-29218147D01*
X158440650Y-29152012D01*
X158483546Y-29114099D01*
X158549503Y-29078843D01*
X158549515Y-29078837D01*
X158618913Y-29032465D01*
X158019410Y-28432962D01*
X158082993Y-28415925D01*
X158197007Y-28350099D01*
X158290099Y-28257007D01*
X158355925Y-28142993D01*
X158372962Y-28079410D01*
X158972465Y-28678913D01*
X159018837Y-28609515D01*
X159018838Y-28609511D01*
X159065509Y-28522198D01*
X159125814Y-28376612D01*
X159154555Y-28281864D01*
X159185298Y-28127302D01*
X159185298Y-28127299D01*
X159195000Y-28028789D01*
X159195000Y-27871210D01*
X159185298Y-27772700D01*
X159185298Y-27772697D01*
X159154555Y-27618135D01*
X159125814Y-27523387D01*
X159065509Y-27377801D01*
X159018844Y-27290498D01*
X159018838Y-27290488D01*
X158972465Y-27221085D01*
X158372962Y-27820588D01*
X158355925Y-27757007D01*
X158290099Y-27642993D01*
X158197007Y-27549901D01*
X158082993Y-27484075D01*
X158019410Y-27467037D01*
X158618912Y-26867534D01*
X158549511Y-26821161D01*
X158549500Y-26821155D01*
X158483545Y-26785900D01*
X158433701Y-26736937D01*
X158418241Y-26668799D01*
X158442073Y-26603119D01*
X158485702Y-26566059D01*
X158571610Y-26522287D01*
X158662745Y-26456074D01*
X158737213Y-26401971D01*
X158737215Y-26401968D01*
X158737219Y-26401966D01*
X158881966Y-26257219D01*
X158881968Y-26257215D01*
X158881971Y-26257213D01*
X158979834Y-26122514D01*
X159002287Y-26091610D01*
X159095220Y-25909219D01*
X159158477Y-25714534D01*
X159190500Y-25512352D01*
X159190500Y-25307648D01*
X159183620Y-25264210D01*
X159158477Y-25105465D01*
X159129127Y-25015137D01*
X159095220Y-24910781D01*
X159095218Y-24910778D01*
X159095218Y-24910776D01*
X159061503Y-24844607D01*
X159002287Y-24728390D01*
X158994556Y-24717749D01*
X158881971Y-24562786D01*
X158737213Y-24418028D01*
X158571614Y-24297715D01*
X158565006Y-24294348D01*
X158478917Y-24250483D01*
X158428123Y-24202511D01*
X158411328Y-24134690D01*
X158433865Y-24068555D01*
X158478917Y-24029516D01*
X158571610Y-23982287D01*
X158677733Y-23905185D01*
X158737213Y-23861971D01*
X158737215Y-23861968D01*
X158737219Y-23861966D01*
X158881966Y-23717219D01*
X158881968Y-23717215D01*
X158881971Y-23717213D01*
X158969170Y-23597192D01*
X159002287Y-23551610D01*
X159095220Y-23369219D01*
X159158477Y-23174534D01*
X159190500Y-22972352D01*
X159190500Y-22767648D01*
X159158477Y-22565466D01*
X159095220Y-22370781D01*
X159095218Y-22370778D01*
X159095218Y-22370776D01*
X159055170Y-22292179D01*
X159002287Y-22188390D01*
X158994556Y-22177749D01*
X158881971Y-22022786D01*
X158737219Y-21878034D01*
X158691681Y-21844949D01*
X158595153Y-21774818D01*
X158552488Y-21719489D01*
X158546509Y-21649875D01*
X158579114Y-21588080D01*
X158639953Y-21553723D01*
X158668039Y-21550500D01*
X205350500Y-21550500D01*
X205417539Y-21570185D01*
X205463294Y-21622989D01*
X205474500Y-21674500D01*
X205474500Y-110775500D01*
X205454815Y-110842539D01*
X205402011Y-110888294D01*
X205350500Y-110899500D01*
X98549500Y-110899500D01*
X98482461Y-110879815D01*
X98436706Y-110827011D01*
X98425500Y-110775500D01*
X98425500Y-98870525D01*
X123904500Y-98870525D01*
X123904500Y-99129474D01*
X123904501Y-99129491D01*
X123938299Y-99386217D01*
X123938300Y-99386222D01*
X123938301Y-99386228D01*
X123938302Y-99386230D01*
X124005324Y-99636364D01*
X124104423Y-99875609D01*
X124104427Y-99875619D01*
X124233906Y-100099883D01*
X124391551Y-100305331D01*
X124391557Y-100305338D01*
X124574661Y-100488442D01*
X124574668Y-100488448D01*
X124780116Y-100646093D01*
X125004380Y-100775572D01*
X125004381Y-100775572D01*
X125004384Y-100775574D01*
X125243634Y-100874675D01*
X125493772Y-100941699D01*
X125750519Y-100975500D01*
X125750526Y-100975500D01*
X126009474Y-100975500D01*
X126009481Y-100975500D01*
X126266228Y-100941699D01*
X126516366Y-100874675D01*
X126755616Y-100775574D01*
X126979884Y-100646093D01*
X127185333Y-100488447D01*
X127368447Y-100305333D01*
X127526093Y-100099884D01*
X127655574Y-99875616D01*
X127754675Y-99636366D01*
X127821699Y-99386228D01*
X127855500Y-99129481D01*
X127855500Y-98870519D01*
X127821699Y-98613772D01*
X127754675Y-98363634D01*
X127655574Y-98124384D01*
X127526093Y-97900116D01*
X127368447Y-97694667D01*
X127368442Y-97694661D01*
X127185338Y-97511557D01*
X127185331Y-97511551D01*
X126979883Y-97353906D01*
X126755619Y-97224427D01*
X126755609Y-97224423D01*
X126516364Y-97125324D01*
X126391297Y-97091813D01*
X126266228Y-97058301D01*
X126266222Y-97058300D01*
X126266217Y-97058299D01*
X126009491Y-97024501D01*
X126009486Y-97024500D01*
X126009481Y-97024500D01*
X125750519Y-97024500D01*
X125750513Y-97024500D01*
X125750508Y-97024501D01*
X125493782Y-97058299D01*
X125493775Y-97058300D01*
X125493772Y-97058301D01*
X125440908Y-97072465D01*
X125243635Y-97125324D01*
X125004390Y-97224423D01*
X125004380Y-97224427D01*
X124780116Y-97353906D01*
X124574668Y-97511551D01*
X124574661Y-97511557D01*
X124391557Y-97694661D01*
X124391551Y-97694668D01*
X124233906Y-97900116D01*
X124104427Y-98124380D01*
X124104423Y-98124390D01*
X124005324Y-98363635D01*
X123938302Y-98613769D01*
X123938299Y-98613782D01*
X123904501Y-98870508D01*
X123904500Y-98870525D01*
X98425500Y-98870525D01*
X98425500Y-82886231D01*
X115924500Y-82886231D01*
X115924500Y-83113768D01*
X115960093Y-83338490D01*
X116030400Y-83554876D01*
X116030401Y-83554879D01*
X116133697Y-83757607D01*
X116267434Y-83941680D01*
X116428320Y-84102566D01*
X116612393Y-84236303D01*
X116711825Y-84286966D01*
X116815120Y-84339598D01*
X116815123Y-84339599D01*
X116923316Y-84374752D01*
X117031511Y-84409907D01*
X117135591Y-84426391D01*
X117256232Y-84445500D01*
X117256237Y-84445500D01*
X117483768Y-84445500D01*
X117592710Y-84428244D01*
X117708489Y-84409907D01*
X117924879Y-84339598D01*
X118127607Y-84236303D01*
X118311680Y-84102566D01*
X118472566Y-83941680D01*
X118606303Y-83757607D01*
X118709598Y-83554879D01*
X118779907Y-83338489D01*
X118798244Y-83222710D01*
X118815500Y-83113768D01*
X118815500Y-82886232D01*
X118815440Y-82885854D01*
X118815440Y-82885852D01*
X118813012Y-82870525D01*
X179144500Y-82870525D01*
X179144500Y-83129474D01*
X179144501Y-83129491D01*
X179178299Y-83386217D01*
X179178300Y-83386222D01*
X179178301Y-83386228D01*
X179178302Y-83386230D01*
X179245324Y-83636364D01*
X179344423Y-83875609D01*
X179344427Y-83875619D01*
X179473906Y-84099883D01*
X179631551Y-84305331D01*
X179631557Y-84305338D01*
X179814661Y-84488442D01*
X179814668Y-84488448D01*
X180020116Y-84646093D01*
X180244380Y-84775572D01*
X180244381Y-84775572D01*
X180244384Y-84775574D01*
X180483634Y-84874675D01*
X180733772Y-84941699D01*
X180990519Y-84975500D01*
X180990526Y-84975500D01*
X181249474Y-84975500D01*
X181249481Y-84975500D01*
X181506228Y-84941699D01*
X181756366Y-84874675D01*
X181995616Y-84775574D01*
X182219884Y-84646093D01*
X182425333Y-84488447D01*
X182608447Y-84305333D01*
X182766093Y-84099884D01*
X182895574Y-83875616D01*
X182994675Y-83636366D01*
X183061699Y-83386228D01*
X183095500Y-83129481D01*
X183095500Y-82870519D01*
X183061699Y-82613772D01*
X182994675Y-82363634D01*
X182895574Y-82124384D01*
X182766093Y-81900116D01*
X182764035Y-81897434D01*
X182608448Y-81694668D01*
X182608442Y-81694661D01*
X182425338Y-81511557D01*
X182425331Y-81511551D01*
X182219883Y-81353906D01*
X181995619Y-81224427D01*
X181995609Y-81224423D01*
X181756364Y-81125324D01*
X181631297Y-81091813D01*
X181506228Y-81058301D01*
X181506222Y-81058300D01*
X181506217Y-81058299D01*
X181249491Y-81024501D01*
X181249486Y-81024500D01*
X181249481Y-81024500D01*
X180990519Y-81024500D01*
X180990513Y-81024500D01*
X180990508Y-81024501D01*
X180733782Y-81058299D01*
X180733775Y-81058300D01*
X180733772Y-81058301D01*
X180680908Y-81072465D01*
X180483635Y-81125324D01*
X180244390Y-81224423D01*
X180244380Y-81224427D01*
X180020116Y-81353906D01*
X179814668Y-81511551D01*
X179814661Y-81511557D01*
X179631557Y-81694661D01*
X179631551Y-81694668D01*
X179473906Y-81900116D01*
X179344427Y-82124380D01*
X179344423Y-82124390D01*
X179245324Y-82363635D01*
X179178302Y-82613769D01*
X179178299Y-82613782D01*
X179144501Y-82870508D01*
X179144500Y-82870525D01*
X118813012Y-82870525D01*
X118779907Y-82661509D01*
X118709599Y-82445123D01*
X118709598Y-82445120D01*
X118606302Y-82242392D01*
X118472566Y-82058320D01*
X118311680Y-81897434D01*
X118127607Y-81763697D01*
X117924879Y-81660401D01*
X117924876Y-81660400D01*
X117708490Y-81590093D01*
X117483768Y-81554500D01*
X117483763Y-81554500D01*
X117256237Y-81554500D01*
X117256232Y-81554500D01*
X117031509Y-81590093D01*
X116815123Y-81660400D01*
X116815120Y-81660401D01*
X116612392Y-81763697D01*
X116507372Y-81839998D01*
X116428320Y-81897434D01*
X116428318Y-81897436D01*
X116428317Y-81897436D01*
X116267436Y-82058317D01*
X116267436Y-82058318D01*
X116267434Y-82058320D01*
X116219439Y-82124380D01*
X116133697Y-82242392D01*
X116030401Y-82445120D01*
X116030400Y-82445123D01*
X115960093Y-82661509D01*
X115924500Y-82886231D01*
X98425500Y-82886231D01*
X98425500Y-74290344D01*
X117622500Y-74290344D01*
X117628901Y-74349872D01*
X117628903Y-74349879D01*
X117679145Y-74484586D01*
X117679149Y-74484593D01*
X117765309Y-74599687D01*
X117765312Y-74599690D01*
X117880406Y-74685850D01*
X117880413Y-74685854D01*
X118015120Y-74736096D01*
X118015127Y-74736098D01*
X118074655Y-74742499D01*
X118074672Y-74742500D01*
X118322500Y-74742500D01*
X118322500Y-74046053D01*
X118194083Y-73917636D01*
X118447500Y-73917636D01*
X118447500Y-73967364D01*
X118466530Y-74013307D01*
X118501693Y-74048470D01*
X118547636Y-74067500D01*
X118597364Y-74067500D01*
X118643307Y-74048470D01*
X118645725Y-74046052D01*
X118822500Y-74046052D01*
X118822500Y-74742500D01*
X119070328Y-74742500D01*
X119070344Y-74742499D01*
X119129872Y-74736098D01*
X119129879Y-74736096D01*
X119264586Y-74685854D01*
X119264593Y-74685850D01*
X119379687Y-74599690D01*
X119379690Y-74599687D01*
X119465850Y-74484593D01*
X119465854Y-74484586D01*
X119474788Y-74460634D01*
X123839500Y-74460634D01*
X123839500Y-74639365D01*
X123867460Y-74815898D01*
X123867460Y-74815901D01*
X123922689Y-74985878D01*
X123922691Y-74985881D01*
X124003833Y-75145132D01*
X124108889Y-75289728D01*
X124235272Y-75416111D01*
X124379868Y-75521167D01*
X124539119Y-75602309D01*
X124539121Y-75602310D01*
X124697670Y-75653825D01*
X124709103Y-75657540D01*
X124885634Y-75685500D01*
X124885635Y-75685500D01*
X125064365Y-75685500D01*
X125064366Y-75685500D01*
X125240897Y-75657540D01*
X125240900Y-75657539D01*
X125240901Y-75657539D01*
X125410878Y-75602310D01*
X125410878Y-75602309D01*
X125410881Y-75602309D01*
X125570132Y-75521167D01*
X125714728Y-75416111D01*
X125841111Y-75289728D01*
X125946167Y-75145132D01*
X126027309Y-74985881D01*
X126082540Y-74815897D01*
X126110500Y-74639366D01*
X126110500Y-74460634D01*
X126082540Y-74284103D01*
X126082539Y-74284099D01*
X126082539Y-74284098D01*
X126027310Y-74114121D01*
X126027308Y-74114118D01*
X126003556Y-74067500D01*
X125946167Y-73954868D01*
X125841111Y-73810272D01*
X125714728Y-73683889D01*
X125570132Y-73578833D01*
X125410881Y-73497691D01*
X125410878Y-73497689D01*
X125240899Y-73442460D01*
X125123209Y-73423820D01*
X125064366Y-73414500D01*
X124885634Y-73414500D01*
X124826790Y-73423820D01*
X124709101Y-73442460D01*
X124709098Y-73442460D01*
X124539121Y-73497689D01*
X124539118Y-73497691D01*
X124379867Y-73578833D01*
X124235270Y-73683890D01*
X124108890Y-73810270D01*
X124003833Y-73954867D01*
X123922691Y-74114118D01*
X123922689Y-74114121D01*
X123867460Y-74284098D01*
X123867460Y-74284101D01*
X123839500Y-74460634D01*
X119474788Y-74460634D01*
X119492767Y-74412429D01*
X119492767Y-74412428D01*
X119516097Y-74349876D01*
X119516098Y-74349872D01*
X119522499Y-74290344D01*
X119522500Y-74290327D01*
X119522500Y-73692500D01*
X119176052Y-73692500D01*
X118822500Y-74046052D01*
X118645725Y-74046052D01*
X118678470Y-74013307D01*
X118697500Y-73967364D01*
X118697500Y-73917636D01*
X118678470Y-73871693D01*
X118643307Y-73836530D01*
X118597364Y-73817500D01*
X118547636Y-73817500D01*
X118501693Y-73836530D01*
X118466530Y-73871693D01*
X118447500Y-73917636D01*
X118194083Y-73917636D01*
X117968947Y-73692500D01*
X117622500Y-73692500D01*
X117622500Y-74290344D01*
X98425500Y-74290344D01*
X98425500Y-72594655D01*
X117622500Y-72594655D01*
X117622500Y-73192500D01*
X117968947Y-73192500D01*
X117968947Y-73192499D01*
X118243809Y-72917636D01*
X118447500Y-72917636D01*
X118447500Y-72967364D01*
X118466530Y-73013307D01*
X118501693Y-73048470D01*
X118547636Y-73067500D01*
X118597364Y-73067500D01*
X118643307Y-73048470D01*
X118678470Y-73013307D01*
X118697500Y-72967364D01*
X118697500Y-72917636D01*
X118678470Y-72871693D01*
X118645723Y-72838946D01*
X118822500Y-72838946D01*
X119176052Y-73192499D01*
X119176053Y-73192500D01*
X119522500Y-73192500D01*
X119522500Y-72594672D01*
X119522499Y-72594655D01*
X119516098Y-72535127D01*
X119516096Y-72535120D01*
X119465854Y-72400413D01*
X119465850Y-72400406D01*
X119379690Y-72285312D01*
X119379687Y-72285309D01*
X119264593Y-72199149D01*
X119264586Y-72199145D01*
X119129879Y-72148903D01*
X119129872Y-72148901D01*
X119070344Y-72142500D01*
X118822500Y-72142500D01*
X118822500Y-72838946D01*
X118645723Y-72838946D01*
X118643307Y-72836530D01*
X118597364Y-72817500D01*
X118547636Y-72817500D01*
X118501693Y-72836530D01*
X118466530Y-72871693D01*
X118447500Y-72917636D01*
X118243809Y-72917636D01*
X118322499Y-72838946D01*
X118322500Y-72838945D01*
X118322500Y-72142500D01*
X118074655Y-72142500D01*
X118015127Y-72148901D01*
X118015120Y-72148903D01*
X117880413Y-72199145D01*
X117880406Y-72199149D01*
X117765312Y-72285309D01*
X117765309Y-72285312D01*
X117679149Y-72400406D01*
X117679145Y-72400413D01*
X117628903Y-72535120D01*
X117628901Y-72535127D01*
X117622500Y-72594655D01*
X98425500Y-72594655D01*
X98425500Y-65102155D01*
X106650000Y-65102155D01*
X106650000Y-65750000D01*
X107566988Y-65750000D01*
X107534075Y-65807007D01*
X107500000Y-65934174D01*
X107500000Y-66065826D01*
X107534075Y-66192993D01*
X107566988Y-66250000D01*
X106650000Y-66250000D01*
X106650000Y-66897844D01*
X106656401Y-66957372D01*
X106656403Y-66957379D01*
X106706645Y-67092086D01*
X106706649Y-67092093D01*
X106792809Y-67207187D01*
X106792812Y-67207190D01*
X106907906Y-67293350D01*
X106907913Y-67293354D01*
X107042620Y-67343596D01*
X107042627Y-67343598D01*
X107102155Y-67349999D01*
X107102172Y-67350000D01*
X107750000Y-67350000D01*
X107750000Y-66433012D01*
X107807007Y-66465925D01*
X107934174Y-66500000D01*
X108065826Y-66500000D01*
X108192993Y-66465925D01*
X108250000Y-66433012D01*
X108250000Y-67350000D01*
X108897828Y-67350000D01*
X108897844Y-67349999D01*
X108957372Y-67343598D01*
X108957379Y-67343596D01*
X109092086Y-67293354D01*
X109092093Y-67293350D01*
X109207187Y-67207190D01*
X109207190Y-67207187D01*
X109293350Y-67092093D01*
X109293354Y-67092086D01*
X109343596Y-66957379D01*
X109343598Y-66957372D01*
X109349999Y-66897844D01*
X109350000Y-66897827D01*
X109350000Y-66250000D01*
X108433012Y-66250000D01*
X108465925Y-66192993D01*
X108500000Y-66065826D01*
X108500000Y-65934174D01*
X108465925Y-65807007D01*
X108433012Y-65750000D01*
X109350000Y-65750000D01*
X109350000Y-65148911D01*
X118013112Y-65148911D01*
X118013112Y-66944646D01*
X118013113Y-66944652D01*
X118019520Y-67004259D01*
X118069814Y-67139104D01*
X118069818Y-67139111D01*
X118156064Y-67254320D01*
X118156067Y-67254323D01*
X118271276Y-67340569D01*
X118271283Y-67340573D01*
X118406129Y-67390867D01*
X118406128Y-67390867D01*
X118413056Y-67391611D01*
X118465739Y-67397276D01*
X120261484Y-67397275D01*
X120321095Y-67390867D01*
X120455943Y-67340572D01*
X120571158Y-67254322D01*
X120657408Y-67139107D01*
X120707703Y-67004259D01*
X120714112Y-66944649D01*
X120714111Y-65148904D01*
X120707703Y-65089293D01*
X120657408Y-64954445D01*
X120657407Y-64954444D01*
X120657405Y-64954440D01*
X120571159Y-64839231D01*
X120571156Y-64839228D01*
X120455947Y-64752982D01*
X120455940Y-64752978D01*
X120321094Y-64702684D01*
X120321095Y-64702684D01*
X120261495Y-64696277D01*
X120261493Y-64696276D01*
X120261485Y-64696276D01*
X120261476Y-64696276D01*
X118465741Y-64696276D01*
X118465735Y-64696277D01*
X118406128Y-64702684D01*
X118271283Y-64752978D01*
X118271276Y-64752982D01*
X118156067Y-64839228D01*
X118156064Y-64839231D01*
X118069818Y-64954440D01*
X118069814Y-64954447D01*
X118019520Y-65089293D01*
X118013113Y-65148892D01*
X118013113Y-65148899D01*
X118013112Y-65148911D01*
X109350000Y-65148911D01*
X109350000Y-65102172D01*
X109349999Y-65102155D01*
X109343598Y-65042627D01*
X109343596Y-65042620D01*
X109293354Y-64907913D01*
X109293350Y-64907906D01*
X109207190Y-64792812D01*
X109207187Y-64792809D01*
X109092093Y-64706649D01*
X109092086Y-64706645D01*
X108957379Y-64656403D01*
X108957372Y-64656401D01*
X108897844Y-64650000D01*
X108250000Y-64650000D01*
X108250000Y-65566988D01*
X108192993Y-65534075D01*
X108065826Y-65500000D01*
X107934174Y-65500000D01*
X107807007Y-65534075D01*
X107750000Y-65566988D01*
X107750000Y-64650000D01*
X107102155Y-64650000D01*
X107042627Y-64656401D01*
X107042620Y-64656403D01*
X106907913Y-64706645D01*
X106907906Y-64706649D01*
X106792812Y-64792809D01*
X106792809Y-64792812D01*
X106706649Y-64907906D01*
X106706645Y-64907913D01*
X106656403Y-65042620D01*
X106656401Y-65042627D01*
X106650000Y-65102155D01*
X98425500Y-65102155D01*
X98425500Y-58602135D01*
X106649500Y-58602135D01*
X106649500Y-60397870D01*
X106649501Y-60397876D01*
X106655908Y-60457483D01*
X106706202Y-60592328D01*
X106706206Y-60592335D01*
X106792452Y-60707544D01*
X106792455Y-60707547D01*
X106907664Y-60793793D01*
X106907671Y-60793797D01*
X107042517Y-60844091D01*
X107042516Y-60844091D01*
X107049444Y-60844835D01*
X107102127Y-60850500D01*
X108897872Y-60850499D01*
X108957483Y-60844091D01*
X109092331Y-60793796D01*
X109207546Y-60707546D01*
X109293796Y-60592331D01*
X109344091Y-60457483D01*
X109350500Y-60397873D01*
X109350499Y-58602135D01*
X118149500Y-58602135D01*
X118149500Y-60397870D01*
X118149501Y-60397876D01*
X118155908Y-60457483D01*
X118206202Y-60592328D01*
X118206206Y-60592335D01*
X118292452Y-60707544D01*
X118292455Y-60707547D01*
X118407664Y-60793793D01*
X118407671Y-60793797D01*
X118542517Y-60844091D01*
X118542516Y-60844091D01*
X118549444Y-60844835D01*
X118602127Y-60850500D01*
X120397872Y-60850499D01*
X120457483Y-60844091D01*
X120592331Y-60793796D01*
X120707546Y-60707546D01*
X120793796Y-60592331D01*
X120844091Y-60457483D01*
X120850500Y-60397873D01*
X120850499Y-58602128D01*
X120844091Y-58542517D01*
X120840299Y-58532351D01*
X120793797Y-58407671D01*
X120793793Y-58407664D01*
X120707547Y-58292455D01*
X120707544Y-58292452D01*
X120592335Y-58206206D01*
X120592328Y-58206202D01*
X120457482Y-58155908D01*
X120457483Y-58155908D01*
X120397883Y-58149501D01*
X120397881Y-58149500D01*
X120397873Y-58149500D01*
X120397864Y-58149500D01*
X118602129Y-58149500D01*
X118602123Y-58149501D01*
X118542516Y-58155908D01*
X118407671Y-58206202D01*
X118407664Y-58206206D01*
X118292455Y-58292452D01*
X118292452Y-58292455D01*
X118206206Y-58407664D01*
X118206202Y-58407671D01*
X118155908Y-58542517D01*
X118149501Y-58602116D01*
X118149501Y-58602123D01*
X118149500Y-58602135D01*
X109350499Y-58602135D01*
X109350499Y-58602128D01*
X109344091Y-58542517D01*
X109340299Y-58532351D01*
X109293797Y-58407671D01*
X109293793Y-58407664D01*
X109207547Y-58292455D01*
X109207544Y-58292452D01*
X109092335Y-58206206D01*
X109092328Y-58206202D01*
X108957482Y-58155908D01*
X108957483Y-58155908D01*
X108897883Y-58149501D01*
X108897881Y-58149500D01*
X108897873Y-58149500D01*
X108897864Y-58149500D01*
X107102129Y-58149500D01*
X107102123Y-58149501D01*
X107042516Y-58155908D01*
X106907671Y-58206202D01*
X106907664Y-58206206D01*
X106792455Y-58292452D01*
X106792452Y-58292455D01*
X106706206Y-58407664D01*
X106706202Y-58407671D01*
X106655908Y-58542517D01*
X106649501Y-58602116D01*
X106649501Y-58602123D01*
X106649500Y-58602135D01*
X98425500Y-58602135D01*
X98425500Y-50026117D01*
X98445185Y-49959078D01*
X98497989Y-49913323D01*
X98567147Y-49903379D01*
X98630703Y-49932404D01*
X98659985Y-49969823D01*
X98723831Y-50095130D01*
X98793870Y-50191529D01*
X98828889Y-50239728D01*
X98955272Y-50366111D01*
X99099868Y-50471167D01*
X99259119Y-50552309D01*
X99259121Y-50552310D01*
X99417670Y-50603825D01*
X99429103Y-50607540D01*
X99605634Y-50635500D01*
X99605635Y-50635500D01*
X99784365Y-50635500D01*
X99784366Y-50635500D01*
X99960897Y-50607540D01*
X99960900Y-50607539D01*
X99960901Y-50607539D01*
X100130878Y-50552310D01*
X100130878Y-50552309D01*
X100130881Y-50552309D01*
X100290132Y-50471167D01*
X100434728Y-50366111D01*
X100561111Y-50239728D01*
X100666167Y-50095132D01*
X100747309Y-49935881D01*
X100802540Y-49765897D01*
X100830500Y-49589366D01*
X100830500Y-49410634D01*
X100802540Y-49234103D01*
X100802539Y-49234099D01*
X100802539Y-49234098D01*
X100747310Y-49064121D01*
X100747308Y-49064118D01*
X100730015Y-49030177D01*
X100666167Y-48904868D01*
X100561111Y-48760272D01*
X100434728Y-48633889D01*
X100290132Y-48528833D01*
X100130881Y-48447691D01*
X100130878Y-48447689D01*
X99960899Y-48392460D01*
X99833935Y-48372351D01*
X99784366Y-48364500D01*
X99605634Y-48364500D01*
X99556065Y-48372351D01*
X99429101Y-48392460D01*
X99429098Y-48392460D01*
X99259121Y-48447689D01*
X99259118Y-48447691D01*
X99099867Y-48528833D01*
X98955270Y-48633890D01*
X98828890Y-48760270D01*
X98723833Y-48904867D01*
X98659985Y-49030177D01*
X98612010Y-49080973D01*
X98544189Y-49097768D01*
X98478055Y-49075231D01*
X98434603Y-49020516D01*
X98425500Y-48973882D01*
X98425500Y-46410634D01*
X130364500Y-46410634D01*
X130364500Y-46589365D01*
X130392460Y-46765898D01*
X130392460Y-46765901D01*
X130447689Y-46935878D01*
X130447691Y-46935881D01*
X130528833Y-47095132D01*
X130633889Y-47239728D01*
X130760272Y-47366111D01*
X130904868Y-47471167D01*
X131064119Y-47552309D01*
X131064121Y-47552310D01*
X131165138Y-47585132D01*
X131234103Y-47607540D01*
X131410634Y-47635500D01*
X131410635Y-47635500D01*
X131589365Y-47635500D01*
X131589366Y-47635500D01*
X131765897Y-47607540D01*
X131765900Y-47607539D01*
X131765901Y-47607539D01*
X131935878Y-47552310D01*
X131935878Y-47552309D01*
X131935881Y-47552309D01*
X132095132Y-47471167D01*
X132239728Y-47366111D01*
X132366111Y-47239728D01*
X132471167Y-47095132D01*
X132552309Y-46935881D01*
X132567374Y-46889515D01*
X132607539Y-46765901D01*
X132607539Y-46765900D01*
X132607540Y-46765897D01*
X132635500Y-46589366D01*
X132635500Y-46410634D01*
X132607540Y-46234103D01*
X132607539Y-46234099D01*
X132607539Y-46234098D01*
X132552310Y-46064121D01*
X132552308Y-46064118D01*
X132537235Y-46034534D01*
X132471167Y-45904868D01*
X132366111Y-45760272D01*
X132239728Y-45633889D01*
X132095132Y-45528833D01*
X131935881Y-45447691D01*
X131935878Y-45447689D01*
X131765899Y-45392460D01*
X131648209Y-45373820D01*
X131589366Y-45364500D01*
X131410634Y-45364500D01*
X131351790Y-45373820D01*
X131234101Y-45392460D01*
X131234098Y-45392460D01*
X131064121Y-45447689D01*
X131064118Y-45447691D01*
X130904867Y-45528833D01*
X130760270Y-45633890D01*
X130633890Y-45760270D01*
X130528833Y-45904867D01*
X130447691Y-46064118D01*
X130447689Y-46064121D01*
X130392460Y-46234098D01*
X130392460Y-46234101D01*
X130364500Y-46410634D01*
X98425500Y-46410634D01*
X98425500Y-31062135D01*
X121149500Y-31062135D01*
X121149500Y-32857870D01*
X121149501Y-32857876D01*
X121155908Y-32917483D01*
X121206202Y-33052328D01*
X121206206Y-33052335D01*
X121292452Y-33167544D01*
X121292455Y-33167547D01*
X121407664Y-33253793D01*
X121407671Y-33253797D01*
X121452618Y-33270561D01*
X121542517Y-33304091D01*
X121602127Y-33310500D01*
X121612685Y-33310499D01*
X121679723Y-33330179D01*
X121700372Y-33346818D01*
X122370591Y-34017037D01*
X122307007Y-34034075D01*
X122192993Y-34099901D01*
X122099901Y-34192993D01*
X122034075Y-34307007D01*
X122017037Y-34370591D01*
X121384728Y-33738282D01*
X121384727Y-33738282D01*
X121345380Y-33792439D01*
X121248904Y-33981782D01*
X121183242Y-34183869D01*
X121183242Y-34183872D01*
X121150000Y-34393753D01*
X121150000Y-34606246D01*
X121183242Y-34816127D01*
X121183242Y-34816130D01*
X121248904Y-35018217D01*
X121345375Y-35207550D01*
X121384728Y-35261716D01*
X122017037Y-34629408D01*
X122034075Y-34692993D01*
X122099901Y-34807007D01*
X122192993Y-34900099D01*
X122307007Y-34965925D01*
X122370590Y-34982962D01*
X121738282Y-35615269D01*
X121738282Y-35615270D01*
X121792452Y-35654626D01*
X121792451Y-35654626D01*
X121801495Y-35659234D01*
X121852292Y-35707208D01*
X121869087Y-35775029D01*
X121846550Y-35841164D01*
X121801499Y-35880202D01*
X121792182Y-35884949D01*
X121620213Y-36009890D01*
X121469890Y-36160213D01*
X121344951Y-36332179D01*
X121248444Y-36521585D01*
X121182753Y-36723760D01*
X121149500Y-36933713D01*
X121149500Y-37146286D01*
X121182753Y-37356239D01*
X121248444Y-37558414D01*
X121344951Y-37747820D01*
X121469890Y-37919786D01*
X121620213Y-38070109D01*
X121792182Y-38195050D01*
X121800946Y-38199516D01*
X121851742Y-38247491D01*
X121868536Y-38315312D01*
X121845998Y-38381447D01*
X121800946Y-38420484D01*
X121792182Y-38424949D01*
X121620213Y-38549890D01*
X121469890Y-38700213D01*
X121344951Y-38872179D01*
X121248444Y-39061585D01*
X121182753Y-39263760D01*
X121159048Y-39413431D01*
X121149500Y-39473713D01*
X121149500Y-39686287D01*
X121159534Y-39749644D01*
X121170170Y-39816795D01*
X121182754Y-39896243D01*
X121241684Y-40077611D01*
X121248444Y-40098414D01*
X121344951Y-40287820D01*
X121469890Y-40459786D01*
X121620213Y-40610109D01*
X121792179Y-40735048D01*
X121792181Y-40735049D01*
X121792184Y-40735051D01*
X121981588Y-40831557D01*
X122183757Y-40897246D01*
X122393713Y-40930500D01*
X122393714Y-40930500D01*
X122606286Y-40930500D01*
X122606287Y-40930500D01*
X122816243Y-40897246D01*
X123018412Y-40831557D01*
X123207816Y-40735051D01*
X123234277Y-40715826D01*
X123379786Y-40610109D01*
X123379788Y-40610106D01*
X123379792Y-40610104D01*
X123530104Y-40459792D01*
X123530106Y-40459788D01*
X123530109Y-40459786D01*
X123639086Y-40309789D01*
X123655051Y-40287816D01*
X123751557Y-40098412D01*
X123817246Y-39896243D01*
X123850500Y-39686287D01*
X123850500Y-39473713D01*
X123817246Y-39263757D01*
X123751557Y-39061588D01*
X123655051Y-38872184D01*
X123655049Y-38872181D01*
X123655048Y-38872179D01*
X123530109Y-38700213D01*
X123379786Y-38549890D01*
X123207820Y-38424951D01*
X123207115Y-38424591D01*
X123199054Y-38420485D01*
X123148259Y-38372512D01*
X123131463Y-38304692D01*
X123153999Y-38238556D01*
X123199054Y-38199515D01*
X123207816Y-38195051D01*
X123229789Y-38179086D01*
X123379786Y-38070109D01*
X123379788Y-38070106D01*
X123379792Y-38070104D01*
X123530104Y-37919792D01*
X123530106Y-37919788D01*
X123530109Y-37919786D01*
X123655048Y-37747820D01*
X123655047Y-37747820D01*
X123655051Y-37747816D01*
X123751557Y-37558412D01*
X123817246Y-37356243D01*
X123850500Y-37146287D01*
X123850500Y-36933713D01*
X123817246Y-36723757D01*
X123751557Y-36521588D01*
X123655051Y-36332184D01*
X123655049Y-36332181D01*
X123655048Y-36332179D01*
X123530109Y-36160213D01*
X123379786Y-36009890D01*
X123207817Y-35884949D01*
X123198504Y-35880204D01*
X123147707Y-35832230D01*
X123130912Y-35764409D01*
X123153449Y-35698274D01*
X123198507Y-35659232D01*
X123207555Y-35654622D01*
X123261716Y-35615270D01*
X123261717Y-35615270D01*
X122629408Y-34982962D01*
X122692993Y-34965925D01*
X122807007Y-34900099D01*
X122900099Y-34807007D01*
X122965925Y-34692993D01*
X122982962Y-34629409D01*
X123615270Y-35261717D01*
X123615270Y-35261716D01*
X123654622Y-35207554D01*
X123751095Y-35018217D01*
X123816757Y-34816130D01*
X123816757Y-34816127D01*
X123850000Y-34606246D01*
X123850000Y-34393753D01*
X123816757Y-34183872D01*
X123816757Y-34183869D01*
X123751095Y-33981782D01*
X123654624Y-33792449D01*
X123615270Y-33738282D01*
X123615269Y-33738282D01*
X122982962Y-34370590D01*
X122965925Y-34307007D01*
X122900099Y-34192993D01*
X122807007Y-34099901D01*
X122692993Y-34034075D01*
X122629409Y-34017037D01*
X123299627Y-33346818D01*
X123360950Y-33313333D01*
X123387307Y-33310499D01*
X123397872Y-33310499D01*
X123457483Y-33304091D01*
X123592331Y-33253796D01*
X123707546Y-33167546D01*
X123793796Y-33052331D01*
X123844091Y-32917483D01*
X123850500Y-32857873D01*
X123850499Y-31062128D01*
X123844091Y-31002517D01*
X123839131Y-30989219D01*
X123793797Y-30867671D01*
X123793793Y-30867664D01*
X123707547Y-30752455D01*
X123707544Y-30752452D01*
X123592335Y-30666206D01*
X123592328Y-30666202D01*
X123457482Y-30615908D01*
X123457483Y-30615908D01*
X123397883Y-30609501D01*
X123397881Y-30609500D01*
X123397873Y-30609500D01*
X123397864Y-30609500D01*
X121602129Y-30609500D01*
X121602123Y-30609501D01*
X121542516Y-30615908D01*
X121407671Y-30666202D01*
X121407664Y-30666206D01*
X121292455Y-30752452D01*
X121292452Y-30752455D01*
X121206206Y-30867664D01*
X121206202Y-30867671D01*
X121155908Y-31002517D01*
X121149501Y-31062116D01*
X121149501Y-31062123D01*
X121149500Y-31062135D01*
X98425500Y-31062135D01*
X98425500Y-21674500D01*
X98445185Y-21607461D01*
X98497989Y-21561706D01*
X98549500Y-21550500D01*
X138939480Y-21550500D01*
X139006519Y-21570185D01*
G37*
%TD.AperFunction*%
%TD*%
M02*
