%TF.GenerationSoftware,KiCad,Pcbnew,9.0.7*%
%TF.CreationDate,2026-03-13T15:38:40-04:00*%
%TF.ProjectId,capstone_pcb_mkIII,63617073-746f-46e6-955f-7063625f6d6b,rev?*%
%TF.SameCoordinates,Original*%
%TF.FileFunction,Soldermask,Top*%
%TF.FilePolarity,Negative*%
%FSLAX46Y46*%
G04 Gerber Fmt 4.6, Leading zero omitted, Abs format (unit mm)*
G04 Created by KiCad (PCBNEW 9.0.7) date 2026-03-13 15:38:40*
%MOMM*%
%LPD*%
G01*
G04 APERTURE LIST*
G04 Aperture macros list*
%AMRoundRect*
0 Rectangle with rounded corners*
0 $1 Rounding radius*
0 $2 $3 $4 $5 $6 $7 $8 $9 X,Y pos of 4 corners*
0 Add a 4 corners polygon primitive as box body*
4,1,4,$2,$3,$4,$5,$6,$7,$8,$9,$2,$3,0*
0 Add four circle primitives for the rounded corners*
1,1,$1+$1,$2,$3*
1,1,$1+$1,$4,$5*
1,1,$1+$1,$6,$7*
1,1,$1+$1,$8,$9*
0 Add four rect primitives between the rounded corners*
20,1,$1+$1,$2,$3,$4,$5,0*
20,1,$1+$1,$4,$5,$6,$7,0*
20,1,$1+$1,$6,$7,$8,$9,0*
20,1,$1+$1,$8,$9,$2,$3,0*%
%AMFreePoly0*
4,1,37,0.800000,0.796148,0.878414,0.796148,1.032228,0.765552,1.177117,0.705537,1.307515,0.618408,1.418408,0.507515,1.505537,0.377117,1.565552,0.232228,1.596148,0.078414,1.596148,-0.078414,1.565552,-0.232228,1.505537,-0.377117,1.418408,-0.507515,1.307515,-0.618408,1.177117,-0.705537,1.032228,-0.765552,0.878414,-0.796148,0.800000,-0.796148,0.800000,-0.800000,-1.400000,-0.800000,
-1.403843,-0.796157,-1.439018,-0.796157,-1.511114,-0.766294,-1.566294,-0.711114,-1.596157,-0.639018,-1.596157,-0.603843,-1.600000,-0.600000,-1.600000,0.600000,-1.596157,0.603843,-1.596157,0.639018,-1.566294,0.711114,-1.511114,0.766294,-1.439018,0.796157,-1.403843,0.796157,-1.400000,0.800000,0.800000,0.800000,0.800000,0.796148,0.800000,0.796148,$1*%
%AMFreePoly1*
4,1,37,1.403843,0.796157,1.439018,0.796157,1.511114,0.766294,1.566294,0.711114,1.596157,0.639018,1.596157,0.603843,1.600000,0.600000,1.600000,-0.600000,1.596157,-0.603843,1.596157,-0.639018,1.566294,-0.711114,1.511114,-0.766294,1.439018,-0.796157,1.403843,-0.796157,1.400000,-0.800000,-0.800000,-0.800000,-0.800000,-0.796148,-0.878414,-0.796148,-1.032228,-0.765552,-1.177117,-0.705537,
-1.307515,-0.618408,-1.418408,-0.507515,-1.505537,-0.377117,-1.565552,-0.232228,-1.596148,-0.078414,-1.596148,0.078414,-1.565552,0.232228,-1.505537,0.377117,-1.418408,0.507515,-1.307515,0.618408,-1.177117,0.705537,-1.032228,0.765552,-0.878414,0.796148,-0.800000,0.796148,-0.800000,0.800000,1.400000,0.800000,1.403843,0.796157,1.403843,0.796157,$1*%
%AMFreePoly2*
4,1,37,0.603843,0.796157,0.639018,0.796157,0.711114,0.766294,0.766294,0.711114,0.796157,0.639018,0.796157,0.603843,0.800000,0.600000,0.800000,-0.600000,0.796157,-0.603843,0.796157,-0.639018,0.766294,-0.711114,0.711114,-0.766294,0.639018,-0.796157,0.603843,-0.796157,0.600000,-0.800000,0.000000,-0.800000,0.000000,-0.796148,-0.078414,-0.796148,-0.232228,-0.765552,-0.377117,-0.705537,
-0.507515,-0.618408,-0.618408,-0.507515,-0.705537,-0.377117,-0.765552,-0.232228,-0.796148,-0.078414,-0.796148,0.078414,-0.765552,0.232228,-0.705537,0.377117,-0.618408,0.507515,-0.507515,0.618408,-0.377117,0.705537,-0.232228,0.765552,-0.078414,0.796148,0.000000,0.796148,0.000000,0.800000,0.600000,0.800000,0.603843,0.796157,0.603843,0.796157,$1*%
%AMFreePoly3*
4,1,37,0.000000,0.796148,0.078414,0.796148,0.232228,0.765552,0.377117,0.705537,0.507515,0.618408,0.618408,0.507515,0.705537,0.377117,0.765552,0.232228,0.796148,0.078414,0.796148,-0.078414,0.765552,-0.232228,0.705537,-0.377117,0.618408,-0.507515,0.507515,-0.618408,0.377117,-0.705537,0.232228,-0.765552,0.078414,-0.796148,0.000000,-0.796148,0.000000,-0.800000,-0.600000,-0.800000,
-0.603843,-0.796157,-0.639018,-0.796157,-0.711114,-0.766294,-0.766294,-0.711114,-0.796157,-0.639018,-0.796157,-0.603843,-0.800000,-0.600000,-0.800000,0.600000,-0.796157,0.603843,-0.796157,0.639018,-0.766294,0.711114,-0.711114,0.766294,-0.639018,0.796157,-0.603843,0.796157,-0.600000,0.800000,0.000000,0.800000,0.000000,0.796148,0.000000,0.796148,$1*%
%AMFreePoly4*
4,1,11,0.750000,0.885000,0.300000,0.440500,0.300000,-0.440500,0.750000,-0.885000,0.750000,-1.850000,0.225000,-1.850000,-0.300000,-1.325000,-0.300000,1.325000,0.225000,1.850000,0.750000,1.850000,0.750000,0.885000,0.750000,0.885000,$1*%
G04 Aperture macros list end*
%ADD10RoundRect,0.200000X-0.200000X-0.275000X0.200000X-0.275000X0.200000X0.275000X-0.200000X0.275000X0*%
%ADD11RoundRect,0.200000X-0.275000X0.200000X-0.275000X-0.200000X0.275000X-0.200000X0.275000X0.200000X0*%
%ADD12C,2.200000*%
%ADD13C,1.850000*%
%ADD14FreePoly0,0.000000*%
%ADD15RoundRect,0.200000X-0.600000X-0.600000X0.600000X-0.600000X0.600000X0.600000X-0.600000X0.600000X0*%
%ADD16RoundRect,0.800000X-0.800000X-0.000010X0.800000X-0.000010X0.800000X0.000010X-0.800000X0.000010X0*%
%ADD17C,1.600000*%
%ADD18FreePoly1,0.000000*%
%ADD19FreePoly2,0.000000*%
%ADD20FreePoly3,0.000000*%
%ADD21R,1.600000X1.400000*%
%ADD22RoundRect,0.250000X-0.250000X-0.475000X0.250000X-0.475000X0.250000X0.475000X-0.250000X0.475000X0*%
%ADD23RoundRect,0.200000X0.200000X0.275000X-0.200000X0.275000X-0.200000X-0.275000X0.200000X-0.275000X0*%
%ADD24C,6.400000*%
%ADD25RoundRect,0.250000X0.475000X-0.250000X0.475000X0.250000X-0.475000X0.250000X-0.475000X-0.250000X0*%
%ADD26R,1.700000X1.700000*%
%ADD27C,2.390000*%
%ADD28C,3.450000*%
%ADD29RoundRect,0.250003X-3.499997X-2.999997X3.499997X-2.999997X3.499997X2.999997X-3.499997X2.999997X0*%
%ADD30RoundRect,0.062500X-0.187500X-0.062500X0.187500X-0.062500X0.187500X0.062500X-0.187500X0.062500X0*%
%ADD31R,0.900000X1.600000*%
%ADD32FreePoly4,270.000000*%
%ADD33FreePoly4,90.000000*%
%ADD34RoundRect,0.250000X-0.475000X0.250000X-0.475000X-0.250000X0.475000X-0.250000X0.475000X0.250000X0*%
%ADD35C,1.700000*%
G04 APERTURE END LIST*
D10*
%TO.C,R9*%
X131700000Y-26035000D03*
X133350000Y-26035000D03*
%TD*%
%TO.C,R8*%
X131700000Y-22860000D03*
X133350000Y-22860000D03*
%TD*%
D11*
%TO.C,R7*%
X161925000Y-28385000D03*
X161925000Y-30035000D03*
%TD*%
D12*
%TO.C,A1*%
X146275000Y-23000000D03*
D13*
X146575000Y-26030000D03*
X151425000Y-26030000D03*
D12*
X151725000Y-23000000D03*
D14*
X139310000Y-22870000D03*
D15*
X140110000Y-22870000D03*
D16*
X139310000Y-25410000D03*
D17*
X140110000Y-25410000D03*
D18*
X139310000Y-27950000D03*
D19*
X140110000Y-27950000D03*
D16*
X139310000Y-30490000D03*
D17*
X140110000Y-30490000D03*
D16*
X139310000Y-33030000D03*
D17*
X140110000Y-33030000D03*
D16*
X139310000Y-35570000D03*
D17*
X140110000Y-35570000D03*
D16*
X139310000Y-38110000D03*
D17*
X140110000Y-38110000D03*
D18*
X139310000Y-40650000D03*
D19*
X140110000Y-40650000D03*
D16*
X139310000Y-43190000D03*
D17*
X140110000Y-43190000D03*
D16*
X139310000Y-45730000D03*
D17*
X140110000Y-45730000D03*
D16*
X139310000Y-48270000D03*
D17*
X140110000Y-48270000D03*
D16*
X139310000Y-50810000D03*
D17*
X140110000Y-50810000D03*
D18*
X139310000Y-53350000D03*
D19*
X140110000Y-53350000D03*
D16*
X139310000Y-55890000D03*
D17*
X140110000Y-55890000D03*
D16*
X139310000Y-58430000D03*
D17*
X140110000Y-58430000D03*
D16*
X139310000Y-60970000D03*
D17*
X140110000Y-60970000D03*
D16*
X139310000Y-63510000D03*
D17*
X140110000Y-63510000D03*
D18*
X139310000Y-66050000D03*
D19*
X140110000Y-66050000D03*
D16*
X139310000Y-68590000D03*
D17*
X140110000Y-68590000D03*
D16*
X139310000Y-71130000D03*
D17*
X140110000Y-71130000D03*
X157890000Y-71130000D03*
D16*
X158690000Y-71130000D03*
D17*
X157890000Y-68590000D03*
D16*
X158690000Y-68590000D03*
D20*
X157890000Y-66050000D03*
D14*
X158690000Y-66050000D03*
D17*
X157890000Y-63510000D03*
D16*
X158690000Y-63510000D03*
D17*
X157890000Y-60970000D03*
D16*
X158690000Y-60970000D03*
D17*
X157890000Y-58430000D03*
D16*
X158690000Y-58430000D03*
D17*
X157890000Y-55890000D03*
D16*
X158690000Y-55890000D03*
D20*
X157890000Y-53350000D03*
D14*
X158690000Y-53350000D03*
D17*
X157890000Y-50810000D03*
D16*
X158690000Y-50810000D03*
D17*
X157890000Y-48270000D03*
D16*
X158690000Y-48270000D03*
D17*
X157890000Y-45730000D03*
D16*
X158690000Y-45730000D03*
D17*
X157890000Y-43190000D03*
D16*
X158690000Y-43190000D03*
D20*
X157890000Y-40650000D03*
D14*
X158690000Y-40650000D03*
D17*
X157890000Y-38110000D03*
D16*
X158690000Y-38110000D03*
D17*
X157890000Y-35570000D03*
D16*
X158690000Y-35570000D03*
D17*
X157890000Y-33030000D03*
D16*
X158690000Y-33030000D03*
D17*
X157890000Y-30490000D03*
D16*
X158690000Y-30490000D03*
D20*
X157890000Y-27950000D03*
D14*
X158690000Y-27950000D03*
D17*
X157890000Y-25410000D03*
D16*
X158690000Y-25410000D03*
D17*
X157890000Y-22870000D03*
D16*
X158690000Y-22870000D03*
%TD*%
D21*
%TO.C,SW4*%
X105000000Y-47250000D03*
X113000000Y-47250000D03*
X105000000Y-51750000D03*
X113000000Y-51750000D03*
%TD*%
%TO.C,SW2*%
X177238612Y-50721776D03*
X185238612Y-50721776D03*
X177238612Y-55221776D03*
X185238612Y-55221776D03*
%TD*%
D22*
%TO.C,C2*%
X123925000Y-76550000D03*
X125825000Y-76550000D03*
%TD*%
D23*
%TO.C,R3*%
X102325000Y-49500000D03*
X100675000Y-49500000D03*
%TD*%
D24*
%TO.C,H3*%
X107500000Y-102500000D03*
%TD*%
D25*
%TO.C,C3*%
X165735000Y-31125000D03*
X165735000Y-29225000D03*
%TD*%
D23*
%TO.C,R1*%
X122450000Y-76835000D03*
X120800000Y-76835000D03*
%TD*%
%TO.C,R2*%
X119425000Y-75425000D03*
X117775000Y-75425000D03*
%TD*%
D26*
%TO.C,J4*%
X108000000Y-66000000D03*
%TD*%
%TO.C,J5*%
X108000000Y-59500000D03*
%TD*%
%TO.C,J2*%
X119500000Y-59500000D03*
%TD*%
D21*
%TO.C,SW3*%
X162250000Y-43750000D03*
X170250000Y-43750000D03*
X162250000Y-48250000D03*
X170250000Y-48250000D03*
%TD*%
D11*
%TO.C,R5*%
X174275000Y-48884276D03*
X174275000Y-50534276D03*
%TD*%
D27*
%TO.C,BT1*%
X117370000Y-83000000D03*
D28*
X125880000Y-99000000D03*
X181120000Y-83000000D03*
D29*
X113810000Y-91000000D03*
X193190000Y-91000000D03*
%TD*%
D30*
%TO.C,U1*%
X117622500Y-72692500D03*
X117622500Y-73192500D03*
X117622500Y-73692500D03*
X117622500Y-74192500D03*
X119522500Y-74192500D03*
X119522500Y-73692500D03*
X119522500Y-73192500D03*
X119522500Y-72692500D03*
D31*
X118572500Y-73442500D03*
%TD*%
D24*
%TO.C,H1*%
X197500000Y-27500000D03*
%TD*%
D21*
%TO.C,SW1*%
X185238612Y-68946776D03*
X177238612Y-68946776D03*
X185238612Y-64446776D03*
X177238612Y-64446776D03*
%TD*%
D32*
%TO.C,L1*%
X122405000Y-71850000D03*
D33*
X122405000Y-74950000D03*
%TD*%
D24*
%TO.C,H2*%
X197000000Y-102500000D03*
%TD*%
D26*
%TO.C,J3*%
X119363612Y-66046776D03*
%TD*%
D34*
%TO.C,C1*%
X115325000Y-74200000D03*
X115325000Y-76100000D03*
%TD*%
D11*
%TO.C,R4*%
X169188612Y-68921776D03*
X169188612Y-70571776D03*
%TD*%
%TO.C,R6*%
X131500000Y-48350000D03*
X131500000Y-50000000D03*
%TD*%
D26*
%TO.C,J1*%
X122500000Y-31960000D03*
D35*
X122500000Y-34500000D03*
X122500000Y-37040000D03*
X122500000Y-39580000D03*
%TD*%
D24*
%TO.C,H4*%
X107500000Y-27500000D03*
%TD*%
D21*
%TO.C,SW5*%
X119000000Y-47250000D03*
X127000000Y-47250000D03*
X119000000Y-51750000D03*
X127000000Y-51750000D03*
%TD*%
M02*
