%TF.GenerationSoftware,KiCad,Pcbnew,9.0.7*%
%TF.CreationDate,2026-03-13T15:17:03-04:00*%
%TF.ProjectId,capstone_pcb_mkIII,63617073-746f-46e6-955f-7063625f6d6b,rev?*%
%TF.SameCoordinates,Original*%
%TF.FileFunction,Copper,L1,Top*%
%TF.FilePolarity,Positive*%
%FSLAX46Y46*%
G04 Gerber Fmt 4.6, Leading zero omitted, Abs format (unit mm)*
G04 Created by KiCad (PCBNEW 9.0.7) date 2026-03-13 15:17:03*
%MOMM*%
%LPD*%
G01*
G04 APERTURE LIST*
G04 Aperture macros list*
%AMRoundRect*
0 Rectangle with rounded corners*
0 $1 Rounding radius*
0 $2 $3 $4 $5 $6 $7 $8 $9 X,Y pos of 4 corners*
0 Add a 4 corners polygon primitive as box body*
4,1,4,$2,$3,$4,$5,$6,$7,$8,$9,$2,$3,0*
0 Add four circle primitives for the rounded corners*
1,1,$1+$1,$2,$3*
1,1,$1+$1,$4,$5*
1,1,$1+$1,$6,$7*
1,1,$1+$1,$8,$9*
0 Add four rect primitives between the rounded corners*
20,1,$1+$1,$2,$3,$4,$5,0*
20,1,$1+$1,$4,$5,$6,$7,0*
20,1,$1+$1,$6,$7,$8,$9,0*
20,1,$1+$1,$8,$9,$2,$3,0*%
%AMFreePoly0*
4,1,37,0.800000,0.796148,0.878414,0.796148,1.032228,0.765552,1.177117,0.705537,1.307515,0.618408,1.418408,0.507515,1.505537,0.377117,1.565552,0.232228,1.596148,0.078414,1.596148,-0.078414,1.565552,-0.232228,1.505537,-0.377117,1.418408,-0.507515,1.307515,-0.618408,1.177117,-0.705537,1.032228,-0.765552,0.878414,-0.796148,0.800000,-0.796148,0.800000,-0.800000,-1.400000,-0.800000,
-1.403843,-0.796157,-1.439018,-0.796157,-1.511114,-0.766294,-1.566294,-0.711114,-1.596157,-0.639018,-1.596157,-0.603843,-1.600000,-0.600000,-1.600000,0.600000,-1.596157,0.603843,-1.596157,0.639018,-1.566294,0.711114,-1.511114,0.766294,-1.439018,0.796157,-1.403843,0.796157,-1.400000,0.800000,0.800000,0.800000,0.800000,0.796148,0.800000,0.796148,$1*%
%AMFreePoly1*
4,1,37,1.403843,0.796157,1.439018,0.796157,1.511114,0.766294,1.566294,0.711114,1.596157,0.639018,1.596157,0.603843,1.600000,0.600000,1.600000,-0.600000,1.596157,-0.603843,1.596157,-0.639018,1.566294,-0.711114,1.511114,-0.766294,1.439018,-0.796157,1.403843,-0.796157,1.400000,-0.800000,-0.800000,-0.800000,-0.800000,-0.796148,-0.878414,-0.796148,-1.032228,-0.765552,-1.177117,-0.705537,
-1.307515,-0.618408,-1.418408,-0.507515,-1.505537,-0.377117,-1.565552,-0.232228,-1.596148,-0.078414,-1.596148,0.078414,-1.565552,0.232228,-1.505537,0.377117,-1.418408,0.507515,-1.307515,0.618408,-1.177117,0.705537,-1.032228,0.765552,-0.878414,0.796148,-0.800000,0.796148,-0.800000,0.800000,1.400000,0.800000,1.403843,0.796157,1.403843,0.796157,$1*%
%AMFreePoly2*
4,1,37,0.603843,0.796157,0.639018,0.796157,0.711114,0.766294,0.766294,0.711114,0.796157,0.639018,0.796157,0.603843,0.800000,0.600000,0.800000,-0.600000,0.796157,-0.603843,0.796157,-0.639018,0.766294,-0.711114,0.711114,-0.766294,0.639018,-0.796157,0.603843,-0.796157,0.600000,-0.800000,0.000000,-0.800000,0.000000,-0.796148,-0.078414,-0.796148,-0.232228,-0.765552,-0.377117,-0.705537,
-0.507515,-0.618408,-0.618408,-0.507515,-0.705537,-0.377117,-0.765552,-0.232228,-0.796148,-0.078414,-0.796148,0.078414,-0.765552,0.232228,-0.705537,0.377117,-0.618408,0.507515,-0.507515,0.618408,-0.377117,0.705537,-0.232228,0.765552,-0.078414,0.796148,0.000000,0.796148,0.000000,0.800000,0.600000,0.800000,0.603843,0.796157,0.603843,0.796157,$1*%
%AMFreePoly3*
4,1,37,0.000000,0.796148,0.078414,0.796148,0.232228,0.765552,0.377117,0.705537,0.507515,0.618408,0.618408,0.507515,0.705537,0.377117,0.765552,0.232228,0.796148,0.078414,0.796148,-0.078414,0.765552,-0.232228,0.705537,-0.377117,0.618408,-0.507515,0.507515,-0.618408,0.377117,-0.705537,0.232228,-0.765552,0.078414,-0.796148,0.000000,-0.796148,0.000000,-0.800000,-0.600000,-0.800000,
-0.603843,-0.796157,-0.639018,-0.796157,-0.711114,-0.766294,-0.766294,-0.711114,-0.796157,-0.639018,-0.796157,-0.603843,-0.800000,-0.600000,-0.800000,0.600000,-0.796157,0.603843,-0.796157,0.639018,-0.766294,0.711114,-0.711114,0.766294,-0.639018,0.796157,-0.603843,0.796157,-0.600000,0.800000,0.000000,0.800000,0.000000,0.796148,0.000000,0.796148,$1*%
%AMFreePoly4*
4,1,11,0.750000,0.885000,0.300000,0.440500,0.300000,-0.440500,0.750000,-0.885000,0.750000,-1.850000,0.225000,-1.850000,-0.300000,-1.325000,-0.300000,1.325000,0.225000,1.850000,0.750000,1.850000,0.750000,0.885000,0.750000,0.885000,$1*%
G04 Aperture macros list end*
%TA.AperFunction,SMDPad,CuDef*%
%ADD10RoundRect,0.200000X-0.200000X-0.275000X0.200000X-0.275000X0.200000X0.275000X-0.200000X0.275000X0*%
%TD*%
%TA.AperFunction,SMDPad,CuDef*%
%ADD11RoundRect,0.200000X-0.275000X0.200000X-0.275000X-0.200000X0.275000X-0.200000X0.275000X0.200000X0*%
%TD*%
%TA.AperFunction,SMDPad,CuDef*%
%ADD12FreePoly0,0.000000*%
%TD*%
%TA.AperFunction,ComponentPad*%
%ADD13RoundRect,0.200000X-0.600000X-0.600000X0.600000X-0.600000X0.600000X0.600000X-0.600000X0.600000X0*%
%TD*%
%TA.AperFunction,SMDPad,CuDef*%
%ADD14RoundRect,0.800000X-0.800000X-0.000010X0.800000X-0.000010X0.800000X0.000010X-0.800000X0.000010X0*%
%TD*%
%TA.AperFunction,ComponentPad*%
%ADD15C,1.600000*%
%TD*%
%TA.AperFunction,SMDPad,CuDef*%
%ADD16FreePoly1,0.000000*%
%TD*%
%TA.AperFunction,ComponentPad*%
%ADD17FreePoly2,0.000000*%
%TD*%
%TA.AperFunction,ComponentPad*%
%ADD18FreePoly3,0.000000*%
%TD*%
%TA.AperFunction,SMDPad,CuDef*%
%ADD19R,1.600000X1.400000*%
%TD*%
%TA.AperFunction,SMDPad,CuDef*%
%ADD20RoundRect,0.250000X-0.250000X-0.475000X0.250000X-0.475000X0.250000X0.475000X-0.250000X0.475000X0*%
%TD*%
%TA.AperFunction,SMDPad,CuDef*%
%ADD21RoundRect,0.200000X0.200000X0.275000X-0.200000X0.275000X-0.200000X-0.275000X0.200000X-0.275000X0*%
%TD*%
%TA.AperFunction,ComponentPad*%
%ADD22C,6.400000*%
%TD*%
%TA.AperFunction,SMDPad,CuDef*%
%ADD23RoundRect,0.250000X0.475000X-0.250000X0.475000X0.250000X-0.475000X0.250000X-0.475000X-0.250000X0*%
%TD*%
%TA.AperFunction,ComponentPad*%
%ADD24R,1.700000X1.700000*%
%TD*%
%TA.AperFunction,SMDPad,CuDef*%
%ADD25RoundRect,0.250003X-3.499997X-2.999997X3.499997X-2.999997X3.499997X2.999997X-3.499997X2.999997X0*%
%TD*%
%TA.AperFunction,SMDPad,CuDef*%
%ADD26RoundRect,0.062500X-0.187500X-0.062500X0.187500X-0.062500X0.187500X0.062500X-0.187500X0.062500X0*%
%TD*%
%TA.AperFunction,HeatsinkPad*%
%ADD27C,0.600000*%
%TD*%
%TA.AperFunction,SMDPad,CuDef*%
%ADD28R,0.900000X1.600000*%
%TD*%
%TA.AperFunction,SMDPad,CuDef*%
%ADD29FreePoly4,270.000000*%
%TD*%
%TA.AperFunction,SMDPad,CuDef*%
%ADD30FreePoly4,90.000000*%
%TD*%
%TA.AperFunction,SMDPad,CuDef*%
%ADD31RoundRect,0.250000X-0.475000X0.250000X-0.475000X-0.250000X0.475000X-0.250000X0.475000X0.250000X0*%
%TD*%
%TA.AperFunction,ComponentPad*%
%ADD32C,1.700000*%
%TD*%
%TA.AperFunction,ViaPad*%
%ADD33C,1.270000*%
%TD*%
%TA.AperFunction,Conductor*%
%ADD34C,0.508000*%
%TD*%
%TA.AperFunction,Conductor*%
%ADD35C,0.200000*%
%TD*%
%TA.AperFunction,Conductor*%
%ADD36C,0.635000*%
%TD*%
%TA.AperFunction,Conductor*%
%ADD37C,0.254000*%
%TD*%
%TA.AperFunction,Conductor*%
%ADD38C,2.540000*%
%TD*%
G04 APERTURE END LIST*
D10*
%TO.P,R9,1*%
%TO.N,Net-(J1-Pin_3)*%
X131700000Y-26035000D03*
%TO.P,R9,2*%
%TO.N,Net-(A1-GPIO1)*%
X133350000Y-26035000D03*
%TD*%
%TO.P,R8,1*%
%TO.N,Net-(J1-Pin_4)*%
X131700000Y-22860000D03*
%TO.P,R8,2*%
%TO.N,Net-(A1-GPIO0)*%
X133350000Y-22860000D03*
%TD*%
D11*
%TO.P,R7,1*%
%TO.N,GND*%
X161925000Y-28385000D03*
%TO.P,R7,2*%
%TO.N,Net-(A1-3V3_EN)*%
X161925000Y-30035000D03*
%TD*%
D12*
%TO.P,A1,1,GPIO0*%
%TO.N,Net-(A1-GPIO0)*%
X139310000Y-22870000D03*
D13*
X140110000Y-22870000D03*
D14*
%TO.P,A1,2,GPIO1*%
%TO.N,Net-(A1-GPIO1)*%
X139310000Y-25410000D03*
D15*
X140110000Y-25410000D03*
D16*
%TO.P,A1,3,GND*%
%TO.N,GND*%
X139310000Y-27950000D03*
D17*
X140110000Y-27950000D03*
D14*
%TO.P,A1,4,GPIO2*%
%TO.N,unconnected-(A1-GPIO2-Pad4)_1*%
X139310000Y-30490000D03*
D15*
%TO.N,unconnected-(A1-GPIO2-Pad4)*%
X140110000Y-30490000D03*
D14*
%TO.P,A1,5,GPIO3*%
%TO.N,unconnected-(A1-GPIO3-Pad5)*%
X139310000Y-33030000D03*
D15*
%TO.N,unconnected-(A1-GPIO3-Pad5)_1*%
X140110000Y-33030000D03*
D14*
%TO.P,A1,6,GPIO4*%
%TO.N,unconnected-(A1-GPIO4-Pad6)*%
X139310000Y-35570000D03*
D15*
%TO.N,unconnected-(A1-GPIO4-Pad6)_1*%
X140110000Y-35570000D03*
D14*
%TO.P,A1,7,GPIO5*%
%TO.N,unconnected-(A1-GPIO5-Pad7)*%
X139310000Y-38110000D03*
D15*
%TO.N,unconnected-(A1-GPIO5-Pad7)_1*%
X140110000Y-38110000D03*
D16*
%TO.P,A1,8,GND*%
%TO.N,GND*%
X139310000Y-40650000D03*
D17*
X140110000Y-40650000D03*
D14*
%TO.P,A1,9,GPIO6*%
%TO.N,unconnected-(A1-GPIO6-Pad9)_1*%
X139310000Y-43190000D03*
D15*
%TO.N,unconnected-(A1-GPIO6-Pad9)*%
X140110000Y-43190000D03*
D14*
%TO.P,A1,10,GPIO7*%
%TO.N,unconnected-(A1-GPIO7-Pad10)*%
X139310000Y-45730000D03*
D15*
%TO.N,unconnected-(A1-GPIO7-Pad10)_1*%
X140110000Y-45730000D03*
D14*
%TO.P,A1,11,GPIO8*%
%TO.N,Net-(A1-GPIO8)*%
X139310000Y-48270000D03*
D15*
X140110000Y-48270000D03*
D14*
%TO.P,A1,12,GPIO9*%
%TO.N,Net-(A1-GPIO9)*%
X139310000Y-50810000D03*
D15*
X140110000Y-50810000D03*
D16*
%TO.P,A1,13,GND*%
%TO.N,GND*%
X139310000Y-53350000D03*
D17*
X140110000Y-53350000D03*
D14*
%TO.P,A1,14,GPIO10*%
%TO.N,unconnected-(A1-GPIO10-Pad14)*%
X139310000Y-55890000D03*
D15*
%TO.N,unconnected-(A1-GPIO10-Pad14)_1*%
X140110000Y-55890000D03*
D14*
%TO.P,A1,15,GPIO11*%
%TO.N,unconnected-(A1-GPIO11-Pad15)_1*%
X139310000Y-58430000D03*
D15*
%TO.N,unconnected-(A1-GPIO11-Pad15)*%
X140110000Y-58430000D03*
D14*
%TO.P,A1,16,GPIO12*%
%TO.N,Net-(A1-GPIO12)*%
X139310000Y-60970000D03*
D15*
X140110000Y-60970000D03*
D14*
%TO.P,A1,17,GPIO13*%
%TO.N,Net-(A1-GPIO13)*%
X139310000Y-63510000D03*
D15*
X140110000Y-63510000D03*
D16*
%TO.P,A1,18,GND*%
%TO.N,GND*%
X139310000Y-66050000D03*
D17*
X140110000Y-66050000D03*
D14*
%TO.P,A1,19,GPIO14*%
%TO.N,unconnected-(A1-GPIO14-Pad19)*%
X139310000Y-68590000D03*
D15*
%TO.N,unconnected-(A1-GPIO14-Pad19)_1*%
X140110000Y-68590000D03*
D14*
%TO.P,A1,20,GPIO15*%
%TO.N,unconnected-(A1-GPIO15-Pad20)_1*%
X139310000Y-71130000D03*
D15*
%TO.N,unconnected-(A1-GPIO15-Pad20)*%
X140110000Y-71130000D03*
%TO.P,A1,21,GPIO16*%
%TO.N,unconnected-(A1-GPIO16-Pad21)*%
X157890000Y-71130000D03*
D14*
%TO.N,unconnected-(A1-GPIO16-Pad21)_1*%
X158690000Y-71130000D03*
D15*
%TO.P,A1,22,GPIO17*%
%TO.N,unconnected-(A1-GPIO17-Pad22)*%
X157890000Y-68590000D03*
D14*
%TO.N,unconnected-(A1-GPIO17-Pad22)_1*%
X158690000Y-68590000D03*
D18*
%TO.P,A1,23,GND*%
%TO.N,GND*%
X157890000Y-66050000D03*
D12*
X158690000Y-66050000D03*
D15*
%TO.P,A1,24,GPIO18*%
%TO.N,Net-(A1-GPIO18)*%
X157890000Y-63510000D03*
D14*
X158690000Y-63510000D03*
D15*
%TO.P,A1,25,GPIO19*%
%TO.N,Net-(A1-GPIO19)*%
X157890000Y-60970000D03*
D14*
X158690000Y-60970000D03*
D15*
%TO.P,A1,26,GPIO20*%
%TO.N,unconnected-(A1-GPIO20-Pad26)*%
X157890000Y-58430000D03*
D14*
%TO.N,unconnected-(A1-GPIO20-Pad26)_1*%
X158690000Y-58430000D03*
D15*
%TO.P,A1,27,GPIO21*%
%TO.N,unconnected-(A1-GPIO21-Pad27)_1*%
X157890000Y-55890000D03*
D14*
%TO.N,unconnected-(A1-GPIO21-Pad27)*%
X158690000Y-55890000D03*
D18*
%TO.P,A1,28,GND*%
%TO.N,GND*%
X157890000Y-53350000D03*
D12*
X158690000Y-53350000D03*
D15*
%TO.P,A1,29,GPIO22*%
%TO.N,unconnected-(A1-GPIO22-Pad29)_1*%
X157890000Y-50810000D03*
D14*
%TO.N,unconnected-(A1-GPIO22-Pad29)*%
X158690000Y-50810000D03*
D15*
%TO.P,A1,30,RUN*%
%TO.N,Net-(A1-RUN)*%
X157890000Y-48270000D03*
D14*
X158690000Y-48270000D03*
D15*
%TO.P,A1,31,GPIO26_ADC0*%
%TO.N,unconnected-(A1-GPIO26_ADC0-Pad31)*%
X157890000Y-45730000D03*
D14*
%TO.N,unconnected-(A1-GPIO26_ADC0-Pad31)_1*%
X158690000Y-45730000D03*
D15*
%TO.P,A1,32,GPIO27_ADC1*%
%TO.N,unconnected-(A1-GPIO27_ADC1-Pad32)*%
X157890000Y-43190000D03*
D14*
%TO.N,unconnected-(A1-GPIO27_ADC1-Pad32)_1*%
X158690000Y-43190000D03*
D18*
%TO.P,A1,33,AGND*%
%TO.N,unconnected-(A1-AGND-Pad33)*%
X157890000Y-40650000D03*
D12*
%TO.N,unconnected-(A1-AGND-Pad33)_1*%
X158690000Y-40650000D03*
D15*
%TO.P,A1,34,GPIO28_ADC2*%
%TO.N,unconnected-(A1-GPIO28_ADC2-Pad34)_1*%
X157890000Y-38110000D03*
D14*
%TO.N,unconnected-(A1-GPIO28_ADC2-Pad34)*%
X158690000Y-38110000D03*
D15*
%TO.P,A1,35,ADC_VREF*%
%TO.N,unconnected-(A1-ADC_VREF-Pad35)*%
X157890000Y-35570000D03*
D14*
%TO.N,unconnected-(A1-ADC_VREF-Pad35)_1*%
X158690000Y-35570000D03*
D15*
%TO.P,A1,36,3V3*%
%TO.N,V_BC*%
X157890000Y-33030000D03*
D14*
X158690000Y-33030000D03*
D15*
%TO.P,A1,37,3V3_EN*%
%TO.N,Net-(A1-3V3_EN)*%
X157890000Y-30490000D03*
D14*
X158690000Y-30490000D03*
D18*
%TO.P,A1,38,GND*%
%TO.N,GND*%
X157890000Y-27950000D03*
D12*
X158690000Y-27950000D03*
D15*
%TO.P,A1,39,VSYS*%
%TO.N,unconnected-(A1-VSYS-Pad39)*%
X157890000Y-25410000D03*
D14*
%TO.N,unconnected-(A1-VSYS-Pad39)_1*%
X158690000Y-25410000D03*
D15*
%TO.P,A1,40,VBUS*%
%TO.N,unconnected-(A1-VBUS-Pad40)_1*%
X157890000Y-22870000D03*
D14*
%TO.N,unconnected-(A1-VBUS-Pad40)*%
X158690000Y-22870000D03*
%TD*%
D19*
%TO.P,SW4,1,1*%
%TO.N,GND*%
X105000000Y-47250000D03*
X113000000Y-47250000D03*
%TO.P,SW4,2,2*%
%TO.N,Net-(A1-GPIO8)*%
X105000000Y-51750000D03*
X113000000Y-51750000D03*
%TD*%
%TO.P,SW2,1,1*%
%TO.N,Net-(A1-GPIO19)*%
X177238612Y-50721776D03*
X185238612Y-50721776D03*
%TO.P,SW2,2,2*%
%TO.N,GND*%
X177238612Y-55221776D03*
X185238612Y-55221776D03*
%TD*%
D20*
%TO.P,C2,1*%
%TO.N,V_BC*%
X123925000Y-76550000D03*
%TO.P,C2,2*%
%TO.N,GND*%
X125825000Y-76550000D03*
%TD*%
D21*
%TO.P,R3,1*%
%TO.N,Net-(A1-GPIO8)*%
X102325000Y-49500000D03*
%TO.P,R3,2*%
%TO.N,V_BC*%
X100675000Y-49500000D03*
%TD*%
D22*
%TO.P,H3,1,1*%
%TO.N,GND*%
X107500000Y-102500000D03*
%TD*%
D23*
%TO.P,C3,1*%
%TO.N,V_BC*%
X165735000Y-31125000D03*
%TO.P,C3,2*%
%TO.N,GND*%
X165735000Y-29225000D03*
%TD*%
D21*
%TO.P,R1,1*%
%TO.N,V_BC*%
X122450000Y-76835000D03*
%TO.P,R1,2*%
%TO.N,Net-(U1-FB)*%
X120800000Y-76835000D03*
%TD*%
%TO.P,R2,1*%
%TO.N,Net-(U1-FB)*%
X119425000Y-75425000D03*
%TO.P,R2,2*%
%TO.N,GND*%
X117775000Y-75425000D03*
%TD*%
D24*
%TO.P,J4,1,Pin_1*%
%TO.N,GND*%
X108000000Y-66000000D03*
%TD*%
%TO.P,J5,1,Pin_1*%
%TO.N,V_BC*%
X108000000Y-59500000D03*
%TD*%
%TO.P,J2,1,Pin_1*%
%TO.N,Net-(A1-GPIO12)*%
X119500000Y-59500000D03*
%TD*%
D19*
%TO.P,SW3,1,1*%
%TO.N,GND*%
X162250000Y-43750000D03*
X170250000Y-43750000D03*
%TO.P,SW3,2,2*%
%TO.N,Net-(A1-RUN)*%
X162250000Y-48250000D03*
X170250000Y-48250000D03*
%TD*%
D11*
%TO.P,R5,1*%
%TO.N,V_BC*%
X174275000Y-48884276D03*
%TO.P,R5,2*%
%TO.N,Net-(A1-GPIO19)*%
X174275000Y-50534276D03*
%TD*%
D25*
%TO.P,BT1,1,+*%
%TO.N,Net-(BT1-+)*%
X113810000Y-91000000D03*
%TO.P,BT1,2,-*%
%TO.N,GND*%
X193190000Y-91000000D03*
%TD*%
D26*
%TO.P,U1,1,PGND*%
%TO.N,GND*%
X117622500Y-72692500D03*
%TO.P,U1,2,VIN*%
%TO.N,Net-(BT1-+)*%
X117622500Y-73192500D03*
%TO.P,U1,3,EN*%
X117622500Y-73692500D03*
%TO.P,U1,4,AGND*%
%TO.N,GND*%
X117622500Y-74192500D03*
%TO.P,U1,5,FB*%
%TO.N,Net-(U1-FB)*%
X119522500Y-74192500D03*
%TO.P,U1,6,VOS*%
%TO.N,V_BC*%
X119522500Y-73692500D03*
%TO.P,U1,7,SW*%
%TO.N,Net-(U1-SW)*%
X119522500Y-73192500D03*
%TO.P,U1,8,PG*%
%TO.N,unconnected-(U1-PG-Pad8)*%
X119522500Y-72692500D03*
D27*
%TO.P,U1,9,PAD*%
%TO.N,GND*%
X118572500Y-72942500D03*
D28*
X118572500Y-73442500D03*
D27*
X118572500Y-73942500D03*
%TD*%
D22*
%TO.P,H1,1,1*%
%TO.N,GND*%
X197500000Y-27500000D03*
%TD*%
D19*
%TO.P,SW1,1,1*%
%TO.N,Net-(A1-GPIO18)*%
X185238612Y-68946776D03*
X177238612Y-68946776D03*
%TO.P,SW1,2,2*%
%TO.N,GND*%
X185238612Y-64446776D03*
X177238612Y-64446776D03*
%TD*%
D29*
%TO.P,L1,1,1*%
%TO.N,Net-(U1-SW)*%
X122405000Y-71850000D03*
D30*
%TO.P,L1,2,2*%
%TO.N,V_BC*%
X122405000Y-74950000D03*
%TD*%
D22*
%TO.P,H2,1,1*%
%TO.N,GND*%
X197000000Y-102500000D03*
%TD*%
D24*
%TO.P,J3,1,Pin_1*%
%TO.N,Net-(A1-GPIO13)*%
X119363612Y-66046776D03*
%TD*%
D31*
%TO.P,C1,1*%
%TO.N,Net-(BT1-+)*%
X115325000Y-74200000D03*
%TO.P,C1,2*%
%TO.N,GND*%
X115325000Y-76100000D03*
%TD*%
D11*
%TO.P,R4,1*%
%TO.N,Net-(A1-GPIO18)*%
X169188612Y-68921776D03*
%TO.P,R4,2*%
%TO.N,V_BC*%
X169188612Y-70571776D03*
%TD*%
%TO.P,R6,1*%
%TO.N,V_BC*%
X131500000Y-48350000D03*
%TO.P,R6,2*%
%TO.N,Net-(A1-GPIO9)*%
X131500000Y-50000000D03*
%TD*%
D24*
%TO.P,J1,1,Pin_1*%
%TO.N,V_BC*%
X122500000Y-31960000D03*
D32*
%TO.P,J1,2,Pin_2*%
%TO.N,GND*%
X122500000Y-34500000D03*
%TO.P,J1,3,Pin_3*%
%TO.N,Net-(J1-Pin_3)*%
X122500000Y-37040000D03*
%TO.P,J1,4,Pin_4*%
%TO.N,Net-(J1-Pin_4)*%
X122500000Y-39580000D03*
%TD*%
D22*
%TO.P,H4,1,1*%
%TO.N,GND*%
X107500000Y-27500000D03*
%TD*%
D19*
%TO.P,SW5,1,1*%
%TO.N,GND*%
X119000000Y-47250000D03*
X127000000Y-47250000D03*
%TO.P,SW5,2,2*%
%TO.N,Net-(A1-GPIO9)*%
X119000000Y-51750000D03*
X127000000Y-51750000D03*
%TD*%
D33*
%TO.N,V_BC*%
X173990000Y-46990000D03*
%TO.N,GND*%
X117475000Y-77470000D03*
X198755000Y-90170000D03*
X198755000Y-88265000D03*
X115750000Y-47250000D03*
X198755000Y-92075000D03*
X185238612Y-59946776D03*
X127000000Y-76500000D03*
X198755000Y-93980000D03*
X114935000Y-77470000D03*
X162225000Y-41900000D03*
X117630000Y-71650000D03*
%TO.N,V_BC*%
X131500000Y-46500000D03*
X124975000Y-74550000D03*
X169188612Y-72621776D03*
X99695000Y-49500000D03*
%TD*%
D34*
%TO.N,Net-(J1-Pin_3)*%
X127000000Y-29845000D02*
X130810000Y-26035000D01*
X127000000Y-32540000D02*
X127000000Y-29845000D01*
X122500000Y-37040000D02*
X127000000Y-32540000D01*
X130810000Y-26035000D02*
X131700000Y-26035000D01*
%TO.N,Net-(A1-GPIO1)*%
X133975000Y-25410000D02*
X133350000Y-26035000D01*
X139310000Y-25410000D02*
X133975000Y-25410000D01*
%TO.N,Net-(J1-Pin_4)*%
X117475000Y-34555000D02*
X122500000Y-39580000D01*
X117475000Y-26035000D02*
X117475000Y-34555000D01*
X120650000Y-22860000D02*
X117475000Y-26035000D01*
X131700000Y-22860000D02*
X120650000Y-22860000D01*
%TO.N,Net-(A1-GPIO0)*%
X133360000Y-22870000D02*
X133350000Y-22860000D01*
X139310000Y-22870000D02*
X133360000Y-22870000D01*
%TO.N,V_BC*%
X174275000Y-47275000D02*
X173990000Y-46990000D01*
X174275000Y-48884276D02*
X174275000Y-47275000D01*
%TO.N,Net-(A1-3V3_EN)*%
X161280000Y-30490000D02*
X161925000Y-29845000D01*
X158690000Y-30490000D02*
X161280000Y-30490000D01*
%TO.N,V_BC*%
X163830000Y-33030000D02*
X158765000Y-33030000D01*
X165735000Y-31125000D02*
X163830000Y-33030000D01*
%TO.N,GND*%
X165735000Y-29210000D02*
X165735000Y-29225000D01*
X164465000Y-27940000D02*
X165735000Y-29210000D01*
X160385000Y-27940000D02*
X164465000Y-27940000D01*
X160375000Y-27950000D02*
X160385000Y-27940000D01*
X158765000Y-27950000D02*
X160375000Y-27950000D01*
D35*
%TO.N,Net-(U1-SW)*%
X119522500Y-73192500D02*
X119847500Y-73192500D01*
X119847500Y-73192500D02*
X120650000Y-72390000D01*
D34*
%TO.N,GND*%
X117775000Y-77170000D02*
X117475000Y-77470000D01*
X117775000Y-75425000D02*
X117775000Y-77170000D01*
D35*
%TO.N,V_BC*%
X120047500Y-73692500D02*
X121285000Y-74930000D01*
X119522500Y-73692500D02*
X120047500Y-73692500D01*
D36*
%TO.N,Net-(A1-GPIO8)*%
X102325000Y-45675000D02*
X104000000Y-44000000D01*
X135770000Y-48270000D02*
X131500000Y-44000000D01*
X104575000Y-51750000D02*
X102325000Y-49500000D01*
X102325000Y-49500000D02*
X102325000Y-45675000D01*
X139385000Y-48270000D02*
X135770000Y-48270000D01*
X104000000Y-44000000D02*
X131500000Y-44000000D01*
X105500000Y-51750000D02*
X113500000Y-51750000D01*
X105000000Y-51750000D02*
X104575000Y-51750000D01*
D37*
%TO.N,GND*%
X117622500Y-72692500D02*
X117926484Y-72692500D01*
D36*
X115750000Y-47250000D02*
X119000000Y-47250000D01*
D34*
X162250000Y-41925000D02*
X162225000Y-41900000D01*
D37*
X117622500Y-74192500D02*
X117926484Y-74192500D01*
D36*
X115750000Y-47250000D02*
X113000000Y-47250000D01*
D37*
X159003224Y-27671776D02*
X158755000Y-27920000D01*
X117622500Y-72692500D02*
X117622500Y-71657500D01*
D34*
X117775000Y-74427000D02*
X117622500Y-74274500D01*
D36*
X185238612Y-55221776D02*
X185238612Y-59946776D01*
D34*
X125875000Y-76500000D02*
X125825000Y-76550000D01*
D36*
X119000000Y-47250000D02*
X127000000Y-47250000D01*
D34*
X117775000Y-75425000D02*
X117625000Y-75275000D01*
D36*
X115325000Y-77080000D02*
X114935000Y-77470000D01*
D34*
X127000000Y-76500000D02*
X125875000Y-76500000D01*
D37*
X118572500Y-73546484D02*
X118572500Y-73442500D01*
X185146112Y-60039276D02*
X185238612Y-59946776D01*
X117926484Y-74192500D02*
X118572500Y-73546484D01*
X117622500Y-71657500D02*
X117630000Y-71650000D01*
D36*
X185146112Y-64421776D02*
X177146112Y-64421776D01*
X185238612Y-64446776D02*
X185238612Y-59946776D01*
X105500000Y-47250000D02*
X113500000Y-47250000D01*
D34*
X117775000Y-75425000D02*
X117775000Y-74427000D01*
X162250000Y-43750000D02*
X162250000Y-41925000D01*
D37*
X118572500Y-73338516D02*
X118572500Y-73442500D01*
D36*
X185238612Y-55221776D02*
X177238612Y-55221776D01*
D37*
X117926484Y-72692500D02*
X118572500Y-73338516D01*
D36*
X115325000Y-76100000D02*
X115325000Y-77080000D01*
D34*
X170250000Y-43750000D02*
X162250000Y-43750000D01*
D36*
%TO.N,Net-(A1-GPIO18)*%
X177146112Y-68921776D02*
X169188612Y-68921776D01*
X177146112Y-68921776D02*
X185146112Y-68921776D01*
X163646836Y-63480000D02*
X158755000Y-63480000D01*
X169088612Y-68921776D02*
X163646836Y-63480000D01*
D37*
X169188612Y-68921776D02*
X169088612Y-68921776D01*
D34*
%TO.N,Net-(A1-GPIO19)*%
X163839276Y-60970000D02*
X174275000Y-50534276D01*
X174275000Y-50534276D02*
X177051112Y-50534276D01*
D36*
X177238612Y-50721776D02*
X185238612Y-50721776D01*
D34*
X177051112Y-50534276D02*
X177238612Y-50721776D01*
D37*
X177088612Y-50571776D02*
X177238612Y-50721776D01*
D34*
X157965000Y-60970000D02*
X163839276Y-60970000D01*
D36*
%TO.N,Net-(A1-GPIO9)*%
X139385000Y-50810000D02*
X132310000Y-50810000D01*
X132310000Y-50810000D02*
X131500000Y-50000000D01*
X119000000Y-51750000D02*
X127000000Y-51750000D01*
X129750000Y-51750000D02*
X131500000Y-50000000D01*
X127000000Y-51750000D02*
X129750000Y-51750000D01*
%TO.N,Net-(A1-GPIO12)*%
X136970388Y-60940000D02*
X135530388Y-59500000D01*
X135530388Y-59500000D02*
X119113612Y-59500000D01*
X136970388Y-60940000D02*
X139375000Y-60940000D01*
D34*
%TO.N,V_BC*%
X122450000Y-76835000D02*
X122450000Y-74995000D01*
D36*
X100675000Y-49500000D02*
X99695000Y-49500000D01*
D34*
X122725000Y-76550000D02*
X122450000Y-76825000D01*
X123925000Y-76550000D02*
X122725000Y-76550000D01*
D36*
X169188612Y-70571776D02*
X169188612Y-72621776D01*
X131500000Y-46500000D02*
X131500000Y-48500000D01*
D34*
X124975000Y-74550000D02*
X122805000Y-74550000D01*
X122450000Y-76825000D02*
X122450000Y-76835000D01*
X122805000Y-74550000D02*
X122405000Y-74950000D01*
X122450000Y-74995000D02*
X122405000Y-74950000D01*
D36*
%TO.N,Net-(A1-GPIO13)*%
X134288612Y-66046776D02*
X136855388Y-63480000D01*
X119363612Y-66046776D02*
X134288612Y-66046776D01*
X136855388Y-63480000D02*
X139375000Y-63480000D01*
D38*
%TO.N,Net-(BT1-+)*%
X105000000Y-85500000D02*
X105000000Y-80371000D01*
D37*
X116337500Y-73192500D02*
X116030000Y-73500000D01*
D38*
X105000000Y-80371000D02*
X111871000Y-73500000D01*
X111871000Y-73500000D02*
X115325000Y-73500000D01*
D37*
X117622500Y-73692500D02*
X116222500Y-73692500D01*
X116030000Y-73725000D02*
X116030000Y-73500000D01*
X117622500Y-73192500D02*
X116337500Y-73192500D01*
D38*
X110500000Y-91000000D02*
X105000000Y-85500000D01*
X113810000Y-91000000D02*
X110500000Y-91000000D01*
D37*
X116222500Y-73692500D02*
X116030000Y-73500000D01*
D34*
%TO.N,Net-(U1-FB)*%
X120275000Y-76310000D02*
X120275000Y-76275000D01*
X120800000Y-76835000D02*
X120275000Y-76310000D01*
X119522500Y-75327500D02*
X119522500Y-74274500D01*
X120275000Y-76275000D02*
X119425000Y-75425000D01*
D37*
X119505000Y-74210000D02*
X119522500Y-74192500D01*
D34*
X119425000Y-75425000D02*
X119522500Y-75327500D01*
%TO.N,Net-(A1-RUN)*%
X162230000Y-48270000D02*
X162250000Y-48250000D01*
X158765000Y-48270000D02*
X162230000Y-48270000D01*
X170250000Y-48250000D02*
X162250000Y-48250000D01*
%TD*%
%TA.AperFunction,Conductor*%
%TO.N,GND*%
G36*
X199968039Y-87014685D02*
G01*
X200013794Y-87067489D01*
X200025000Y-87119000D01*
X200025000Y-94491000D01*
X200005315Y-94558039D01*
X199952511Y-94603794D01*
X199901000Y-94615000D01*
X197414031Y-94615000D01*
X197346992Y-94595315D01*
X197301237Y-94542511D01*
X197291293Y-94473353D01*
X197308493Y-94425902D01*
X197374355Y-94319124D01*
X197374358Y-94319117D01*
X197429505Y-94152693D01*
X197439999Y-94049983D01*
X197440000Y-94049970D01*
X197440000Y-91250000D01*
X193314000Y-91250000D01*
X193246961Y-91230315D01*
X193201206Y-91177511D01*
X193190000Y-91126000D01*
X193190000Y-91000000D01*
X193064000Y-91000000D01*
X192996961Y-90980315D01*
X192951206Y-90927511D01*
X192940000Y-90876000D01*
X192940000Y-90750000D01*
X193440000Y-90750000D01*
X197440000Y-90750000D01*
X197440000Y-87950029D01*
X197439999Y-87950016D01*
X197429505Y-87847306D01*
X197374358Y-87680882D01*
X197374353Y-87680871D01*
X197282318Y-87531661D01*
X197282315Y-87531657D01*
X197158342Y-87407684D01*
X197158338Y-87407681D01*
X197009128Y-87315646D01*
X197009117Y-87315641D01*
X196842693Y-87260494D01*
X196739983Y-87250000D01*
X193440000Y-87250000D01*
X193440000Y-90750000D01*
X192940000Y-90750000D01*
X192940000Y-87250000D01*
X189640016Y-87250000D01*
X189537306Y-87260494D01*
X189393004Y-87308311D01*
X189323176Y-87310713D01*
X189263134Y-87274981D01*
X189231941Y-87212461D01*
X189230000Y-87190605D01*
X189230000Y-87119000D01*
X189249685Y-87051961D01*
X189302489Y-87006206D01*
X189354000Y-86995000D01*
X199901000Y-86995000D01*
X199968039Y-87014685D01*
G37*
%TD.AperFunction*%
%TD*%
M02*
