%TF.GenerationSoftware,KiCad,Pcbnew,9.0.7*%
%TF.CreationDate,2026-03-13T15:38:40-04:00*%
%TF.ProjectId,capstone_pcb_mkIII,63617073-746f-46e6-955f-7063625f6d6b,rev?*%
%TF.SameCoordinates,Original*%
%TF.FileFunction,Copper,L2,Inr*%
%TF.FilePolarity,Positive*%
%FSLAX46Y46*%
G04 Gerber Fmt 4.6, Leading zero omitted, Abs format (unit mm)*
G04 Created by KiCad (PCBNEW 9.0.7) date 2026-03-13 15:38:40*
%MOMM*%
%LPD*%
G01*
G04 APERTURE LIST*
G04 Aperture macros list*
%AMRoundRect*
0 Rectangle with rounded corners*
0 $1 Rounding radius*
0 $2 $3 $4 $5 $6 $7 $8 $9 X,Y pos of 4 corners*
0 Add a 4 corners polygon primitive as box body*
4,1,4,$2,$3,$4,$5,$6,$7,$8,$9,$2,$3,0*
0 Add four circle primitives for the rounded corners*
1,1,$1+$1,$2,$3*
1,1,$1+$1,$4,$5*
1,1,$1+$1,$6,$7*
1,1,$1+$1,$8,$9*
0 Add four rect primitives between the rounded corners*
20,1,$1+$1,$2,$3,$4,$5,0*
20,1,$1+$1,$4,$5,$6,$7,0*
20,1,$1+$1,$6,$7,$8,$9,0*
20,1,$1+$1,$8,$9,$2,$3,0*%
%AMFreePoly0*
4,1,37,0.603843,0.796157,0.639018,0.796157,0.711114,0.766294,0.766294,0.711114,0.796157,0.639018,0.796157,0.603843,0.800000,0.600000,0.800000,-0.600000,0.796157,-0.603843,0.796157,-0.639018,0.766294,-0.711114,0.711114,-0.766294,0.639018,-0.796157,0.603843,-0.796157,0.600000,-0.800000,0.000000,-0.800000,0.000000,-0.796148,-0.078414,-0.796148,-0.232228,-0.765552,-0.377117,-0.705537,
-0.507515,-0.618408,-0.618408,-0.507515,-0.705537,-0.377117,-0.765552,-0.232228,-0.796148,-0.078414,-0.796148,0.078414,-0.765552,0.232228,-0.705537,0.377117,-0.618408,0.507515,-0.507515,0.618408,-0.377117,0.705537,-0.232228,0.765552,-0.078414,0.796148,0.000000,0.796148,0.000000,0.800000,0.600000,0.800000,0.603843,0.796157,0.603843,0.796157,$1*%
%AMFreePoly1*
4,1,37,0.000000,0.796148,0.078414,0.796148,0.232228,0.765552,0.377117,0.705537,0.507515,0.618408,0.618408,0.507515,0.705537,0.377117,0.765552,0.232228,0.796148,0.078414,0.796148,-0.078414,0.765552,-0.232228,0.705537,-0.377117,0.618408,-0.507515,0.507515,-0.618408,0.377117,-0.705537,0.232228,-0.765552,0.078414,-0.796148,0.000000,-0.796148,0.000000,-0.800000,-0.600000,-0.800000,
-0.603843,-0.796157,-0.639018,-0.796157,-0.711114,-0.766294,-0.766294,-0.711114,-0.796157,-0.639018,-0.796157,-0.603843,-0.800000,-0.600000,-0.800000,0.600000,-0.796157,0.603843,-0.796157,0.639018,-0.766294,0.711114,-0.711114,0.766294,-0.639018,0.796157,-0.603843,0.796157,-0.600000,0.800000,0.000000,0.800000,0.000000,0.796148,0.000000,0.796148,$1*%
G04 Aperture macros list end*
%TA.AperFunction,ComponentPad*%
%ADD10RoundRect,0.200000X-0.600000X-0.600000X0.600000X-0.600000X0.600000X0.600000X-0.600000X0.600000X0*%
%TD*%
%TA.AperFunction,ComponentPad*%
%ADD11C,1.600000*%
%TD*%
%TA.AperFunction,ComponentPad*%
%ADD12FreePoly0,0.000000*%
%TD*%
%TA.AperFunction,ComponentPad*%
%ADD13FreePoly1,0.000000*%
%TD*%
%TA.AperFunction,ComponentPad*%
%ADD14C,6.400000*%
%TD*%
%TA.AperFunction,ComponentPad*%
%ADD15R,1.700000X1.700000*%
%TD*%
%TA.AperFunction,HeatsinkPad*%
%ADD16C,0.600000*%
%TD*%
%TA.AperFunction,ComponentPad*%
%ADD17C,1.700000*%
%TD*%
%TA.AperFunction,ViaPad*%
%ADD18C,1.270000*%
%TD*%
G04 APERTURE END LIST*
D10*
%TO.N,Net-(A1-GPIO0)*%
%TO.C,A1*%
X140110000Y-22870000D03*
D11*
%TO.N,Net-(A1-GPIO1)*%
X140110000Y-25410000D03*
D12*
%TO.N,GND*%
X140110000Y-27950000D03*
D11*
%TO.N,unconnected-(A1-GPIO2-Pad4)*%
X140110000Y-30490000D03*
%TO.N,unconnected-(A1-GPIO3-Pad5)_1*%
X140110000Y-33030000D03*
%TO.N,unconnected-(A1-GPIO4-Pad6)_1*%
X140110000Y-35570000D03*
%TO.N,unconnected-(A1-GPIO5-Pad7)_1*%
X140110000Y-38110000D03*
D12*
%TO.N,GND*%
X140110000Y-40650000D03*
D11*
%TO.N,unconnected-(A1-GPIO6-Pad9)*%
X140110000Y-43190000D03*
%TO.N,unconnected-(A1-GPIO7-Pad10)_1*%
X140110000Y-45730000D03*
%TO.N,Net-(A1-GPIO8)*%
X140110000Y-48270000D03*
%TO.N,Net-(A1-GPIO9)*%
X140110000Y-50810000D03*
D12*
%TO.N,GND*%
X140110000Y-53350000D03*
D11*
%TO.N,unconnected-(A1-GPIO10-Pad14)_1*%
X140110000Y-55890000D03*
%TO.N,unconnected-(A1-GPIO11-Pad15)*%
X140110000Y-58430000D03*
%TO.N,Net-(A1-GPIO12)*%
X140110000Y-60970000D03*
%TO.N,Net-(A1-GPIO13)*%
X140110000Y-63510000D03*
D12*
%TO.N,GND*%
X140110000Y-66050000D03*
D11*
%TO.N,unconnected-(A1-GPIO14-Pad19)_1*%
X140110000Y-68590000D03*
%TO.N,unconnected-(A1-GPIO15-Pad20)*%
X140110000Y-71130000D03*
%TO.N,unconnected-(A1-GPIO16-Pad21)*%
X157890000Y-71130000D03*
%TO.N,unconnected-(A1-GPIO17-Pad22)*%
X157890000Y-68590000D03*
D13*
%TO.N,GND*%
X157890000Y-66050000D03*
D11*
%TO.N,Net-(A1-GPIO18)*%
X157890000Y-63510000D03*
%TO.N,Net-(A1-GPIO19)*%
X157890000Y-60970000D03*
%TO.N,unconnected-(A1-GPIO20-Pad26)*%
X157890000Y-58430000D03*
%TO.N,unconnected-(A1-GPIO21-Pad27)_1*%
X157890000Y-55890000D03*
D13*
%TO.N,GND*%
X157890000Y-53350000D03*
D11*
%TO.N,unconnected-(A1-GPIO22-Pad29)_1*%
X157890000Y-50810000D03*
%TO.N,Net-(A1-RUN)*%
X157890000Y-48270000D03*
%TO.N,unconnected-(A1-GPIO26_ADC0-Pad31)*%
X157890000Y-45730000D03*
%TO.N,unconnected-(A1-GPIO27_ADC1-Pad32)*%
X157890000Y-43190000D03*
D13*
%TO.N,unconnected-(A1-AGND-Pad33)*%
X157890000Y-40650000D03*
D11*
%TO.N,unconnected-(A1-GPIO28_ADC2-Pad34)_1*%
X157890000Y-38110000D03*
%TO.N,unconnected-(A1-ADC_VREF-Pad35)*%
X157890000Y-35570000D03*
%TO.N,V_BC*%
X157890000Y-33030000D03*
%TO.N,Net-(A1-3V3_EN)*%
X157890000Y-30490000D03*
D13*
%TO.N,GND*%
X157890000Y-27950000D03*
D11*
%TO.N,unconnected-(A1-VSYS-Pad39)*%
X157890000Y-25410000D03*
%TO.N,unconnected-(A1-VBUS-Pad40)_1*%
X157890000Y-22870000D03*
%TD*%
D14*
%TO.N,GND*%
%TO.C,H3*%
X107500000Y-102500000D03*
%TD*%
D15*
%TO.N,GND*%
%TO.C,J4*%
X108000000Y-66000000D03*
%TD*%
%TO.N,V_BC*%
%TO.C,J5*%
X108000000Y-59500000D03*
%TD*%
%TO.N,Net-(A1-GPIO12)*%
%TO.C,J2*%
X119500000Y-59500000D03*
%TD*%
D16*
%TO.N,GND*%
%TO.C,U1*%
X118572500Y-72942500D03*
X118572500Y-73942500D03*
%TD*%
D14*
%TO.N,GND*%
%TO.C,H1*%
X197500000Y-27500000D03*
%TD*%
%TO.N,GND*%
%TO.C,H2*%
X197000000Y-102500000D03*
%TD*%
D15*
%TO.N,Net-(A1-GPIO13)*%
%TO.C,J3*%
X119363612Y-66046776D03*
%TD*%
%TO.N,V_BC*%
%TO.C,J1*%
X122500000Y-31960000D03*
D17*
%TO.N,GND*%
X122500000Y-34500000D03*
%TO.N,Net-(J1-Pin_3)*%
X122500000Y-37040000D03*
%TO.N,Net-(J1-Pin_4)*%
X122500000Y-39580000D03*
%TD*%
D14*
%TO.N,GND*%
%TO.C,H4*%
X107500000Y-27500000D03*
%TD*%
D18*
%TO.N,V_BC*%
X173990000Y-46990000D03*
%TO.N,GND*%
X117475000Y-77470000D03*
X198755000Y-90170000D03*
X198755000Y-88265000D03*
X115750000Y-47250000D03*
X198755000Y-92075000D03*
X185238612Y-59946776D03*
X127000000Y-76500000D03*
X198755000Y-93980000D03*
X114935000Y-77470000D03*
X162225000Y-41900000D03*
X117630000Y-71650000D03*
%TO.N,V_BC*%
X131500000Y-46500000D03*
X124975000Y-74550000D03*
X169188612Y-72621776D03*
X99695000Y-49500000D03*
%TD*%
%TA.AperFunction,Conductor*%
%TO.N,V_BC*%
G36*
X139006519Y-21570185D02*
G01*
X139052274Y-21622989D01*
X139062218Y-21692147D01*
X139033193Y-21755703D01*
X139027161Y-21762181D01*
X138954531Y-21834810D01*
X138954530Y-21834811D01*
X138866522Y-21980393D01*
X138815913Y-22142807D01*
X138809500Y-22213386D01*
X138809500Y-23526613D01*
X138815913Y-23597192D01*
X138815913Y-23597194D01*
X138815914Y-23597196D01*
X138866522Y-23759606D01*
X138954528Y-23905185D01*
X138954530Y-23905187D01*
X138954531Y-23905189D01*
X139074811Y-24025469D01*
X139074813Y-24025470D01*
X139074815Y-24025472D01*
X139220394Y-24113478D01*
X139307566Y-24140641D01*
X139365712Y-24179378D01*
X139393686Y-24243403D01*
X139382605Y-24312388D01*
X139343560Y-24359344D01*
X139262782Y-24418032D01*
X139118028Y-24562786D01*
X138997715Y-24728386D01*
X138904781Y-24910776D01*
X138841522Y-25105465D01*
X138809500Y-25307648D01*
X138809500Y-25512351D01*
X138841522Y-25714534D01*
X138904781Y-25909223D01*
X138997715Y-26091613D01*
X139118028Y-26257213D01*
X139262786Y-26401971D01*
X139428385Y-26522284D01*
X139428387Y-26522285D01*
X139428390Y-26522287D01*
X139513754Y-26565782D01*
X139564550Y-26613757D01*
X139581345Y-26681578D01*
X139558808Y-26747712D01*
X139515914Y-26785624D01*
X139450228Y-26820734D01*
X139450200Y-26820751D01*
X139319206Y-26908278D01*
X139319194Y-26908287D01*
X139319189Y-26908290D01*
X139319189Y-26908291D01*
X139242588Y-26971157D01*
X139242585Y-26971160D01*
X139242582Y-26971162D01*
X139131162Y-27082582D01*
X139131160Y-27082585D01*
X139131157Y-27082588D01*
X139103084Y-27116795D01*
X139068287Y-27159194D01*
X139068278Y-27159206D01*
X138980751Y-27290200D01*
X138980734Y-27290228D01*
X138934031Y-27377603D01*
X138934029Y-27377608D01*
X138873722Y-27523200D01*
X138858186Y-27574416D01*
X138844956Y-27618032D01*
X138844955Y-27618036D01*
X138844955Y-27618037D01*
X138814211Y-27772599D01*
X138814211Y-27772602D01*
X138806384Y-27852073D01*
X138804500Y-27871207D01*
X138804500Y-28028793D01*
X138807326Y-28057493D01*
X138814211Y-28127397D01*
X138814211Y-28127400D01*
X138814213Y-28127410D01*
X138844956Y-28281968D01*
X138865954Y-28351190D01*
X138873722Y-28376799D01*
X138934029Y-28522391D01*
X138934031Y-28522396D01*
X138980734Y-28609771D01*
X138980751Y-28609799D01*
X139068278Y-28740793D01*
X139068286Y-28740804D01*
X139068291Y-28740811D01*
X139131157Y-28817412D01*
X139242588Y-28928843D01*
X139319189Y-28991709D01*
X139319198Y-28991715D01*
X139319206Y-28991721D01*
X139450200Y-29079248D01*
X139450205Y-29079251D01*
X139450217Y-29079259D01*
X139450226Y-29079263D01*
X139450228Y-29079265D01*
X139515912Y-29114374D01*
X139565757Y-29163336D01*
X139581217Y-29231474D01*
X139557385Y-29297154D01*
X139513755Y-29334216D01*
X139428388Y-29377713D01*
X139262786Y-29498028D01*
X139118028Y-29642786D01*
X138997715Y-29808386D01*
X138904781Y-29990776D01*
X138841522Y-30185465D01*
X138809500Y-30387648D01*
X138809500Y-30592351D01*
X138841522Y-30794534D01*
X138904781Y-30989223D01*
X138997715Y-31171613D01*
X139118028Y-31337213D01*
X139262786Y-31481971D01*
X139370050Y-31559901D01*
X139428390Y-31602287D01*
X139519840Y-31648883D01*
X139521080Y-31649515D01*
X139571876Y-31697490D01*
X139588671Y-31765311D01*
X139566134Y-31831446D01*
X139521080Y-31870485D01*
X139428386Y-31917715D01*
X139262786Y-32038028D01*
X139118028Y-32182786D01*
X138997715Y-32348386D01*
X138904781Y-32530776D01*
X138841522Y-32725465D01*
X138809500Y-32927648D01*
X138809500Y-33132351D01*
X138841522Y-33334534D01*
X138904781Y-33529223D01*
X138951141Y-33620208D01*
X138997585Y-33711359D01*
X138997715Y-33711613D01*
X139118028Y-33877213D01*
X139262786Y-34021971D01*
X139383226Y-34109474D01*
X139428390Y-34142287D01*
X139509785Y-34183760D01*
X139521080Y-34189515D01*
X139571876Y-34237490D01*
X139588671Y-34305311D01*
X139566134Y-34371446D01*
X139521080Y-34410485D01*
X139428386Y-34457715D01*
X139262786Y-34578028D01*
X139118028Y-34722786D01*
X138997715Y-34888386D01*
X138904781Y-35070776D01*
X138841522Y-35265465D01*
X138809500Y-35467648D01*
X138809500Y-35672351D01*
X138841522Y-35874534D01*
X138904781Y-36069223D01*
X138997715Y-36251613D01*
X139118028Y-36417213D01*
X139262786Y-36561971D01*
X139417749Y-36674556D01*
X139428390Y-36682287D01*
X139509785Y-36723760D01*
X139521080Y-36729515D01*
X139571876Y-36777490D01*
X139588671Y-36845311D01*
X139566134Y-36911446D01*
X139521080Y-36950485D01*
X139428386Y-36997715D01*
X139262786Y-37118028D01*
X139118028Y-37262786D01*
X138997715Y-37428386D01*
X138904781Y-37610776D01*
X138841522Y-37805465D01*
X138809500Y-38007648D01*
X138809500Y-38212351D01*
X138841522Y-38414534D01*
X138904781Y-38609223D01*
X138997715Y-38791613D01*
X139118028Y-38957213D01*
X139262786Y-39101971D01*
X139428385Y-39222284D01*
X139428387Y-39222285D01*
X139428390Y-39222287D01*
X139513754Y-39265782D01*
X139564550Y-39313757D01*
X139581345Y-39381578D01*
X139558808Y-39447712D01*
X139515914Y-39485624D01*
X139450228Y-39520734D01*
X139450200Y-39520751D01*
X139319206Y-39608278D01*
X139319194Y-39608287D01*
X139319189Y-39608290D01*
X139319189Y-39608291D01*
X139242588Y-39671157D01*
X139242585Y-39671160D01*
X139242582Y-39671162D01*
X139131162Y-39782582D01*
X139131160Y-39782585D01*
X139131157Y-39782588D01*
X139103084Y-39816795D01*
X139068287Y-39859194D01*
X139068278Y-39859206D01*
X138980751Y-39990200D01*
X138980734Y-39990228D01*
X138934031Y-40077603D01*
X138934029Y-40077608D01*
X138873722Y-40223200D01*
X138858186Y-40274416D01*
X138844956Y-40318032D01*
X138844955Y-40318036D01*
X138844955Y-40318037D01*
X138814211Y-40472599D01*
X138814211Y-40472602D01*
X138806384Y-40552073D01*
X138804500Y-40571207D01*
X138804500Y-40728793D01*
X138807326Y-40757493D01*
X138814211Y-40827397D01*
X138814211Y-40827400D01*
X138814213Y-40827410D01*
X138844956Y-40981968D01*
X138860706Y-41033889D01*
X138873722Y-41076799D01*
X138934029Y-41222391D01*
X138934031Y-41222396D01*
X138980734Y-41309771D01*
X138980751Y-41309799D01*
X139068278Y-41440793D01*
X139068286Y-41440804D01*
X139068291Y-41440811D01*
X139131157Y-41517412D01*
X139242588Y-41628843D01*
X139319189Y-41691709D01*
X139319198Y-41691715D01*
X139319206Y-41691721D01*
X139450200Y-41779248D01*
X139450205Y-41779251D01*
X139450217Y-41779259D01*
X139450226Y-41779263D01*
X139450228Y-41779265D01*
X139515912Y-41814374D01*
X139565757Y-41863336D01*
X139581217Y-41931474D01*
X139557385Y-41997154D01*
X139513755Y-42034216D01*
X139428388Y-42077713D01*
X139262786Y-42198028D01*
X139118028Y-42342786D01*
X138997715Y-42508386D01*
X138904781Y-42690776D01*
X138841522Y-42885465D01*
X138809500Y-43087648D01*
X138809500Y-43292351D01*
X138841522Y-43494534D01*
X138904781Y-43689223D01*
X138997715Y-43871613D01*
X139118028Y-44037213D01*
X139262786Y-44181971D01*
X139417749Y-44294556D01*
X139428390Y-44302287D01*
X139519840Y-44348883D01*
X139521080Y-44349515D01*
X139571876Y-44397490D01*
X139588671Y-44465311D01*
X139566134Y-44531446D01*
X139521080Y-44570485D01*
X139428386Y-44617715D01*
X139262786Y-44738028D01*
X139118028Y-44882786D01*
X138997715Y-45048386D01*
X138904781Y-45230776D01*
X138841522Y-45425465D01*
X138809500Y-45627648D01*
X138809500Y-45832351D01*
X138841522Y-46034534D01*
X138904781Y-46229223D01*
X138968691Y-46354653D01*
X138983588Y-46383889D01*
X138997715Y-46411613D01*
X139118028Y-46577213D01*
X139262786Y-46721971D01*
X139417749Y-46834556D01*
X139428390Y-46842287D01*
X139519840Y-46888883D01*
X139521080Y-46889515D01*
X139571876Y-46937490D01*
X139588671Y-47005311D01*
X139566134Y-47071446D01*
X139521080Y-47110485D01*
X139428386Y-47157715D01*
X139262786Y-47278028D01*
X139118028Y-47422786D01*
X138997715Y-47588386D01*
X138904781Y-47770776D01*
X138841522Y-47965465D01*
X138809500Y-48167648D01*
X138809500Y-48372352D01*
X138813878Y-48399995D01*
X138841522Y-48574534D01*
X138904781Y-48769223D01*
X138997715Y-48951613D01*
X139118028Y-49117213D01*
X139262786Y-49261971D01*
X139417749Y-49374556D01*
X139428390Y-49382287D01*
X139519840Y-49428883D01*
X139521080Y-49429515D01*
X139571876Y-49477490D01*
X139588671Y-49545311D01*
X139566134Y-49611446D01*
X139521080Y-49650485D01*
X139428386Y-49697715D01*
X139262786Y-49818028D01*
X139118028Y-49962786D01*
X138997715Y-50128386D01*
X138904781Y-50310776D01*
X138841522Y-50505465D01*
X138809500Y-50707648D01*
X138809500Y-50912351D01*
X138841522Y-51114534D01*
X138904781Y-51309223D01*
X138997715Y-51491613D01*
X139118028Y-51657213D01*
X139262786Y-51801971D01*
X139428385Y-51922284D01*
X139428387Y-51922285D01*
X139428390Y-51922287D01*
X139513754Y-51965782D01*
X139564550Y-52013757D01*
X139581345Y-52081578D01*
X139558808Y-52147712D01*
X139515914Y-52185624D01*
X139450228Y-52220734D01*
X139450200Y-52220751D01*
X139319206Y-52308278D01*
X139319194Y-52308287D01*
X139319189Y-52308290D01*
X139319189Y-52308291D01*
X139242588Y-52371157D01*
X139242585Y-52371160D01*
X139242582Y-52371162D01*
X139131162Y-52482582D01*
X139131160Y-52482585D01*
X139131157Y-52482588D01*
X139103084Y-52516795D01*
X139068287Y-52559194D01*
X139068278Y-52559206D01*
X138980751Y-52690200D01*
X138980734Y-52690228D01*
X138934031Y-52777603D01*
X138934029Y-52777608D01*
X138873722Y-52923200D01*
X138858186Y-52974416D01*
X138844956Y-53018032D01*
X138844955Y-53018036D01*
X138844955Y-53018037D01*
X138814211Y-53172599D01*
X138814211Y-53172602D01*
X138804500Y-53271209D01*
X138804500Y-53428790D01*
X138814211Y-53527397D01*
X138814211Y-53527400D01*
X138814213Y-53527410D01*
X138844956Y-53681968D01*
X138865954Y-53751190D01*
X138873722Y-53776799D01*
X138934029Y-53922391D01*
X138934031Y-53922396D01*
X138980734Y-54009771D01*
X138980751Y-54009799D01*
X139068278Y-54140793D01*
X139068286Y-54140804D01*
X139068291Y-54140811D01*
X139131157Y-54217412D01*
X139242588Y-54328843D01*
X139319189Y-54391709D01*
X139319198Y-54391715D01*
X139319206Y-54391721D01*
X139450200Y-54479248D01*
X139450205Y-54479251D01*
X139450217Y-54479259D01*
X139450226Y-54479263D01*
X139450228Y-54479265D01*
X139515912Y-54514374D01*
X139565757Y-54563336D01*
X139581217Y-54631474D01*
X139557385Y-54697154D01*
X139513755Y-54734216D01*
X139428388Y-54777713D01*
X139262786Y-54898028D01*
X139118028Y-55042786D01*
X138997715Y-55208386D01*
X138904781Y-55390776D01*
X138841522Y-55585465D01*
X138809500Y-55787648D01*
X138809500Y-55992351D01*
X138841522Y-56194534D01*
X138904781Y-56389223D01*
X138997715Y-56571613D01*
X139118028Y-56737213D01*
X139262786Y-56881971D01*
X139417749Y-56994556D01*
X139428390Y-57002287D01*
X139519840Y-57048883D01*
X139521080Y-57049515D01*
X139571876Y-57097490D01*
X139588671Y-57165311D01*
X139566134Y-57231446D01*
X139521080Y-57270485D01*
X139428386Y-57317715D01*
X139262786Y-57438028D01*
X139118028Y-57582786D01*
X138997715Y-57748386D01*
X138904781Y-57930776D01*
X138841522Y-58125465D01*
X138809500Y-58327648D01*
X138809500Y-58532352D01*
X138813878Y-58559995D01*
X138841522Y-58734534D01*
X138904781Y-58929223D01*
X138997715Y-59111613D01*
X139118028Y-59277213D01*
X139262786Y-59421971D01*
X139385182Y-59510895D01*
X139428390Y-59542287D01*
X139519840Y-59588883D01*
X139521080Y-59589515D01*
X139571876Y-59637490D01*
X139588671Y-59705311D01*
X139566134Y-59771446D01*
X139521080Y-59810485D01*
X139428386Y-59857715D01*
X139262786Y-59978028D01*
X139118028Y-60122786D01*
X138997715Y-60288386D01*
X138904781Y-60470776D01*
X138841522Y-60665465D01*
X138809500Y-60867648D01*
X138809500Y-61072351D01*
X138841522Y-61274534D01*
X138904781Y-61469223D01*
X138997715Y-61651613D01*
X139118028Y-61817213D01*
X139262786Y-61961971D01*
X139417749Y-62074556D01*
X139428390Y-62082287D01*
X139519840Y-62128883D01*
X139521080Y-62129515D01*
X139571876Y-62177490D01*
X139588671Y-62245311D01*
X139566134Y-62311446D01*
X139521080Y-62350485D01*
X139428386Y-62397715D01*
X139262786Y-62518028D01*
X139118028Y-62662786D01*
X138997715Y-62828386D01*
X138904781Y-63010776D01*
X138841522Y-63205465D01*
X138809500Y-63407648D01*
X138809500Y-63612351D01*
X138841522Y-63814534D01*
X138904781Y-64009223D01*
X138997715Y-64191613D01*
X139118028Y-64357213D01*
X139262786Y-64501971D01*
X139428385Y-64622284D01*
X139428387Y-64622285D01*
X139428390Y-64622287D01*
X139494375Y-64655908D01*
X139513754Y-64665782D01*
X139564550Y-64713757D01*
X139581345Y-64781578D01*
X139558808Y-64847712D01*
X139515914Y-64885624D01*
X139450228Y-64920734D01*
X139450200Y-64920751D01*
X139319206Y-65008278D01*
X139319194Y-65008287D01*
X139319189Y-65008290D01*
X139319189Y-65008291D01*
X139242588Y-65071157D01*
X139242585Y-65071160D01*
X139242582Y-65071162D01*
X139131162Y-65182582D01*
X139131160Y-65182585D01*
X139131157Y-65182588D01*
X139103084Y-65216795D01*
X139068287Y-65259194D01*
X139068278Y-65259206D01*
X138980751Y-65390200D01*
X138980734Y-65390228D01*
X138934031Y-65477603D01*
X138934029Y-65477608D01*
X138873722Y-65623200D01*
X138858186Y-65674416D01*
X138844956Y-65718032D01*
X138844955Y-65718036D01*
X138844955Y-65718037D01*
X138814211Y-65872599D01*
X138814211Y-65872602D01*
X138804500Y-65971209D01*
X138804500Y-66128790D01*
X138814211Y-66227397D01*
X138814211Y-66227400D01*
X138814213Y-66227410D01*
X138844956Y-66381968D01*
X138865954Y-66451190D01*
X138873722Y-66476799D01*
X138934029Y-66622391D01*
X138934031Y-66622396D01*
X138980734Y-66709771D01*
X138980751Y-66709799D01*
X139068278Y-66840793D01*
X139068286Y-66840804D01*
X139068291Y-66840811D01*
X139131157Y-66917412D01*
X139242588Y-67028843D01*
X139319189Y-67091709D01*
X139319198Y-67091715D01*
X139319206Y-67091721D01*
X139450200Y-67179248D01*
X139450205Y-67179251D01*
X139450217Y-67179259D01*
X139450226Y-67179263D01*
X139450228Y-67179265D01*
X139515912Y-67214374D01*
X139565757Y-67263336D01*
X139581217Y-67331474D01*
X139557385Y-67397154D01*
X139513755Y-67434216D01*
X139428388Y-67477713D01*
X139262786Y-67598028D01*
X139118028Y-67742786D01*
X138997715Y-67908386D01*
X138904781Y-68090776D01*
X138841522Y-68285465D01*
X138809500Y-68487648D01*
X138809500Y-68692351D01*
X138841522Y-68894534D01*
X138904781Y-69089223D01*
X138997715Y-69271613D01*
X139118028Y-69437213D01*
X139262786Y-69581971D01*
X139417749Y-69694556D01*
X139428390Y-69702287D01*
X139519840Y-69748883D01*
X139521080Y-69749515D01*
X139571876Y-69797490D01*
X139588671Y-69865311D01*
X139566134Y-69931446D01*
X139521080Y-69970485D01*
X139428386Y-70017715D01*
X139262786Y-70138028D01*
X139118028Y-70282786D01*
X138997715Y-70448386D01*
X138904781Y-70630776D01*
X138841522Y-70825465D01*
X138809500Y-71027648D01*
X138809500Y-71232351D01*
X138841522Y-71434534D01*
X138904781Y-71629223D01*
X138997715Y-71811613D01*
X139118028Y-71977213D01*
X139262786Y-72121971D01*
X139415748Y-72233102D01*
X139428390Y-72242287D01*
X139544607Y-72301503D01*
X139610776Y-72335218D01*
X139610778Y-72335218D01*
X139610781Y-72335220D01*
X139715137Y-72369127D01*
X139805465Y-72398477D01*
X139906557Y-72414488D01*
X140007648Y-72430500D01*
X140007649Y-72430500D01*
X140212351Y-72430500D01*
X140212352Y-72430500D01*
X140414534Y-72398477D01*
X140609219Y-72335220D01*
X140791610Y-72242287D01*
X140888903Y-72171600D01*
X140957213Y-72121971D01*
X140957215Y-72121968D01*
X140957219Y-72121966D01*
X141101966Y-71977219D01*
X141101968Y-71977215D01*
X141101971Y-71977213D01*
X141154732Y-71904590D01*
X141222287Y-71811610D01*
X141315220Y-71629219D01*
X141378477Y-71434534D01*
X141410500Y-71232352D01*
X141410500Y-71027648D01*
X141378477Y-70825466D01*
X141315220Y-70630781D01*
X141315218Y-70630778D01*
X141315218Y-70630776D01*
X141270218Y-70542460D01*
X141222287Y-70448390D01*
X141214556Y-70437749D01*
X141101971Y-70282786D01*
X140957213Y-70138028D01*
X140791614Y-70017715D01*
X140785006Y-70014348D01*
X140698917Y-69970483D01*
X140648123Y-69922511D01*
X140631328Y-69854690D01*
X140653865Y-69788555D01*
X140698917Y-69749516D01*
X140791610Y-69702287D01*
X140812770Y-69686913D01*
X140957213Y-69581971D01*
X140957215Y-69581968D01*
X140957219Y-69581966D01*
X141101966Y-69437219D01*
X141101968Y-69437215D01*
X141101971Y-69437213D01*
X141154732Y-69364590D01*
X141222287Y-69271610D01*
X141315220Y-69089219D01*
X141378477Y-68894534D01*
X141410500Y-68692352D01*
X141410500Y-68487648D01*
X141387098Y-68339895D01*
X141900000Y-68339895D01*
X146552057Y-71952663D01*
X146592931Y-72009327D01*
X146600000Y-72050597D01*
X146600000Y-73000000D01*
X151400000Y-73000000D01*
X151400000Y-72050597D01*
X151419685Y-71983558D01*
X151447941Y-71952664D01*
X156100000Y-68339895D01*
X156100000Y-64000000D01*
X141900000Y-64000000D01*
X141900000Y-68339895D01*
X141387098Y-68339895D01*
X141378477Y-68285466D01*
X141315220Y-68090781D01*
X141315218Y-68090778D01*
X141315218Y-68090776D01*
X141281503Y-68024607D01*
X141222287Y-67908390D01*
X141214556Y-67897749D01*
X141101971Y-67742786D01*
X140957217Y-67598032D01*
X140957212Y-67598028D01*
X140880936Y-67542610D01*
X140838270Y-67487280D01*
X140832291Y-67417667D01*
X140864897Y-67355872D01*
X140923158Y-67322143D01*
X140943226Y-67317022D01*
X141016735Y-67286574D01*
X141065551Y-67263219D01*
X141180733Y-67176994D01*
X141236994Y-67120733D01*
X141273157Y-67080475D01*
X141346574Y-66956735D01*
X141377022Y-66883226D01*
X141395024Y-66832198D01*
X141415500Y-66689782D01*
X141415500Y-65410218D01*
X141412604Y-65356185D01*
X141377022Y-65216774D01*
X141346574Y-65143265D01*
X141326890Y-65102123D01*
X141323220Y-65094451D01*
X141323217Y-65094446D01*
X141258718Y-65008287D01*
X141236994Y-64979267D01*
X141236989Y-64979262D01*
X141236984Y-64979256D01*
X141180747Y-64923019D01*
X141180731Y-64923005D01*
X141140475Y-64886843D01*
X141140467Y-64886837D01*
X141016736Y-64813426D01*
X141016737Y-64813426D01*
X140948001Y-64784956D01*
X140943226Y-64782978D01*
X140943217Y-64782975D01*
X140943205Y-64782970D01*
X140914863Y-64772971D01*
X140858193Y-64732103D01*
X140832613Y-64667084D01*
X140846246Y-64598558D01*
X140883236Y-64555717D01*
X140957215Y-64501969D01*
X140957215Y-64501968D01*
X140957219Y-64501966D01*
X141101966Y-64357219D01*
X141101968Y-64357215D01*
X141101971Y-64357213D01*
X141154732Y-64284590D01*
X141222287Y-64191610D01*
X141315220Y-64009219D01*
X141378477Y-63814534D01*
X141410500Y-63612352D01*
X141410500Y-63407648D01*
X141378477Y-63205466D01*
X141315220Y-63010781D01*
X141315218Y-63010778D01*
X141315218Y-63010776D01*
X141281503Y-62944607D01*
X141222287Y-62828390D01*
X141214556Y-62817749D01*
X141101971Y-62662786D01*
X140957213Y-62518028D01*
X140791614Y-62397715D01*
X140785006Y-62394348D01*
X140698917Y-62350483D01*
X140648123Y-62302511D01*
X140631328Y-62234690D01*
X140653865Y-62168555D01*
X140698917Y-62129516D01*
X140791610Y-62082287D01*
X140812770Y-62066913D01*
X140957213Y-61961971D01*
X140957215Y-61961968D01*
X140957219Y-61961966D01*
X141101966Y-61817219D01*
X141101968Y-61817215D01*
X141101971Y-61817213D01*
X141154732Y-61744590D01*
X141222287Y-61651610D01*
X141315220Y-61469219D01*
X141378477Y-61274534D01*
X141410500Y-61072352D01*
X141410500Y-60867648D01*
X141378477Y-60665466D01*
X141315220Y-60470781D01*
X141315218Y-60470778D01*
X141315218Y-60470776D01*
X141278048Y-60397827D01*
X141222287Y-60288390D01*
X141167276Y-60212673D01*
X141101971Y-60122786D01*
X140957213Y-59978028D01*
X140791614Y-59857715D01*
X140785006Y-59854348D01*
X140698917Y-59810483D01*
X140648123Y-59762511D01*
X140631328Y-59694690D01*
X140653865Y-59628555D01*
X140698917Y-59589516D01*
X140791610Y-59542287D01*
X140834819Y-59510894D01*
X140957213Y-59421971D01*
X140957215Y-59421968D01*
X140957219Y-59421966D01*
X141101966Y-59277219D01*
X141101968Y-59277215D01*
X141101971Y-59277213D01*
X141163159Y-59192993D01*
X141222287Y-59111610D01*
X141315220Y-58929219D01*
X141378477Y-58734534D01*
X141410500Y-58532352D01*
X141410500Y-58327648D01*
X141378477Y-58125466D01*
X141315220Y-57930781D01*
X141315218Y-57930778D01*
X141315218Y-57930776D01*
X141281503Y-57864607D01*
X141222287Y-57748390D01*
X141214556Y-57737749D01*
X141101971Y-57582786D01*
X140957213Y-57438028D01*
X140791614Y-57317715D01*
X140785006Y-57314348D01*
X140698917Y-57270483D01*
X140648123Y-57222511D01*
X140631328Y-57154690D01*
X140653865Y-57088555D01*
X140698917Y-57049516D01*
X140791610Y-57002287D01*
X140812770Y-56986913D01*
X140957213Y-56881971D01*
X140957215Y-56881968D01*
X140957219Y-56881966D01*
X141101966Y-56737219D01*
X141101968Y-56737215D01*
X141101971Y-56737213D01*
X141154732Y-56664590D01*
X141222287Y-56571610D01*
X141315220Y-56389219D01*
X141378477Y-56194534D01*
X141410500Y-55992352D01*
X141410500Y-55787648D01*
X141378477Y-55585466D01*
X141315220Y-55390781D01*
X141315218Y-55390778D01*
X141315218Y-55390776D01*
X141281503Y-55324607D01*
X141222287Y-55208390D01*
X141214556Y-55197749D01*
X141101971Y-55042786D01*
X140957217Y-54898032D01*
X140957212Y-54898028D01*
X140880936Y-54842610D01*
X140838270Y-54787280D01*
X140832291Y-54717667D01*
X140864897Y-54655872D01*
X140923158Y-54622143D01*
X140943226Y-54617022D01*
X141016735Y-54586574D01*
X141065551Y-54563219D01*
X141180733Y-54476994D01*
X141236994Y-54420733D01*
X141273157Y-54380475D01*
X141346574Y-54256735D01*
X141377022Y-54183226D01*
X141395024Y-54132198D01*
X141415500Y-53989782D01*
X141415500Y-52710218D01*
X141412604Y-52656185D01*
X141377022Y-52516774D01*
X141346574Y-52443265D01*
X141323219Y-52394449D01*
X141236994Y-52279267D01*
X141236989Y-52279262D01*
X141236984Y-52279256D01*
X141180747Y-52223019D01*
X141180731Y-52223005D01*
X141140475Y-52186843D01*
X141140467Y-52186837D01*
X141016736Y-52113426D01*
X141016737Y-52113426D01*
X140948001Y-52084956D01*
X140943226Y-52082978D01*
X140943217Y-52082975D01*
X140943205Y-52082970D01*
X140914863Y-52072971D01*
X140858193Y-52032103D01*
X140832613Y-51967084D01*
X140846246Y-51898558D01*
X140883236Y-51855717D01*
X140957215Y-51801969D01*
X140957215Y-51801968D01*
X140957219Y-51801966D01*
X141101966Y-51657219D01*
X141101968Y-51657215D01*
X141101971Y-51657213D01*
X141154732Y-51584590D01*
X141222287Y-51491610D01*
X141315220Y-51309219D01*
X141378477Y-51114534D01*
X141410500Y-50912352D01*
X141410500Y-50707648D01*
X141378477Y-50505466D01*
X141315220Y-50310781D01*
X141315218Y-50310778D01*
X141315218Y-50310776D01*
X141281503Y-50244607D01*
X141222287Y-50128390D01*
X141214556Y-50117749D01*
X141101971Y-49962786D01*
X140957213Y-49818028D01*
X140791614Y-49697715D01*
X140785006Y-49694348D01*
X140698917Y-49650483D01*
X140648123Y-49602511D01*
X140631328Y-49534690D01*
X140653865Y-49468555D01*
X140698917Y-49429516D01*
X140791610Y-49382287D01*
X140812770Y-49366913D01*
X140957213Y-49261971D01*
X140957215Y-49261968D01*
X140957219Y-49261966D01*
X141101966Y-49117219D01*
X141101968Y-49117215D01*
X141101971Y-49117213D01*
X141154732Y-49044590D01*
X141222287Y-48951610D01*
X141315220Y-48769219D01*
X141378477Y-48574534D01*
X141410500Y-48372352D01*
X141410500Y-48167648D01*
X141378477Y-47965466D01*
X141315220Y-47770781D01*
X141315218Y-47770778D01*
X141315218Y-47770776D01*
X141271960Y-47685878D01*
X141222287Y-47588390D01*
X141214556Y-47577749D01*
X141101971Y-47422786D01*
X140957213Y-47278028D01*
X140791614Y-47157715D01*
X140785006Y-47154348D01*
X140698917Y-47110483D01*
X140648123Y-47062511D01*
X140631328Y-46994690D01*
X140653865Y-46928555D01*
X140698917Y-46889516D01*
X140791610Y-46842287D01*
X140812770Y-46826913D01*
X140957213Y-46721971D01*
X140957215Y-46721968D01*
X140957219Y-46721966D01*
X141101966Y-46577219D01*
X141101968Y-46577215D01*
X141101971Y-46577213D01*
X141154732Y-46504590D01*
X141222287Y-46411610D01*
X141315220Y-46229219D01*
X141378477Y-46034534D01*
X141410500Y-45832352D01*
X141410500Y-45627648D01*
X141378477Y-45425466D01*
X141315220Y-45230781D01*
X141315218Y-45230778D01*
X141315218Y-45230776D01*
X141281503Y-45164607D01*
X141222287Y-45048390D01*
X141214556Y-45037749D01*
X141101971Y-44882786D01*
X140957213Y-44738028D01*
X140791614Y-44617715D01*
X140785006Y-44614348D01*
X140698917Y-44570483D01*
X140648123Y-44522511D01*
X140631328Y-44454690D01*
X140653865Y-44388555D01*
X140698917Y-44349516D01*
X140791610Y-44302287D01*
X140812770Y-44286913D01*
X140957213Y-44181971D01*
X140957215Y-44181968D01*
X140957219Y-44181966D01*
X141101966Y-44037219D01*
X141101968Y-44037215D01*
X141101971Y-44037213D01*
X141154732Y-43964590D01*
X141222287Y-43871610D01*
X141315220Y-43689219D01*
X141378477Y-43494534D01*
X141410500Y-43292352D01*
X141410500Y-43087648D01*
X141378477Y-42885466D01*
X141315220Y-42690781D01*
X141315218Y-42690778D01*
X141315218Y-42690776D01*
X141281503Y-42624607D01*
X141222287Y-42508390D01*
X141212655Y-42495132D01*
X141101971Y-42342786D01*
X140957217Y-42198032D01*
X140957212Y-42198028D01*
X140880936Y-42142610D01*
X140838270Y-42087280D01*
X140832291Y-42017667D01*
X140864897Y-41955872D01*
X140923158Y-41922143D01*
X140943226Y-41917022D01*
X141016735Y-41886574D01*
X141065551Y-41863219D01*
X141180733Y-41776994D01*
X141236994Y-41720733D01*
X141273157Y-41680475D01*
X141346574Y-41556735D01*
X141377022Y-41483226D01*
X141395024Y-41432198D01*
X141415500Y-41289782D01*
X141415500Y-40010218D01*
X141412604Y-39956185D01*
X141377022Y-39816774D01*
X141346574Y-39743265D01*
X141323219Y-39694449D01*
X141236994Y-39579267D01*
X141236989Y-39579262D01*
X141236984Y-39579256D01*
X141180747Y-39523019D01*
X141180731Y-39523005D01*
X141140475Y-39486843D01*
X141140467Y-39486837D01*
X141016736Y-39413426D01*
X141016737Y-39413426D01*
X140948001Y-39384956D01*
X140943226Y-39382978D01*
X140943217Y-39382975D01*
X140943205Y-39382970D01*
X140914863Y-39372971D01*
X140858193Y-39332103D01*
X140832613Y-39267084D01*
X140846246Y-39198558D01*
X140883236Y-39155717D01*
X140957215Y-39101969D01*
X140957215Y-39101968D01*
X140957219Y-39101966D01*
X141101966Y-38957219D01*
X141101968Y-38957215D01*
X141101971Y-38957213D01*
X141163751Y-38872179D01*
X141222287Y-38791610D01*
X141315220Y-38609219D01*
X141378477Y-38414534D01*
X141410500Y-38212352D01*
X141410500Y-38007648D01*
X141378477Y-37805466D01*
X141315220Y-37610781D01*
X141315218Y-37610778D01*
X141315218Y-37610776D01*
X141281503Y-37544607D01*
X141222287Y-37428390D01*
X141169867Y-37356239D01*
X141101971Y-37262786D01*
X140957213Y-37118028D01*
X140791614Y-36997715D01*
X140785006Y-36994348D01*
X140698917Y-36950483D01*
X140648123Y-36902511D01*
X140631328Y-36834690D01*
X140653865Y-36768555D01*
X140698917Y-36729516D01*
X140791610Y-36682287D01*
X140812770Y-36666913D01*
X140957213Y-36561971D01*
X140957215Y-36561968D01*
X140957219Y-36561966D01*
X141101966Y-36417219D01*
X141101968Y-36417215D01*
X141101971Y-36417213D01*
X141163751Y-36332179D01*
X141222287Y-36251610D01*
X141315220Y-36069219D01*
X141378477Y-35874534D01*
X141410500Y-35672352D01*
X141410500Y-35467648D01*
X141378477Y-35265466D01*
X141315220Y-35070781D01*
X141315218Y-35070778D01*
X141315218Y-35070776D01*
X141281503Y-35004607D01*
X141222287Y-34888390D01*
X141169867Y-34816239D01*
X141101971Y-34722786D01*
X140957213Y-34578028D01*
X140791614Y-34457715D01*
X140785006Y-34454348D01*
X140698917Y-34410483D01*
X140648123Y-34362511D01*
X140631328Y-34294690D01*
X140653865Y-34228555D01*
X140698917Y-34189516D01*
X140791610Y-34142287D01*
X140836774Y-34109474D01*
X140957213Y-34021971D01*
X140957215Y-34021968D01*
X140957219Y-34021966D01*
X141101966Y-33877219D01*
X141101968Y-33877215D01*
X141101971Y-33877213D01*
X141163751Y-33792179D01*
X141222287Y-33711610D01*
X141315220Y-33529219D01*
X141378477Y-33334534D01*
X141410500Y-33132352D01*
X141410500Y-32927648D01*
X141396144Y-32837007D01*
X141378477Y-32725465D01*
X141326038Y-32564075D01*
X141315220Y-32530781D01*
X141315218Y-32530778D01*
X141315218Y-32530776D01*
X141261793Y-32425925D01*
X141222287Y-32348390D01*
X141190092Y-32304077D01*
X141101971Y-32182786D01*
X140957213Y-32038028D01*
X140791614Y-31917715D01*
X140745412Y-31894174D01*
X140698917Y-31870483D01*
X140648123Y-31822511D01*
X140631328Y-31754690D01*
X140653865Y-31688555D01*
X140698917Y-31649516D01*
X140791610Y-31602287D01*
X140849950Y-31559901D01*
X140957213Y-31481971D01*
X140957215Y-31481968D01*
X140957219Y-31481966D01*
X141101966Y-31337219D01*
X141101968Y-31337215D01*
X141101971Y-31337213D01*
X141201297Y-31200500D01*
X141222287Y-31171610D01*
X141315220Y-30989219D01*
X141378477Y-30794534D01*
X141410500Y-30592352D01*
X141410500Y-30387648D01*
X141378477Y-30185466D01*
X141315220Y-29990781D01*
X141315218Y-29990778D01*
X141315218Y-29990776D01*
X141281503Y-29924607D01*
X141222287Y-29808390D01*
X141214556Y-29797749D01*
X141101971Y-29642786D01*
X140957217Y-29498032D01*
X140957212Y-29498028D01*
X140880936Y-29442610D01*
X140838270Y-29387280D01*
X140832291Y-29317667D01*
X140864897Y-29255872D01*
X140923158Y-29222143D01*
X140943226Y-29217022D01*
X141016735Y-29186574D01*
X141065551Y-29163219D01*
X141180733Y-29076994D01*
X141236994Y-29020733D01*
X141273157Y-28980475D01*
X141346574Y-28856735D01*
X141377022Y-28783226D01*
X141395024Y-28732198D01*
X141415500Y-28589782D01*
X141415500Y-27310218D01*
X141412604Y-27256185D01*
X141377022Y-27116774D01*
X141346574Y-27043265D01*
X141323219Y-26994449D01*
X141236994Y-26879267D01*
X141236989Y-26879262D01*
X141236984Y-26879256D01*
X141180747Y-26823019D01*
X141180731Y-26823005D01*
X141140475Y-26786843D01*
X141140467Y-26786837D01*
X141016736Y-26713426D01*
X141016737Y-26713426D01*
X140948001Y-26684956D01*
X140943226Y-26682978D01*
X140943217Y-26682975D01*
X140943205Y-26682970D01*
X140914863Y-26672971D01*
X140858193Y-26632103D01*
X140832613Y-26567084D01*
X140846246Y-26498558D01*
X140883236Y-26455717D01*
X140957215Y-26401969D01*
X140957215Y-26401968D01*
X140957219Y-26401966D01*
X141101966Y-26257219D01*
X141101968Y-26257215D01*
X141101971Y-26257213D01*
X141199834Y-26122514D01*
X141222287Y-26091610D01*
X141300817Y-25937486D01*
X145399500Y-25937486D01*
X145399500Y-26122513D01*
X145428445Y-26305265D01*
X145485619Y-26481232D01*
X145485620Y-26481235D01*
X145546026Y-26599787D01*
X145569622Y-26646096D01*
X145678379Y-26795787D01*
X145809213Y-26926621D01*
X145958904Y-27035378D01*
X145974413Y-27043280D01*
X146123764Y-27119379D01*
X146123767Y-27119380D01*
X146211750Y-27147967D01*
X146299736Y-27176555D01*
X146482486Y-27205500D01*
X146482487Y-27205500D01*
X146667513Y-27205500D01*
X146667514Y-27205500D01*
X146850264Y-27176555D01*
X147026235Y-27119379D01*
X147191096Y-27035378D01*
X147340787Y-26926621D01*
X147471621Y-26795787D01*
X147580378Y-26646096D01*
X147664379Y-26481235D01*
X147721555Y-26305264D01*
X147750500Y-26122514D01*
X147750500Y-25937486D01*
X150249500Y-25937486D01*
X150249500Y-26122513D01*
X150278445Y-26305265D01*
X150335619Y-26481232D01*
X150335620Y-26481235D01*
X150396026Y-26599787D01*
X150419622Y-26646096D01*
X150528379Y-26795787D01*
X150659213Y-26926621D01*
X150808904Y-27035378D01*
X150824413Y-27043280D01*
X150973764Y-27119379D01*
X150973767Y-27119380D01*
X151061750Y-27147967D01*
X151149736Y-27176555D01*
X151332486Y-27205500D01*
X151332487Y-27205500D01*
X151517513Y-27205500D01*
X151517514Y-27205500D01*
X151700264Y-27176555D01*
X151876235Y-27119379D01*
X152041096Y-27035378D01*
X152190787Y-26926621D01*
X152321621Y-26795787D01*
X152430378Y-26646096D01*
X152514379Y-26481235D01*
X152571555Y-26305264D01*
X152600500Y-26122514D01*
X152600500Y-25937486D01*
X152571555Y-25754736D01*
X152514379Y-25578765D01*
X152514379Y-25578764D01*
X152430377Y-25413903D01*
X152321621Y-25264213D01*
X152190787Y-25133379D01*
X152041096Y-25024622D01*
X152016114Y-25011893D01*
X151876235Y-24940620D01*
X151876232Y-24940619D01*
X151700265Y-24883445D01*
X151608889Y-24868972D01*
X151517514Y-24854500D01*
X151332486Y-24854500D01*
X151271569Y-24864148D01*
X151149734Y-24883445D01*
X150973767Y-24940619D01*
X150973764Y-24940620D01*
X150808903Y-25024622D01*
X150723499Y-25086672D01*
X150659213Y-25133379D01*
X150659211Y-25133381D01*
X150659210Y-25133381D01*
X150528381Y-25264210D01*
X150528381Y-25264211D01*
X150528379Y-25264213D01*
X150507496Y-25292956D01*
X150419622Y-25413903D01*
X150335620Y-25578764D01*
X150335619Y-25578767D01*
X150278445Y-25754734D01*
X150249500Y-25937486D01*
X147750500Y-25937486D01*
X147721555Y-25754736D01*
X147664379Y-25578765D01*
X147664379Y-25578764D01*
X147580377Y-25413903D01*
X147471621Y-25264213D01*
X147340787Y-25133379D01*
X147191096Y-25024622D01*
X147166114Y-25011893D01*
X147026235Y-24940620D01*
X147026232Y-24940619D01*
X146850265Y-24883445D01*
X146758889Y-24868972D01*
X146667514Y-24854500D01*
X146482486Y-24854500D01*
X146421569Y-24864148D01*
X146299734Y-24883445D01*
X146123767Y-24940619D01*
X146123764Y-24940620D01*
X145958903Y-25024622D01*
X145873499Y-25086672D01*
X145809213Y-25133379D01*
X145809211Y-25133381D01*
X145809210Y-25133381D01*
X145678381Y-25264210D01*
X145678381Y-25264211D01*
X145678379Y-25264213D01*
X145657496Y-25292956D01*
X145569622Y-25413903D01*
X145485620Y-25578764D01*
X145485619Y-25578767D01*
X145428445Y-25754734D01*
X145399500Y-25937486D01*
X141300817Y-25937486D01*
X141315220Y-25909219D01*
X141365415Y-25754736D01*
X141378476Y-25714538D01*
X141378476Y-25714537D01*
X141378477Y-25714534D01*
X141410500Y-25512352D01*
X141410500Y-25307648D01*
X141403620Y-25264210D01*
X141378477Y-25105465D01*
X141348073Y-25011893D01*
X141315220Y-24910781D01*
X141315218Y-24910778D01*
X141315218Y-24910776D01*
X141281503Y-24844607D01*
X141222287Y-24728390D01*
X141214556Y-24717749D01*
X141101971Y-24562786D01*
X140957217Y-24418032D01*
X140957212Y-24418028D01*
X140876440Y-24359344D01*
X140833774Y-24304015D01*
X140827795Y-24234401D01*
X140860400Y-24172606D01*
X140912433Y-24140641D01*
X140999606Y-24113478D01*
X141145185Y-24025472D01*
X141265472Y-23905185D01*
X141353478Y-23759606D01*
X141404086Y-23597196D01*
X141410500Y-23526616D01*
X141410500Y-22213384D01*
X141404086Y-22142804D01*
X141353478Y-21980394D01*
X141265472Y-21834815D01*
X141265470Y-21834813D01*
X141265469Y-21834811D01*
X141192839Y-21762181D01*
X141159354Y-21700858D01*
X141164338Y-21631166D01*
X141206210Y-21575233D01*
X141271674Y-21550816D01*
X141280520Y-21550500D01*
X145628575Y-21550500D01*
X145695614Y-21570185D01*
X145741369Y-21622989D01*
X145751313Y-21692147D01*
X145722288Y-21755703D01*
X145684870Y-21784985D01*
X145567180Y-21844951D01*
X145395213Y-21969890D01*
X145244890Y-22120213D01*
X145119951Y-22292179D01*
X145023444Y-22481585D01*
X144957753Y-22683760D01*
X144944467Y-22767648D01*
X144924500Y-22893713D01*
X144924500Y-23106287D01*
X144957754Y-23316243D01*
X144974968Y-23369223D01*
X145023444Y-23518414D01*
X145119951Y-23707820D01*
X145244890Y-23879786D01*
X145395213Y-24030109D01*
X145567179Y-24155048D01*
X145567181Y-24155049D01*
X145567184Y-24155051D01*
X145756588Y-24251557D01*
X145958757Y-24317246D01*
X146168713Y-24350500D01*
X146168714Y-24350500D01*
X146381286Y-24350500D01*
X146381287Y-24350500D01*
X146591243Y-24317246D01*
X146793412Y-24251557D01*
X146982816Y-24155051D01*
X147040038Y-24113477D01*
X147154786Y-24030109D01*
X147154788Y-24030106D01*
X147154792Y-24030104D01*
X147305104Y-23879792D01*
X147305106Y-23879788D01*
X147305109Y-23879786D01*
X147430048Y-23707820D01*
X147430047Y-23707820D01*
X147430051Y-23707816D01*
X147526557Y-23518412D01*
X147592246Y-23316243D01*
X147625500Y-23106287D01*
X147625500Y-22893713D01*
X147592246Y-22683757D01*
X147526557Y-22481588D01*
X147430051Y-22292184D01*
X147430049Y-22292181D01*
X147430048Y-22292179D01*
X147305109Y-22120213D01*
X147154786Y-21969890D01*
X146982819Y-21844951D01*
X146982818Y-21844950D01*
X146982816Y-21844949D01*
X146865130Y-21784985D01*
X146814334Y-21737010D01*
X146797539Y-21669189D01*
X146820076Y-21603054D01*
X146874792Y-21559603D01*
X146921425Y-21550500D01*
X151078575Y-21550500D01*
X151145614Y-21570185D01*
X151191369Y-21622989D01*
X151201313Y-21692147D01*
X151172288Y-21755703D01*
X151134870Y-21784985D01*
X151017180Y-21844951D01*
X150845213Y-21969890D01*
X150694890Y-22120213D01*
X150569951Y-22292179D01*
X150473444Y-22481585D01*
X150407753Y-22683760D01*
X150394467Y-22767648D01*
X150374500Y-22893713D01*
X150374500Y-23106287D01*
X150407754Y-23316243D01*
X150424968Y-23369223D01*
X150473444Y-23518414D01*
X150569951Y-23707820D01*
X150694890Y-23879786D01*
X150845213Y-24030109D01*
X151017179Y-24155048D01*
X151017181Y-24155049D01*
X151017184Y-24155051D01*
X151206588Y-24251557D01*
X151408757Y-24317246D01*
X151618713Y-24350500D01*
X151618714Y-24350500D01*
X151831286Y-24350500D01*
X151831287Y-24350500D01*
X152041243Y-24317246D01*
X152243412Y-24251557D01*
X152432816Y-24155051D01*
X152490038Y-24113477D01*
X152604786Y-24030109D01*
X152604788Y-24030106D01*
X152604792Y-24030104D01*
X152755104Y-23879792D01*
X152755106Y-23879788D01*
X152755109Y-23879786D01*
X152880048Y-23707820D01*
X152880047Y-23707820D01*
X152880051Y-23707816D01*
X152976557Y-23518412D01*
X153042246Y-23316243D01*
X153075500Y-23106287D01*
X153075500Y-22893713D01*
X153042246Y-22683757D01*
X152976557Y-22481588D01*
X152880051Y-22292184D01*
X152880049Y-22292181D01*
X152880048Y-22292179D01*
X152755109Y-22120213D01*
X152604786Y-21969890D01*
X152432819Y-21844951D01*
X152432818Y-21844950D01*
X152432816Y-21844949D01*
X152315130Y-21784985D01*
X152264334Y-21737010D01*
X152247539Y-21669189D01*
X152270076Y-21603054D01*
X152324792Y-21559603D01*
X152371425Y-21550500D01*
X157111961Y-21550500D01*
X157179000Y-21570185D01*
X157224755Y-21622989D01*
X157234699Y-21692147D01*
X157205674Y-21755703D01*
X157184848Y-21774816D01*
X157170853Y-21784985D01*
X157042780Y-21878034D01*
X156898028Y-22022786D01*
X156777715Y-22188386D01*
X156684781Y-22370776D01*
X156621522Y-22565465D01*
X156589500Y-22767648D01*
X156589500Y-22972351D01*
X156621522Y-23174534D01*
X156684781Y-23369223D01*
X156748691Y-23494653D01*
X156764976Y-23526613D01*
X156777715Y-23551613D01*
X156898028Y-23717213D01*
X157042786Y-23861971D01*
X157197749Y-23974556D01*
X157208390Y-23982287D01*
X157293139Y-24025469D01*
X157301080Y-24029515D01*
X157351876Y-24077490D01*
X157368671Y-24145311D01*
X157346134Y-24211446D01*
X157301080Y-24250485D01*
X157208386Y-24297715D01*
X157042786Y-24418028D01*
X156898028Y-24562786D01*
X156777715Y-24728386D01*
X156684781Y-24910776D01*
X156621522Y-25105465D01*
X156589500Y-25307648D01*
X156589500Y-25512351D01*
X156621522Y-25714534D01*
X156684781Y-25909223D01*
X156777715Y-26091613D01*
X156898028Y-26257213D01*
X157042782Y-26401967D01*
X157042787Y-26401971D01*
X157119063Y-26457389D01*
X157161729Y-26512719D01*
X157167708Y-26582332D01*
X157135102Y-26644127D01*
X157076845Y-26677855D01*
X157056776Y-26682977D01*
X157056766Y-26682980D01*
X156983280Y-26713419D01*
X156983252Y-26713431D01*
X156934451Y-26736779D01*
X156934446Y-26736782D01*
X156819268Y-26823005D01*
X156819256Y-26823015D01*
X156763019Y-26879252D01*
X156726843Y-26919524D01*
X156726837Y-26919532D01*
X156653426Y-27043263D01*
X156622978Y-27116774D01*
X156622970Y-27116795D01*
X156604976Y-27167800D01*
X156599556Y-27205500D01*
X156584501Y-27310215D01*
X156584500Y-27310219D01*
X156584500Y-28589784D01*
X156587395Y-28643814D01*
X156587396Y-28643818D01*
X156622976Y-28783221D01*
X156622980Y-28783233D01*
X156653419Y-28856719D01*
X156653431Y-28856747D01*
X156676779Y-28905548D01*
X156676781Y-28905551D01*
X156763006Y-29020733D01*
X156763010Y-29020737D01*
X156763015Y-29020743D01*
X156819252Y-29076980D01*
X156819261Y-29076988D01*
X156819267Y-29076994D01*
X156827159Y-29084083D01*
X156859524Y-29113156D01*
X156859532Y-29113162D01*
X156983263Y-29186573D01*
X156983262Y-29186573D01*
X156983279Y-29186580D01*
X157056774Y-29217022D01*
X157071290Y-29222143D01*
X157085133Y-29227027D01*
X157141805Y-29267894D01*
X157167386Y-29332912D01*
X157153754Y-29401439D01*
X157116765Y-29444281D01*
X157042782Y-29498032D01*
X156898028Y-29642786D01*
X156777715Y-29808386D01*
X156684781Y-29990776D01*
X156621522Y-30185465D01*
X156589500Y-30387648D01*
X156589500Y-30592351D01*
X156621522Y-30794534D01*
X156684781Y-30989223D01*
X156777715Y-31171613D01*
X156898028Y-31337213D01*
X157042786Y-31481971D01*
X157208385Y-31602284D01*
X157208387Y-31602285D01*
X157208390Y-31602287D01*
X157301080Y-31649515D01*
X157301630Y-31649795D01*
X157352426Y-31697770D01*
X157369221Y-31765591D01*
X157346684Y-31831725D01*
X157301630Y-31870765D01*
X157208644Y-31918143D01*
X157164077Y-31950523D01*
X157164077Y-31950524D01*
X157760591Y-32547037D01*
X157697007Y-32564075D01*
X157582993Y-32629901D01*
X157489901Y-32722993D01*
X157424075Y-32837007D01*
X157407037Y-32900590D01*
X156810524Y-32304077D01*
X156810523Y-32304077D01*
X156778143Y-32348644D01*
X156685244Y-32530968D01*
X156622009Y-32725582D01*
X156590000Y-32927682D01*
X156590000Y-33132317D01*
X156622009Y-33334417D01*
X156685244Y-33529031D01*
X156778141Y-33711350D01*
X156778147Y-33711359D01*
X156810523Y-33755921D01*
X156810524Y-33755922D01*
X157407037Y-33159409D01*
X157424075Y-33222993D01*
X157489901Y-33337007D01*
X157582993Y-33430099D01*
X157697007Y-33495925D01*
X157760590Y-33512962D01*
X157164076Y-34109474D01*
X157208652Y-34141861D01*
X157301628Y-34189234D01*
X157352425Y-34237208D01*
X157369220Y-34305029D01*
X157346683Y-34371164D01*
X157301630Y-34410203D01*
X157208388Y-34457713D01*
X157042786Y-34578028D01*
X156898028Y-34722786D01*
X156777715Y-34888386D01*
X156684781Y-35070776D01*
X156621522Y-35265465D01*
X156589500Y-35467648D01*
X156589500Y-35672351D01*
X156621522Y-35874534D01*
X156684781Y-36069223D01*
X156777715Y-36251613D01*
X156898028Y-36417213D01*
X157042786Y-36561971D01*
X157197749Y-36674556D01*
X157208390Y-36682287D01*
X157289785Y-36723760D01*
X157301080Y-36729515D01*
X157351876Y-36777490D01*
X157368671Y-36845311D01*
X157346134Y-36911446D01*
X157301080Y-36950485D01*
X157208386Y-36997715D01*
X157042786Y-37118028D01*
X156898028Y-37262786D01*
X156777715Y-37428386D01*
X156684781Y-37610776D01*
X156621522Y-37805465D01*
X156589500Y-38007648D01*
X156589500Y-38212351D01*
X156621522Y-38414534D01*
X156684781Y-38609223D01*
X156777715Y-38791613D01*
X156898028Y-38957213D01*
X157042782Y-39101967D01*
X157042787Y-39101971D01*
X157119063Y-39157389D01*
X157161729Y-39212719D01*
X157167708Y-39282332D01*
X157135102Y-39344127D01*
X157076845Y-39377855D01*
X157056776Y-39382977D01*
X157056766Y-39382980D01*
X156983280Y-39413419D01*
X156983252Y-39413431D01*
X156934451Y-39436779D01*
X156934446Y-39436782D01*
X156819268Y-39523005D01*
X156819256Y-39523015D01*
X156763019Y-39579252D01*
X156726843Y-39619524D01*
X156726837Y-39619532D01*
X156653426Y-39743263D01*
X156622978Y-39816774D01*
X156622970Y-39816795D01*
X156604976Y-39867800D01*
X156584500Y-40010219D01*
X156584500Y-41289784D01*
X156587395Y-41343814D01*
X156587396Y-41343818D01*
X156622976Y-41483221D01*
X156622980Y-41483233D01*
X156653419Y-41556719D01*
X156653431Y-41556747D01*
X156676779Y-41605548D01*
X156676781Y-41605551D01*
X156763006Y-41720733D01*
X156763010Y-41720737D01*
X156763015Y-41720743D01*
X156819252Y-41776980D01*
X156819261Y-41776988D01*
X156819267Y-41776994D01*
X156856716Y-41810634D01*
X156859524Y-41813156D01*
X156859532Y-41813162D01*
X156983263Y-41886573D01*
X156983262Y-41886573D01*
X156983279Y-41886580D01*
X157056774Y-41917022D01*
X157071290Y-41922143D01*
X157085133Y-41927027D01*
X157141805Y-41967894D01*
X157167386Y-42032912D01*
X157153754Y-42101439D01*
X157116765Y-42144281D01*
X157042782Y-42198032D01*
X156898028Y-42342786D01*
X156777715Y-42508386D01*
X156684781Y-42690776D01*
X156621522Y-42885465D01*
X156589500Y-43087648D01*
X156589500Y-43292351D01*
X156621522Y-43494534D01*
X156684781Y-43689223D01*
X156777715Y-43871613D01*
X156898028Y-44037213D01*
X157042786Y-44181971D01*
X157197749Y-44294556D01*
X157208390Y-44302287D01*
X157299840Y-44348883D01*
X157301080Y-44349515D01*
X157351876Y-44397490D01*
X157368671Y-44465311D01*
X157346134Y-44531446D01*
X157301080Y-44570485D01*
X157208386Y-44617715D01*
X157042786Y-44738028D01*
X156898028Y-44882786D01*
X156777715Y-45048386D01*
X156684781Y-45230776D01*
X156621522Y-45425465D01*
X156589500Y-45627648D01*
X156589500Y-45832351D01*
X156621522Y-46034534D01*
X156684781Y-46229223D01*
X156748691Y-46354653D01*
X156763588Y-46383889D01*
X156777715Y-46411613D01*
X156898028Y-46577213D01*
X157042786Y-46721971D01*
X157197749Y-46834556D01*
X157208390Y-46842287D01*
X157299840Y-46888883D01*
X157301080Y-46889515D01*
X157351876Y-46937490D01*
X157368671Y-47005311D01*
X157346134Y-47071446D01*
X157301080Y-47110485D01*
X157208386Y-47157715D01*
X157042786Y-47278028D01*
X156898028Y-47422786D01*
X156777715Y-47588386D01*
X156684781Y-47770776D01*
X156621522Y-47965465D01*
X156589500Y-48167648D01*
X156589500Y-48372352D01*
X156593878Y-48399995D01*
X156621522Y-48574534D01*
X156684781Y-48769223D01*
X156777715Y-48951613D01*
X156898028Y-49117213D01*
X157042786Y-49261971D01*
X157197749Y-49374556D01*
X157208390Y-49382287D01*
X157299840Y-49428883D01*
X157301080Y-49429515D01*
X157351876Y-49477490D01*
X157368671Y-49545311D01*
X157346134Y-49611446D01*
X157301080Y-49650485D01*
X157208386Y-49697715D01*
X157042786Y-49818028D01*
X156898028Y-49962786D01*
X156777715Y-50128386D01*
X156684781Y-50310776D01*
X156621522Y-50505465D01*
X156589500Y-50707648D01*
X156589500Y-50912351D01*
X156621522Y-51114534D01*
X156684781Y-51309223D01*
X156777715Y-51491613D01*
X156898028Y-51657213D01*
X157042782Y-51801967D01*
X157042787Y-51801971D01*
X157119063Y-51857389D01*
X157161729Y-51912719D01*
X157167708Y-51982332D01*
X157135102Y-52044127D01*
X157076845Y-52077855D01*
X157056776Y-52082977D01*
X157056766Y-52082980D01*
X156983280Y-52113419D01*
X156983252Y-52113431D01*
X156934451Y-52136779D01*
X156934446Y-52136782D01*
X156819268Y-52223005D01*
X156819256Y-52223015D01*
X156763019Y-52279252D01*
X156726843Y-52319524D01*
X156726837Y-52319532D01*
X156653426Y-52443263D01*
X156622978Y-52516774D01*
X156622970Y-52516795D01*
X156604976Y-52567800D01*
X156604976Y-52567802D01*
X156584501Y-52710215D01*
X156584500Y-52710219D01*
X156584500Y-53989784D01*
X156587395Y-54043814D01*
X156587396Y-54043818D01*
X156622976Y-54183221D01*
X156622980Y-54183233D01*
X156653419Y-54256719D01*
X156653431Y-54256747D01*
X156676779Y-54305548D01*
X156676781Y-54305551D01*
X156763006Y-54420733D01*
X156763010Y-54420737D01*
X156763015Y-54420743D01*
X156819252Y-54476980D01*
X156819261Y-54476988D01*
X156819267Y-54476994D01*
X156859524Y-54513156D01*
X156859532Y-54513162D01*
X156983263Y-54586573D01*
X156983262Y-54586573D01*
X156983279Y-54586580D01*
X157056774Y-54617022D01*
X157071290Y-54622143D01*
X157085133Y-54627027D01*
X157141805Y-54667894D01*
X157167386Y-54732912D01*
X157153754Y-54801439D01*
X157116765Y-54844281D01*
X157042782Y-54898032D01*
X156898028Y-55042786D01*
X156777715Y-55208386D01*
X156684781Y-55390776D01*
X156621522Y-55585465D01*
X156589500Y-55787648D01*
X156589500Y-55992351D01*
X156621522Y-56194534D01*
X156684781Y-56389223D01*
X156777715Y-56571613D01*
X156898028Y-56737213D01*
X157042786Y-56881971D01*
X157197749Y-56994556D01*
X157208390Y-57002287D01*
X157299840Y-57048883D01*
X157301080Y-57049515D01*
X157351876Y-57097490D01*
X157368671Y-57165311D01*
X157346134Y-57231446D01*
X157301080Y-57270485D01*
X157208386Y-57317715D01*
X157042786Y-57438028D01*
X156898028Y-57582786D01*
X156777715Y-57748386D01*
X156684781Y-57930776D01*
X156621522Y-58125465D01*
X156589500Y-58327648D01*
X156589500Y-58532352D01*
X156593878Y-58559995D01*
X156621522Y-58734534D01*
X156684781Y-58929223D01*
X156777715Y-59111613D01*
X156898028Y-59277213D01*
X157042786Y-59421971D01*
X157165182Y-59510895D01*
X157208390Y-59542287D01*
X157299840Y-59588883D01*
X157301080Y-59589515D01*
X157351876Y-59637490D01*
X157368671Y-59705311D01*
X157346134Y-59771446D01*
X157301080Y-59810485D01*
X157208386Y-59857715D01*
X157042786Y-59978028D01*
X156898028Y-60122786D01*
X156777715Y-60288386D01*
X156684781Y-60470776D01*
X156621522Y-60665465D01*
X156589500Y-60867648D01*
X156589500Y-61072351D01*
X156621522Y-61274534D01*
X156684781Y-61469223D01*
X156777715Y-61651613D01*
X156898028Y-61817213D01*
X157042786Y-61961971D01*
X157197749Y-62074556D01*
X157208390Y-62082287D01*
X157299840Y-62128883D01*
X157301080Y-62129515D01*
X157351876Y-62177490D01*
X157368671Y-62245311D01*
X157346134Y-62311446D01*
X157301080Y-62350485D01*
X157208386Y-62397715D01*
X157042786Y-62518028D01*
X156898028Y-62662786D01*
X156777715Y-62828386D01*
X156684781Y-63010776D01*
X156621522Y-63205465D01*
X156589500Y-63407648D01*
X156589500Y-63612351D01*
X156621522Y-63814534D01*
X156684781Y-64009223D01*
X156777715Y-64191613D01*
X156898028Y-64357213D01*
X157042782Y-64501967D01*
X157042787Y-64501971D01*
X157119063Y-64557389D01*
X157161729Y-64612719D01*
X157167708Y-64682332D01*
X157135102Y-64744127D01*
X157076845Y-64777855D01*
X157056776Y-64782977D01*
X157056766Y-64782980D01*
X156983280Y-64813419D01*
X156983252Y-64813431D01*
X156934451Y-64836779D01*
X156934446Y-64836782D01*
X156819268Y-64923005D01*
X156819256Y-64923015D01*
X156763019Y-64979252D01*
X156726843Y-65019524D01*
X156726837Y-65019532D01*
X156653426Y-65143263D01*
X156622978Y-65216774D01*
X156622970Y-65216795D01*
X156604976Y-65267800D01*
X156604976Y-65267802D01*
X156584501Y-65410215D01*
X156584500Y-65410219D01*
X156584500Y-66689784D01*
X156587395Y-66743814D01*
X156587396Y-66743818D01*
X156622976Y-66883221D01*
X156622980Y-66883233D01*
X156653419Y-66956719D01*
X156653431Y-66956747D01*
X156676779Y-67005548D01*
X156676781Y-67005551D01*
X156763006Y-67120733D01*
X156763010Y-67120737D01*
X156763015Y-67120743D01*
X156819252Y-67176980D01*
X156819261Y-67176988D01*
X156819267Y-67176994D01*
X156853279Y-67207546D01*
X156859524Y-67213156D01*
X156859532Y-67213162D01*
X156983263Y-67286573D01*
X156983262Y-67286573D01*
X156983279Y-67286580D01*
X157056774Y-67317022D01*
X157071290Y-67322143D01*
X157085133Y-67327027D01*
X157141805Y-67367894D01*
X157167386Y-67432912D01*
X157153754Y-67501439D01*
X157116765Y-67544281D01*
X157042782Y-67598032D01*
X156898028Y-67742786D01*
X156777715Y-67908386D01*
X156684781Y-68090776D01*
X156621522Y-68285465D01*
X156589500Y-68487648D01*
X156589500Y-68692351D01*
X156621522Y-68894534D01*
X156684781Y-69089223D01*
X156777715Y-69271613D01*
X156898028Y-69437213D01*
X157042786Y-69581971D01*
X157197749Y-69694556D01*
X157208390Y-69702287D01*
X157299840Y-69748883D01*
X157301080Y-69749515D01*
X157351876Y-69797490D01*
X157368671Y-69865311D01*
X157346134Y-69931446D01*
X157301080Y-69970485D01*
X157208386Y-70017715D01*
X157042786Y-70138028D01*
X156898028Y-70282786D01*
X156777715Y-70448386D01*
X156684781Y-70630776D01*
X156621522Y-70825465D01*
X156589500Y-71027648D01*
X156589500Y-71232351D01*
X156621522Y-71434534D01*
X156684781Y-71629223D01*
X156777715Y-71811613D01*
X156898028Y-71977213D01*
X157042786Y-72121971D01*
X157195748Y-72233102D01*
X157208390Y-72242287D01*
X157324607Y-72301503D01*
X157390776Y-72335218D01*
X157390778Y-72335218D01*
X157390781Y-72335220D01*
X157495137Y-72369127D01*
X157585465Y-72398477D01*
X157686557Y-72414488D01*
X157787648Y-72430500D01*
X157787649Y-72430500D01*
X157992351Y-72430500D01*
X157992352Y-72430500D01*
X158194534Y-72398477D01*
X158389219Y-72335220D01*
X158571610Y-72242287D01*
X158668903Y-72171600D01*
X158737213Y-72121971D01*
X158737215Y-72121968D01*
X158737219Y-72121966D01*
X158881966Y-71977219D01*
X158881968Y-71977215D01*
X158881971Y-71977213D01*
X158934732Y-71904590D01*
X159002287Y-71811610D01*
X159095220Y-71629219D01*
X159158477Y-71434534D01*
X159190500Y-71232352D01*
X159190500Y-71027648D01*
X159158477Y-70825466D01*
X159095220Y-70630781D01*
X159095218Y-70630778D01*
X159095218Y-70630776D01*
X159050218Y-70542460D01*
X159002287Y-70448390D01*
X158994556Y-70437749D01*
X158881971Y-70282786D01*
X158737213Y-70138028D01*
X158571614Y-70017715D01*
X158565006Y-70014348D01*
X158478917Y-69970483D01*
X158428123Y-69922511D01*
X158411328Y-69854690D01*
X158433865Y-69788555D01*
X158478917Y-69749516D01*
X158571610Y-69702287D01*
X158592770Y-69686913D01*
X158737213Y-69581971D01*
X158737215Y-69581968D01*
X158737219Y-69581966D01*
X158881966Y-69437219D01*
X158881968Y-69437215D01*
X158881971Y-69437213D01*
X158934732Y-69364590D01*
X159002287Y-69271610D01*
X159095220Y-69089219D01*
X159158477Y-68894534D01*
X159190500Y-68692352D01*
X159190500Y-68487648D01*
X159158477Y-68285466D01*
X159095220Y-68090781D01*
X159095218Y-68090778D01*
X159095218Y-68090776D01*
X159061503Y-68024607D01*
X159002287Y-67908390D01*
X158994556Y-67897749D01*
X158881971Y-67742786D01*
X158737213Y-67598028D01*
X158571613Y-67477715D01*
X158571612Y-67477714D01*
X158571610Y-67477713D01*
X158518947Y-67450880D01*
X158486245Y-67434217D01*
X158435449Y-67386242D01*
X158418654Y-67318421D01*
X158441192Y-67252286D01*
X158484083Y-67214376D01*
X158549783Y-67179259D01*
X158680811Y-67091709D01*
X158757412Y-67028843D01*
X158868843Y-66917412D01*
X158931709Y-66840811D01*
X159019259Y-66709783D01*
X159065972Y-66622389D01*
X159126278Y-66476798D01*
X159155044Y-66381968D01*
X159185787Y-66227410D01*
X159195500Y-66128793D01*
X159195500Y-65971207D01*
X159185787Y-65872590D01*
X159155044Y-65718032D01*
X159126278Y-65623202D01*
X159065972Y-65477611D01*
X159019259Y-65390217D01*
X158996517Y-65356181D01*
X158931721Y-65259206D01*
X158931712Y-65259194D01*
X158931709Y-65259189D01*
X158868843Y-65182588D01*
X158757412Y-65071157D01*
X158680811Y-65008291D01*
X158680804Y-65008286D01*
X158680793Y-65008278D01*
X158549799Y-64920751D01*
X158549788Y-64920744D01*
X158549783Y-64920741D01*
X158525318Y-64907664D01*
X158484086Y-64885625D01*
X158434242Y-64836662D01*
X158418782Y-64768524D01*
X158442614Y-64702845D01*
X158486246Y-64665782D01*
X158505625Y-64655908D01*
X158571610Y-64622287D01*
X158660935Y-64557389D01*
X158737213Y-64501971D01*
X158737215Y-64501968D01*
X158737219Y-64501966D01*
X158881966Y-64357219D01*
X158881968Y-64357215D01*
X158881971Y-64357213D01*
X158934732Y-64284590D01*
X159002287Y-64191610D01*
X159095220Y-64009219D01*
X159158477Y-63814534D01*
X159190500Y-63612352D01*
X159190500Y-63407648D01*
X159158477Y-63205466D01*
X159095220Y-63010781D01*
X159095218Y-63010778D01*
X159095218Y-63010776D01*
X159061503Y-62944607D01*
X159002287Y-62828390D01*
X158994556Y-62817749D01*
X158881971Y-62662786D01*
X158737213Y-62518028D01*
X158571614Y-62397715D01*
X158565006Y-62394348D01*
X158478917Y-62350483D01*
X158428123Y-62302511D01*
X158411328Y-62234690D01*
X158433865Y-62168555D01*
X158478917Y-62129516D01*
X158571610Y-62082287D01*
X158592770Y-62066913D01*
X158737213Y-61961971D01*
X158737215Y-61961968D01*
X158737219Y-61961966D01*
X158881966Y-61817219D01*
X158881968Y-61817215D01*
X158881971Y-61817213D01*
X158934732Y-61744590D01*
X159002287Y-61651610D01*
X159095220Y-61469219D01*
X159158477Y-61274534D01*
X159190500Y-61072352D01*
X159190500Y-60867648D01*
X159158477Y-60665466D01*
X159095220Y-60470781D01*
X159095218Y-60470778D01*
X159095218Y-60470776D01*
X159058048Y-60397827D01*
X159002287Y-60288390D01*
X158947276Y-60212673D01*
X158881971Y-60122786D01*
X158737215Y-59978030D01*
X158702566Y-59952857D01*
X158702565Y-59952856D01*
X158571614Y-59857715D01*
X158571015Y-59857410D01*
X184103112Y-59857410D01*
X184103112Y-60036141D01*
X184131072Y-60212674D01*
X184131072Y-60212677D01*
X184186301Y-60382654D01*
X184186303Y-60382657D01*
X184267445Y-60541908D01*
X184372501Y-60686504D01*
X184498884Y-60812887D01*
X184643480Y-60917943D01*
X184802731Y-60999085D01*
X184802733Y-60999086D01*
X184961282Y-61050601D01*
X184972715Y-61054316D01*
X185149246Y-61082276D01*
X185149247Y-61082276D01*
X185327977Y-61082276D01*
X185327978Y-61082276D01*
X185504509Y-61054316D01*
X185504512Y-61054315D01*
X185504513Y-61054315D01*
X185674490Y-60999086D01*
X185674490Y-60999085D01*
X185674493Y-60999085D01*
X185833744Y-60917943D01*
X185978340Y-60812887D01*
X186104723Y-60686504D01*
X186209779Y-60541908D01*
X186290921Y-60382657D01*
X186321550Y-60288390D01*
X186346151Y-60212677D01*
X186346151Y-60212676D01*
X186346152Y-60212673D01*
X186374112Y-60036142D01*
X186374112Y-59857410D01*
X186346152Y-59680879D01*
X186346151Y-59680875D01*
X186346151Y-59680874D01*
X186290922Y-59510897D01*
X186290920Y-59510894D01*
X186251830Y-59434174D01*
X186209779Y-59351644D01*
X186104723Y-59207048D01*
X185978340Y-59080665D01*
X185833744Y-58975609D01*
X185674493Y-58894467D01*
X185674490Y-58894465D01*
X185504511Y-58839236D01*
X185386821Y-58820596D01*
X185327978Y-58811276D01*
X185149246Y-58811276D01*
X185090402Y-58820596D01*
X184972713Y-58839236D01*
X184972710Y-58839236D01*
X184802733Y-58894465D01*
X184802730Y-58894467D01*
X184643479Y-58975609D01*
X184498882Y-59080666D01*
X184372502Y-59207046D01*
X184267445Y-59351643D01*
X184186303Y-59510894D01*
X184186301Y-59510897D01*
X184131072Y-59680874D01*
X184131072Y-59680877D01*
X184103112Y-59857410D01*
X158571015Y-59857410D01*
X158565006Y-59854348D01*
X158478917Y-59810483D01*
X158428123Y-59762511D01*
X158411328Y-59694690D01*
X158433865Y-59628555D01*
X158478917Y-59589516D01*
X158571610Y-59542287D01*
X158614819Y-59510894D01*
X158737213Y-59421971D01*
X158737215Y-59421968D01*
X158737219Y-59421966D01*
X158881966Y-59277219D01*
X158881968Y-59277215D01*
X158881971Y-59277213D01*
X158943159Y-59192993D01*
X159002287Y-59111610D01*
X159095220Y-58929219D01*
X159158477Y-58734534D01*
X159190500Y-58532352D01*
X159190500Y-58327648D01*
X159158477Y-58125466D01*
X159095220Y-57930781D01*
X159095218Y-57930778D01*
X159095218Y-57930776D01*
X159061503Y-57864607D01*
X159002287Y-57748390D01*
X158994556Y-57737749D01*
X158881971Y-57582786D01*
X158737213Y-57438028D01*
X158571614Y-57317715D01*
X158565006Y-57314348D01*
X158478917Y-57270483D01*
X158428123Y-57222511D01*
X158411328Y-57154690D01*
X158433865Y-57088555D01*
X158478917Y-57049516D01*
X158571610Y-57002287D01*
X158592770Y-56986913D01*
X158737213Y-56881971D01*
X158737215Y-56881968D01*
X158737219Y-56881966D01*
X158881966Y-56737219D01*
X158881968Y-56737215D01*
X158881971Y-56737213D01*
X158934732Y-56664590D01*
X159002287Y-56571610D01*
X159095220Y-56389219D01*
X159158477Y-56194534D01*
X159190500Y-55992352D01*
X159190500Y-55787648D01*
X159158477Y-55585466D01*
X159095220Y-55390781D01*
X159095218Y-55390778D01*
X159095218Y-55390776D01*
X159061503Y-55324607D01*
X159002287Y-55208390D01*
X158994556Y-55197749D01*
X158881971Y-55042786D01*
X158737213Y-54898028D01*
X158571613Y-54777715D01*
X158571612Y-54777714D01*
X158571610Y-54777713D01*
X158518947Y-54750880D01*
X158486245Y-54734217D01*
X158435449Y-54686242D01*
X158418654Y-54618421D01*
X158441192Y-54552286D01*
X158484083Y-54514376D01*
X158549783Y-54479259D01*
X158680811Y-54391709D01*
X158757412Y-54328843D01*
X158868843Y-54217412D01*
X158931709Y-54140811D01*
X159019259Y-54009783D01*
X159065972Y-53922389D01*
X159126278Y-53776798D01*
X159155044Y-53681968D01*
X159185787Y-53527410D01*
X159195500Y-53428793D01*
X159195500Y-53271207D01*
X159185787Y-53172590D01*
X159155044Y-53018032D01*
X159126278Y-52923202D01*
X159065972Y-52777611D01*
X159019259Y-52690217D01*
X158996517Y-52656181D01*
X158931721Y-52559206D01*
X158931712Y-52559194D01*
X158931709Y-52559189D01*
X158868843Y-52482588D01*
X158757412Y-52371157D01*
X158680811Y-52308291D01*
X158680804Y-52308286D01*
X158680793Y-52308278D01*
X158549799Y-52220751D01*
X158549788Y-52220744D01*
X158549783Y-52220741D01*
X158527645Y-52208908D01*
X158484086Y-52185625D01*
X158434242Y-52136662D01*
X158418782Y-52068524D01*
X158442614Y-52002845D01*
X158486246Y-51965782D01*
X158571610Y-51922287D01*
X158660935Y-51857389D01*
X158737213Y-51801971D01*
X158737215Y-51801968D01*
X158737219Y-51801966D01*
X158881966Y-51657219D01*
X158881968Y-51657215D01*
X158881971Y-51657213D01*
X158934732Y-51584590D01*
X159002287Y-51491610D01*
X159095220Y-51309219D01*
X159158477Y-51114534D01*
X159190500Y-50912352D01*
X159190500Y-50707648D01*
X159158477Y-50505466D01*
X159095220Y-50310781D01*
X159095218Y-50310778D01*
X159095218Y-50310776D01*
X159061503Y-50244607D01*
X159002287Y-50128390D01*
X158994556Y-50117749D01*
X158881971Y-49962786D01*
X158737213Y-49818028D01*
X158571614Y-49697715D01*
X158565006Y-49694348D01*
X158478917Y-49650483D01*
X158428123Y-49602511D01*
X158411328Y-49534690D01*
X158433865Y-49468555D01*
X158478917Y-49429516D01*
X158571610Y-49382287D01*
X158592770Y-49366913D01*
X158737213Y-49261971D01*
X158737215Y-49261968D01*
X158737219Y-49261966D01*
X158881966Y-49117219D01*
X158881968Y-49117215D01*
X158881971Y-49117213D01*
X158934732Y-49044590D01*
X159002287Y-48951610D01*
X159095220Y-48769219D01*
X159158477Y-48574534D01*
X159190500Y-48372352D01*
X159190500Y-48167648D01*
X159158477Y-47965466D01*
X159095220Y-47770781D01*
X159095218Y-47770778D01*
X159095218Y-47770776D01*
X159051960Y-47685878D01*
X159002287Y-47588390D01*
X158994556Y-47577749D01*
X158881971Y-47422786D01*
X158737213Y-47278028D01*
X158571614Y-47157715D01*
X158565006Y-47154348D01*
X158478917Y-47110483D01*
X158428123Y-47062511D01*
X158411328Y-46994690D01*
X158433865Y-46928555D01*
X158478917Y-46889516D01*
X158571610Y-46842287D01*
X158592770Y-46826913D01*
X158737213Y-46721971D01*
X158737215Y-46721968D01*
X158737219Y-46721966D01*
X158881966Y-46577219D01*
X158881968Y-46577215D01*
X158881971Y-46577213D01*
X158934732Y-46504590D01*
X159002287Y-46411610D01*
X159095220Y-46229219D01*
X159158477Y-46034534D01*
X159190500Y-45832352D01*
X159190500Y-45627648D01*
X159158477Y-45425466D01*
X159095220Y-45230781D01*
X159095218Y-45230778D01*
X159095218Y-45230776D01*
X159061503Y-45164607D01*
X159002287Y-45048390D01*
X158994556Y-45037749D01*
X158881971Y-44882786D01*
X158737213Y-44738028D01*
X158571614Y-44617715D01*
X158565006Y-44614348D01*
X158478917Y-44570483D01*
X158428123Y-44522511D01*
X158411328Y-44454690D01*
X158433865Y-44388555D01*
X158478917Y-44349516D01*
X158571610Y-44302287D01*
X158592770Y-44286913D01*
X158737213Y-44181971D01*
X158737215Y-44181968D01*
X158737219Y-44181966D01*
X158881966Y-44037219D01*
X158881968Y-44037215D01*
X158881971Y-44037213D01*
X158934732Y-43964590D01*
X159002287Y-43871610D01*
X159095220Y-43689219D01*
X159158477Y-43494534D01*
X159190500Y-43292352D01*
X159190500Y-43087648D01*
X159158477Y-42885466D01*
X159095220Y-42690781D01*
X159095218Y-42690778D01*
X159095218Y-42690776D01*
X159061503Y-42624607D01*
X159002287Y-42508390D01*
X158992655Y-42495132D01*
X158881971Y-42342786D01*
X158737213Y-42198028D01*
X158571613Y-42077715D01*
X158571612Y-42077714D01*
X158571610Y-42077713D01*
X158518947Y-42050880D01*
X158486245Y-42034217D01*
X158480819Y-42029093D01*
X158473698Y-42026867D01*
X158455766Y-42005430D01*
X158435449Y-41986242D01*
X158433655Y-41978998D01*
X158428868Y-41973276D01*
X158425371Y-41945547D01*
X158418654Y-41918421D01*
X158421060Y-41911359D01*
X158420127Y-41903955D01*
X158432178Y-41878735D01*
X158441192Y-41852286D01*
X158447782Y-41846080D01*
X158450252Y-41840913D01*
X158468345Y-41826720D01*
X158477323Y-41818268D01*
X158480642Y-41816215D01*
X158491083Y-41810634D01*
X161089500Y-41810634D01*
X161089500Y-41989366D01*
X161095440Y-42026867D01*
X161117460Y-42165898D01*
X161117460Y-42165901D01*
X161172689Y-42335878D01*
X161172691Y-42335881D01*
X161253833Y-42495132D01*
X161358889Y-42639728D01*
X161485272Y-42766111D01*
X161629868Y-42871167D01*
X161789119Y-42952309D01*
X161789121Y-42952310D01*
X161947670Y-43003825D01*
X161959103Y-43007540D01*
X162135634Y-43035500D01*
X162135635Y-43035500D01*
X162314365Y-43035500D01*
X162314366Y-43035500D01*
X162490897Y-43007540D01*
X162490900Y-43007539D01*
X162490901Y-43007539D01*
X162660878Y-42952310D01*
X162660878Y-42952309D01*
X162660881Y-42952309D01*
X162820132Y-42871167D01*
X162964728Y-42766111D01*
X163091111Y-42639728D01*
X163196167Y-42495132D01*
X163277309Y-42335881D01*
X163332540Y-42165897D01*
X163360500Y-41989366D01*
X163360500Y-41810634D01*
X163332540Y-41634103D01*
X163332539Y-41634099D01*
X163332539Y-41634098D01*
X163277310Y-41464121D01*
X163277308Y-41464118D01*
X163265430Y-41440805D01*
X163196167Y-41304868D01*
X163091111Y-41160272D01*
X162964728Y-41033889D01*
X162820132Y-40928833D01*
X162660881Y-40847691D01*
X162660878Y-40847689D01*
X162490899Y-40792460D01*
X162373209Y-40773820D01*
X162314366Y-40764500D01*
X162135634Y-40764500D01*
X162076790Y-40773820D01*
X161959101Y-40792460D01*
X161959098Y-40792460D01*
X161789121Y-40847689D01*
X161789118Y-40847691D01*
X161629867Y-40928833D01*
X161485270Y-41033890D01*
X161358890Y-41160270D01*
X161253833Y-41304867D01*
X161172691Y-41464118D01*
X161172689Y-41464121D01*
X161117460Y-41634098D01*
X161117460Y-41634101D01*
X161108335Y-41691714D01*
X161089500Y-41810634D01*
X158491083Y-41810634D01*
X158549783Y-41779259D01*
X158680811Y-41691709D01*
X158757412Y-41628843D01*
X158868843Y-41517412D01*
X158931709Y-41440811D01*
X159019259Y-41309783D01*
X159065972Y-41222389D01*
X159126278Y-41076798D01*
X159155044Y-40981968D01*
X159185787Y-40827410D01*
X159195500Y-40728793D01*
X159195500Y-40571207D01*
X159185787Y-40472590D01*
X159155044Y-40318032D01*
X159126278Y-40223202D01*
X159065972Y-40077611D01*
X159019259Y-39990217D01*
X158956468Y-39896243D01*
X158931721Y-39859206D01*
X158931712Y-39859194D01*
X158931709Y-39859189D01*
X158868843Y-39782588D01*
X158757412Y-39671157D01*
X158680811Y-39608291D01*
X158680804Y-39608286D01*
X158680793Y-39608278D01*
X158549799Y-39520751D01*
X158549788Y-39520744D01*
X158549783Y-39520741D01*
X158527645Y-39508908D01*
X158484086Y-39485625D01*
X158434242Y-39436662D01*
X158418782Y-39368524D01*
X158442614Y-39302845D01*
X158486246Y-39265782D01*
X158571610Y-39222287D01*
X158660935Y-39157389D01*
X158737213Y-39101971D01*
X158737215Y-39101968D01*
X158737219Y-39101966D01*
X158881966Y-38957219D01*
X158881968Y-38957215D01*
X158881971Y-38957213D01*
X158943751Y-38872179D01*
X159002287Y-38791610D01*
X159095220Y-38609219D01*
X159158477Y-38414534D01*
X159190500Y-38212352D01*
X159190500Y-38007648D01*
X159158477Y-37805466D01*
X159095220Y-37610781D01*
X159095218Y-37610778D01*
X159095218Y-37610776D01*
X159061503Y-37544607D01*
X159002287Y-37428390D01*
X158949867Y-37356239D01*
X158881971Y-37262786D01*
X158737213Y-37118028D01*
X158571614Y-36997715D01*
X158565006Y-36994348D01*
X158478917Y-36950483D01*
X158428123Y-36902511D01*
X158411328Y-36834690D01*
X158433865Y-36768555D01*
X158478917Y-36729516D01*
X158571610Y-36682287D01*
X158592770Y-36666913D01*
X158737213Y-36561971D01*
X158737215Y-36561968D01*
X158737219Y-36561966D01*
X158881966Y-36417219D01*
X158881968Y-36417215D01*
X158881971Y-36417213D01*
X158943751Y-36332179D01*
X159002287Y-36251610D01*
X159095220Y-36069219D01*
X159158477Y-35874534D01*
X159190500Y-35672352D01*
X159190500Y-35467648D01*
X159158477Y-35265466D01*
X159095220Y-35070781D01*
X159095218Y-35070778D01*
X159095218Y-35070776D01*
X159061503Y-35004607D01*
X159002287Y-34888390D01*
X158949867Y-34816239D01*
X158881971Y-34722786D01*
X158737213Y-34578028D01*
X158571611Y-34457713D01*
X158478369Y-34410203D01*
X158427574Y-34362229D01*
X158410779Y-34294407D01*
X158433317Y-34228273D01*
X158478371Y-34189234D01*
X158571346Y-34141861D01*
X158571347Y-34141861D01*
X158615921Y-34109474D01*
X158019409Y-33512962D01*
X158082993Y-33495925D01*
X158197007Y-33430099D01*
X158290099Y-33337007D01*
X158355925Y-33222993D01*
X158372962Y-33159410D01*
X158969474Y-33755922D01*
X158969474Y-33755921D01*
X159001859Y-33711349D01*
X159094755Y-33529031D01*
X159157990Y-33334417D01*
X159190000Y-33132317D01*
X159190000Y-32927682D01*
X159157990Y-32725582D01*
X159094755Y-32530968D01*
X159001859Y-32348650D01*
X158969474Y-32304077D01*
X158969474Y-32304076D01*
X158372962Y-32900589D01*
X158355925Y-32837007D01*
X158290099Y-32722993D01*
X158197007Y-32629901D01*
X158082993Y-32564075D01*
X158019408Y-32547037D01*
X158615922Y-31950524D01*
X158615921Y-31950523D01*
X158571359Y-31918147D01*
X158571350Y-31918141D01*
X158478369Y-31870765D01*
X158427573Y-31822790D01*
X158410778Y-31754969D01*
X158433315Y-31688835D01*
X158478370Y-31649795D01*
X158478920Y-31649515D01*
X158571610Y-31602287D01*
X158629950Y-31559901D01*
X158737213Y-31481971D01*
X158737215Y-31481968D01*
X158737219Y-31481966D01*
X158881966Y-31337219D01*
X158881968Y-31337215D01*
X158881971Y-31337213D01*
X158981297Y-31200500D01*
X159002287Y-31171610D01*
X159095220Y-30989219D01*
X159158477Y-30794534D01*
X159190500Y-30592352D01*
X159190500Y-30387648D01*
X159158477Y-30185466D01*
X159095220Y-29990781D01*
X159095218Y-29990778D01*
X159095218Y-29990776D01*
X159061503Y-29924607D01*
X159002287Y-29808390D01*
X158994556Y-29797749D01*
X158881971Y-29642786D01*
X158737213Y-29498028D01*
X158571613Y-29377715D01*
X158571612Y-29377714D01*
X158571610Y-29377713D01*
X158518947Y-29350880D01*
X158486245Y-29334217D01*
X158435449Y-29286242D01*
X158418654Y-29218421D01*
X158441192Y-29152286D01*
X158484083Y-29114376D01*
X158549783Y-29079259D01*
X158680811Y-28991709D01*
X158757412Y-28928843D01*
X158868843Y-28817412D01*
X158931709Y-28740811D01*
X159019259Y-28609783D01*
X159065972Y-28522389D01*
X159126278Y-28376798D01*
X159155044Y-28281968D01*
X159185787Y-28127410D01*
X159195500Y-28028793D01*
X159195500Y-27871207D01*
X159185787Y-27772590D01*
X159155044Y-27618032D01*
X159126278Y-27523202D01*
X159065972Y-27377611D01*
X159063838Y-27373619D01*
X159063838Y-27373617D01*
X159063836Y-27373615D01*
X159034221Y-27318209D01*
X193799500Y-27318209D01*
X193799500Y-27681790D01*
X193835137Y-28043630D01*
X193906064Y-28400212D01*
X193906067Y-28400223D01*
X194011614Y-28748165D01*
X194107837Y-28980467D01*
X194148756Y-29079256D01*
X194150754Y-29084078D01*
X194150756Y-29084083D01*
X194322140Y-29404720D01*
X194322151Y-29404738D01*
X194524140Y-29707035D01*
X194524150Y-29707049D01*
X194754807Y-29988106D01*
X195011893Y-30245192D01*
X195011898Y-30245196D01*
X195011899Y-30245197D01*
X195292956Y-30475854D01*
X195595268Y-30677853D01*
X195595277Y-30677858D01*
X195595279Y-30677859D01*
X195915916Y-30849243D01*
X195915918Y-30849243D01*
X195915924Y-30849247D01*
X196251836Y-30988386D01*
X196599767Y-31093930D01*
X196599773Y-31093931D01*
X196599776Y-31093932D01*
X196599787Y-31093935D01*
X196956369Y-31164862D01*
X197318206Y-31200500D01*
X197318209Y-31200500D01*
X197681791Y-31200500D01*
X197681794Y-31200500D01*
X198043631Y-31164862D01*
X198113045Y-31151054D01*
X198400212Y-31093935D01*
X198400223Y-31093932D01*
X198400223Y-31093931D01*
X198400233Y-31093930D01*
X198748164Y-30988386D01*
X199084076Y-30849247D01*
X199404732Y-30677853D01*
X199707044Y-30475854D01*
X199988101Y-30245197D01*
X200245197Y-29988101D01*
X200475854Y-29707044D01*
X200677853Y-29404732D01*
X200849247Y-29084076D01*
X200988386Y-28748164D01*
X201093930Y-28400233D01*
X201093932Y-28400223D01*
X201093935Y-28400212D01*
X201164862Y-28043630D01*
X201200500Y-27681790D01*
X201200500Y-27318209D01*
X201197741Y-27290200D01*
X201164862Y-26956369D01*
X201149526Y-26879267D01*
X201093935Y-26599787D01*
X201093932Y-26599776D01*
X201093931Y-26599773D01*
X201093930Y-26599767D01*
X200988386Y-26251836D01*
X200849247Y-25915924D01*
X200845665Y-25909223D01*
X200677859Y-25595279D01*
X200677858Y-25595277D01*
X200677853Y-25595268D01*
X200475854Y-25292956D01*
X200245197Y-25011899D01*
X200245196Y-25011898D01*
X200245192Y-25011893D01*
X199988106Y-24754807D01*
X199707049Y-24524150D01*
X199707048Y-24524149D01*
X199707044Y-24524146D01*
X199404732Y-24322147D01*
X199404727Y-24322144D01*
X199404720Y-24322140D01*
X199084083Y-24150756D01*
X199084078Y-24150754D01*
X199070937Y-24145311D01*
X198885632Y-24068555D01*
X198748165Y-24011614D01*
X198400223Y-23906067D01*
X198400212Y-23906064D01*
X198043630Y-23835137D01*
X197771111Y-23808296D01*
X197681794Y-23799500D01*
X197318206Y-23799500D01*
X197235679Y-23807628D01*
X196956369Y-23835137D01*
X196599787Y-23906064D01*
X196599776Y-23906067D01*
X196251834Y-24011614D01*
X195915921Y-24150754D01*
X195915916Y-24150756D01*
X195595279Y-24322140D01*
X195595261Y-24322151D01*
X195292964Y-24524140D01*
X195292950Y-24524150D01*
X195011893Y-24754807D01*
X194754807Y-25011893D01*
X194524150Y-25292950D01*
X194524140Y-25292964D01*
X194322151Y-25595261D01*
X194322140Y-25595279D01*
X194150756Y-25915916D01*
X194150754Y-25915921D01*
X194011614Y-26251834D01*
X193906067Y-26599776D01*
X193906064Y-26599787D01*
X193835137Y-26956369D01*
X193813451Y-27176555D01*
X193802259Y-27290200D01*
X193799500Y-27318209D01*
X159034221Y-27318209D01*
X159019265Y-27290228D01*
X159019263Y-27290226D01*
X159019259Y-27290217D01*
X158996517Y-27256181D01*
X158931721Y-27159206D01*
X158931712Y-27159194D01*
X158931709Y-27159189D01*
X158868843Y-27082588D01*
X158757412Y-26971157D01*
X158680811Y-26908291D01*
X158680804Y-26908286D01*
X158680793Y-26908278D01*
X158549799Y-26820751D01*
X158549788Y-26820744D01*
X158549783Y-26820741D01*
X158503099Y-26795788D01*
X158484086Y-26785625D01*
X158434242Y-26736662D01*
X158418782Y-26668524D01*
X158442614Y-26602845D01*
X158486246Y-26565782D01*
X158571610Y-26522287D01*
X158660935Y-26457389D01*
X158737213Y-26401971D01*
X158737215Y-26401968D01*
X158737219Y-26401966D01*
X158881966Y-26257219D01*
X158881968Y-26257215D01*
X158881971Y-26257213D01*
X158979834Y-26122514D01*
X159002287Y-26091610D01*
X159095220Y-25909219D01*
X159158477Y-25714534D01*
X159190500Y-25512352D01*
X159190500Y-25307648D01*
X159183620Y-25264210D01*
X159158477Y-25105465D01*
X159128073Y-25011893D01*
X159095220Y-24910781D01*
X159095218Y-24910778D01*
X159095218Y-24910776D01*
X159061503Y-24844607D01*
X159002287Y-24728390D01*
X158994556Y-24717749D01*
X158881971Y-24562786D01*
X158737213Y-24418028D01*
X158571614Y-24297715D01*
X158565006Y-24294348D01*
X158478917Y-24250483D01*
X158428123Y-24202511D01*
X158411328Y-24134690D01*
X158433865Y-24068555D01*
X158478917Y-24029516D01*
X158571610Y-23982287D01*
X158676523Y-23906064D01*
X158737213Y-23861971D01*
X158737215Y-23861968D01*
X158737219Y-23861966D01*
X158881966Y-23717219D01*
X158881968Y-23717215D01*
X158881971Y-23717213D01*
X158969170Y-23597192D01*
X159002287Y-23551610D01*
X159095220Y-23369219D01*
X159158477Y-23174534D01*
X159190500Y-22972352D01*
X159190500Y-22767648D01*
X159158477Y-22565466D01*
X159095220Y-22370781D01*
X159095218Y-22370778D01*
X159095218Y-22370776D01*
X159055170Y-22292179D01*
X159002287Y-22188390D01*
X158994556Y-22177749D01*
X158881971Y-22022786D01*
X158737219Y-21878034D01*
X158691681Y-21844949D01*
X158595153Y-21774818D01*
X158552488Y-21719489D01*
X158546509Y-21649875D01*
X158579114Y-21588080D01*
X158639953Y-21553723D01*
X158668039Y-21550500D01*
X205350500Y-21550500D01*
X205417539Y-21570185D01*
X205463294Y-21622989D01*
X205474500Y-21674500D01*
X205474500Y-110775500D01*
X205454815Y-110842539D01*
X205402011Y-110888294D01*
X205350500Y-110899500D01*
X98549500Y-110899500D01*
X98482461Y-110879815D01*
X98436706Y-110827011D01*
X98425500Y-110775500D01*
X98425500Y-102318209D01*
X103799500Y-102318209D01*
X103799500Y-102681790D01*
X103835137Y-103043630D01*
X103906064Y-103400212D01*
X103906067Y-103400223D01*
X104011614Y-103748165D01*
X104150754Y-104084078D01*
X104150756Y-104084083D01*
X104322140Y-104404720D01*
X104322151Y-104404738D01*
X104524140Y-104707035D01*
X104524150Y-104707049D01*
X104754807Y-104988106D01*
X105011893Y-105245192D01*
X105011898Y-105245196D01*
X105011899Y-105245197D01*
X105292956Y-105475854D01*
X105595268Y-105677853D01*
X105595277Y-105677858D01*
X105595279Y-105677859D01*
X105915916Y-105849243D01*
X105915918Y-105849243D01*
X105915924Y-105849247D01*
X106251836Y-105988386D01*
X106599767Y-106093930D01*
X106599773Y-106093931D01*
X106599776Y-106093932D01*
X106599787Y-106093935D01*
X106956369Y-106164862D01*
X107318206Y-106200500D01*
X107318209Y-106200500D01*
X107681791Y-106200500D01*
X107681794Y-106200500D01*
X108043631Y-106164862D01*
X108113045Y-106151054D01*
X108400212Y-106093935D01*
X108400223Y-106093932D01*
X108400223Y-106093931D01*
X108400233Y-106093930D01*
X108748164Y-105988386D01*
X109084076Y-105849247D01*
X109404732Y-105677853D01*
X109707044Y-105475854D01*
X109988101Y-105245197D01*
X110245197Y-104988101D01*
X110475854Y-104707044D01*
X110677853Y-104404732D01*
X110849247Y-104084076D01*
X110988386Y-103748164D01*
X111093930Y-103400233D01*
X111093932Y-103400223D01*
X111093935Y-103400212D01*
X111164862Y-103043630D01*
X111200500Y-102681790D01*
X111200500Y-102318209D01*
X193299500Y-102318209D01*
X193299500Y-102681790D01*
X193335137Y-103043630D01*
X193406064Y-103400212D01*
X193406067Y-103400223D01*
X193511614Y-103748165D01*
X193650754Y-104084078D01*
X193650756Y-104084083D01*
X193822140Y-104404720D01*
X193822151Y-104404738D01*
X194024140Y-104707035D01*
X194024150Y-104707049D01*
X194254807Y-104988106D01*
X194511893Y-105245192D01*
X194511898Y-105245196D01*
X194511899Y-105245197D01*
X194792956Y-105475854D01*
X195095268Y-105677853D01*
X195095277Y-105677858D01*
X195095279Y-105677859D01*
X195415916Y-105849243D01*
X195415918Y-105849243D01*
X195415924Y-105849247D01*
X195751836Y-105988386D01*
X196099767Y-106093930D01*
X196099773Y-106093931D01*
X196099776Y-106093932D01*
X196099787Y-106093935D01*
X196456369Y-106164862D01*
X196818206Y-106200500D01*
X196818209Y-106200500D01*
X197181791Y-106200500D01*
X197181794Y-106200500D01*
X197543631Y-106164862D01*
X197613045Y-106151054D01*
X197900212Y-106093935D01*
X197900223Y-106093932D01*
X197900223Y-106093931D01*
X197900233Y-106093930D01*
X198248164Y-105988386D01*
X198584076Y-105849247D01*
X198904732Y-105677853D01*
X199207044Y-105475854D01*
X199488101Y-105245197D01*
X199745197Y-104988101D01*
X199975854Y-104707044D01*
X200177853Y-104404732D01*
X200349247Y-104084076D01*
X200488386Y-103748164D01*
X200593930Y-103400233D01*
X200593932Y-103400223D01*
X200593935Y-103400212D01*
X200664862Y-103043630D01*
X200700500Y-102681790D01*
X200700500Y-102318209D01*
X200664862Y-101956369D01*
X200593935Y-101599787D01*
X200593932Y-101599776D01*
X200593931Y-101599773D01*
X200593930Y-101599767D01*
X200488386Y-101251836D01*
X200349247Y-100915924D01*
X200274228Y-100775574D01*
X200177859Y-100595279D01*
X200177858Y-100595277D01*
X200177853Y-100595268D01*
X199975854Y-100292956D01*
X199745197Y-100011899D01*
X199745196Y-100011898D01*
X199745192Y-100011893D01*
X199488106Y-99754807D01*
X199207049Y-99524150D01*
X199207048Y-99524149D01*
X199207044Y-99524146D01*
X198904732Y-99322147D01*
X198904727Y-99322144D01*
X198904720Y-99322140D01*
X198584083Y-99150756D01*
X198584078Y-99150754D01*
X198248165Y-99011614D01*
X197900223Y-98906067D01*
X197900212Y-98906064D01*
X197543630Y-98835137D01*
X197271111Y-98808296D01*
X197181794Y-98799500D01*
X196818206Y-98799500D01*
X196735679Y-98807628D01*
X196456369Y-98835137D01*
X196099787Y-98906064D01*
X196099776Y-98906067D01*
X195751834Y-99011614D01*
X195415921Y-99150754D01*
X195415916Y-99150756D01*
X195095279Y-99322140D01*
X195095261Y-99322151D01*
X194792964Y-99524140D01*
X194792950Y-99524150D01*
X194511893Y-99754807D01*
X194254807Y-100011893D01*
X194024150Y-100292950D01*
X194024140Y-100292964D01*
X193822151Y-100595261D01*
X193822140Y-100595279D01*
X193650756Y-100915916D01*
X193650754Y-100915921D01*
X193511614Y-101251834D01*
X193406067Y-101599776D01*
X193406064Y-101599787D01*
X193335137Y-101956369D01*
X193299500Y-102318209D01*
X111200500Y-102318209D01*
X111164862Y-101956369D01*
X111093935Y-101599787D01*
X111093932Y-101599776D01*
X111093931Y-101599773D01*
X111093930Y-101599767D01*
X110988386Y-101251836D01*
X110849247Y-100915924D01*
X110774228Y-100775574D01*
X110677859Y-100595279D01*
X110677858Y-100595277D01*
X110677853Y-100595268D01*
X110475854Y-100292956D01*
X110245197Y-100011899D01*
X110245196Y-100011898D01*
X110245192Y-100011893D01*
X109988106Y-99754807D01*
X109707049Y-99524150D01*
X109707048Y-99524149D01*
X109707044Y-99524146D01*
X109404732Y-99322147D01*
X109404727Y-99322144D01*
X109404720Y-99322140D01*
X109084083Y-99150756D01*
X109084078Y-99150754D01*
X108748165Y-99011614D01*
X108713496Y-99001097D01*
X108400233Y-98906070D01*
X108400232Y-98906069D01*
X108400223Y-98906067D01*
X108400212Y-98906064D01*
X108221541Y-98870525D01*
X123904500Y-98870525D01*
X123904500Y-99129474D01*
X123904501Y-99129491D01*
X123938299Y-99386217D01*
X123938300Y-99386222D01*
X123938301Y-99386228D01*
X123938302Y-99386230D01*
X124005324Y-99636364D01*
X124104423Y-99875609D01*
X124104427Y-99875619D01*
X124233906Y-100099883D01*
X124391551Y-100305331D01*
X124391557Y-100305338D01*
X124574661Y-100488442D01*
X124574668Y-100488448D01*
X124780116Y-100646093D01*
X125004380Y-100775572D01*
X125004381Y-100775572D01*
X125004384Y-100775574D01*
X125243634Y-100874675D01*
X125493772Y-100941699D01*
X125750519Y-100975500D01*
X125750526Y-100975500D01*
X126009474Y-100975500D01*
X126009481Y-100975500D01*
X126266228Y-100941699D01*
X126516366Y-100874675D01*
X126755616Y-100775574D01*
X126979884Y-100646093D01*
X127185333Y-100488447D01*
X127368447Y-100305333D01*
X127526093Y-100099884D01*
X127655574Y-99875616D01*
X127754675Y-99636366D01*
X127821699Y-99386228D01*
X127855500Y-99129481D01*
X127855500Y-98870519D01*
X127821699Y-98613772D01*
X127754675Y-98363634D01*
X127655574Y-98124384D01*
X127526093Y-97900116D01*
X127368447Y-97694667D01*
X127368442Y-97694661D01*
X127185338Y-97511557D01*
X127185331Y-97511551D01*
X126979883Y-97353906D01*
X126755619Y-97224427D01*
X126755609Y-97224423D01*
X126516364Y-97125324D01*
X126391297Y-97091813D01*
X126266228Y-97058301D01*
X126266222Y-97058300D01*
X126266217Y-97058299D01*
X126009491Y-97024501D01*
X126009486Y-97024500D01*
X126009481Y-97024500D01*
X125750519Y-97024500D01*
X125750513Y-97024500D01*
X125750508Y-97024501D01*
X125493782Y-97058299D01*
X125493775Y-97058300D01*
X125493772Y-97058301D01*
X125440908Y-97072465D01*
X125243635Y-97125324D01*
X125004390Y-97224423D01*
X125004380Y-97224427D01*
X124780116Y-97353906D01*
X124574668Y-97511551D01*
X124574661Y-97511557D01*
X124391557Y-97694661D01*
X124391551Y-97694668D01*
X124233906Y-97900116D01*
X124104427Y-98124380D01*
X124104423Y-98124390D01*
X124005324Y-98363635D01*
X123938302Y-98613769D01*
X123938299Y-98613782D01*
X123904501Y-98870508D01*
X123904500Y-98870525D01*
X108221541Y-98870525D01*
X108043630Y-98835137D01*
X107771111Y-98808296D01*
X107681794Y-98799500D01*
X107318206Y-98799500D01*
X107235679Y-98807628D01*
X106956369Y-98835137D01*
X106599787Y-98906064D01*
X106599776Y-98906067D01*
X106251834Y-99011614D01*
X105915921Y-99150754D01*
X105915916Y-99150756D01*
X105595279Y-99322140D01*
X105595261Y-99322151D01*
X105292964Y-99524140D01*
X105292950Y-99524150D01*
X105011893Y-99754807D01*
X104754807Y-100011893D01*
X104524150Y-100292950D01*
X104524140Y-100292964D01*
X104322151Y-100595261D01*
X104322140Y-100595279D01*
X104150756Y-100915916D01*
X104150754Y-100915921D01*
X104011614Y-101251834D01*
X103906067Y-101599776D01*
X103906064Y-101599787D01*
X103835137Y-101956369D01*
X103799500Y-102318209D01*
X98425500Y-102318209D01*
X98425500Y-88175634D01*
X197619500Y-88175634D01*
X197619500Y-88354365D01*
X197647460Y-88530898D01*
X197647460Y-88530901D01*
X197702689Y-88700878D01*
X197702691Y-88700881D01*
X197783833Y-88860132D01*
X197888890Y-89004729D01*
X198013980Y-89129819D01*
X198047465Y-89191142D01*
X198042481Y-89260834D01*
X198013980Y-89305181D01*
X197888891Y-89430269D01*
X197888890Y-89430270D01*
X197783833Y-89574867D01*
X197702691Y-89734118D01*
X197702689Y-89734121D01*
X197647460Y-89904098D01*
X197647460Y-89904101D01*
X197619500Y-90080634D01*
X197619500Y-90259365D01*
X197647460Y-90435898D01*
X197647460Y-90435901D01*
X197702689Y-90605878D01*
X197702691Y-90605881D01*
X197783833Y-90765132D01*
X197888890Y-90909729D01*
X198013980Y-91034819D01*
X198047465Y-91096142D01*
X198042481Y-91165834D01*
X198013980Y-91210181D01*
X197888891Y-91335269D01*
X197888890Y-91335270D01*
X197783833Y-91479867D01*
X197702691Y-91639118D01*
X197702689Y-91639121D01*
X197647460Y-91809098D01*
X197647460Y-91809101D01*
X197619500Y-91985634D01*
X197619500Y-92164365D01*
X197647460Y-92340898D01*
X197647460Y-92340901D01*
X197702689Y-92510878D01*
X197702691Y-92510881D01*
X197783833Y-92670132D01*
X197888890Y-92814729D01*
X198013980Y-92939819D01*
X198047465Y-93001142D01*
X198042481Y-93070834D01*
X198013980Y-93115181D01*
X197888891Y-93240269D01*
X197888890Y-93240270D01*
X197783833Y-93384867D01*
X197702691Y-93544118D01*
X197702689Y-93544121D01*
X197647460Y-93714098D01*
X197647460Y-93714101D01*
X197619500Y-93890634D01*
X197619500Y-94069365D01*
X197647460Y-94245898D01*
X197647460Y-94245901D01*
X197702689Y-94415878D01*
X197702691Y-94415881D01*
X197783833Y-94575132D01*
X197888889Y-94719728D01*
X198015272Y-94846111D01*
X198159868Y-94951167D01*
X198319119Y-95032309D01*
X198319121Y-95032310D01*
X198477670Y-95083825D01*
X198489103Y-95087540D01*
X198665634Y-95115500D01*
X198665635Y-95115500D01*
X198844365Y-95115500D01*
X198844366Y-95115500D01*
X199020897Y-95087540D01*
X199020900Y-95087539D01*
X199020901Y-95087539D01*
X199190878Y-95032310D01*
X199190878Y-95032309D01*
X199190881Y-95032309D01*
X199350132Y-94951167D01*
X199494728Y-94846111D01*
X199621111Y-94719728D01*
X199726167Y-94575132D01*
X199807309Y-94415881D01*
X199862540Y-94245897D01*
X199890500Y-94069366D01*
X199890500Y-93890634D01*
X199862540Y-93714103D01*
X199862539Y-93714099D01*
X199862539Y-93714098D01*
X199807310Y-93544121D01*
X199807308Y-93544118D01*
X199726166Y-93384867D01*
X199621111Y-93240272D01*
X199496020Y-93115181D01*
X199462535Y-93053858D01*
X199467519Y-92984166D01*
X199496020Y-92939819D01*
X199621111Y-92814728D01*
X199726167Y-92670132D01*
X199807309Y-92510881D01*
X199862540Y-92340897D01*
X199890500Y-92164366D01*
X199890500Y-91985634D01*
X199862540Y-91809103D01*
X199862539Y-91809099D01*
X199862539Y-91809098D01*
X199807310Y-91639121D01*
X199807308Y-91639118D01*
X199726166Y-91479867D01*
X199621111Y-91335272D01*
X199496020Y-91210181D01*
X199462535Y-91148858D01*
X199467519Y-91079166D01*
X199496020Y-91034819D01*
X199621111Y-90909728D01*
X199726167Y-90765132D01*
X199807309Y-90605881D01*
X199862540Y-90435897D01*
X199890500Y-90259366D01*
X199890500Y-90080634D01*
X199862540Y-89904103D01*
X199862539Y-89904099D01*
X199862539Y-89904098D01*
X199807310Y-89734121D01*
X199807308Y-89734118D01*
X199726166Y-89574867D01*
X199621111Y-89430272D01*
X199496020Y-89305181D01*
X199462535Y-89243858D01*
X199467519Y-89174166D01*
X199496020Y-89129819D01*
X199621111Y-89004728D01*
X199726167Y-88860132D01*
X199807309Y-88700881D01*
X199862540Y-88530897D01*
X199890500Y-88354366D01*
X199890500Y-88175634D01*
X199862540Y-87999103D01*
X199862539Y-87999099D01*
X199862539Y-87999098D01*
X199807310Y-87829121D01*
X199807308Y-87829118D01*
X199726166Y-87669867D01*
X199621111Y-87525272D01*
X199494728Y-87398889D01*
X199350132Y-87293833D01*
X199190881Y-87212691D01*
X199190878Y-87212689D01*
X199020899Y-87157460D01*
X198903209Y-87138820D01*
X198844366Y-87129500D01*
X198665634Y-87129500D01*
X198606790Y-87138820D01*
X198489101Y-87157460D01*
X198489098Y-87157460D01*
X198319121Y-87212689D01*
X198319118Y-87212691D01*
X198159867Y-87293833D01*
X198015270Y-87398890D01*
X197888890Y-87525270D01*
X197783833Y-87669867D01*
X197702691Y-87829118D01*
X197702689Y-87829121D01*
X197647460Y-87999098D01*
X197647460Y-87999101D01*
X197619500Y-88175634D01*
X98425500Y-88175634D01*
X98425500Y-82886231D01*
X115924500Y-82886231D01*
X115924500Y-83113768D01*
X115960093Y-83338490D01*
X116030400Y-83554876D01*
X116030401Y-83554879D01*
X116133697Y-83757607D01*
X116267434Y-83941680D01*
X116428320Y-84102566D01*
X116612393Y-84236303D01*
X116711825Y-84286966D01*
X116815120Y-84339598D01*
X116815123Y-84339599D01*
X116923316Y-84374752D01*
X117031511Y-84409907D01*
X117135591Y-84426391D01*
X117256232Y-84445500D01*
X117256237Y-84445500D01*
X117483768Y-84445500D01*
X117592710Y-84428244D01*
X117708489Y-84409907D01*
X117924879Y-84339598D01*
X118127607Y-84236303D01*
X118311680Y-84102566D01*
X118472566Y-83941680D01*
X118606303Y-83757607D01*
X118709598Y-83554879D01*
X118779907Y-83338489D01*
X118798244Y-83222710D01*
X118815500Y-83113768D01*
X118815500Y-82886232D01*
X118815440Y-82885854D01*
X118815440Y-82885852D01*
X118813012Y-82870525D01*
X179144500Y-82870525D01*
X179144500Y-83129474D01*
X179144501Y-83129491D01*
X179178299Y-83386217D01*
X179178300Y-83386222D01*
X179178301Y-83386228D01*
X179178302Y-83386230D01*
X179245324Y-83636364D01*
X179344423Y-83875609D01*
X179344427Y-83875619D01*
X179473906Y-84099883D01*
X179631551Y-84305331D01*
X179631557Y-84305338D01*
X179814661Y-84488442D01*
X179814668Y-84488448D01*
X180020116Y-84646093D01*
X180244380Y-84775572D01*
X180244381Y-84775572D01*
X180244384Y-84775574D01*
X180483634Y-84874675D01*
X180733772Y-84941699D01*
X180990519Y-84975500D01*
X180990526Y-84975500D01*
X181249474Y-84975500D01*
X181249481Y-84975500D01*
X181506228Y-84941699D01*
X181756366Y-84874675D01*
X181995616Y-84775574D01*
X182219884Y-84646093D01*
X182425333Y-84488447D01*
X182608447Y-84305333D01*
X182766093Y-84099884D01*
X182895574Y-83875616D01*
X182994675Y-83636366D01*
X183061699Y-83386228D01*
X183095500Y-83129481D01*
X183095500Y-82870519D01*
X183061699Y-82613772D01*
X182994675Y-82363634D01*
X182895574Y-82124384D01*
X182766093Y-81900116D01*
X182764035Y-81897434D01*
X182608448Y-81694668D01*
X182608442Y-81694661D01*
X182425338Y-81511557D01*
X182425331Y-81511551D01*
X182219883Y-81353906D01*
X181995619Y-81224427D01*
X181995609Y-81224423D01*
X181756364Y-81125324D01*
X181631297Y-81091813D01*
X181506228Y-81058301D01*
X181506222Y-81058300D01*
X181506217Y-81058299D01*
X181249491Y-81024501D01*
X181249486Y-81024500D01*
X181249481Y-81024500D01*
X180990519Y-81024500D01*
X180990513Y-81024500D01*
X180990508Y-81024501D01*
X180733782Y-81058299D01*
X180733775Y-81058300D01*
X180733772Y-81058301D01*
X180680908Y-81072465D01*
X180483635Y-81125324D01*
X180244390Y-81224423D01*
X180244380Y-81224427D01*
X180020116Y-81353906D01*
X179814668Y-81511551D01*
X179814661Y-81511557D01*
X179631557Y-81694661D01*
X179631551Y-81694668D01*
X179473906Y-81900116D01*
X179344427Y-82124380D01*
X179344423Y-82124390D01*
X179245324Y-82363635D01*
X179178302Y-82613769D01*
X179178299Y-82613782D01*
X179144501Y-82870508D01*
X179144500Y-82870525D01*
X118813012Y-82870525D01*
X118779907Y-82661509D01*
X118709599Y-82445123D01*
X118709598Y-82445120D01*
X118606302Y-82242392D01*
X118472566Y-82058320D01*
X118311680Y-81897434D01*
X118127607Y-81763697D01*
X117924879Y-81660401D01*
X117924876Y-81660400D01*
X117708490Y-81590093D01*
X117483768Y-81554500D01*
X117483763Y-81554500D01*
X117256237Y-81554500D01*
X117256232Y-81554500D01*
X117031509Y-81590093D01*
X116815123Y-81660400D01*
X116815120Y-81660401D01*
X116612392Y-81763697D01*
X116507372Y-81839998D01*
X116428320Y-81897434D01*
X116428318Y-81897436D01*
X116428317Y-81897436D01*
X116267436Y-82058317D01*
X116267436Y-82058318D01*
X116267434Y-82058320D01*
X116219439Y-82124380D01*
X116133697Y-82242392D01*
X116030401Y-82445120D01*
X116030400Y-82445123D01*
X115960093Y-82661509D01*
X115924500Y-82886231D01*
X98425500Y-82886231D01*
X98425500Y-77380634D01*
X113799500Y-77380634D01*
X113799500Y-77559365D01*
X113827460Y-77735898D01*
X113827460Y-77735901D01*
X113882689Y-77905878D01*
X113882691Y-77905881D01*
X113963833Y-78065132D01*
X114068889Y-78209728D01*
X114195272Y-78336111D01*
X114339868Y-78441167D01*
X114499119Y-78522309D01*
X114499121Y-78522310D01*
X114657670Y-78573825D01*
X114669103Y-78577540D01*
X114845634Y-78605500D01*
X114845635Y-78605500D01*
X115024365Y-78605500D01*
X115024366Y-78605500D01*
X115200897Y-78577540D01*
X115200900Y-78577539D01*
X115200901Y-78577539D01*
X115370878Y-78522310D01*
X115370878Y-78522309D01*
X115370881Y-78522309D01*
X115530132Y-78441167D01*
X115674728Y-78336111D01*
X115801111Y-78209728D01*
X115906167Y-78065132D01*
X115987309Y-77905881D01*
X116042540Y-77735897D01*
X116070500Y-77559366D01*
X116070500Y-77380634D01*
X116339500Y-77380634D01*
X116339500Y-77559365D01*
X116367460Y-77735898D01*
X116367460Y-77735901D01*
X116422689Y-77905878D01*
X116422691Y-77905881D01*
X116503833Y-78065132D01*
X116608889Y-78209728D01*
X116735272Y-78336111D01*
X116879868Y-78441167D01*
X117039119Y-78522309D01*
X117039121Y-78522310D01*
X117197670Y-78573825D01*
X117209103Y-78577540D01*
X117385634Y-78605500D01*
X117385635Y-78605500D01*
X117564365Y-78605500D01*
X117564366Y-78605500D01*
X117740897Y-78577540D01*
X117740900Y-78577539D01*
X117740901Y-78577539D01*
X117910878Y-78522310D01*
X117910878Y-78522309D01*
X117910881Y-78522309D01*
X118070132Y-78441167D01*
X118214728Y-78336111D01*
X118341111Y-78209728D01*
X118446167Y-78065132D01*
X118527309Y-77905881D01*
X118582540Y-77735897D01*
X118610500Y-77559366D01*
X118610500Y-77380634D01*
X118582540Y-77204103D01*
X118582539Y-77204099D01*
X118582539Y-77204098D01*
X118527310Y-77034121D01*
X118527308Y-77034118D01*
X118477255Y-76935881D01*
X118446167Y-76874868D01*
X118341111Y-76730272D01*
X118214728Y-76603889D01*
X118078569Y-76504962D01*
X118070133Y-76498833D01*
X117910881Y-76417691D01*
X117910878Y-76417689D01*
X117889165Y-76410634D01*
X125864500Y-76410634D01*
X125864500Y-76589366D01*
X125866801Y-76603891D01*
X125892460Y-76765898D01*
X125892460Y-76765901D01*
X125947689Y-76935878D01*
X125947691Y-76935881D01*
X126028833Y-77095132D01*
X126133889Y-77239728D01*
X126260272Y-77366111D01*
X126404868Y-77471167D01*
X126564119Y-77552309D01*
X126564121Y-77552310D01*
X126722670Y-77603825D01*
X126734103Y-77607540D01*
X126910634Y-77635500D01*
X126910635Y-77635500D01*
X127089365Y-77635500D01*
X127089366Y-77635500D01*
X127265897Y-77607540D01*
X127265900Y-77607539D01*
X127265901Y-77607539D01*
X127435878Y-77552310D01*
X127435878Y-77552309D01*
X127435881Y-77552309D01*
X127595132Y-77471167D01*
X127739728Y-77366111D01*
X127866111Y-77239728D01*
X127971167Y-77095132D01*
X128052309Y-76935881D01*
X128107540Y-76765897D01*
X128135500Y-76589366D01*
X128135500Y-76410634D01*
X128107540Y-76234103D01*
X128107539Y-76234099D01*
X128107539Y-76234098D01*
X128052310Y-76064121D01*
X128052308Y-76064118D01*
X127971166Y-75904867D01*
X127866111Y-75760272D01*
X127739728Y-75633889D01*
X127595132Y-75528833D01*
X127435881Y-75447691D01*
X127435878Y-75447689D01*
X127265899Y-75392460D01*
X127148209Y-75373820D01*
X127089366Y-75364500D01*
X126910634Y-75364500D01*
X126851790Y-75373820D01*
X126734101Y-75392460D01*
X126734098Y-75392460D01*
X126564121Y-75447689D01*
X126564118Y-75447691D01*
X126404867Y-75528833D01*
X126260270Y-75633890D01*
X126133890Y-75760270D01*
X126028833Y-75904867D01*
X125947691Y-76064118D01*
X125947689Y-76064121D01*
X125892460Y-76234098D01*
X125892460Y-76234101D01*
X125872130Y-76362460D01*
X125864500Y-76410634D01*
X117889165Y-76410634D01*
X117740899Y-76362460D01*
X117623209Y-76343820D01*
X117564366Y-76334500D01*
X117385634Y-76334500D01*
X117326790Y-76343820D01*
X117209101Y-76362460D01*
X117209098Y-76362460D01*
X117039121Y-76417689D01*
X117039118Y-76417691D01*
X116879867Y-76498833D01*
X116735270Y-76603890D01*
X116608890Y-76730270D01*
X116503833Y-76874867D01*
X116422691Y-77034118D01*
X116422689Y-77034121D01*
X116367460Y-77204098D01*
X116367460Y-77204101D01*
X116339500Y-77380634D01*
X116070500Y-77380634D01*
X116042540Y-77204103D01*
X116042539Y-77204099D01*
X116042539Y-77204098D01*
X115987310Y-77034121D01*
X115987308Y-77034118D01*
X115937255Y-76935881D01*
X115906167Y-76874868D01*
X115801111Y-76730272D01*
X115674728Y-76603889D01*
X115530132Y-76498833D01*
X115370881Y-76417691D01*
X115370878Y-76417689D01*
X115200899Y-76362460D01*
X115083209Y-76343820D01*
X115024366Y-76334500D01*
X114845634Y-76334500D01*
X114786790Y-76343820D01*
X114669101Y-76362460D01*
X114669098Y-76362460D01*
X114499121Y-76417689D01*
X114499118Y-76417691D01*
X114339867Y-76498833D01*
X114195270Y-76603890D01*
X114068890Y-76730270D01*
X113963833Y-76874867D01*
X113882691Y-77034118D01*
X113882689Y-77034121D01*
X113827460Y-77204098D01*
X113827460Y-77204101D01*
X113799500Y-77380634D01*
X98425500Y-77380634D01*
X98425500Y-71560634D01*
X116494500Y-71560634D01*
X116494500Y-71739365D01*
X116522460Y-71915898D01*
X116522460Y-71915901D01*
X116577689Y-72085878D01*
X116577691Y-72085881D01*
X116658833Y-72245132D01*
X116763889Y-72389728D01*
X116890272Y-72516111D01*
X117034868Y-72621167D01*
X117194119Y-72702309D01*
X117194121Y-72702310D01*
X117352670Y-72753825D01*
X117364103Y-72757540D01*
X117540634Y-72785500D01*
X117540635Y-72785500D01*
X117648000Y-72785500D01*
X117715039Y-72805185D01*
X117760794Y-72857989D01*
X117772000Y-72909500D01*
X117772000Y-73021346D01*
X117802761Y-73175989D01*
X117802764Y-73176001D01*
X117863102Y-73321672D01*
X117863109Y-73321685D01*
X117897804Y-73373609D01*
X117918682Y-73440286D01*
X117900198Y-73507667D01*
X117897804Y-73511391D01*
X117863109Y-73563314D01*
X117863102Y-73563327D01*
X117802764Y-73708998D01*
X117802761Y-73709010D01*
X117772000Y-73863653D01*
X117772000Y-74021346D01*
X117802761Y-74175989D01*
X117802764Y-74176001D01*
X117863102Y-74321672D01*
X117863109Y-74321685D01*
X117950710Y-74452788D01*
X117950713Y-74452792D01*
X118062207Y-74564286D01*
X118062211Y-74564289D01*
X118193314Y-74651890D01*
X118193327Y-74651897D01*
X118338998Y-74712235D01*
X118339003Y-74712237D01*
X118493653Y-74742999D01*
X118493656Y-74743000D01*
X118493658Y-74743000D01*
X118651344Y-74743000D01*
X118651345Y-74742999D01*
X118805997Y-74712237D01*
X118951679Y-74651894D01*
X119082789Y-74564289D01*
X119194289Y-74452789D01*
X119281894Y-74321679D01*
X119342237Y-74175997D01*
X119373000Y-74021342D01*
X119373000Y-73863658D01*
X119373000Y-73863655D01*
X119372999Y-73863653D01*
X119342238Y-73709010D01*
X119342237Y-73709003D01*
X119342235Y-73708998D01*
X119281896Y-73563325D01*
X119281894Y-73563322D01*
X119281894Y-73563321D01*
X119247194Y-73511389D01*
X119226316Y-73444715D01*
X119244800Y-73377335D01*
X119247176Y-73373636D01*
X119281894Y-73321679D01*
X119342237Y-73175997D01*
X119373000Y-73021342D01*
X119373000Y-72863658D01*
X119373000Y-72863655D01*
X119372999Y-72863653D01*
X119355235Y-72774349D01*
X119342237Y-72709003D01*
X119339464Y-72702308D01*
X119281897Y-72563327D01*
X119281890Y-72563314D01*
X119194289Y-72432211D01*
X119194286Y-72432207D01*
X119082792Y-72320713D01*
X119082788Y-72320710D01*
X118951685Y-72233109D01*
X118951672Y-72233102D01*
X118806001Y-72172764D01*
X118805993Y-72172762D01*
X118800153Y-72171600D01*
X118738245Y-72139210D01*
X118703675Y-72078492D01*
X118706421Y-72011669D01*
X118737540Y-71915897D01*
X118765500Y-71739366D01*
X118765500Y-71560634D01*
X118737540Y-71384103D01*
X118737539Y-71384099D01*
X118737539Y-71384098D01*
X118682310Y-71214121D01*
X118682308Y-71214118D01*
X118601166Y-71054867D01*
X118581390Y-71027648D01*
X118496111Y-70910272D01*
X118369728Y-70783889D01*
X118225132Y-70678833D01*
X118065881Y-70597691D01*
X118065878Y-70597689D01*
X117895899Y-70542460D01*
X117778209Y-70523820D01*
X117719366Y-70514500D01*
X117540634Y-70514500D01*
X117481790Y-70523820D01*
X117364101Y-70542460D01*
X117364098Y-70542460D01*
X117194121Y-70597689D01*
X117194118Y-70597691D01*
X117034867Y-70678833D01*
X116890270Y-70783890D01*
X116763890Y-70910270D01*
X116658833Y-71054867D01*
X116577691Y-71214118D01*
X116577689Y-71214121D01*
X116522460Y-71384098D01*
X116522460Y-71384101D01*
X116494500Y-71560634D01*
X98425500Y-71560634D01*
X98425500Y-65102135D01*
X106649500Y-65102135D01*
X106649500Y-66897870D01*
X106649501Y-66897876D01*
X106655908Y-66957483D01*
X106706202Y-67092328D01*
X106706206Y-67092335D01*
X106792452Y-67207544D01*
X106792455Y-67207547D01*
X106907664Y-67293793D01*
X106907671Y-67293797D01*
X107042517Y-67344091D01*
X107042516Y-67344091D01*
X107049444Y-67344835D01*
X107102127Y-67350500D01*
X108897872Y-67350499D01*
X108957483Y-67344091D01*
X109092331Y-67293796D01*
X109207546Y-67207546D01*
X109293796Y-67092331D01*
X109344091Y-66957483D01*
X109350500Y-66897873D01*
X109350499Y-65148911D01*
X118013112Y-65148911D01*
X118013112Y-66944646D01*
X118013113Y-66944652D01*
X118019520Y-67004259D01*
X118069814Y-67139104D01*
X118069818Y-67139111D01*
X118156064Y-67254320D01*
X118156067Y-67254323D01*
X118271276Y-67340569D01*
X118271283Y-67340573D01*
X118406129Y-67390867D01*
X118406128Y-67390867D01*
X118413056Y-67391611D01*
X118465739Y-67397276D01*
X120261484Y-67397275D01*
X120321095Y-67390867D01*
X120455943Y-67340572D01*
X120571158Y-67254322D01*
X120657408Y-67139107D01*
X120707703Y-67004259D01*
X120714112Y-66944649D01*
X120714111Y-65148904D01*
X120708911Y-65100533D01*
X120707703Y-65089292D01*
X120657409Y-64954447D01*
X120657405Y-64954440D01*
X120571159Y-64839231D01*
X120571156Y-64839228D01*
X120455947Y-64752982D01*
X120455940Y-64752978D01*
X120321094Y-64702684D01*
X120321095Y-64702684D01*
X120261495Y-64696277D01*
X120261493Y-64696276D01*
X120261485Y-64696276D01*
X120261476Y-64696276D01*
X118465741Y-64696276D01*
X118465735Y-64696277D01*
X118406128Y-64702684D01*
X118271283Y-64752978D01*
X118271276Y-64752982D01*
X118156067Y-64839228D01*
X118156064Y-64839231D01*
X118069818Y-64954440D01*
X118069814Y-64954447D01*
X118019520Y-65089293D01*
X118013113Y-65148892D01*
X118013113Y-65148899D01*
X118013112Y-65148911D01*
X109350499Y-65148911D01*
X109350499Y-65102128D01*
X109344091Y-65042517D01*
X109335518Y-65019532D01*
X109293797Y-64907671D01*
X109293793Y-64907664D01*
X109207547Y-64792455D01*
X109207544Y-64792452D01*
X109092335Y-64706206D01*
X109092328Y-64706202D01*
X108957482Y-64655908D01*
X108957483Y-64655908D01*
X108897883Y-64649501D01*
X108897881Y-64649500D01*
X108897873Y-64649500D01*
X108897864Y-64649500D01*
X107102129Y-64649500D01*
X107102123Y-64649501D01*
X107042516Y-64655908D01*
X106907671Y-64706202D01*
X106907664Y-64706206D01*
X106792455Y-64792452D01*
X106792452Y-64792455D01*
X106706206Y-64907664D01*
X106706202Y-64907671D01*
X106655908Y-65042517D01*
X106650325Y-65094451D01*
X106649501Y-65102123D01*
X106649500Y-65102135D01*
X98425500Y-65102135D01*
X98425500Y-58602155D01*
X106650000Y-58602155D01*
X106650000Y-59250000D01*
X107566988Y-59250000D01*
X107534075Y-59307007D01*
X107500000Y-59434174D01*
X107500000Y-59565826D01*
X107534075Y-59692993D01*
X107566988Y-59750000D01*
X106650000Y-59750000D01*
X106650000Y-60397844D01*
X106656401Y-60457372D01*
X106656403Y-60457379D01*
X106706645Y-60592086D01*
X106706649Y-60592093D01*
X106792809Y-60707187D01*
X106792812Y-60707190D01*
X106907906Y-60793350D01*
X106907913Y-60793354D01*
X107042620Y-60843596D01*
X107042627Y-60843598D01*
X107102155Y-60849999D01*
X107102172Y-60850000D01*
X107750000Y-60850000D01*
X107750000Y-59933012D01*
X107807007Y-59965925D01*
X107934174Y-60000000D01*
X108065826Y-60000000D01*
X108192993Y-59965925D01*
X108250000Y-59933012D01*
X108250000Y-60850000D01*
X108897828Y-60850000D01*
X108897844Y-60849999D01*
X108957372Y-60843598D01*
X108957379Y-60843596D01*
X109092086Y-60793354D01*
X109092093Y-60793350D01*
X109207187Y-60707190D01*
X109207190Y-60707187D01*
X109293350Y-60592093D01*
X109293354Y-60592086D01*
X109343596Y-60457379D01*
X109343598Y-60457372D01*
X109349999Y-60397844D01*
X109350000Y-60397827D01*
X109350000Y-59750000D01*
X108433012Y-59750000D01*
X108465925Y-59692993D01*
X108500000Y-59565826D01*
X108500000Y-59434174D01*
X108465925Y-59307007D01*
X108433012Y-59250000D01*
X109350000Y-59250000D01*
X109350000Y-58602164D01*
X109349997Y-58602135D01*
X118149500Y-58602135D01*
X118149500Y-60397870D01*
X118149501Y-60397876D01*
X118155908Y-60457483D01*
X118206202Y-60592328D01*
X118206206Y-60592335D01*
X118292452Y-60707544D01*
X118292455Y-60707547D01*
X118407664Y-60793793D01*
X118407671Y-60793797D01*
X118542517Y-60844091D01*
X118542516Y-60844091D01*
X118549444Y-60844835D01*
X118602127Y-60850500D01*
X120397872Y-60850499D01*
X120457483Y-60844091D01*
X120592331Y-60793796D01*
X120707546Y-60707546D01*
X120793796Y-60592331D01*
X120844091Y-60457483D01*
X120850500Y-60397873D01*
X120850499Y-58602128D01*
X120844091Y-58542517D01*
X120840299Y-58532351D01*
X120793797Y-58407671D01*
X120793793Y-58407664D01*
X120707547Y-58292455D01*
X120707544Y-58292452D01*
X120592335Y-58206206D01*
X120592328Y-58206202D01*
X120457482Y-58155908D01*
X120457483Y-58155908D01*
X120397883Y-58149501D01*
X120397881Y-58149500D01*
X120397873Y-58149500D01*
X120397864Y-58149500D01*
X118602129Y-58149500D01*
X118602123Y-58149501D01*
X118542516Y-58155908D01*
X118407671Y-58206202D01*
X118407664Y-58206206D01*
X118292455Y-58292452D01*
X118292452Y-58292455D01*
X118206206Y-58407664D01*
X118206202Y-58407671D01*
X118155908Y-58542517D01*
X118149501Y-58602116D01*
X118149501Y-58602123D01*
X118149500Y-58602135D01*
X109349997Y-58602135D01*
X109343598Y-58542627D01*
X109343596Y-58542620D01*
X109293354Y-58407913D01*
X109293350Y-58407906D01*
X109207190Y-58292812D01*
X109207187Y-58292809D01*
X109092093Y-58206649D01*
X109092086Y-58206645D01*
X108957379Y-58156403D01*
X108957372Y-58156401D01*
X108897844Y-58150000D01*
X108250000Y-58150000D01*
X108250000Y-59066988D01*
X108192993Y-59034075D01*
X108065826Y-59000000D01*
X107934174Y-59000000D01*
X107807007Y-59034075D01*
X107750000Y-59066988D01*
X107750000Y-58150000D01*
X107102155Y-58150000D01*
X107042627Y-58156401D01*
X107042620Y-58156403D01*
X106907913Y-58206645D01*
X106907906Y-58206649D01*
X106792812Y-58292809D01*
X106792809Y-58292812D01*
X106706649Y-58407906D01*
X106706645Y-58407913D01*
X106656403Y-58542620D01*
X106656401Y-58542627D01*
X106650000Y-58602155D01*
X98425500Y-58602155D01*
X98425500Y-47160634D01*
X114614500Y-47160634D01*
X114614500Y-47339365D01*
X114642460Y-47515898D01*
X114642460Y-47515901D01*
X114697689Y-47685878D01*
X114697691Y-47685881D01*
X114778833Y-47845132D01*
X114883889Y-47989728D01*
X115010272Y-48116111D01*
X115154868Y-48221167D01*
X115314119Y-48302309D01*
X115314121Y-48302310D01*
X115472670Y-48353825D01*
X115484103Y-48357540D01*
X115660634Y-48385500D01*
X115660635Y-48385500D01*
X115839365Y-48385500D01*
X115839366Y-48385500D01*
X116015897Y-48357540D01*
X116015900Y-48357539D01*
X116015901Y-48357539D01*
X116185878Y-48302310D01*
X116185878Y-48302309D01*
X116185881Y-48302309D01*
X116345132Y-48221167D01*
X116489728Y-48116111D01*
X116616111Y-47989728D01*
X116721167Y-47845132D01*
X116802309Y-47685881D01*
X116857540Y-47515897D01*
X116885500Y-47339366D01*
X116885500Y-47160634D01*
X116857540Y-46984103D01*
X116857539Y-46984099D01*
X116857539Y-46984098D01*
X116802310Y-46814121D01*
X116802308Y-46814118D01*
X116755358Y-46721971D01*
X116721167Y-46654868D01*
X116616111Y-46510272D01*
X116489728Y-46383889D01*
X116345132Y-46278833D01*
X116185881Y-46197691D01*
X116185878Y-46197689D01*
X116015899Y-46142460D01*
X115898209Y-46123820D01*
X115839366Y-46114500D01*
X115660634Y-46114500D01*
X115601790Y-46123820D01*
X115484101Y-46142460D01*
X115484098Y-46142460D01*
X115314121Y-46197689D01*
X115314118Y-46197691D01*
X115154867Y-46278833D01*
X115010270Y-46383890D01*
X114883890Y-46510270D01*
X114778833Y-46654867D01*
X114697691Y-46814118D01*
X114697689Y-46814121D01*
X114642460Y-46984098D01*
X114642460Y-46984101D01*
X114614500Y-47160634D01*
X98425500Y-47160634D01*
X98425500Y-34393713D01*
X121149500Y-34393713D01*
X121149500Y-34606286D01*
X121182753Y-34816239D01*
X121248444Y-35018414D01*
X121344951Y-35207820D01*
X121469890Y-35379786D01*
X121620213Y-35530109D01*
X121792182Y-35655050D01*
X121800946Y-35659516D01*
X121851742Y-35707491D01*
X121868536Y-35775312D01*
X121845998Y-35841447D01*
X121800946Y-35880484D01*
X121792182Y-35884949D01*
X121620213Y-36009890D01*
X121469890Y-36160213D01*
X121344951Y-36332179D01*
X121248444Y-36521585D01*
X121182753Y-36723760D01*
X121149500Y-36933713D01*
X121149500Y-37146286D01*
X121182753Y-37356239D01*
X121248444Y-37558414D01*
X121344951Y-37747820D01*
X121469890Y-37919786D01*
X121620213Y-38070109D01*
X121792182Y-38195050D01*
X121800946Y-38199516D01*
X121851742Y-38247491D01*
X121868536Y-38315312D01*
X121845998Y-38381447D01*
X121800946Y-38420484D01*
X121792182Y-38424949D01*
X121620213Y-38549890D01*
X121469890Y-38700213D01*
X121344951Y-38872179D01*
X121248444Y-39061585D01*
X121182753Y-39263760D01*
X121159048Y-39413431D01*
X121149500Y-39473713D01*
X121149500Y-39686287D01*
X121158527Y-39743280D01*
X121170170Y-39816795D01*
X121182754Y-39896243D01*
X121241684Y-40077611D01*
X121248444Y-40098414D01*
X121344951Y-40287820D01*
X121469890Y-40459786D01*
X121620213Y-40610109D01*
X121792179Y-40735048D01*
X121792181Y-40735049D01*
X121792184Y-40735051D01*
X121981588Y-40831557D01*
X122183757Y-40897246D01*
X122393713Y-40930500D01*
X122393714Y-40930500D01*
X122606286Y-40930500D01*
X122606287Y-40930500D01*
X122816243Y-40897246D01*
X123018412Y-40831557D01*
X123207816Y-40735051D01*
X123229789Y-40719086D01*
X123379786Y-40610109D01*
X123379788Y-40610106D01*
X123379792Y-40610104D01*
X123530104Y-40459792D01*
X123530106Y-40459788D01*
X123530109Y-40459786D01*
X123655048Y-40287820D01*
X123655047Y-40287820D01*
X123655051Y-40287816D01*
X123751557Y-40098412D01*
X123817246Y-39896243D01*
X123850500Y-39686287D01*
X123850500Y-39473713D01*
X123817246Y-39263757D01*
X123751557Y-39061588D01*
X123655051Y-38872184D01*
X123655049Y-38872181D01*
X123655048Y-38872179D01*
X123530109Y-38700213D01*
X123379786Y-38549890D01*
X123207820Y-38424951D01*
X123207115Y-38424591D01*
X123199054Y-38420485D01*
X123148259Y-38372512D01*
X123131463Y-38304692D01*
X123153999Y-38238556D01*
X123199054Y-38199515D01*
X123207816Y-38195051D01*
X123229789Y-38179086D01*
X123379786Y-38070109D01*
X123379788Y-38070106D01*
X123379792Y-38070104D01*
X123530104Y-37919792D01*
X123530106Y-37919788D01*
X123530109Y-37919786D01*
X123655048Y-37747820D01*
X123655047Y-37747820D01*
X123655051Y-37747816D01*
X123751557Y-37558412D01*
X123817246Y-37356243D01*
X123850500Y-37146287D01*
X123850500Y-36933713D01*
X123817246Y-36723757D01*
X123751557Y-36521588D01*
X123655051Y-36332184D01*
X123655049Y-36332181D01*
X123655048Y-36332179D01*
X123530109Y-36160213D01*
X123379786Y-36009890D01*
X123207820Y-35884951D01*
X123207115Y-35884591D01*
X123199054Y-35880485D01*
X123148259Y-35832512D01*
X123131463Y-35764692D01*
X123153999Y-35698556D01*
X123199054Y-35659515D01*
X123207816Y-35655051D01*
X123229789Y-35639086D01*
X123379786Y-35530109D01*
X123379788Y-35530106D01*
X123379792Y-35530104D01*
X123530104Y-35379792D01*
X123530106Y-35379788D01*
X123530109Y-35379786D01*
X123655048Y-35207820D01*
X123655047Y-35207820D01*
X123655051Y-35207816D01*
X123751557Y-35018412D01*
X123817246Y-34816243D01*
X123850500Y-34606287D01*
X123850500Y-34393713D01*
X123817246Y-34183757D01*
X123751557Y-33981588D01*
X123655051Y-33792184D01*
X123655049Y-33792181D01*
X123655048Y-33792179D01*
X123530109Y-33620213D01*
X123416181Y-33506285D01*
X123382696Y-33444962D01*
X123387680Y-33375270D01*
X123429552Y-33319337D01*
X123460529Y-33302422D01*
X123592086Y-33253354D01*
X123592093Y-33253350D01*
X123707187Y-33167190D01*
X123707190Y-33167187D01*
X123793350Y-33052093D01*
X123793354Y-33052086D01*
X123843596Y-32917379D01*
X123843598Y-32917372D01*
X123849999Y-32857844D01*
X123850000Y-32857827D01*
X123850000Y-32210000D01*
X122933012Y-32210000D01*
X122965925Y-32152993D01*
X123000000Y-32025826D01*
X123000000Y-31894174D01*
X122965925Y-31767007D01*
X122933012Y-31710000D01*
X123850000Y-31710000D01*
X123850000Y-31062172D01*
X123849999Y-31062155D01*
X123843598Y-31002627D01*
X123843596Y-31002620D01*
X123793354Y-30867913D01*
X123793350Y-30867906D01*
X123707190Y-30752812D01*
X123707187Y-30752809D01*
X123592093Y-30666649D01*
X123592086Y-30666645D01*
X123457379Y-30616403D01*
X123457372Y-30616401D01*
X123397844Y-30610000D01*
X122750000Y-30610000D01*
X122750000Y-31526988D01*
X122692993Y-31494075D01*
X122565826Y-31460000D01*
X122434174Y-31460000D01*
X122307007Y-31494075D01*
X122250000Y-31526988D01*
X122250000Y-30610000D01*
X121602155Y-30610000D01*
X121542627Y-30616401D01*
X121542620Y-30616403D01*
X121407913Y-30666645D01*
X121407906Y-30666649D01*
X121292812Y-30752809D01*
X121292809Y-30752812D01*
X121206649Y-30867906D01*
X121206645Y-30867913D01*
X121156403Y-31002620D01*
X121156401Y-31002627D01*
X121150000Y-31062155D01*
X121150000Y-31710000D01*
X122066988Y-31710000D01*
X122034075Y-31767007D01*
X122000000Y-31894174D01*
X122000000Y-32025826D01*
X122034075Y-32152993D01*
X122066988Y-32210000D01*
X121150000Y-32210000D01*
X121150000Y-32857844D01*
X121156401Y-32917372D01*
X121156403Y-32917379D01*
X121206645Y-33052086D01*
X121206649Y-33052093D01*
X121292809Y-33167187D01*
X121292812Y-33167190D01*
X121407906Y-33253350D01*
X121407913Y-33253354D01*
X121539470Y-33302422D01*
X121595404Y-33344293D01*
X121619821Y-33409758D01*
X121604969Y-33478031D01*
X121583819Y-33506285D01*
X121469889Y-33620215D01*
X121344951Y-33792179D01*
X121248444Y-33981585D01*
X121182753Y-34183760D01*
X121149500Y-34393713D01*
X98425500Y-34393713D01*
X98425500Y-27318209D01*
X103799500Y-27318209D01*
X103799500Y-27681790D01*
X103835137Y-28043630D01*
X103906064Y-28400212D01*
X103906067Y-28400223D01*
X104011614Y-28748165D01*
X104107837Y-28980467D01*
X104148756Y-29079256D01*
X104150754Y-29084078D01*
X104150756Y-29084083D01*
X104322140Y-29404720D01*
X104322151Y-29404738D01*
X104524140Y-29707035D01*
X104524150Y-29707049D01*
X104754807Y-29988106D01*
X105011893Y-30245192D01*
X105011898Y-30245196D01*
X105011899Y-30245197D01*
X105292956Y-30475854D01*
X105595268Y-30677853D01*
X105595277Y-30677858D01*
X105595279Y-30677859D01*
X105915916Y-30849243D01*
X105915918Y-30849243D01*
X105915924Y-30849247D01*
X106251836Y-30988386D01*
X106599767Y-31093930D01*
X106599773Y-31093931D01*
X106599776Y-31093932D01*
X106599787Y-31093935D01*
X106956369Y-31164862D01*
X107318206Y-31200500D01*
X107318209Y-31200500D01*
X107681791Y-31200500D01*
X107681794Y-31200500D01*
X108043631Y-31164862D01*
X108113045Y-31151054D01*
X108400212Y-31093935D01*
X108400223Y-31093932D01*
X108400223Y-31093931D01*
X108400233Y-31093930D01*
X108748164Y-30988386D01*
X109084076Y-30849247D01*
X109404732Y-30677853D01*
X109707044Y-30475854D01*
X109988101Y-30245197D01*
X110245197Y-29988101D01*
X110475854Y-29707044D01*
X110677853Y-29404732D01*
X110849247Y-29084076D01*
X110988386Y-28748164D01*
X111093930Y-28400233D01*
X111093932Y-28400223D01*
X111093935Y-28400212D01*
X111164862Y-28043630D01*
X111200500Y-27681790D01*
X111200500Y-27318209D01*
X111197741Y-27290200D01*
X111164862Y-26956369D01*
X111149526Y-26879267D01*
X111093935Y-26599787D01*
X111093932Y-26599776D01*
X111093931Y-26599773D01*
X111093930Y-26599767D01*
X110988386Y-26251836D01*
X110849247Y-25915924D01*
X110845665Y-25909223D01*
X110677859Y-25595279D01*
X110677858Y-25595277D01*
X110677853Y-25595268D01*
X110475854Y-25292956D01*
X110245197Y-25011899D01*
X110245196Y-25011898D01*
X110245192Y-25011893D01*
X109988106Y-24754807D01*
X109707049Y-24524150D01*
X109707048Y-24524149D01*
X109707044Y-24524146D01*
X109404732Y-24322147D01*
X109404727Y-24322144D01*
X109404720Y-24322140D01*
X109084083Y-24150756D01*
X109084078Y-24150754D01*
X109070937Y-24145311D01*
X108885632Y-24068555D01*
X108748165Y-24011614D01*
X108400223Y-23906067D01*
X108400212Y-23906064D01*
X108043630Y-23835137D01*
X107771111Y-23808296D01*
X107681794Y-23799500D01*
X107318206Y-23799500D01*
X107235679Y-23807628D01*
X106956369Y-23835137D01*
X106599787Y-23906064D01*
X106599776Y-23906067D01*
X106251834Y-24011614D01*
X105915921Y-24150754D01*
X105915916Y-24150756D01*
X105595279Y-24322140D01*
X105595261Y-24322151D01*
X105292964Y-24524140D01*
X105292950Y-24524150D01*
X105011893Y-24754807D01*
X104754807Y-25011893D01*
X104524150Y-25292950D01*
X104524140Y-25292964D01*
X104322151Y-25595261D01*
X104322140Y-25595279D01*
X104150756Y-25915916D01*
X104150754Y-25915921D01*
X104011614Y-26251834D01*
X103906067Y-26599776D01*
X103906064Y-26599787D01*
X103835137Y-26956369D01*
X103813451Y-27176555D01*
X103802259Y-27290200D01*
X103799500Y-27318209D01*
X98425500Y-27318209D01*
X98425500Y-21674500D01*
X98445185Y-21607461D01*
X98497989Y-21561706D01*
X98549500Y-21550500D01*
X138939480Y-21550500D01*
X139006519Y-21570185D01*
G37*
%TD.AperFunction*%
%TD*%
M02*
