%TF.GenerationSoftware,KiCad,Pcbnew,9.0.7*%
%TF.CreationDate,2026-03-13T15:17:03-04:00*%
%TF.ProjectId,capstone_pcb_mkIII,63617073-746f-46e6-955f-7063625f6d6b,rev?*%
%TF.SameCoordinates,Original*%
%TF.FileFunction,Copper,L3,Inr*%
%TF.FilePolarity,Positive*%
%FSLAX46Y46*%
G04 Gerber Fmt 4.6, Leading zero omitted, Abs format (unit mm)*
G04 Created by KiCad (PCBNEW 9.0.7) date 2026-03-13 15:17:03*
%MOMM*%
%LPD*%
G01*
G04 APERTURE LIST*
G04 Aperture macros list*
%AMRoundRect*
0 Rectangle with rounded corners*
0 $1 Rounding radius*
0 $2 $3 $4 $5 $6 $7 $8 $9 X,Y pos of 4 corners*
0 Add a 4 corners polygon primitive as box body*
4,1,4,$2,$3,$4,$5,$6,$7,$8,$9,$2,$3,0*
0 Add four circle primitives for the rounded corners*
1,1,$1+$1,$2,$3*
1,1,$1+$1,$4,$5*
1,1,$1+$1,$6,$7*
1,1,$1+$1,$8,$9*
0 Add four rect primitives between the rounded corners*
20,1,$1+$1,$2,$3,$4,$5,0*
20,1,$1+$1,$4,$5,$6,$7,0*
20,1,$1+$1,$6,$7,$8,$9,0*
20,1,$1+$1,$8,$9,$2,$3,0*%
%AMFreePoly0*
4,1,37,0.603843,0.796157,0.639018,0.796157,0.711114,0.766294,0.766294,0.711114,0.796157,0.639018,0.796157,0.603843,0.800000,0.600000,0.800000,-0.600000,0.796157,-0.603843,0.796157,-0.639018,0.766294,-0.711114,0.711114,-0.766294,0.639018,-0.796157,0.603843,-0.796157,0.600000,-0.800000,0.000000,-0.800000,0.000000,-0.796148,-0.078414,-0.796148,-0.232228,-0.765552,-0.377117,-0.705537,
-0.507515,-0.618408,-0.618408,-0.507515,-0.705537,-0.377117,-0.765552,-0.232228,-0.796148,-0.078414,-0.796148,0.078414,-0.765552,0.232228,-0.705537,0.377117,-0.618408,0.507515,-0.507515,0.618408,-0.377117,0.705537,-0.232228,0.765552,-0.078414,0.796148,0.000000,0.796148,0.000000,0.800000,0.600000,0.800000,0.603843,0.796157,0.603843,0.796157,$1*%
%AMFreePoly1*
4,1,37,0.000000,0.796148,0.078414,0.796148,0.232228,0.765552,0.377117,0.705537,0.507515,0.618408,0.618408,0.507515,0.705537,0.377117,0.765552,0.232228,0.796148,0.078414,0.796148,-0.078414,0.765552,-0.232228,0.705537,-0.377117,0.618408,-0.507515,0.507515,-0.618408,0.377117,-0.705537,0.232228,-0.765552,0.078414,-0.796148,0.000000,-0.796148,0.000000,-0.800000,-0.600000,-0.800000,
-0.603843,-0.796157,-0.639018,-0.796157,-0.711114,-0.766294,-0.766294,-0.711114,-0.796157,-0.639018,-0.796157,-0.603843,-0.800000,-0.600000,-0.800000,0.600000,-0.796157,0.603843,-0.796157,0.639018,-0.766294,0.711114,-0.711114,0.766294,-0.639018,0.796157,-0.603843,0.796157,-0.600000,0.800000,0.000000,0.800000,0.000000,0.796148,0.000000,0.796148,$1*%
G04 Aperture macros list end*
%TA.AperFunction,ComponentPad*%
%ADD10RoundRect,0.200000X-0.600000X-0.600000X0.600000X-0.600000X0.600000X0.600000X-0.600000X0.600000X0*%
%TD*%
%TA.AperFunction,ComponentPad*%
%ADD11C,1.600000*%
%TD*%
%TA.AperFunction,ComponentPad*%
%ADD12FreePoly0,0.000000*%
%TD*%
%TA.AperFunction,ComponentPad*%
%ADD13FreePoly1,0.000000*%
%TD*%
%TA.AperFunction,ComponentPad*%
%ADD14C,6.400000*%
%TD*%
%TA.AperFunction,ComponentPad*%
%ADD15R,1.700000X1.700000*%
%TD*%
%TA.AperFunction,HeatsinkPad*%
%ADD16C,0.600000*%
%TD*%
%TA.AperFunction,ComponentPad*%
%ADD17C,1.700000*%
%TD*%
%TA.AperFunction,ViaPad*%
%ADD18C,1.270000*%
%TD*%
G04 APERTURE END LIST*
D10*
%TO.N,Net-(A1-GPIO0)*%
%TO.C,A1*%
X140110000Y-22870000D03*
D11*
%TO.N,Net-(A1-GPIO1)*%
X140110000Y-25410000D03*
D12*
%TO.N,GND*%
X140110000Y-27950000D03*
D11*
%TO.N,unconnected-(A1-GPIO2-Pad4)*%
X140110000Y-30490000D03*
%TO.N,unconnected-(A1-GPIO3-Pad5)_1*%
X140110000Y-33030000D03*
%TO.N,unconnected-(A1-GPIO4-Pad6)_1*%
X140110000Y-35570000D03*
%TO.N,unconnected-(A1-GPIO5-Pad7)_1*%
X140110000Y-38110000D03*
D12*
%TO.N,GND*%
X140110000Y-40650000D03*
D11*
%TO.N,unconnected-(A1-GPIO6-Pad9)*%
X140110000Y-43190000D03*
%TO.N,unconnected-(A1-GPIO7-Pad10)_1*%
X140110000Y-45730000D03*
%TO.N,Net-(A1-GPIO8)*%
X140110000Y-48270000D03*
%TO.N,Net-(A1-GPIO9)*%
X140110000Y-50810000D03*
D12*
%TO.N,GND*%
X140110000Y-53350000D03*
D11*
%TO.N,unconnected-(A1-GPIO10-Pad14)_1*%
X140110000Y-55890000D03*
%TO.N,unconnected-(A1-GPIO11-Pad15)*%
X140110000Y-58430000D03*
%TO.N,Net-(A1-GPIO12)*%
X140110000Y-60970000D03*
%TO.N,Net-(A1-GPIO13)*%
X140110000Y-63510000D03*
D12*
%TO.N,GND*%
X140110000Y-66050000D03*
D11*
%TO.N,unconnected-(A1-GPIO14-Pad19)_1*%
X140110000Y-68590000D03*
%TO.N,unconnected-(A1-GPIO15-Pad20)*%
X140110000Y-71130000D03*
%TO.N,unconnected-(A1-GPIO16-Pad21)*%
X157890000Y-71130000D03*
%TO.N,unconnected-(A1-GPIO17-Pad22)*%
X157890000Y-68590000D03*
D13*
%TO.N,GND*%
X157890000Y-66050000D03*
D11*
%TO.N,Net-(A1-GPIO18)*%
X157890000Y-63510000D03*
%TO.N,Net-(A1-GPIO19)*%
X157890000Y-60970000D03*
%TO.N,unconnected-(A1-GPIO20-Pad26)*%
X157890000Y-58430000D03*
%TO.N,unconnected-(A1-GPIO21-Pad27)_1*%
X157890000Y-55890000D03*
D13*
%TO.N,GND*%
X157890000Y-53350000D03*
D11*
%TO.N,unconnected-(A1-GPIO22-Pad29)_1*%
X157890000Y-50810000D03*
%TO.N,Net-(A1-RUN)*%
X157890000Y-48270000D03*
%TO.N,unconnected-(A1-GPIO26_ADC0-Pad31)*%
X157890000Y-45730000D03*
%TO.N,unconnected-(A1-GPIO27_ADC1-Pad32)*%
X157890000Y-43190000D03*
D13*
%TO.N,unconnected-(A1-AGND-Pad33)*%
X157890000Y-40650000D03*
D11*
%TO.N,unconnected-(A1-GPIO28_ADC2-Pad34)_1*%
X157890000Y-38110000D03*
%TO.N,unconnected-(A1-ADC_VREF-Pad35)*%
X157890000Y-35570000D03*
%TO.N,V_BC*%
X157890000Y-33030000D03*
%TO.N,Net-(A1-3V3_EN)*%
X157890000Y-30490000D03*
D13*
%TO.N,GND*%
X157890000Y-27950000D03*
D11*
%TO.N,unconnected-(A1-VSYS-Pad39)*%
X157890000Y-25410000D03*
%TO.N,unconnected-(A1-VBUS-Pad40)_1*%
X157890000Y-22870000D03*
%TD*%
D14*
%TO.N,GND*%
%TO.C,H3*%
X107500000Y-102500000D03*
%TD*%
D15*
%TO.N,GND*%
%TO.C,J4*%
X108000000Y-66000000D03*
%TD*%
%TO.N,V_BC*%
%TO.C,J5*%
X108000000Y-59500000D03*
%TD*%
%TO.N,Net-(A1-GPIO12)*%
%TO.C,J2*%
X119500000Y-59500000D03*
%TD*%
D16*
%TO.N,GND*%
%TO.C,U1*%
X118572500Y-72942500D03*
X118572500Y-73942500D03*
%TD*%
D14*
%TO.N,GND*%
%TO.C,H1*%
X197500000Y-27500000D03*
%TD*%
%TO.N,GND*%
%TO.C,H2*%
X197000000Y-102500000D03*
%TD*%
D15*
%TO.N,Net-(A1-GPIO13)*%
%TO.C,J3*%
X119363612Y-66046776D03*
%TD*%
%TO.N,V_BC*%
%TO.C,J1*%
X122500000Y-31960000D03*
D17*
%TO.N,GND*%
X122500000Y-34500000D03*
%TO.N,Net-(J1-Pin_3)*%
X122500000Y-37040000D03*
%TO.N,Net-(J1-Pin_4)*%
X122500000Y-39580000D03*
%TD*%
D14*
%TO.N,GND*%
%TO.C,H4*%
X107500000Y-27500000D03*
%TD*%
D18*
%TO.N,V_BC*%
X173990000Y-46990000D03*
%TO.N,GND*%
X117475000Y-77470000D03*
X198755000Y-90170000D03*
X198755000Y-88265000D03*
X115750000Y-47250000D03*
X198755000Y-92075000D03*
X185238612Y-59946776D03*
X127000000Y-76500000D03*
X198755000Y-93980000D03*
X114935000Y-77470000D03*
X162225000Y-41900000D03*
X117630000Y-71650000D03*
%TO.N,V_BC*%
X131500000Y-46500000D03*
X124975000Y-74550000D03*
X169188612Y-72621776D03*
X99695000Y-49500000D03*
%TD*%
M02*
