%TF.GenerationSoftware,KiCad,Pcbnew,9.0.7*%
%TF.CreationDate,2026-03-13T15:17:04-04:00*%
%TF.ProjectId,capstone_pcb_mkIII,63617073-746f-46e6-955f-7063625f6d6b,rev?*%
%TF.SameCoordinates,Original*%
%TF.FileFunction,Legend,Top*%
%TF.FilePolarity,Positive*%
%FSLAX46Y46*%
G04 Gerber Fmt 4.6, Leading zero omitted, Abs format (unit mm)*
G04 Created by KiCad (PCBNEW 9.0.7) date 2026-03-13 15:17:04*
%MOMM*%
%LPD*%
G01*
G04 APERTURE LIST*
%ADD10C,0.150000*%
%ADD11C,0.120000*%
G04 APERTURE END LIST*
D10*
X132358333Y-28394819D02*
X132025000Y-27918628D01*
X131786905Y-28394819D02*
X131786905Y-27394819D01*
X131786905Y-27394819D02*
X132167857Y-27394819D01*
X132167857Y-27394819D02*
X132263095Y-27442438D01*
X132263095Y-27442438D02*
X132310714Y-27490057D01*
X132310714Y-27490057D02*
X132358333Y-27585295D01*
X132358333Y-27585295D02*
X132358333Y-27728152D01*
X132358333Y-27728152D02*
X132310714Y-27823390D01*
X132310714Y-27823390D02*
X132263095Y-27871009D01*
X132263095Y-27871009D02*
X132167857Y-27918628D01*
X132167857Y-27918628D02*
X131786905Y-27918628D01*
X132834524Y-28394819D02*
X133025000Y-28394819D01*
X133025000Y-28394819D02*
X133120238Y-28347200D01*
X133120238Y-28347200D02*
X133167857Y-28299580D01*
X133167857Y-28299580D02*
X133263095Y-28156723D01*
X133263095Y-28156723D02*
X133310714Y-27966247D01*
X133310714Y-27966247D02*
X133310714Y-27585295D01*
X133310714Y-27585295D02*
X133263095Y-27490057D01*
X133263095Y-27490057D02*
X133215476Y-27442438D01*
X133215476Y-27442438D02*
X133120238Y-27394819D01*
X133120238Y-27394819D02*
X132929762Y-27394819D01*
X132929762Y-27394819D02*
X132834524Y-27442438D01*
X132834524Y-27442438D02*
X132786905Y-27490057D01*
X132786905Y-27490057D02*
X132739286Y-27585295D01*
X132739286Y-27585295D02*
X132739286Y-27823390D01*
X132739286Y-27823390D02*
X132786905Y-27918628D01*
X132786905Y-27918628D02*
X132834524Y-27966247D01*
X132834524Y-27966247D02*
X132929762Y-28013866D01*
X132929762Y-28013866D02*
X133120238Y-28013866D01*
X133120238Y-28013866D02*
X133215476Y-27966247D01*
X133215476Y-27966247D02*
X133263095Y-27918628D01*
X133263095Y-27918628D02*
X133310714Y-27823390D01*
X129373333Y-24584819D02*
X129040000Y-24108628D01*
X128801905Y-24584819D02*
X128801905Y-23584819D01*
X128801905Y-23584819D02*
X129182857Y-23584819D01*
X129182857Y-23584819D02*
X129278095Y-23632438D01*
X129278095Y-23632438D02*
X129325714Y-23680057D01*
X129325714Y-23680057D02*
X129373333Y-23775295D01*
X129373333Y-23775295D02*
X129373333Y-23918152D01*
X129373333Y-23918152D02*
X129325714Y-24013390D01*
X129325714Y-24013390D02*
X129278095Y-24061009D01*
X129278095Y-24061009D02*
X129182857Y-24108628D01*
X129182857Y-24108628D02*
X128801905Y-24108628D01*
X129944762Y-24013390D02*
X129849524Y-23965771D01*
X129849524Y-23965771D02*
X129801905Y-23918152D01*
X129801905Y-23918152D02*
X129754286Y-23822914D01*
X129754286Y-23822914D02*
X129754286Y-23775295D01*
X129754286Y-23775295D02*
X129801905Y-23680057D01*
X129801905Y-23680057D02*
X129849524Y-23632438D01*
X129849524Y-23632438D02*
X129944762Y-23584819D01*
X129944762Y-23584819D02*
X130135238Y-23584819D01*
X130135238Y-23584819D02*
X130230476Y-23632438D01*
X130230476Y-23632438D02*
X130278095Y-23680057D01*
X130278095Y-23680057D02*
X130325714Y-23775295D01*
X130325714Y-23775295D02*
X130325714Y-23822914D01*
X130325714Y-23822914D02*
X130278095Y-23918152D01*
X130278095Y-23918152D02*
X130230476Y-23965771D01*
X130230476Y-23965771D02*
X130135238Y-24013390D01*
X130135238Y-24013390D02*
X129944762Y-24013390D01*
X129944762Y-24013390D02*
X129849524Y-24061009D01*
X129849524Y-24061009D02*
X129801905Y-24108628D01*
X129801905Y-24108628D02*
X129754286Y-24203866D01*
X129754286Y-24203866D02*
X129754286Y-24394342D01*
X129754286Y-24394342D02*
X129801905Y-24489580D01*
X129801905Y-24489580D02*
X129849524Y-24537200D01*
X129849524Y-24537200D02*
X129944762Y-24584819D01*
X129944762Y-24584819D02*
X130135238Y-24584819D01*
X130135238Y-24584819D02*
X130230476Y-24537200D01*
X130230476Y-24537200D02*
X130278095Y-24489580D01*
X130278095Y-24489580D02*
X130325714Y-24394342D01*
X130325714Y-24394342D02*
X130325714Y-24203866D01*
X130325714Y-24203866D02*
X130278095Y-24108628D01*
X130278095Y-24108628D02*
X130230476Y-24061009D01*
X130230476Y-24061009D02*
X130135238Y-24013390D01*
X163809819Y-29376666D02*
X163333628Y-29709999D01*
X163809819Y-29948094D02*
X162809819Y-29948094D01*
X162809819Y-29948094D02*
X162809819Y-29567142D01*
X162809819Y-29567142D02*
X162857438Y-29471904D01*
X162857438Y-29471904D02*
X162905057Y-29424285D01*
X162905057Y-29424285D02*
X163000295Y-29376666D01*
X163000295Y-29376666D02*
X163143152Y-29376666D01*
X163143152Y-29376666D02*
X163238390Y-29424285D01*
X163238390Y-29424285D02*
X163286009Y-29471904D01*
X163286009Y-29471904D02*
X163333628Y-29567142D01*
X163333628Y-29567142D02*
X163333628Y-29948094D01*
X162809819Y-29043332D02*
X162809819Y-28376666D01*
X162809819Y-28376666D02*
X163809819Y-28805237D01*
X160991660Y-72399104D02*
X161467850Y-72399104D01*
X160896422Y-72684819D02*
X161229755Y-71684819D01*
X161229755Y-71684819D02*
X161563088Y-72684819D01*
X162420231Y-72684819D02*
X161848803Y-72684819D01*
X162134517Y-72684819D02*
X162134517Y-71684819D01*
X162134517Y-71684819D02*
X162039279Y-71827676D01*
X162039279Y-71827676D02*
X161944041Y-71922914D01*
X161944041Y-71922914D02*
X161848803Y-71970533D01*
X107666667Y-45607200D02*
X107809524Y-45654819D01*
X107809524Y-45654819D02*
X108047619Y-45654819D01*
X108047619Y-45654819D02*
X108142857Y-45607200D01*
X108142857Y-45607200D02*
X108190476Y-45559580D01*
X108190476Y-45559580D02*
X108238095Y-45464342D01*
X108238095Y-45464342D02*
X108238095Y-45369104D01*
X108238095Y-45369104D02*
X108190476Y-45273866D01*
X108190476Y-45273866D02*
X108142857Y-45226247D01*
X108142857Y-45226247D02*
X108047619Y-45178628D01*
X108047619Y-45178628D02*
X107857143Y-45131009D01*
X107857143Y-45131009D02*
X107761905Y-45083390D01*
X107761905Y-45083390D02*
X107714286Y-45035771D01*
X107714286Y-45035771D02*
X107666667Y-44940533D01*
X107666667Y-44940533D02*
X107666667Y-44845295D01*
X107666667Y-44845295D02*
X107714286Y-44750057D01*
X107714286Y-44750057D02*
X107761905Y-44702438D01*
X107761905Y-44702438D02*
X107857143Y-44654819D01*
X107857143Y-44654819D02*
X108095238Y-44654819D01*
X108095238Y-44654819D02*
X108238095Y-44702438D01*
X108571429Y-44654819D02*
X108809524Y-45654819D01*
X108809524Y-45654819D02*
X109000000Y-44940533D01*
X109000000Y-44940533D02*
X109190476Y-45654819D01*
X109190476Y-45654819D02*
X109428572Y-44654819D01*
X110238095Y-44988152D02*
X110238095Y-45654819D01*
X110000000Y-44607200D02*
X109761905Y-45321485D01*
X109761905Y-45321485D02*
X110380952Y-45321485D01*
X179905279Y-49078976D02*
X180048136Y-49126595D01*
X180048136Y-49126595D02*
X180286231Y-49126595D01*
X180286231Y-49126595D02*
X180381469Y-49078976D01*
X180381469Y-49078976D02*
X180429088Y-49031356D01*
X180429088Y-49031356D02*
X180476707Y-48936118D01*
X180476707Y-48936118D02*
X180476707Y-48840880D01*
X180476707Y-48840880D02*
X180429088Y-48745642D01*
X180429088Y-48745642D02*
X180381469Y-48698023D01*
X180381469Y-48698023D02*
X180286231Y-48650404D01*
X180286231Y-48650404D02*
X180095755Y-48602785D01*
X180095755Y-48602785D02*
X180000517Y-48555166D01*
X180000517Y-48555166D02*
X179952898Y-48507547D01*
X179952898Y-48507547D02*
X179905279Y-48412309D01*
X179905279Y-48412309D02*
X179905279Y-48317071D01*
X179905279Y-48317071D02*
X179952898Y-48221833D01*
X179952898Y-48221833D02*
X180000517Y-48174214D01*
X180000517Y-48174214D02*
X180095755Y-48126595D01*
X180095755Y-48126595D02*
X180333850Y-48126595D01*
X180333850Y-48126595D02*
X180476707Y-48174214D01*
X180810041Y-48126595D02*
X181048136Y-49126595D01*
X181048136Y-49126595D02*
X181238612Y-48412309D01*
X181238612Y-48412309D02*
X181429088Y-49126595D01*
X181429088Y-49126595D02*
X181667184Y-48126595D01*
X182000517Y-48221833D02*
X182048136Y-48174214D01*
X182048136Y-48174214D02*
X182143374Y-48126595D01*
X182143374Y-48126595D02*
X182381469Y-48126595D01*
X182381469Y-48126595D02*
X182476707Y-48174214D01*
X182476707Y-48174214D02*
X182524326Y-48221833D01*
X182524326Y-48221833D02*
X182571945Y-48317071D01*
X182571945Y-48317071D02*
X182571945Y-48412309D01*
X182571945Y-48412309D02*
X182524326Y-48555166D01*
X182524326Y-48555166D02*
X181952898Y-49126595D01*
X181952898Y-49126595D02*
X182571945Y-49126595D01*
X128333333Y-75584580D02*
X128285714Y-75632200D01*
X128285714Y-75632200D02*
X128142857Y-75679819D01*
X128142857Y-75679819D02*
X128047619Y-75679819D01*
X128047619Y-75679819D02*
X127904762Y-75632200D01*
X127904762Y-75632200D02*
X127809524Y-75536961D01*
X127809524Y-75536961D02*
X127761905Y-75441723D01*
X127761905Y-75441723D02*
X127714286Y-75251247D01*
X127714286Y-75251247D02*
X127714286Y-75108390D01*
X127714286Y-75108390D02*
X127761905Y-74917914D01*
X127761905Y-74917914D02*
X127809524Y-74822676D01*
X127809524Y-74822676D02*
X127904762Y-74727438D01*
X127904762Y-74727438D02*
X128047619Y-74679819D01*
X128047619Y-74679819D02*
X128142857Y-74679819D01*
X128142857Y-74679819D02*
X128285714Y-74727438D01*
X128285714Y-74727438D02*
X128333333Y-74775057D01*
X128714286Y-74775057D02*
X128761905Y-74727438D01*
X128761905Y-74727438D02*
X128857143Y-74679819D01*
X128857143Y-74679819D02*
X129095238Y-74679819D01*
X129095238Y-74679819D02*
X129190476Y-74727438D01*
X129190476Y-74727438D02*
X129238095Y-74775057D01*
X129238095Y-74775057D02*
X129285714Y-74870295D01*
X129285714Y-74870295D02*
X129285714Y-74965533D01*
X129285714Y-74965533D02*
X129238095Y-75108390D01*
X129238095Y-75108390D02*
X128666667Y-75679819D01*
X128666667Y-75679819D02*
X129285714Y-75679819D01*
X101333333Y-51384819D02*
X101000000Y-50908628D01*
X100761905Y-51384819D02*
X100761905Y-50384819D01*
X100761905Y-50384819D02*
X101142857Y-50384819D01*
X101142857Y-50384819D02*
X101238095Y-50432438D01*
X101238095Y-50432438D02*
X101285714Y-50480057D01*
X101285714Y-50480057D02*
X101333333Y-50575295D01*
X101333333Y-50575295D02*
X101333333Y-50718152D01*
X101333333Y-50718152D02*
X101285714Y-50813390D01*
X101285714Y-50813390D02*
X101238095Y-50861009D01*
X101238095Y-50861009D02*
X101142857Y-50908628D01*
X101142857Y-50908628D02*
X100761905Y-50908628D01*
X101666667Y-50384819D02*
X102285714Y-50384819D01*
X102285714Y-50384819D02*
X101952381Y-50765771D01*
X101952381Y-50765771D02*
X102095238Y-50765771D01*
X102095238Y-50765771D02*
X102190476Y-50813390D01*
X102190476Y-50813390D02*
X102238095Y-50861009D01*
X102238095Y-50861009D02*
X102285714Y-50956247D01*
X102285714Y-50956247D02*
X102285714Y-51194342D01*
X102285714Y-51194342D02*
X102238095Y-51289580D01*
X102238095Y-51289580D02*
X102190476Y-51337200D01*
X102190476Y-51337200D02*
X102095238Y-51384819D01*
X102095238Y-51384819D02*
X101809524Y-51384819D01*
X101809524Y-51384819D02*
X101714286Y-51337200D01*
X101714286Y-51337200D02*
X101666667Y-51289580D01*
X106738095Y-98804819D02*
X106738095Y-97804819D01*
X106738095Y-98281009D02*
X107309523Y-98281009D01*
X107309523Y-98804819D02*
X107309523Y-97804819D01*
X107690476Y-97804819D02*
X108309523Y-97804819D01*
X108309523Y-97804819D02*
X107976190Y-98185771D01*
X107976190Y-98185771D02*
X108119047Y-98185771D01*
X108119047Y-98185771D02*
X108214285Y-98233390D01*
X108214285Y-98233390D02*
X108261904Y-98281009D01*
X108261904Y-98281009D02*
X108309523Y-98376247D01*
X108309523Y-98376247D02*
X108309523Y-98614342D01*
X108309523Y-98614342D02*
X108261904Y-98709580D01*
X108261904Y-98709580D02*
X108214285Y-98757200D01*
X108214285Y-98757200D02*
X108119047Y-98804819D01*
X108119047Y-98804819D02*
X107833333Y-98804819D01*
X107833333Y-98804819D02*
X107738095Y-98757200D01*
X107738095Y-98757200D02*
X107690476Y-98709580D01*
X168213333Y-28019580D02*
X168165714Y-28067200D01*
X168165714Y-28067200D02*
X168022857Y-28114819D01*
X168022857Y-28114819D02*
X167927619Y-28114819D01*
X167927619Y-28114819D02*
X167784762Y-28067200D01*
X167784762Y-28067200D02*
X167689524Y-27971961D01*
X167689524Y-27971961D02*
X167641905Y-27876723D01*
X167641905Y-27876723D02*
X167594286Y-27686247D01*
X167594286Y-27686247D02*
X167594286Y-27543390D01*
X167594286Y-27543390D02*
X167641905Y-27352914D01*
X167641905Y-27352914D02*
X167689524Y-27257676D01*
X167689524Y-27257676D02*
X167784762Y-27162438D01*
X167784762Y-27162438D02*
X167927619Y-27114819D01*
X167927619Y-27114819D02*
X168022857Y-27114819D01*
X168022857Y-27114819D02*
X168165714Y-27162438D01*
X168165714Y-27162438D02*
X168213333Y-27210057D01*
X168546667Y-27114819D02*
X169165714Y-27114819D01*
X169165714Y-27114819D02*
X168832381Y-27495771D01*
X168832381Y-27495771D02*
X168975238Y-27495771D01*
X168975238Y-27495771D02*
X169070476Y-27543390D01*
X169070476Y-27543390D02*
X169118095Y-27591009D01*
X169118095Y-27591009D02*
X169165714Y-27686247D01*
X169165714Y-27686247D02*
X169165714Y-27924342D01*
X169165714Y-27924342D02*
X169118095Y-28019580D01*
X169118095Y-28019580D02*
X169070476Y-28067200D01*
X169070476Y-28067200D02*
X168975238Y-28114819D01*
X168975238Y-28114819D02*
X168689524Y-28114819D01*
X168689524Y-28114819D02*
X168594286Y-28067200D01*
X168594286Y-28067200D02*
X168546667Y-28019580D01*
X121458333Y-78719819D02*
X121125000Y-78243628D01*
X120886905Y-78719819D02*
X120886905Y-77719819D01*
X120886905Y-77719819D02*
X121267857Y-77719819D01*
X121267857Y-77719819D02*
X121363095Y-77767438D01*
X121363095Y-77767438D02*
X121410714Y-77815057D01*
X121410714Y-77815057D02*
X121458333Y-77910295D01*
X121458333Y-77910295D02*
X121458333Y-78053152D01*
X121458333Y-78053152D02*
X121410714Y-78148390D01*
X121410714Y-78148390D02*
X121363095Y-78196009D01*
X121363095Y-78196009D02*
X121267857Y-78243628D01*
X121267857Y-78243628D02*
X120886905Y-78243628D01*
X122410714Y-78719819D02*
X121839286Y-78719819D01*
X122125000Y-78719819D02*
X122125000Y-77719819D01*
X122125000Y-77719819D02*
X122029762Y-77862676D01*
X122029762Y-77862676D02*
X121934524Y-77957914D01*
X121934524Y-77957914D02*
X121839286Y-78005533D01*
X117733333Y-77329819D02*
X117400000Y-76853628D01*
X117161905Y-77329819D02*
X117161905Y-76329819D01*
X117161905Y-76329819D02*
X117542857Y-76329819D01*
X117542857Y-76329819D02*
X117638095Y-76377438D01*
X117638095Y-76377438D02*
X117685714Y-76425057D01*
X117685714Y-76425057D02*
X117733333Y-76520295D01*
X117733333Y-76520295D02*
X117733333Y-76663152D01*
X117733333Y-76663152D02*
X117685714Y-76758390D01*
X117685714Y-76758390D02*
X117638095Y-76806009D01*
X117638095Y-76806009D02*
X117542857Y-76853628D01*
X117542857Y-76853628D02*
X117161905Y-76853628D01*
X118114286Y-76425057D02*
X118161905Y-76377438D01*
X118161905Y-76377438D02*
X118257143Y-76329819D01*
X118257143Y-76329819D02*
X118495238Y-76329819D01*
X118495238Y-76329819D02*
X118590476Y-76377438D01*
X118590476Y-76377438D02*
X118638095Y-76425057D01*
X118638095Y-76425057D02*
X118685714Y-76520295D01*
X118685714Y-76520295D02*
X118685714Y-76615533D01*
X118685714Y-76615533D02*
X118638095Y-76758390D01*
X118638095Y-76758390D02*
X118066667Y-77329819D01*
X118066667Y-77329819D02*
X118685714Y-77329819D01*
X107666666Y-62684819D02*
X107666666Y-63399104D01*
X107666666Y-63399104D02*
X107619047Y-63541961D01*
X107619047Y-63541961D02*
X107523809Y-63637200D01*
X107523809Y-63637200D02*
X107380952Y-63684819D01*
X107380952Y-63684819D02*
X107285714Y-63684819D01*
X108571428Y-63018152D02*
X108571428Y-63684819D01*
X108333333Y-62637200D02*
X108095238Y-63351485D01*
X108095238Y-63351485D02*
X108714285Y-63351485D01*
X107666666Y-56184819D02*
X107666666Y-56899104D01*
X107666666Y-56899104D02*
X107619047Y-57041961D01*
X107619047Y-57041961D02*
X107523809Y-57137200D01*
X107523809Y-57137200D02*
X107380952Y-57184819D01*
X107380952Y-57184819D02*
X107285714Y-57184819D01*
X108619047Y-56184819D02*
X108142857Y-56184819D01*
X108142857Y-56184819D02*
X108095238Y-56661009D01*
X108095238Y-56661009D02*
X108142857Y-56613390D01*
X108142857Y-56613390D02*
X108238095Y-56565771D01*
X108238095Y-56565771D02*
X108476190Y-56565771D01*
X108476190Y-56565771D02*
X108571428Y-56613390D01*
X108571428Y-56613390D02*
X108619047Y-56661009D01*
X108619047Y-56661009D02*
X108666666Y-56756247D01*
X108666666Y-56756247D02*
X108666666Y-56994342D01*
X108666666Y-56994342D02*
X108619047Y-57089580D01*
X108619047Y-57089580D02*
X108571428Y-57137200D01*
X108571428Y-57137200D02*
X108476190Y-57184819D01*
X108476190Y-57184819D02*
X108238095Y-57184819D01*
X108238095Y-57184819D02*
X108142857Y-57137200D01*
X108142857Y-57137200D02*
X108095238Y-57089580D01*
X119166666Y-61724819D02*
X119166666Y-62439104D01*
X119166666Y-62439104D02*
X119119047Y-62581961D01*
X119119047Y-62581961D02*
X119023809Y-62677200D01*
X119023809Y-62677200D02*
X118880952Y-62724819D01*
X118880952Y-62724819D02*
X118785714Y-62724819D01*
X119595238Y-61820057D02*
X119642857Y-61772438D01*
X119642857Y-61772438D02*
X119738095Y-61724819D01*
X119738095Y-61724819D02*
X119976190Y-61724819D01*
X119976190Y-61724819D02*
X120071428Y-61772438D01*
X120071428Y-61772438D02*
X120119047Y-61820057D01*
X120119047Y-61820057D02*
X120166666Y-61915295D01*
X120166666Y-61915295D02*
X120166666Y-62010533D01*
X120166666Y-62010533D02*
X120119047Y-62153390D01*
X120119047Y-62153390D02*
X119547619Y-62724819D01*
X119547619Y-62724819D02*
X120166666Y-62724819D01*
X164916667Y-42107200D02*
X165059524Y-42154819D01*
X165059524Y-42154819D02*
X165297619Y-42154819D01*
X165297619Y-42154819D02*
X165392857Y-42107200D01*
X165392857Y-42107200D02*
X165440476Y-42059580D01*
X165440476Y-42059580D02*
X165488095Y-41964342D01*
X165488095Y-41964342D02*
X165488095Y-41869104D01*
X165488095Y-41869104D02*
X165440476Y-41773866D01*
X165440476Y-41773866D02*
X165392857Y-41726247D01*
X165392857Y-41726247D02*
X165297619Y-41678628D01*
X165297619Y-41678628D02*
X165107143Y-41631009D01*
X165107143Y-41631009D02*
X165011905Y-41583390D01*
X165011905Y-41583390D02*
X164964286Y-41535771D01*
X164964286Y-41535771D02*
X164916667Y-41440533D01*
X164916667Y-41440533D02*
X164916667Y-41345295D01*
X164916667Y-41345295D02*
X164964286Y-41250057D01*
X164964286Y-41250057D02*
X165011905Y-41202438D01*
X165011905Y-41202438D02*
X165107143Y-41154819D01*
X165107143Y-41154819D02*
X165345238Y-41154819D01*
X165345238Y-41154819D02*
X165488095Y-41202438D01*
X165821429Y-41154819D02*
X166059524Y-42154819D01*
X166059524Y-42154819D02*
X166250000Y-41440533D01*
X166250000Y-41440533D02*
X166440476Y-42154819D01*
X166440476Y-42154819D02*
X166678572Y-41154819D01*
X166964286Y-41154819D02*
X167583333Y-41154819D01*
X167583333Y-41154819D02*
X167250000Y-41535771D01*
X167250000Y-41535771D02*
X167392857Y-41535771D01*
X167392857Y-41535771D02*
X167488095Y-41583390D01*
X167488095Y-41583390D02*
X167535714Y-41631009D01*
X167535714Y-41631009D02*
X167583333Y-41726247D01*
X167583333Y-41726247D02*
X167583333Y-41964342D01*
X167583333Y-41964342D02*
X167535714Y-42059580D01*
X167535714Y-42059580D02*
X167488095Y-42107200D01*
X167488095Y-42107200D02*
X167392857Y-42154819D01*
X167392857Y-42154819D02*
X167107143Y-42154819D01*
X167107143Y-42154819D02*
X167011905Y-42107200D01*
X167011905Y-42107200D02*
X166964286Y-42059580D01*
X176504819Y-47991666D02*
X176028628Y-48324999D01*
X176504819Y-48563094D02*
X175504819Y-48563094D01*
X175504819Y-48563094D02*
X175504819Y-48182142D01*
X175504819Y-48182142D02*
X175552438Y-48086904D01*
X175552438Y-48086904D02*
X175600057Y-48039285D01*
X175600057Y-48039285D02*
X175695295Y-47991666D01*
X175695295Y-47991666D02*
X175838152Y-47991666D01*
X175838152Y-47991666D02*
X175933390Y-48039285D01*
X175933390Y-48039285D02*
X175981009Y-48086904D01*
X175981009Y-48086904D02*
X176028628Y-48182142D01*
X176028628Y-48182142D02*
X176028628Y-48563094D01*
X175504819Y-47086904D02*
X175504819Y-47563094D01*
X175504819Y-47563094D02*
X175981009Y-47610713D01*
X175981009Y-47610713D02*
X175933390Y-47563094D01*
X175933390Y-47563094D02*
X175885771Y-47467856D01*
X175885771Y-47467856D02*
X175885771Y-47229761D01*
X175885771Y-47229761D02*
X175933390Y-47134523D01*
X175933390Y-47134523D02*
X175981009Y-47086904D01*
X175981009Y-47086904D02*
X176076247Y-47039285D01*
X176076247Y-47039285D02*
X176314342Y-47039285D01*
X176314342Y-47039285D02*
X176409580Y-47086904D01*
X176409580Y-47086904D02*
X176457200Y-47134523D01*
X176457200Y-47134523D02*
X176504819Y-47229761D01*
X176504819Y-47229761D02*
X176504819Y-47467856D01*
X176504819Y-47467856D02*
X176457200Y-47563094D01*
X176457200Y-47563094D02*
X176409580Y-47610713D01*
X153519285Y-79306009D02*
X153662142Y-79353628D01*
X153662142Y-79353628D02*
X153709761Y-79401247D01*
X153709761Y-79401247D02*
X153757380Y-79496485D01*
X153757380Y-79496485D02*
X153757380Y-79639342D01*
X153757380Y-79639342D02*
X153709761Y-79734580D01*
X153709761Y-79734580D02*
X153662142Y-79782200D01*
X153662142Y-79782200D02*
X153566904Y-79829819D01*
X153566904Y-79829819D02*
X153185952Y-79829819D01*
X153185952Y-79829819D02*
X153185952Y-78829819D01*
X153185952Y-78829819D02*
X153519285Y-78829819D01*
X153519285Y-78829819D02*
X153614523Y-78877438D01*
X153614523Y-78877438D02*
X153662142Y-78925057D01*
X153662142Y-78925057D02*
X153709761Y-79020295D01*
X153709761Y-79020295D02*
X153709761Y-79115533D01*
X153709761Y-79115533D02*
X153662142Y-79210771D01*
X153662142Y-79210771D02*
X153614523Y-79258390D01*
X153614523Y-79258390D02*
X153519285Y-79306009D01*
X153519285Y-79306009D02*
X153185952Y-79306009D01*
X154043095Y-78829819D02*
X154614523Y-78829819D01*
X154328809Y-79829819D02*
X154328809Y-78829819D01*
X155471666Y-79829819D02*
X154900238Y-79829819D01*
X155185952Y-79829819D02*
X155185952Y-78829819D01*
X155185952Y-78829819D02*
X155090714Y-78972676D01*
X155090714Y-78972676D02*
X154995476Y-79067914D01*
X154995476Y-79067914D02*
X154900238Y-79115533D01*
X112738095Y-86155533D02*
X114261905Y-86155533D01*
X113500000Y-86917438D02*
X113500000Y-85393628D01*
X114468095Y-68704819D02*
X114468095Y-69514342D01*
X114468095Y-69514342D02*
X114515714Y-69609580D01*
X114515714Y-69609580D02*
X114563333Y-69657200D01*
X114563333Y-69657200D02*
X114658571Y-69704819D01*
X114658571Y-69704819D02*
X114849047Y-69704819D01*
X114849047Y-69704819D02*
X114944285Y-69657200D01*
X114944285Y-69657200D02*
X114991904Y-69609580D01*
X114991904Y-69609580D02*
X115039523Y-69514342D01*
X115039523Y-69514342D02*
X115039523Y-68704819D01*
X116039523Y-69704819D02*
X115468095Y-69704819D01*
X115753809Y-69704819D02*
X115753809Y-68704819D01*
X115753809Y-68704819D02*
X115658571Y-68847676D01*
X115658571Y-68847676D02*
X115563333Y-68942914D01*
X115563333Y-68942914D02*
X115468095Y-68990533D01*
X196738095Y-23804819D02*
X196738095Y-22804819D01*
X196738095Y-23281009D02*
X197309523Y-23281009D01*
X197309523Y-23804819D02*
X197309523Y-22804819D01*
X198309523Y-23804819D02*
X197738095Y-23804819D01*
X198023809Y-23804819D02*
X198023809Y-22804819D01*
X198023809Y-22804819D02*
X197928571Y-22947676D01*
X197928571Y-22947676D02*
X197833333Y-23042914D01*
X197833333Y-23042914D02*
X197738095Y-23090533D01*
X179905279Y-71403976D02*
X180048136Y-71451595D01*
X180048136Y-71451595D02*
X180286231Y-71451595D01*
X180286231Y-71451595D02*
X180381469Y-71403976D01*
X180381469Y-71403976D02*
X180429088Y-71356356D01*
X180429088Y-71356356D02*
X180476707Y-71261118D01*
X180476707Y-71261118D02*
X180476707Y-71165880D01*
X180476707Y-71165880D02*
X180429088Y-71070642D01*
X180429088Y-71070642D02*
X180381469Y-71023023D01*
X180381469Y-71023023D02*
X180286231Y-70975404D01*
X180286231Y-70975404D02*
X180095755Y-70927785D01*
X180095755Y-70927785D02*
X180000517Y-70880166D01*
X180000517Y-70880166D02*
X179952898Y-70832547D01*
X179952898Y-70832547D02*
X179905279Y-70737309D01*
X179905279Y-70737309D02*
X179905279Y-70642071D01*
X179905279Y-70642071D02*
X179952898Y-70546833D01*
X179952898Y-70546833D02*
X180000517Y-70499214D01*
X180000517Y-70499214D02*
X180095755Y-70451595D01*
X180095755Y-70451595D02*
X180333850Y-70451595D01*
X180333850Y-70451595D02*
X180476707Y-70499214D01*
X180810041Y-70451595D02*
X181048136Y-71451595D01*
X181048136Y-71451595D02*
X181238612Y-70737309D01*
X181238612Y-70737309D02*
X181429088Y-71451595D01*
X181429088Y-71451595D02*
X181667184Y-70451595D01*
X182571945Y-71451595D02*
X182000517Y-71451595D01*
X182286231Y-71451595D02*
X182286231Y-70451595D01*
X182286231Y-70451595D02*
X182190993Y-70594452D01*
X182190993Y-70594452D02*
X182095755Y-70689690D01*
X182095755Y-70689690D02*
X182000517Y-70737309D01*
X122433333Y-69529819D02*
X121957143Y-69529819D01*
X121957143Y-69529819D02*
X121957143Y-68529819D01*
X123290476Y-69529819D02*
X122719048Y-69529819D01*
X123004762Y-69529819D02*
X123004762Y-68529819D01*
X123004762Y-68529819D02*
X122909524Y-68672676D01*
X122909524Y-68672676D02*
X122814286Y-68767914D01*
X122814286Y-68767914D02*
X122719048Y-68815533D01*
X196238095Y-98804819D02*
X196238095Y-97804819D01*
X196238095Y-98281009D02*
X196809523Y-98281009D01*
X196809523Y-98804819D02*
X196809523Y-97804819D01*
X197238095Y-97900057D02*
X197285714Y-97852438D01*
X197285714Y-97852438D02*
X197380952Y-97804819D01*
X197380952Y-97804819D02*
X197619047Y-97804819D01*
X197619047Y-97804819D02*
X197714285Y-97852438D01*
X197714285Y-97852438D02*
X197761904Y-97900057D01*
X197761904Y-97900057D02*
X197809523Y-97995295D01*
X197809523Y-97995295D02*
X197809523Y-98090533D01*
X197809523Y-98090533D02*
X197761904Y-98233390D01*
X197761904Y-98233390D02*
X197190476Y-98804819D01*
X197190476Y-98804819D02*
X197809523Y-98804819D01*
X119030278Y-68271595D02*
X119030278Y-68985880D01*
X119030278Y-68985880D02*
X118982659Y-69128737D01*
X118982659Y-69128737D02*
X118887421Y-69223976D01*
X118887421Y-69223976D02*
X118744564Y-69271595D01*
X118744564Y-69271595D02*
X118649326Y-69271595D01*
X119411231Y-68271595D02*
X120030278Y-68271595D01*
X120030278Y-68271595D02*
X119696945Y-68652547D01*
X119696945Y-68652547D02*
X119839802Y-68652547D01*
X119839802Y-68652547D02*
X119935040Y-68700166D01*
X119935040Y-68700166D02*
X119982659Y-68747785D01*
X119982659Y-68747785D02*
X120030278Y-68843023D01*
X120030278Y-68843023D02*
X120030278Y-69081118D01*
X120030278Y-69081118D02*
X119982659Y-69176356D01*
X119982659Y-69176356D02*
X119935040Y-69223976D01*
X119935040Y-69223976D02*
X119839802Y-69271595D01*
X119839802Y-69271595D02*
X119554088Y-69271595D01*
X119554088Y-69271595D02*
X119458850Y-69223976D01*
X119458850Y-69223976D02*
X119411231Y-69176356D01*
X113008333Y-75934580D02*
X112960714Y-75982200D01*
X112960714Y-75982200D02*
X112817857Y-76029819D01*
X112817857Y-76029819D02*
X112722619Y-76029819D01*
X112722619Y-76029819D02*
X112579762Y-75982200D01*
X112579762Y-75982200D02*
X112484524Y-75886961D01*
X112484524Y-75886961D02*
X112436905Y-75791723D01*
X112436905Y-75791723D02*
X112389286Y-75601247D01*
X112389286Y-75601247D02*
X112389286Y-75458390D01*
X112389286Y-75458390D02*
X112436905Y-75267914D01*
X112436905Y-75267914D02*
X112484524Y-75172676D01*
X112484524Y-75172676D02*
X112579762Y-75077438D01*
X112579762Y-75077438D02*
X112722619Y-75029819D01*
X112722619Y-75029819D02*
X112817857Y-75029819D01*
X112817857Y-75029819D02*
X112960714Y-75077438D01*
X112960714Y-75077438D02*
X113008333Y-75125057D01*
X113960714Y-76029819D02*
X113389286Y-76029819D01*
X113675000Y-76029819D02*
X113675000Y-75029819D01*
X113675000Y-75029819D02*
X113579762Y-75172676D01*
X113579762Y-75172676D02*
X113484524Y-75267914D01*
X113484524Y-75267914D02*
X113389286Y-75315533D01*
X166679819Y-70896666D02*
X166203628Y-71229999D01*
X166679819Y-71468094D02*
X165679819Y-71468094D01*
X165679819Y-71468094D02*
X165679819Y-71087142D01*
X165679819Y-71087142D02*
X165727438Y-70991904D01*
X165727438Y-70991904D02*
X165775057Y-70944285D01*
X165775057Y-70944285D02*
X165870295Y-70896666D01*
X165870295Y-70896666D02*
X166013152Y-70896666D01*
X166013152Y-70896666D02*
X166108390Y-70944285D01*
X166108390Y-70944285D02*
X166156009Y-70991904D01*
X166156009Y-70991904D02*
X166203628Y-71087142D01*
X166203628Y-71087142D02*
X166203628Y-71468094D01*
X166013152Y-70039523D02*
X166679819Y-70039523D01*
X165632200Y-70277618D02*
X166346485Y-70515713D01*
X166346485Y-70515713D02*
X166346485Y-69896666D01*
X133384819Y-49341666D02*
X132908628Y-49674999D01*
X133384819Y-49913094D02*
X132384819Y-49913094D01*
X132384819Y-49913094D02*
X132384819Y-49532142D01*
X132384819Y-49532142D02*
X132432438Y-49436904D01*
X132432438Y-49436904D02*
X132480057Y-49389285D01*
X132480057Y-49389285D02*
X132575295Y-49341666D01*
X132575295Y-49341666D02*
X132718152Y-49341666D01*
X132718152Y-49341666D02*
X132813390Y-49389285D01*
X132813390Y-49389285D02*
X132861009Y-49436904D01*
X132861009Y-49436904D02*
X132908628Y-49532142D01*
X132908628Y-49532142D02*
X132908628Y-49913094D01*
X132384819Y-48484523D02*
X132384819Y-48674999D01*
X132384819Y-48674999D02*
X132432438Y-48770237D01*
X132432438Y-48770237D02*
X132480057Y-48817856D01*
X132480057Y-48817856D02*
X132622914Y-48913094D01*
X132622914Y-48913094D02*
X132813390Y-48960713D01*
X132813390Y-48960713D02*
X133194342Y-48960713D01*
X133194342Y-48960713D02*
X133289580Y-48913094D01*
X133289580Y-48913094D02*
X133337200Y-48865475D01*
X133337200Y-48865475D02*
X133384819Y-48770237D01*
X133384819Y-48770237D02*
X133384819Y-48579761D01*
X133384819Y-48579761D02*
X133337200Y-48484523D01*
X133337200Y-48484523D02*
X133289580Y-48436904D01*
X133289580Y-48436904D02*
X133194342Y-48389285D01*
X133194342Y-48389285D02*
X132956247Y-48389285D01*
X132956247Y-48389285D02*
X132861009Y-48436904D01*
X132861009Y-48436904D02*
X132813390Y-48484523D01*
X132813390Y-48484523D02*
X132765771Y-48579761D01*
X132765771Y-48579761D02*
X132765771Y-48770237D01*
X132765771Y-48770237D02*
X132813390Y-48865475D01*
X132813390Y-48865475D02*
X132861009Y-48913094D01*
X132861009Y-48913094D02*
X132956247Y-48960713D01*
X122166666Y-28644819D02*
X122166666Y-29359104D01*
X122166666Y-29359104D02*
X122119047Y-29501961D01*
X122119047Y-29501961D02*
X122023809Y-29597200D01*
X122023809Y-29597200D02*
X121880952Y-29644819D01*
X121880952Y-29644819D02*
X121785714Y-29644819D01*
X123166666Y-29644819D02*
X122595238Y-29644819D01*
X122880952Y-29644819D02*
X122880952Y-28644819D01*
X122880952Y-28644819D02*
X122785714Y-28787676D01*
X122785714Y-28787676D02*
X122690476Y-28882914D01*
X122690476Y-28882914D02*
X122595238Y-28930533D01*
X106738095Y-23804819D02*
X106738095Y-22804819D01*
X106738095Y-23281009D02*
X107309523Y-23281009D01*
X107309523Y-23804819D02*
X107309523Y-22804819D01*
X108214285Y-23138152D02*
X108214285Y-23804819D01*
X107976190Y-22757200D02*
X107738095Y-23471485D01*
X107738095Y-23471485D02*
X108357142Y-23471485D01*
X121666667Y-45607200D02*
X121809524Y-45654819D01*
X121809524Y-45654819D02*
X122047619Y-45654819D01*
X122047619Y-45654819D02*
X122142857Y-45607200D01*
X122142857Y-45607200D02*
X122190476Y-45559580D01*
X122190476Y-45559580D02*
X122238095Y-45464342D01*
X122238095Y-45464342D02*
X122238095Y-45369104D01*
X122238095Y-45369104D02*
X122190476Y-45273866D01*
X122190476Y-45273866D02*
X122142857Y-45226247D01*
X122142857Y-45226247D02*
X122047619Y-45178628D01*
X122047619Y-45178628D02*
X121857143Y-45131009D01*
X121857143Y-45131009D02*
X121761905Y-45083390D01*
X121761905Y-45083390D02*
X121714286Y-45035771D01*
X121714286Y-45035771D02*
X121666667Y-44940533D01*
X121666667Y-44940533D02*
X121666667Y-44845295D01*
X121666667Y-44845295D02*
X121714286Y-44750057D01*
X121714286Y-44750057D02*
X121761905Y-44702438D01*
X121761905Y-44702438D02*
X121857143Y-44654819D01*
X121857143Y-44654819D02*
X122095238Y-44654819D01*
X122095238Y-44654819D02*
X122238095Y-44702438D01*
X122571429Y-44654819D02*
X122809524Y-45654819D01*
X122809524Y-45654819D02*
X123000000Y-44940533D01*
X123000000Y-44940533D02*
X123190476Y-45654819D01*
X123190476Y-45654819D02*
X123428572Y-44654819D01*
X124285714Y-44654819D02*
X123809524Y-44654819D01*
X123809524Y-44654819D02*
X123761905Y-45131009D01*
X123761905Y-45131009D02*
X123809524Y-45083390D01*
X123809524Y-45083390D02*
X123904762Y-45035771D01*
X123904762Y-45035771D02*
X124142857Y-45035771D01*
X124142857Y-45035771D02*
X124238095Y-45083390D01*
X124238095Y-45083390D02*
X124285714Y-45131009D01*
X124285714Y-45131009D02*
X124333333Y-45226247D01*
X124333333Y-45226247D02*
X124333333Y-45464342D01*
X124333333Y-45464342D02*
X124285714Y-45559580D01*
X124285714Y-45559580D02*
X124238095Y-45607200D01*
X124238095Y-45607200D02*
X124142857Y-45654819D01*
X124142857Y-45654819D02*
X123904762Y-45654819D01*
X123904762Y-45654819D02*
X123809524Y-45607200D01*
X123809524Y-45607200D02*
X123761905Y-45559580D01*
D11*
%TO.C,R9*%
X132287742Y-25512500D02*
X132762258Y-25512500D01*
X132287742Y-26557500D02*
X132762258Y-26557500D01*
%TO.C,R8*%
X132287742Y-22337500D02*
X132762258Y-22337500D01*
X132287742Y-23382500D02*
X132762258Y-23382500D01*
%TO.C,R7*%
X162447500Y-28972742D02*
X162447500Y-29447258D01*
X161402500Y-28972742D02*
X161402500Y-29447258D01*
%TO.C,A1*%
X138390000Y-23930000D02*
X137910000Y-23930000D01*
X138390000Y-23930000D02*
X138390000Y-24350000D01*
X138390000Y-26470000D02*
X138390000Y-26890000D01*
X138390000Y-29010000D02*
X138390000Y-29430000D01*
X138390000Y-31550000D02*
X138390000Y-31970000D01*
X138390000Y-34090000D02*
X138390000Y-34510000D01*
X138390000Y-36630000D02*
X138390000Y-37050000D01*
X138390000Y-39170000D02*
X138390000Y-39590000D01*
X138390000Y-41710000D02*
X138390000Y-42130000D01*
X138390000Y-44250000D02*
X138390000Y-44670000D01*
X138390000Y-46790000D02*
X138390000Y-47210000D01*
X138390000Y-49330000D02*
X138390000Y-49750000D01*
X138390000Y-51870000D02*
X138390000Y-52290000D01*
X138390000Y-54410000D02*
X138390000Y-54830000D01*
X138390000Y-56950000D02*
X138390000Y-57370000D01*
X138390000Y-59490000D02*
X138390000Y-59910000D01*
X138390000Y-62030000D02*
X138390000Y-62450000D01*
X138390000Y-64570000D02*
X138390000Y-64990000D01*
X138390000Y-67110000D02*
X138390000Y-67530000D01*
X138390000Y-69650000D02*
X138390000Y-70070000D01*
X138420324Y-21810000D02*
X137910000Y-21810000D01*
X138730000Y-21810063D02*
X138730000Y-21453000D01*
X138730000Y-23930000D02*
X138730000Y-24350000D01*
X138730000Y-26470000D02*
X138730000Y-26890000D01*
X138730000Y-29010000D02*
X138730000Y-29430000D01*
X138730000Y-31550000D02*
X138730000Y-31970000D01*
X138730000Y-34090000D02*
X138730000Y-34510000D01*
X138730000Y-36630000D02*
X138730000Y-37050000D01*
X138730000Y-39170000D02*
X138730000Y-39590000D01*
X138730000Y-41710000D02*
X138730000Y-42130000D01*
X138730000Y-44250000D02*
X138730000Y-44670000D01*
X138730000Y-46790000D02*
X138730000Y-47210000D01*
X138730000Y-49330000D02*
X138730000Y-49750000D01*
X138730000Y-51870000D02*
X138730000Y-52290000D01*
X138730000Y-54410000D02*
X138730000Y-54830000D01*
X138730000Y-56950000D02*
X138730000Y-57370000D01*
X138730000Y-59490000D02*
X138730000Y-59910000D01*
X138730000Y-62030000D02*
X138730000Y-62450000D01*
X138730000Y-64570000D02*
X138730000Y-64990000D01*
X138730000Y-67110000D02*
X138730000Y-67530000D01*
X138730000Y-69650000D02*
X138730000Y-70070000D01*
X138730000Y-72189937D02*
X138730000Y-72547000D01*
X139000000Y-21390000D02*
X141490000Y-21390000D01*
X139000000Y-72610000D02*
X142837939Y-72610000D01*
X141490000Y-21390000D02*
X141490000Y-22303520D01*
X141490000Y-21390000D02*
X142837940Y-21390000D01*
X141490000Y-24696480D02*
X141490000Y-69303520D01*
X141490000Y-71696480D02*
X141490000Y-72610000D01*
X143762061Y-21390000D02*
X144765000Y-21390000D01*
X144765000Y-21390000D02*
X153235000Y-21390000D01*
X145100000Y-21390000D02*
X145100000Y-22306000D01*
X145100000Y-24694000D02*
X145100000Y-25910000D01*
X145100000Y-25910000D02*
X145396090Y-25910000D01*
X145400000Y-72610000D02*
X143762061Y-72610000D01*
X147753910Y-25910000D02*
X150246090Y-25910000D01*
X152600000Y-72610000D02*
X145400000Y-72610000D01*
X152603910Y-25910000D02*
X152900000Y-25910000D01*
X152900000Y-21390000D02*
X152900000Y-22306000D01*
X152900000Y-24694000D02*
X152900000Y-25910000D01*
X153235000Y-21390000D02*
X154237939Y-21390000D01*
X154237939Y-72610000D02*
X152600000Y-72610000D01*
X155162061Y-21390000D02*
X156510000Y-21390000D01*
X155162061Y-72610000D02*
X159000000Y-72610000D01*
X156510000Y-21390000D02*
X156510000Y-22303520D01*
X156510000Y-24696480D02*
X156510000Y-69303520D01*
X156510000Y-71696480D02*
X156510000Y-72610000D01*
X159000000Y-21390000D02*
X156510000Y-21390000D01*
X159270000Y-21810063D02*
X159270000Y-21453000D01*
X159270000Y-23930000D02*
X159270000Y-24350000D01*
X159270000Y-26470000D02*
X159270000Y-26890000D01*
X159270000Y-29010000D02*
X159270000Y-29430000D01*
X159270000Y-31550000D02*
X159270000Y-31970000D01*
X159270000Y-34090000D02*
X159270000Y-34510000D01*
X159270000Y-36630000D02*
X159270000Y-37050000D01*
X159270000Y-39170000D02*
X159270000Y-39590000D01*
X159270000Y-41710000D02*
X159270000Y-42130000D01*
X159270000Y-44250000D02*
X159270000Y-44670000D01*
X159270000Y-46790000D02*
X159270000Y-47210000D01*
X159270000Y-49330000D02*
X159270000Y-49750000D01*
X159270000Y-51870000D02*
X159270000Y-52290000D01*
X159270000Y-54410000D02*
X159270000Y-54830000D01*
X159270000Y-56950000D02*
X159270000Y-57370000D01*
X159270000Y-59490000D02*
X159270000Y-59910000D01*
X159270000Y-62030000D02*
X159270000Y-62450000D01*
X159270000Y-64570000D02*
X159270000Y-64990000D01*
X159270000Y-67110000D02*
X159270000Y-67530000D01*
X159270000Y-69650000D02*
X159270000Y-70070000D01*
X159270000Y-72189937D02*
X159270000Y-72547000D01*
X159610000Y-23930000D02*
X159610000Y-24350000D01*
X159610000Y-26470000D02*
X159610000Y-26890000D01*
X159610000Y-29010000D02*
X159610000Y-29430000D01*
X159610000Y-31550000D02*
X159610000Y-31970000D01*
X159610000Y-34090000D02*
X159610000Y-34510000D01*
X159610000Y-36630000D02*
X159610000Y-37050000D01*
X159610000Y-39170000D02*
X159610000Y-39590000D01*
X159610000Y-41710000D02*
X159610000Y-42130000D01*
X159610000Y-44250000D02*
X159610000Y-44670000D01*
X159610000Y-46790000D02*
X159610000Y-47210000D01*
X159610000Y-49330000D02*
X159610000Y-49750000D01*
X159610000Y-51870000D02*
X159610000Y-52290000D01*
X159610000Y-54410000D02*
X159610000Y-54830000D01*
X159610000Y-56950000D02*
X159610000Y-57370000D01*
X159610000Y-59490000D02*
X159610000Y-59910000D01*
X159610000Y-62030000D02*
X159610000Y-62450000D01*
X159610000Y-64570000D02*
X159610000Y-64990000D01*
X159610000Y-67110000D02*
X159610000Y-67530000D01*
X159610000Y-69650000D02*
X159610000Y-70070000D01*
X138420324Y-21810000D02*
G75*
G02*
X139000000Y-21390000I579692J-190051D01*
G01*
X139000000Y-72610000D02*
G75*
G02*
X138420324Y-72189937I1J610002D01*
G01*
X159000000Y-21390000D02*
G75*
G02*
X159579676Y-21810063I0J-610000D01*
G01*
X159579676Y-72189937D02*
G75*
G02*
X159000000Y-72610069I-579676J189837D01*
G01*
%TO.C,SW4*%
X103900000Y-46200000D02*
X104900000Y-46200000D01*
X103900000Y-47200000D02*
X103900000Y-46200000D01*
X105900000Y-48200000D02*
X105900000Y-50800000D01*
X111900000Y-46250000D02*
X106100000Y-46250000D01*
X112000000Y-52750000D02*
X106000000Y-52750000D01*
X112100000Y-48200000D02*
X112100000Y-50800000D01*
%TO.C,SW2*%
X176138612Y-49671776D02*
X177138612Y-49671776D01*
X176138612Y-50671776D02*
X176138612Y-49671776D01*
X178138612Y-51671776D02*
X178138612Y-54271776D01*
X184138612Y-49721776D02*
X178338612Y-49721776D01*
X184238612Y-56221776D02*
X178238612Y-56221776D01*
X184338612Y-51671776D02*
X184338612Y-54271776D01*
%TO.C,C2*%
X124613748Y-75815000D02*
X125136252Y-75815000D01*
X124613748Y-77285000D02*
X125136252Y-77285000D01*
%TO.C,R3*%
X101737258Y-48977500D02*
X101262742Y-48977500D01*
X101737258Y-50022500D02*
X101262742Y-50022500D01*
%TO.C,C3*%
X165000000Y-30436252D02*
X165000000Y-29913748D01*
X166470000Y-30436252D02*
X166470000Y-29913748D01*
%TO.C,R1*%
X121862258Y-76312500D02*
X121387742Y-76312500D01*
X121862258Y-77357500D02*
X121387742Y-77357500D01*
%TO.C,R2*%
X118837258Y-74902500D02*
X118362742Y-74902500D01*
X118837258Y-75947500D02*
X118362742Y-75947500D01*
%TO.C,J4*%
X106670000Y-67210000D02*
X106670000Y-67330000D01*
X106670000Y-67330000D02*
X109330000Y-67330000D01*
X108000000Y-64670000D02*
X109330000Y-64670000D01*
X109330000Y-64670000D02*
X109330000Y-66000000D01*
X109330000Y-67210000D02*
X109330000Y-67330000D01*
%TO.C,J5*%
X106670000Y-60710000D02*
X106670000Y-60830000D01*
X106670000Y-60830000D02*
X109330000Y-60830000D01*
X108000000Y-58170000D02*
X109330000Y-58170000D01*
X109330000Y-58170000D02*
X109330000Y-59500000D01*
X109330000Y-60710000D02*
X109330000Y-60830000D01*
%TO.C,J2*%
X118170000Y-58290000D02*
X118170000Y-58170000D01*
X118170000Y-60830000D02*
X118170000Y-59500000D01*
X119500000Y-60830000D02*
X118170000Y-60830000D01*
X120830000Y-58170000D02*
X118170000Y-58170000D01*
X120830000Y-58290000D02*
X120830000Y-58170000D01*
%TO.C,SW3*%
X161150000Y-42700000D02*
X162150000Y-42700000D01*
X161150000Y-43700000D02*
X161150000Y-42700000D01*
X163150000Y-44700000D02*
X163150000Y-47300000D01*
X169150000Y-42750000D02*
X163350000Y-42750000D01*
X169250000Y-49250000D02*
X163250000Y-49250000D01*
X169350000Y-44700000D02*
X169350000Y-47300000D01*
%TO.C,R5*%
X173752500Y-49472018D02*
X173752500Y-49946534D01*
X174797500Y-49472018D02*
X174797500Y-49946534D01*
%TO.C,BT1*%
X114610000Y-80315000D02*
X192390000Y-80315000D01*
X114610000Y-87490000D02*
X114610000Y-80315000D01*
X114610000Y-101685000D02*
X114610000Y-94510000D01*
X192390000Y-80315000D02*
X192390000Y-87490000D01*
X192390000Y-94510000D02*
X192390000Y-101685000D01*
X192390000Y-101685000D02*
X114610000Y-101685000D01*
%TO.C,U1*%
X117562500Y-72302500D02*
X119562500Y-72302500D01*
X117572500Y-74582500D02*
X119572500Y-74582500D01*
X117202500Y-72372500D02*
X116922500Y-72372500D01*
X117202500Y-72092500D01*
X117202500Y-72372500D01*
G36*
X117202500Y-72372500D02*
G01*
X116922500Y-72372500D01*
X117202500Y-72092500D01*
X117202500Y-72372500D01*
G37*
%TO.C,SW1*%
X178138612Y-67996776D02*
X178138612Y-65396776D01*
X178238612Y-63446776D02*
X184238612Y-63446776D01*
X178338612Y-69946776D02*
X184138612Y-69946776D01*
X184338612Y-67996776D02*
X184338612Y-65396776D01*
X186338612Y-68996776D02*
X186338612Y-69996776D01*
X186338612Y-69996776D02*
X185338612Y-69996776D01*
%TO.C,L1*%
X120645000Y-72800000D02*
X120645000Y-74000000D01*
X124165000Y-72800000D02*
X124165000Y-74000000D01*
%TO.C,J3*%
X118033612Y-64836776D02*
X118033612Y-64716776D01*
X118033612Y-67376776D02*
X118033612Y-66046776D01*
X119363612Y-67376776D02*
X118033612Y-67376776D01*
X120693612Y-64716776D02*
X118033612Y-64716776D01*
X120693612Y-64836776D02*
X120693612Y-64716776D01*
%TO.C,C1*%
X114590000Y-74888748D02*
X114590000Y-75411252D01*
X116060000Y-74888748D02*
X116060000Y-75411252D01*
%TO.C,R4*%
X168666112Y-69509518D02*
X168666112Y-69984034D01*
X169711112Y-69509518D02*
X169711112Y-69984034D01*
%TO.C,R6*%
X130977500Y-48937742D02*
X130977500Y-49412258D01*
X132022500Y-48937742D02*
X132022500Y-49412258D01*
%TO.C,J1*%
X121170000Y-33230000D02*
X121170000Y-40910000D01*
X121170000Y-33230000D02*
X123830000Y-33230000D01*
X121170000Y-40910000D02*
X123830000Y-40910000D01*
X122500000Y-30630000D02*
X123830000Y-30630000D01*
X123830000Y-30630000D02*
X123830000Y-31960000D01*
X123830000Y-33230000D02*
X123830000Y-40910000D01*
%TO.C,SW5*%
X117900000Y-46200000D02*
X118900000Y-46200000D01*
X117900000Y-47200000D02*
X117900000Y-46200000D01*
X119900000Y-48200000D02*
X119900000Y-50800000D01*
X125900000Y-46250000D02*
X120100000Y-46250000D01*
X126000000Y-52750000D02*
X120000000Y-52750000D01*
X126100000Y-48200000D02*
X126100000Y-50800000D01*
%TD*%
M02*
