%TF.GenerationSoftware,KiCad,Pcbnew,9.0.7*%
%TF.CreationDate,2026-03-13T15:38:40-04:00*%
%TF.ProjectId,capstone_pcb_mkIII,63617073-746f-46e6-955f-7063625f6d6b,rev?*%
%TF.SameCoordinates,Original*%
%TF.FileFunction,Paste,Top*%
%TF.FilePolarity,Positive*%
%FSLAX46Y46*%
G04 Gerber Fmt 4.6, Leading zero omitted, Abs format (unit mm)*
G04 Created by KiCad (PCBNEW 9.0.7) date 2026-03-13 15:38:40*
%MOMM*%
%LPD*%
G01*
G04 APERTURE LIST*
G04 Aperture macros list*
%AMRoundRect*
0 Rectangle with rounded corners*
0 $1 Rounding radius*
0 $2 $3 $4 $5 $6 $7 $8 $9 X,Y pos of 4 corners*
0 Add a 4 corners polygon primitive as box body*
4,1,4,$2,$3,$4,$5,$6,$7,$8,$9,$2,$3,0*
0 Add four circle primitives for the rounded corners*
1,1,$1+$1,$2,$3*
1,1,$1+$1,$4,$5*
1,1,$1+$1,$6,$7*
1,1,$1+$1,$8,$9*
0 Add four rect primitives between the rounded corners*
20,1,$1+$1,$2,$3,$4,$5,0*
20,1,$1+$1,$4,$5,$6,$7,0*
20,1,$1+$1,$6,$7,$8,$9,0*
20,1,$1+$1,$8,$9,$2,$3,0*%
%AMFreePoly0*
4,1,11,0.750000,0.885000,0.300000,0.440500,0.300000,-0.440500,0.750000,-0.885000,0.750000,-1.850000,0.225000,-1.850000,-0.300000,-1.325000,-0.300000,1.325000,0.225000,1.850000,0.750000,1.850000,0.750000,0.885000,0.750000,0.885000,$1*%
G04 Aperture macros list end*
%ADD10RoundRect,0.200000X-0.200000X-0.275000X0.200000X-0.275000X0.200000X0.275000X-0.200000X0.275000X0*%
%ADD11RoundRect,0.200000X-0.275000X0.200000X-0.275000X-0.200000X0.275000X-0.200000X0.275000X0.200000X0*%
%ADD12R,1.600000X1.400000*%
%ADD13RoundRect,0.250000X-0.250000X-0.475000X0.250000X-0.475000X0.250000X0.475000X-0.250000X0.475000X0*%
%ADD14RoundRect,0.200000X0.200000X0.275000X-0.200000X0.275000X-0.200000X-0.275000X0.200000X-0.275000X0*%
%ADD15RoundRect,0.250000X0.475000X-0.250000X0.475000X0.250000X-0.475000X0.250000X-0.475000X-0.250000X0*%
%ADD16RoundRect,0.250003X-3.499997X-2.999997X3.499997X-2.999997X3.499997X2.999997X-3.499997X2.999997X0*%
%ADD17R,0.750000X0.650000*%
%ADD18RoundRect,0.062500X-0.187500X-0.062500X0.187500X-0.062500X0.187500X0.062500X-0.187500X0.062500X0*%
%ADD19FreePoly0,270.000000*%
%ADD20FreePoly0,90.000000*%
%ADD21RoundRect,0.250000X-0.475000X0.250000X-0.475000X-0.250000X0.475000X-0.250000X0.475000X0.250000X0*%
G04 APERTURE END LIST*
D10*
%TO.C,R9*%
X131700000Y-26035000D03*
X133350000Y-26035000D03*
%TD*%
%TO.C,R8*%
X131700000Y-22860000D03*
X133350000Y-22860000D03*
%TD*%
D11*
%TO.C,R7*%
X161925000Y-28385000D03*
X161925000Y-30035000D03*
%TD*%
D12*
%TO.C,SW4*%
X105000000Y-47250000D03*
X113000000Y-47250000D03*
X105000000Y-51750000D03*
X113000000Y-51750000D03*
%TD*%
%TO.C,SW2*%
X177238612Y-50721776D03*
X185238612Y-50721776D03*
X177238612Y-55221776D03*
X185238612Y-55221776D03*
%TD*%
D13*
%TO.C,C2*%
X123925000Y-76550000D03*
X125825000Y-76550000D03*
%TD*%
D14*
%TO.C,R3*%
X102325000Y-49500000D03*
X100675000Y-49500000D03*
%TD*%
D15*
%TO.C,C3*%
X165735000Y-31125000D03*
X165735000Y-29225000D03*
%TD*%
D14*
%TO.C,R1*%
X122450000Y-76835000D03*
X120800000Y-76835000D03*
%TD*%
%TO.C,R2*%
X119425000Y-75425000D03*
X117775000Y-75425000D03*
%TD*%
D12*
%TO.C,SW3*%
X162250000Y-43750000D03*
X170250000Y-43750000D03*
X162250000Y-48250000D03*
X170250000Y-48250000D03*
%TD*%
D11*
%TO.C,R5*%
X174275000Y-48884276D03*
X174275000Y-50534276D03*
%TD*%
D16*
%TO.C,BT1*%
X113810000Y-91000000D03*
X193190000Y-91000000D03*
%TD*%
D17*
%TO.C,U1*%
X118572500Y-73042500D03*
X118572500Y-73842500D03*
D18*
X117622500Y-72692500D03*
X117622500Y-73192500D03*
X117622500Y-73692500D03*
X117622500Y-74192500D03*
X119522500Y-74192500D03*
X119522500Y-73692500D03*
X119522500Y-73192500D03*
X119522500Y-72692500D03*
%TD*%
D12*
%TO.C,SW1*%
X185238612Y-68946776D03*
X177238612Y-68946776D03*
X185238612Y-64446776D03*
X177238612Y-64446776D03*
%TD*%
D19*
%TO.C,L1*%
X122405000Y-71850000D03*
D20*
X122405000Y-74950000D03*
%TD*%
D21*
%TO.C,C1*%
X115325000Y-74200000D03*
X115325000Y-76100000D03*
%TD*%
D11*
%TO.C,R4*%
X169188612Y-68921776D03*
X169188612Y-70571776D03*
%TD*%
%TO.C,R6*%
X131500000Y-48350000D03*
X131500000Y-50000000D03*
%TD*%
D12*
%TO.C,SW5*%
X119000000Y-47250000D03*
X127000000Y-47250000D03*
X119000000Y-51750000D03*
X127000000Y-51750000D03*
%TD*%
M02*
